<svg width="121" height="100" viewBox="0 0 121 100" fill="none" xmlns="http://www.w3.org/2000/svg">
<g clip-path="url(#clip0)">
<path d="M48.9871 58.2691C47.2012 57.7354 45.4748 56.9645 43.8675 56.0158C44.2842 55.3042 44.8795 53.8218 44.4033 51.6871C43.9866 49.9081 41.9625 47.8327 41.9625 47.8327C41.9625 47.8327 41.1886 50.6197 41.6649 52.9916C41.8435 53.8811 42.2006 54.5926 42.4983 55.1263C40.5338 53.8218 38.8074 52.2207 37.3191 50.4418C37.9144 50.0267 39.1646 48.7815 39.5813 46.5282C39.879 44.69 38.7479 42.0216 38.7479 42.0216C38.7479 42.0216 37.0215 44.3342 36.5452 46.7061C36.3071 47.8327 36.4262 48.7815 36.6048 49.4338C35.176 47.5955 34.045 45.5201 33.2711 43.2668C34.045 43.0889 35.6523 42.5553 36.9024 40.717C37.974 39.1753 38.093 36.2697 38.093 36.2697C38.093 36.2697 35.5332 37.6336 34.1045 39.5904C33.3901 40.5984 33.0925 41.4879 32.9734 42.1995C32.3186 40.1241 31.9019 37.9301 31.8423 35.6175C32.5567 35.6768 34.3426 35.6175 36.1285 34.135C37.5573 32.9491 38.4502 30.1621 38.4502 30.1621C38.4502 30.1621 35.5928 30.8144 33.6878 32.2968C32.6758 33.0677 32.14 33.9571 31.8423 34.6094C31.8423 32.2968 32.1995 29.9842 32.8543 27.8495C33.5687 28.0867 35.2356 28.5018 37.2596 27.6123C38.9265 26.9008 40.5933 24.4696 40.5933 24.4696C40.5933 24.4696 40.2957 24.4696 39.8194 24.4696C38.8074 24.4696 36.962 24.5882 35.4737 25.1811C34.4021 25.5962 33.6878 26.1892 33.2115 26.6636C33.8664 24.7661 34.7593 22.9278 35.8904 21.2082C36.5452 21.6233 38.093 22.3349 40.2957 21.8605C42.0816 21.5047 44.2247 19.4886 44.2247 19.4886C44.2247 19.4886 42.4983 19.0142 40.5933 19.0142C40.0575 19.0142 39.5813 19.0735 39.0455 19.1328C38.1526 19.3107 37.4382 19.6072 36.9024 19.9037C37.8549 18.6584 38.8669 17.5318 40.0575 16.4644C40.0575 16.4644 40.0575 16.4051 40.1171 16.4051C41.1886 16.583 42.915 16.6423 44.8795 15.6343C46.844 14.6262 48.63 11.602 48.63 11.602C48.5109 11.602 45.0581 11.602 42.4983 12.8473C40.5933 13.7368 39.7004 15.0413 39.3432 15.6936C38.986 15.9901 38.6883 16.2865 38.3907 16.583C38.5098 16.3458 38.5693 16.0493 38.6288 15.7529C39.1646 13.381 38.4502 10.594 38.4502 10.594C38.4502 10.594 36.3666 12.6101 35.8904 14.389C35.3546 16.583 36.0095 18.1841 36.3666 18.8363C35.3546 20.1409 34.4617 21.5047 33.6878 22.9871C33.6878 22.8092 33.7473 22.6314 33.7473 22.3942C33.7473 19.963 32.4376 17.3539 32.4376 17.3539C32.4376 17.3539 30.8303 19.7851 30.7708 21.6233C30.7112 24.1138 31.9614 25.5962 32.3781 25.952C31.8423 27.4344 31.4256 28.9762 31.1875 30.5179V30.4586C30.5922 28.146 28.6277 25.952 28.6277 25.952C28.6277 25.952 27.6752 28.6797 28.0919 30.5179C28.6872 33.127 30.4731 34.1943 30.8303 34.3722C30.8303 34.4908 30.8303 34.5501 30.8303 34.6687C30.8303 36.0919 30.9494 37.4557 31.1875 38.8195C31.1875 38.7602 31.128 38.7602 31.128 38.7009C29.6992 36.7441 27.1394 35.3803 27.1394 35.3803C27.1394 35.3803 27.2585 38.2859 28.33 39.8276C29.6992 41.7844 31.4851 42.2588 32.14 42.4367C32.6758 44.097 33.3306 45.6387 34.164 47.1212C34.1045 47.0619 34.045 47.0026 33.9854 47.0026C31.9614 45.6387 29.1039 45.2236 29.1039 45.2236C29.1039 45.2236 30.1755 47.9513 31.6637 49.0187C33.6282 50.4418 35.5332 50.2639 36.1285 50.2046C37.2596 51.6871 38.5098 53.0509 39.9385 54.2368C39.7004 54.1775 39.4622 54.1182 39.2241 54.0589C38.8074 53.9996 38.3907 53.9996 38.0335 53.9996C36.0095 53.9996 34.045 54.5926 34.045 54.5926C34.045 54.5926 36.1881 56.5494 38.0335 56.8459C40.2361 57.261 41.7839 56.4308 42.4388 56.0751C44.4628 57.3796 46.6654 58.4469 49.0467 59.2178C49.1062 59.2178 49.1657 59.2178 49.2253 59.2178C49.4634 59.2178 49.7015 59.0399 49.761 58.862C49.4039 58.6841 49.2848 58.3876 48.9871 58.2691Z" fill="#3895B5"/>
<path d="M89.3489 38.938C89.2893 38.9973 89.2893 38.9973 89.2893 39.0566C89.5275 37.6927 89.6465 36.2696 89.6465 34.9058C89.6465 34.7872 89.6465 34.7279 89.6465 34.6093C90.0037 34.4314 91.7896 33.364 92.3849 30.755C92.8017 28.976 91.8492 26.1891 91.8492 26.1891C91.8492 26.1891 89.9442 28.3831 89.2893 30.6957V30.755C89.0512 29.2132 88.6345 27.6715 88.0987 26.1891C88.5154 25.774 89.7656 24.3508 89.7061 21.8604C89.6465 20.0221 88.0392 17.591 88.0392 17.591C88.0392 17.591 86.7295 20.2 86.7295 22.6312C86.7295 22.8091 86.7295 23.0463 86.7891 23.2242C86.0152 21.8011 85.1222 20.3779 84.1102 19.0734C84.4674 18.4211 85.1817 16.8201 84.5864 14.6261C84.1102 12.8472 82.0266 10.8311 82.0266 10.8311C82.0266 10.8311 81.3718 13.6773 81.848 15.9899C81.9076 16.2864 82.0266 16.5829 82.0861 16.8201C81.7885 16.5236 81.4313 16.2271 81.1336 15.9306C80.7765 15.2784 79.824 13.9738 77.9785 13.0844C75.3592 11.8391 71.9064 11.8391 71.8469 11.8391C71.8469 11.8391 73.6328 14.8633 75.5973 15.8713C77.5618 16.8794 79.2882 16.8201 80.3598 16.6422C80.3598 16.6422 80.3598 16.7015 80.4193 16.7015C81.6099 17.7688 82.6219 18.8955 83.5744 20.1407C83.0386 19.8442 82.3243 19.4885 81.4313 19.3699C80.9551 19.3106 80.4193 19.2513 79.8835 19.2513C77.9785 19.2513 76.2521 19.7257 76.2521 19.7257C76.2521 19.7257 78.3357 21.7418 80.1812 22.0975C82.3243 22.5719 83.9316 21.8604 84.5864 21.4453C85.7175 23.1649 86.6105 25.0031 87.2653 26.9006C86.7891 26.4263 86.0747 25.8333 85.0031 25.4182C83.4553 24.8252 81.6694 24.7066 80.6574 24.7066C80.1812 24.7066 79.8835 24.7066 79.8835 24.7066C79.8835 24.7066 81.5504 27.0785 83.2172 27.8494C85.2413 28.7388 86.9081 28.3238 87.6225 28.0866C88.2773 30.2806 88.575 32.5339 88.6345 34.8465C88.3369 34.1942 87.8011 33.3047 86.7891 32.5339C84.8841 31.0514 82.0266 30.3992 82.0266 30.3992C82.0266 30.3992 82.9196 33.1861 84.3483 34.3721C86.1342 35.8545 87.9201 35.9138 88.6345 35.8545C88.575 38.1078 88.1583 40.3611 87.5034 42.4365C87.3844 41.725 87.0867 40.8355 86.3723 39.8274C84.9436 37.8706 82.3838 36.5068 82.3838 36.5068C82.3838 36.5068 82.5029 39.4124 83.5744 40.9541C84.8246 42.7923 86.4319 43.326 87.2058 43.5039C86.3723 45.6979 85.2413 47.7733 83.8721 49.6708C84.0507 49.0185 84.1697 48.0698 83.9316 46.9431C83.4553 44.5712 81.729 42.2586 81.729 42.2586C81.729 42.2586 80.5979 44.927 80.8955 46.7652C81.2527 49.0185 82.5624 50.2045 83.1577 50.6789C81.6694 52.4578 79.943 54.0588 77.9785 55.3634C78.3357 54.8297 78.6334 54.1181 78.812 53.2286C79.2882 50.8568 78.5143 48.0698 78.5143 48.0698C78.5143 48.0698 76.4307 50.1452 76.0735 51.9241C75.5973 53.9995 76.2521 55.5412 76.6093 56.2528C75.002 57.1423 73.3351 57.9131 71.4897 58.5061C71.192 58.6247 71.0134 58.9212 71.1325 59.2177C71.192 59.4549 71.4302 59.5735 71.6683 59.5735C71.7278 59.5735 71.7873 59.5735 71.8469 59.5735C74.2281 58.8026 76.4903 57.7945 78.4548 56.4307C79.1096 56.8458 80.6574 57.6166 82.86 57.2016C84.7055 56.9051 86.8486 54.9483 86.8486 54.9483C86.8486 54.9483 84.9436 54.3553 82.86 54.3553C82.4433 54.3553 82.0266 54.3553 81.6694 54.4146C81.4313 54.4739 81.1337 54.5332 80.9551 54.5925C82.3838 53.4065 83.6339 52.0427 84.765 50.5603C85.3603 50.6789 87.2653 50.7975 89.2298 49.3743C90.7181 48.307 91.7896 45.6386 91.7896 45.5793C91.7896 45.5793 88.8726 45.9944 86.9081 47.3582C86.8486 47.4175 86.7891 47.4768 86.7295 47.4768C87.563 45.9944 88.2178 44.4526 88.7536 42.7923C89.4084 42.6737 91.1943 42.1993 92.5635 40.1832C93.6351 38.6415 93.7541 35.7952 93.7541 35.7359C93.3374 35.6173 90.7776 36.9812 89.3489 38.938Z" fill="#3895B5"/>
<path d="M59.9408 6.26528H63.334L64.8818 3.41901H64.8223C62.5601 3.89339 60.298 2.35166 59.9408 0.0390625C59.5836 2.35166 57.381 3.83409 55.0593 3.41901H54.9998L56.5476 6.26528H59.9408Z" fill="#3895B5"/>
<path d="M66.3106 53.2288C65.8939 53.2288 65.4772 53.3474 65.0605 53.5845C64.8819 53.7031 64.7628 53.8217 64.6437 53.9403C64.3461 53.6438 63.9294 53.4067 63.4531 53.3474C62.8578 53.2288 62.322 53.3474 61.7863 53.7031C61.31 54.0589 60.9528 54.5333 60.8933 55.1263C60.7743 55.7193 60.8933 56.2529 61.2505 56.7866C61.4886 57.1424 61.9053 57.4389 62.322 57.6168L59.9408 59.2178L57.5596 57.6168C57.9763 57.4389 58.393 57.2017 58.6312 56.7866C58.9883 56.3122 59.1074 55.7193 58.9883 55.1263C58.8693 54.5333 58.5716 54.0589 58.0954 53.7031C57.6191 53.3474 57.0238 53.2288 56.4285 53.3474C55.9523 53.4067 55.5951 53.6438 55.2379 53.9403C55.1188 53.8217 54.9998 53.6438 54.8212 53.5845C54.464 53.3474 53.9878 53.2288 53.5711 53.2288C52.8567 53.2288 52.2018 53.5845 51.7851 54.1775C51.4279 54.6519 51.3089 55.2449 51.4279 55.8378C51.547 56.4308 51.8447 56.9052 52.3209 57.261C52.4995 57.3796 52.6186 57.4389 52.7972 57.4982C52.6186 57.9133 52.559 58.3283 52.6186 58.8027C52.7376 59.3957 53.0353 59.8701 53.5115 60.2258C53.8687 60.463 54.3449 60.5816 54.7617 60.5816C55.476 60.5816 56.1309 60.2258 56.5476 59.6329C56.8452 59.2178 56.9643 58.8027 56.9048 58.3283L58.9883 59.7515L52.9162 63.9023C52.7376 64.0209 52.6781 64.3174 52.7972 64.5546C52.8567 64.6731 53.0353 64.7324 53.1543 64.7324C53.2734 64.7324 53.3329 64.7324 53.3925 64.6731L54.1664 64.1395L55.476 66.037L56.5476 65.2661L55.7142 64.0802L57.0238 63.1907L57.8573 64.3767L58.9288 63.6058L57.6191 61.7083L59.6432 60.3444L61.6672 61.7083L60.3575 63.6058L61.4291 64.3767L62.2625 63.1907L63.5722 64.0802L62.7388 65.2661L63.8103 66.037L65.12 64.1395L65.8939 64.6731C65.9534 64.7324 66.0725 64.7324 66.132 64.7324C66.2511 64.7324 66.4297 64.6731 66.4892 64.5546C66.6082 64.3767 66.6083 64.0802 66.3701 63.9023L60.298 59.7515L62.3816 58.3283C62.3816 58.8027 62.5006 59.2178 62.7388 59.6329C63.1555 60.2258 63.8698 60.5816 64.5247 60.5816C64.9414 60.5816 65.3581 60.463 65.7748 60.2258C66.2511 59.8701 66.6083 59.3957 66.6678 58.8027C66.7273 58.3283 66.6678 57.9133 66.4892 57.4982C66.6678 57.4389 66.8464 57.3203 66.9654 57.261C67.4417 56.9052 67.7989 56.4308 67.8584 55.8378C67.9775 55.2449 67.8584 54.7112 67.5012 54.1775C67.6798 53.5845 67.025 53.2288 66.3106 53.2288ZM52.3804 55.4228C52.3804 55.1263 52.44 54.8891 52.6186 54.6519C52.6781 54.5926 52.7376 54.5333 52.7376 54.474C52.7376 54.474 52.7376 54.474 52.7972 54.4147C52.8567 54.3554 52.8567 54.3554 52.9162 54.2961C52.9757 54.2368 53.0353 54.2368 53.0948 54.1775H53.1543C53.3329 54.0589 53.5711 53.9996 53.7496 53.9996C54.464 53.9996 55.0593 54.5926 55.0593 55.3042C55.0593 56.0157 54.464 56.6087 53.7496 56.6087C52.9757 56.7866 52.3804 56.1936 52.3804 55.4228ZM54.9403 59.6922C54.2259 59.6922 53.6306 59.0992 53.6306 58.3876C53.6306 57.854 53.9282 57.4389 54.3449 57.2017L54.464 57.1424C54.6426 57.0831 54.7617 57.0238 54.9403 57.0238C55.6546 57.0238 56.2499 57.6168 56.2499 58.3283C56.2499 59.0399 55.6546 59.6922 54.9403 59.6922ZM56.8452 56.9052C56.1309 56.9052 55.5356 56.3122 55.5356 55.6007V55.5414C55.5951 54.8298 56.1309 54.2961 56.8452 54.2961C56.9643 54.2961 57.0238 54.2961 57.1429 54.3554C57.2024 54.3554 57.2619 54.4147 57.3215 54.4147C57.381 54.474 57.5001 54.474 57.5596 54.5333C57.8573 54.7112 58.0358 55.0077 58.0954 55.3635C58.0954 55.4821 58.0954 55.5414 58.0954 55.66C58.2144 56.3122 57.6191 56.9052 56.8452 56.9052ZM63.1555 56.9052C62.4411 56.9052 61.8458 56.3122 61.8458 55.6007C61.8458 55.4821 61.8458 55.4228 61.8458 55.3042C61.9053 54.9484 62.0839 54.6519 62.3816 54.474C62.4411 54.4147 62.5602 54.3554 62.6197 54.3554C62.6792 54.3554 62.7388 54.2961 62.7983 54.2961C62.9174 54.2961 62.9769 54.2368 63.0959 54.2368C63.8103 54.2368 64.3461 54.7705 64.4056 55.4821V55.5414C64.4651 56.3122 63.8698 56.9052 63.1555 56.9052ZM65.0605 59.6922C64.3461 59.6922 63.7508 59.0992 63.7508 58.3876C63.7508 57.6761 64.3461 57.0831 65.0605 57.0831C65.239 57.0831 65.4176 57.1424 65.5367 57.2017L65.6558 57.261C66.0725 57.4982 66.3701 57.9133 66.3701 58.4469C66.3701 59.0992 65.7748 59.6922 65.0605 59.6922ZM66.2511 56.7866C65.5367 56.7866 64.9414 56.1936 64.9414 55.4821C64.9414 54.7705 65.5367 54.1775 66.2511 54.1775C66.4892 54.1775 66.6678 54.2368 66.8464 54.3554H66.9059C66.9654 54.4147 67.025 54.4147 67.0845 54.474C67.144 54.5333 67.144 54.5333 67.2036 54.5926C67.2036 54.5926 67.2036 54.5926 67.2631 54.6519C67.3226 54.7112 67.3821 54.7705 67.3821 54.8298C67.5607 55.067 67.6203 55.3042 67.6203 55.5414C67.6203 56.1936 67.025 56.7866 66.2511 56.7866Z" fill="#3895B5"/>
<path d="M73.9304 40.5986C72.9779 40.2428 71.9064 40.0649 70.7158 40.0649C66.5486 40.0649 60.7146 42.081 53.0352 44.3343C43.1531 47.2399 41.3672 41.3102 41.3672 41.3102C41.3672 41.3102 41.4863 47.7143 51.1897 46.6469C60.8337 45.5796 65.1794 41.666 70.9539 41.4288C76.7284 41.1916 78.038 45.6389 78.038 45.6389C78.038 45.6389 78.0976 42.3182 73.9304 40.5986Z" fill="#3895B5"/>
<path d="M72.0255 42.437C71.6088 42.3777 71.2516 42.3777 70.8944 42.3777C66.7868 42.3777 64.1079 44.3345 64.1079 44.3345C64.1079 44.3345 66.7868 42.9707 71.0135 43.5636C75.3592 44.1566 76.6689 46.5285 76.6689 46.5285C76.6689 46.5285 76.7284 42.8521 72.0255 42.437Z" fill="#3895B5"/>
<path d="M48.0346 43.8601C52.7375 44.2752 59.4049 41.9033 59.4049 41.9033C59.4049 41.9033 53.3328 43.3264 49.1061 42.7334C44.7604 42.1405 43.4507 39.7686 43.4507 39.7686C43.4507 39.7686 43.3317 43.445 48.0346 43.8601Z" fill="#3895B5"/>
<path d="M50.5943 42.0218C52.6779 42.1404 55.2972 41.7846 58.0356 41.3695C58.869 39.7092 59.4643 37.3373 59.6429 34.0759C60.0001 26.4266 59.8215 14.745 59.5834 12.4917C59.5834 12.4917 56.3092 25.2999 53.6303 33.1865C51.904 38.286 49.5823 40.5986 47.7368 41.6067C48.2131 41.7253 48.6893 41.8439 49.2846 41.9032C49.7013 41.9625 50.1776 41.9625 50.5943 42.0218Z" fill="#3895B5"/>
<path d="M61.0718 34.0759C60.9527 37.1001 60.3574 39.3534 59.5835 41.073C64.3459 40.2428 69.0489 39.1755 71.2515 39.2348C71.5491 39.2348 71.7873 39.2941 72.0849 39.2941C72.3826 38.1081 72.5016 36.685 72.4421 35.084C71.9659 23.9954 60.4169 12.9661 60.4169 12.9661C60.4169 12.9661 61.4885 25.715 61.0718 34.0759Z" fill="#3895B5"/>
</g>
<g clip-path="url(#clip1)">
<path d="M1.87476 79.4217H4.04244C5.38991 79.4217 6.15153 80.0385 6.15153 81.0254C6.15153 82.0739 5.38991 82.6291 4.15961 82.6291H1.93335V79.4217H1.87476ZM1.87476 74.734H3.86668C5.03839 74.734 5.68284 75.2891 5.68284 76.276C5.68284 77.3245 4.92122 77.8797 3.74951 77.8797H1.87476V74.734ZM0.117188 73.0686V84.3561H4.04244C6.32728 84.3561 7.85051 83.2459 7.85051 81.2104C7.85051 79.7301 6.97173 78.9282 5.80001 78.4965C6.62021 78.0647 7.38183 77.3862 7.38183 75.9676C7.38183 74.1172 5.97577 73.0686 3.92526 73.0686H0.117188Z" fill="white"/>
<path d="M12.7131 73.0686V84.3561H19.5677V82.6291H14.4707V79.4834H18.9232V77.818H14.4707V74.734H19.4505V73.0686H12.7131Z" fill="white"/>
<path d="M26.2463 74.734H28.2383C29.5272 74.734 30.3474 75.3508 30.3474 76.6461C30.3474 77.9413 29.5271 78.6815 28.2968 78.6815H26.3049V74.734H26.2463ZM24.4888 73.0686V84.3561H26.2463V80.3469H27.4766H28.0625L30.3474 84.3561H32.3979L29.8787 79.9768C31.1676 79.4834 32.1049 78.3731 32.1049 76.6461C32.1049 74.3639 30.6403 73.0686 28.3554 73.0686H24.4888Z" fill="white"/>
<path d="M56.5353 73.0685V80.1001C56.5353 81.8888 55.6565 82.814 54.309 82.814C52.9616 82.814 52.0828 81.8888 52.0828 80.0384V73.0685H50.3252V80.0384C50.3252 82.999 51.907 84.4794 54.309 84.4794C56.711 84.4794 58.2929 82.999 58.2929 79.9767V73.0068L56.5353 73.0685Z" fill="white"/>
<path d="M70.3029 76.0292C70.3029 77.8796 71.3575 78.6197 73.3494 79.4833C75.0484 80.2234 75.3999 80.6552 75.3999 81.3953C75.3999 82.2589 74.7555 82.7523 73.7595 82.7523C72.6464 82.7523 71.7676 82.3205 70.8888 81.5187L70.0686 82.999C71.1231 83.9242 72.412 84.4177 73.7595 84.4177C75.7514 84.4177 77.1575 83.1841 77.1575 81.2103C77.1575 79.4833 76.2201 78.6814 74.2282 77.7562C72.5292 77.016 72.1191 76.646 72.1191 75.7824C72.1191 75.0423 72.705 74.4871 73.6423 74.4871C74.5211 74.4871 75.2827 74.8572 76.1615 75.474L76.8645 73.932C75.9858 73.1919 74.9312 72.8218 73.6423 72.8218C71.709 72.8835 70.3029 74.1787 70.3029 76.0292Z" fill="white"/>
<path d="M87.9958 73.0686L83.8362 78.5582V73.0686H82.0786V84.3561H83.8362V81.087L85.1837 79.4217L88.1715 84.3561H90.2806L86.414 77.8797L90.1049 73.0686H87.9958Z" fill="white"/>
<path d="M98.4828 75.474L100.006 80.0384H96.9595L98.4828 75.474ZM97.6626 73.0068L93.7373 84.356H95.4949L96.3737 81.7038H100.533L101.412 84.356H103.228L99.303 73.0068H97.6626Z" fill="white"/>
<path d="M106.157 73.0686V74.7957H108.97V84.3561H110.727V74.7957H113.539V73.0686H106.157Z" fill="white"/>
<path d="M120.159 73.0686H118.402V84.3561H120.159V73.0686Z" fill="white"/>
<path d="M41.3617 78.0647V79.7301H43.6465V82.1973C43.1193 82.5674 42.4748 82.8141 41.7132 82.8141C40.8344 82.8141 40.0728 82.444 39.5455 81.8272L38.6082 83.4309C39.4284 84.1094 40.4829 84.5411 41.6546 84.5411C43.1778 84.5411 44.4082 83.9243 45.2869 83.1842V78.1264L41.3617 78.0647Z" fill="white"/>
<path d="M37.4363 81.8889L35.9717 84.2944H38.0222L38.5495 83.3692L39.4868 81.7655C39.0767 81.2721 38.7838 80.5936 38.608 79.7917L37.4363 81.8889Z" fill="white"/>
<path d="M36.7334 78.6196V78.7429C36.7334 79.6065 36.8506 80.4083 37.0849 81.0868L38.5496 78.6196V78.5579C38.5496 76.214 39.8384 74.6104 41.596 74.6104C42.7091 74.6104 43.4122 74.9804 44.1152 75.5972L44.9354 74.0552C44.0566 73.3151 43.1192 72.8833 41.596 72.8833C38.7839 72.8833 36.7334 75.3505 36.7334 78.6196Z" fill="white"/>
</g>
<g clip-path="url(#clip2)">
<path d="M19.855 93.2375H19.7961V99.1589H23.1506V98.2953H20.6789V93.2375H19.855Z" fill="#3895B5"/>
<path d="M28.0945 94.2248L28.9773 97.0004H27.2118L28.0945 94.2248ZM27.6826 93.1763L25.6228 99.1593H26.5056L26.9764 97.8023H29.2715L29.7423 99.1593H30.6839L28.6242 93.1763H27.6826Z" fill="#3895B5"/>
<path d="M36.6278 93.2378L34.4504 96.2601V93.2378H33.5676H33.5088V99.1591H34.4504V97.4321L35.1566 96.4452L36.7455 99.1591H37.8048L35.8039 95.705L37.6871 93.2378H36.6278Z" fill="#3895B5"/>
<path d="M40.7473 93.2378H40.6885V99.1591H44.2783V98.3573H41.5712V96.5685H43.9252V95.7667H41.5712V94.0396H44.2195V93.2378H40.7473Z" fill="#3895B5"/>
<path d="M47.1031 94.7799C47.1031 95.7668 47.5739 96.0752 48.692 96.5687C49.5748 96.9388 49.8102 97.1855 49.8102 97.6172C49.8102 98.1107 49.4571 98.3574 48.8686 98.3574C48.3978 98.3574 47.8681 98.1724 47.3973 97.8023L46.9854 98.5424C47.515 98.9742 48.2212 99.2209 48.8686 99.2209C49.9867 99.2209 50.6929 98.5424 50.6929 97.5556C50.6929 96.6303 50.2221 96.2603 49.1628 95.7668C48.3389 95.3967 47.9858 95.2117 47.9858 94.7183C47.9858 94.2865 48.3389 93.9781 48.8686 93.9781C49.2805 93.9781 49.6925 94.1015 50.1633 94.4099L50.5164 93.6697C50.0456 93.3613 49.5159 93.1763 48.8686 93.1763C47.8093 93.1146 47.1031 93.7931 47.1031 94.7799Z" fill="#3895B5"/>
<path d="M53.7532 93.2378V99.1591H54.6359V93.2378H53.7532Z" fill="#3895B5"/>
<path d="M58.873 94.0396H59.7558C60.8151 94.0396 61.4624 94.8415 61.4624 96.1368V96.1984C61.4624 97.4937 60.8151 98.2956 59.7558 98.2956H58.873V94.0396ZM57.9902 93.2378L57.9314 99.2208H59.6969C61.3447 99.2208 62.404 98.0489 62.404 96.2601V96.1984C62.404 94.4714 61.3447 93.2378 59.6969 93.2378H57.9902Z" fill="#3895B5"/>
<path d="M65.5232 93.2378H65.4644V99.1591H69.0542V98.3573H66.3471V96.5685H68.7011V95.7667H66.3471V94.0396H68.9954V93.2378H65.5232Z" fill="#3895B5"/>
<path d="M75.7632 96.1367V96.1984C75.7632 97.9871 76.7636 99.2207 78.2937 99.2207C78.9999 99.2207 79.5296 99.0357 80.0592 98.5422L79.6473 97.8637C79.2942 98.1721 78.9411 98.3572 78.4114 98.3572C77.411 98.3572 76.7636 97.4937 76.7636 96.1984V96.1367C76.7636 94.8414 77.411 93.9779 78.4114 93.9779C78.8234 93.9779 79.2353 94.1012 79.6473 94.4713L80.0592 93.7312C79.7061 93.4228 79.2353 93.176 78.4114 93.176C76.8225 93.1144 75.7632 94.348 75.7632 96.1367Z" fill="#3895B5"/>
<path d="M83.0606 93.2378H83.0017V99.1591H86.3562V98.2956H83.9433V93.2378H83.0606Z" fill="#3895B5"/>
<path d="M92.3589 93.2378V97.0003C92.3589 97.9255 91.8881 98.4806 91.123 98.4806C90.358 98.4806 89.8871 97.9255 89.8871 97.0003V93.2995H89.0632H89.0044V97.0003C89.0044 98.5423 89.7695 99.3441 91.123 99.3441C92.4766 99.3441 93.2416 98.4806 93.2416 96.9386V93.2995H92.3589V93.2378Z" fill="#3895B5"/>
<path d="M97.3022 96.5685H98.538C99.2442 96.5685 99.6562 96.8769 99.6562 97.4937C99.6562 98.0489 99.2442 98.4189 98.5969 98.4189H97.3022V96.5685ZM97.3022 94.0396H98.3615C99.0088 94.0396 99.3619 94.348 99.3619 94.9032C99.3619 95.4583 98.95 95.7667 98.3026 95.7667H97.3022V94.0396ZM96.4783 93.2378L96.4194 99.2208H98.538C99.8327 99.2208 100.539 98.6657 100.539 97.6171C100.539 96.9386 100.245 96.5685 99.5385 96.2601L99.1854 96.1368L99.4796 95.9517C99.9504 95.705 100.186 95.2732 100.186 94.7181C100.186 93.7929 99.4796 93.2378 98.3615 93.2378H96.4783Z" fill="#3895B5"/>
</g>
<defs>
<clipPath id="clip0">
<rect width="66.6148" height="65.9979" fill="white" transform="translate(27.1394 0.0390625)"/>
</clipPath>
<clipPath id="clip1">
<rect width="120.277" height="11.7193" fill="white" transform="translate(0 72.8218)"/>
</clipPath>
<clipPath id="clip2">
<rect width="80.8012" height="6.16803" fill="white" transform="translate(19.7378 93.1763)"/>
</clipPath>
</defs>
</svg>
