<svg width="509" height="503" viewBox="0 0 509 503" fill="none" xmlns="http://www.w3.org/2000/svg">
<path d="M58.6269 1.79344C70.1013 1.79344 79.4242 11.1193 79.4242 22.5973V58.6454C79.4242 70.1234 70.1013 79.4492 58.6269 79.4492H22.5902C11.1158 79.4492 1.79287 70.1234 1.79287 58.6454V22.5973C1.79287 11.1193 11.1158 1.79344 22.5902 1.79344H58.6269ZM58.6269 0H22.5902C10.0401 0 0 10.2226 0 22.5973V58.6454C0 71.1994 10.2194 81.2427 22.5902 81.2427H58.6269C71.177 81.2427 81.2171 71.0201 81.2171 58.6454V22.5973C81.2171 10.2226 70.9977 0 58.6269 0Z" fill="#CB9866"/>
<path d="M71.1772 17.0378V16.6791L70.46 15.9617L70.1015 15.7824C68.4879 15.2443 67.2329 14.527 65.7986 13.9889C59.5235 11.1194 55.0413 8.9673 40.3398 13.6302L39.4434 13.9889L39.8019 14.8856C39.8019 15.065 40.1605 15.603 40.8777 16.6791L41.2362 17.2171L41.9534 16.6791C52.5313 13.2715 58.9857 13.4509 66.8743 17.7551C67.2329 17.9345 67.7707 19.0105 67.7707 19.7279L67.0536 77.6559C67.0536 78.3733 65.6193 77.4766 69.5636 77.8353L72.4322 75.6832" fill="#CB9866"/>
<path d="M41.9534 15.0655L43.567 16.8589L51.097 15.0655L52.352 12.9133L47.5113 13.4514L41.9534 15.0655Z" fill="#CB9866"/>
<path d="M41.9534 15.0637L43.567 16.8572L51.097 15.0637L52.352 12.9116L47.5113 13.4497L41.9534 15.0637Z" fill="#CB9866"/>
<path d="M43.2082 17.755L40.3396 14.5268L47.3318 12.554L54.1447 11.8367L51.6347 15.7822L43.2082 17.755ZM43.5668 15.4235L43.9253 15.7822L50.559 14.3475L50.7383 14.1681L47.6904 14.3475L43.5668 15.4235Z" fill="#CB9866"/>
<path d="M13.6257 18.8308C25.2794 15.0646 27.0723 18.1135 32.9887 20.2656C33.168 20.2656 33.3473 20.4449 33.3473 20.6243C33.8852 37.1239 34.0645 62.5907 34.0645 62.5907C34.0645 62.5907 31.913 62.4114 31.913 62.0527L32.6302 22.2384C32.6302 21.521 32.2716 20.8036 31.913 20.4449C26.5344 17.5754 22.2315 17.2167 14.7015 19.7276C13.805 19.1895 13.6257 18.8308 13.6257 18.8308Z" fill="#CB9866"/>
<path d="M13.6257 18.8304C25.2794 15.0641 27.0723 18.113 32.9887 20.2651C33.168 20.2651 33.3473 20.4444 33.3473 20.6238C33.8852 37.1234 34.0645 62.5902 34.0645 62.5902C34.0645 62.5902 31.913 62.4109 31.913 62.0522L32.6302 22.2379C32.6302 21.5205 32.2716 20.8031 31.913 20.4444C26.5344 17.5749 22.2315 17.2163 14.7015 19.7271C13.805 19.189 13.6257 18.8304 13.6257 18.8304Z" fill="#CB9866"/>
<path d="M34.7817 63.4877H33.8852C31.9131 63.3083 30.8373 63.129 30.8373 62.0529L31.5545 22.2386C31.5545 21.8799 31.3752 21.3419 31.1959 21.1626C25.9966 18.2931 21.6937 18.2931 14.7015 20.6245L14.1636 20.8039L13.8051 20.2658C13.2672 19.5485 13.0879 19.1898 13.0879 19.1898L12.55 18.2931L13.4465 17.9344C23.3073 14.8855 26.5344 16.3203 30.4788 18.1137C31.3752 18.4724 32.2716 19.0104 33.3474 19.3691C33.8852 19.5485 34.4231 19.9072 34.4231 20.6245C34.9609 36.9448 35.1402 62.2323 35.1402 62.591L34.7817 63.4877ZM32.6302 61.5149C32.8095 61.5149 32.9888 61.5149 32.9888 61.5149C32.9888 59.1834 32.9888 52.7271 32.8095 45.0153L32.6302 61.5149Z" fill="#CB9866"/>
<path d="M14.5222 19.1895L15.7772 20.4449L20.618 19.1895L21.5144 17.9341L18.2872 18.2928L14.5222 19.1895Z" fill="#CB9866"/>
<path d="M14.5225 19.1897L15.7775 20.4451L20.6182 19.1897L21.5147 17.9343L18.2875 18.293L14.5225 19.1897Z" fill="#CB9866"/>
<path d="M15.4187 21.5218L12.9087 18.6523L18.108 17.3969L23.1281 16.8589L21.3352 19.9077L15.4187 21.5218Z" fill="#CB9866"/>
<path d="M65.0813 80.3456L0.896484 54.6995L1.61363 53.0854L65.7984 78.5522L65.0813 80.3456ZM69.922 77.8348L0.896484 50.2159L1.61363 48.6018L70.6392 76.2207L69.922 77.8348Z" fill="#CB9866"/>
<path d="M218.232 7.34734C217.874 6.98894 217.336 6.45133 216.978 6.09292C214.112 3.40487 210.35 1.43363 206.41 0.537611C205.872 0.358407 205.156 0.358407 204.618 0.179204C203.723 2.53682e-07 202.648 0 201.752 0H165.749C164.853 0 163.957 2.53682e-07 163.062 0.179204C162.524 0.179204 161.808 0.358407 161.271 0.537611C156.972 1.25443 153.031 3.40487 149.986 6.27212C149.628 6.63053 149.09 7.16814 148.732 7.52655C145.149 11.469 143 16.8451 143 22.4004V58.4204C143 64.1549 145.149 69.3518 148.553 73.2943C148.911 73.8319 149.269 74.1903 149.807 74.5487C152.852 77.5951 156.792 79.5664 161.091 80.4624C161.629 80.6416 162.345 80.6416 162.883 80.8208C163.778 81 164.674 81 165.57 81H201.573C202.469 81 203.544 81 204.439 80.8208C204.977 80.8208 205.693 80.6416 206.231 80.4624C210.35 79.5664 213.933 77.7743 216.799 75.0863C217.157 74.7279 217.694 74.1903 218.053 73.8319C221.814 69.8894 223.964 64.3341 223.964 58.5996V22.5796C224.322 16.6659 221.993 11.2898 218.232 7.34734ZM215.724 7.16814L213.216 9.67699H206.41V2.32965C209.813 3.22566 213.037 4.8385 215.724 7.16814ZM165.749 1.79204H201.752C202.648 1.79204 203.723 1.79204 204.618 1.97124V9.67699H196.737L192.438 5.37611H174.884L170.406 9.85619H163.062V1.97124C163.778 1.79204 164.674 1.79204 165.749 1.79204ZM161.271 2.32965V10.0354H153.568L151.419 7.70575C153.927 5.0177 157.33 3.22566 161.271 2.32965ZM144.97 22.5796C144.97 17.3827 146.941 12.5442 150.165 8.96018L152.852 11.8274H171.122L175.6 7.34734H182.945V31.1814H175.6L171.122 26.7013H152.673L148.195 31.1814H144.791V22.5796H144.97ZM192.438 32.9734L196.737 28.6726H204.618V52.6858H196.737L192.438 48.385H174.884L170.585 52.865H163.062V28.4934H170.406L174.884 32.9734H192.438ZM144.97 32.9734H149.09L153.568 28.4934H161.271V52.865H153.568L149.09 48.385H144.97V32.9734ZM144.97 58.5996V49.9978H148.195L152.673 54.4779H171.122L175.421 49.9978H182.765V73.8319H175.421L170.943 69.3518H152.673L149.986 72.219C146.762 68.635 144.97 63.7965 144.97 58.5996ZM151.24 73.4734L153.568 71.1438H161.271V78.8496C157.33 78.1327 153.927 76.1615 151.24 73.4734ZM201.752 79.3872H165.749C164.853 79.3872 163.957 79.3872 163.062 79.208V71.1438H170.406L174.884 75.6239H192.438L196.737 71.323H204.618V79.0288C203.544 79.3872 202.648 79.3872 201.752 79.3872ZM206.41 78.8496V71.5022H213.216L215.724 74.0111C213.037 76.3407 209.813 78.1327 206.41 78.8496ZM222.531 58.5996C222.531 63.9757 220.381 68.9934 216.978 72.7566L213.933 69.7102H196.021L191.722 74.0111H184.736V50.177H191.722L196.021 54.4779H213.933L218.232 50.177H222.531V58.5996ZM222.531 48.385H217.515L213.216 52.6858H206.41V28.6726H213.216L217.515 32.9734H222.531V48.385ZM222.531 31.1814H218.232L213.933 26.8805H196.021L191.722 31.1814H184.736V7.34734H191.722L196.021 11.6482H213.933L216.978 8.60177C220.381 12.365 222.531 17.2035 222.531 22.7589V31.1814Z" fill="#CB9866"/>
<path d="M507.276 17.6009C507.276 17.4213 507.276 17.2417 507.095 17.0621C506.914 16.5233 506.914 15.9845 506.733 15.6253C505.828 12.7517 504.199 10.0576 502.207 7.72284C501.845 7.36364 501.664 7.18404 501.302 6.82483C501.121 6.64523 501.121 6.64523 500.94 6.46563C498.587 4.13082 495.691 2.33481 492.614 1.25721C492.433 1.25721 492.252 1.07761 492.071 1.07761C491.89 1.07761 491.528 0.898004 491.347 0.898004C491.166 0.898004 490.804 0.718404 490.623 0.718404C488.812 0.179601 486.821 0 485.011 0H479.762H477.227H464.556H462.022H449.532H448.627C448.084 0 447.36 0 446.817 0.179601C435.594 1.07761 426.724 9.87805 426 20.8337C426 21.3725 426 22.0909 426 22.6297V58.7295C426 60.7051 426.362 62.5011 426.724 64.2971C426.724 64.4767 426.905 64.6563 426.905 64.8359C427.086 65.1951 427.086 65.5543 427.267 65.7339C427.267 65.9135 427.267 66.0931 427.448 66.0931C428.534 69.1463 430.344 72.02 432.698 74.3548C432.879 74.5344 433.06 74.5344 433.06 74.714C433.422 74.8936 433.603 75.2528 433.965 75.4324C436.318 77.408 439.033 79.0244 442.11 79.9224C442.291 79.9224 442.472 79.9224 442.472 80.102C443.015 80.2816 443.558 80.4612 444.102 80.4612C445.731 80.8204 447.179 81 448.989 81H455.506H458.04H470.53H473.064H485.373C486.097 81 486.64 81 487.364 80.8204C487.545 80.8204 487.726 80.8204 487.907 80.8204H488.088C498.406 79.5632 506.552 71.3016 507.819 61.2439C507.819 61.0643 507.819 61.0643 507.819 60.8847C507.819 60.3459 508 59.6275 508 58.9091C508 58.7295 508 58.5499 508 58.3703C508 58.3703 508 58.3703 508 58.1907V46.5166V44.0022V31.4302V28.9157V22.6297C507.819 20.8337 507.638 19.2173 507.276 17.6009ZM505.285 17.0621L482.839 39.3326V26.9401L500.94 8.98004C503.113 11.1353 504.561 14.0089 505.285 17.0621ZM499.854 7.54324L483.02 24.2461V13.2905H480.667L491.347 2.69401C494.605 3.59202 497.501 5.38803 499.854 7.54324ZM485.011 1.61641C486.459 1.61641 487.907 1.79601 489.174 1.97561L477.951 13.1109H466.185L477.951 1.43681H485.011V1.61641ZM475.417 1.61641L463.651 13.2905H450.98L462.565 1.61641H475.417ZM448.627 1.61641H460.212L448.627 13.2905H437.947V24.0665L427.81 34.1242V22.6297C427.81 22.2705 427.81 21.9113 427.81 21.5521L447.722 1.79601C448.084 1.61641 448.446 1.61641 448.627 1.61641ZM437.766 26.4013V38.7938L427.629 48.8514V36.459L437.766 26.4013ZM444.826 1.97561L428.172 18.4989C429.62 10.2372 436.318 3.59202 444.826 1.97561ZM427.629 58.5499V51.5455L439.033 40.2306H450.799L428.172 62.6807C427.81 61.4235 427.629 59.9867 427.629 58.5499ZM428.715 64.6563L453.514 40.051H467.09L433.784 73.0976C431.43 70.7627 429.62 67.8891 428.715 64.6563ZM435.051 74.3548L469.444 40.2306H481.934L443.196 78.6652C440.3 77.7672 437.404 76.3304 435.051 74.3548ZM490.261 78.6652L505.466 63.5787C503.475 71.1219 497.682 76.8692 490.261 78.6652ZM506.009 58.5499C506.009 59.2683 506.009 59.8071 505.828 60.5255L487.002 79.204C486.278 79.204 485.735 79.3836 485.011 79.3836H474.512L506.009 48.133V58.5499ZM506.009 45.6186L471.978 79.3836H459.488L506.009 33.2262V45.6186ZM456.954 79.3836H448.627C447.541 79.3836 446.455 79.204 445.369 79.0244L505.647 19.0377C505.828 20.1153 506.009 21.1929 506.009 22.4501V30.5322L456.954 79.3836Z" fill="#CB9866"/>
<path d="M345.364 37.8413C343.391 37.3033 339.268 38.9174 339.626 44.2977C337.116 43.401 334.606 42.8629 332.096 42.5042C327.973 41.7869 329.228 37.1239 330.662 35.5098C331.021 34.9718 331.379 34.2544 331.379 33.3577C331.379 31.3849 329.766 29.7708 327.793 29.7708C327.435 29.7708 326.897 29.7708 326.538 29.9502C327.076 29.4122 327.435 28.6948 327.435 27.9774C327.435 26.3633 326.18 25.1079 324.566 25.1079C322.953 25.1079 321.698 26.3633 321.698 27.9774C321.698 28.6948 322.056 29.4122 322.594 29.9502C322.236 29.7708 321.877 29.7708 321.339 29.7708C319.367 29.7708 317.753 31.3849 317.753 33.3577C317.753 34.0751 317.933 34.7925 318.291 35.3305C319.726 36.9446 320.981 41.6075 316.857 42.3249C313.63 42.8629 310.94 43.401 309.506 43.939C309.865 38.738 305.92 37.1239 303.769 37.662C303.769 33.1784 300.721 31.3849 297.494 31.3849L307.893 56.3137C318.65 52.1888 329.407 51.8301 341.24 56.3137L351.639 31.3849C348.411 31.5643 345.364 33.3577 345.364 37.8413Z" fill="#CB9866"/>
<path d="M342.495 1.79344C353.969 1.79344 363.292 11.1193 363.292 22.5973V58.6454C363.292 70.1234 353.969 79.4492 342.495 79.4492H306.458C294.984 79.4492 285.661 70.1234 285.661 58.6454V22.5973C285.661 11.1193 294.984 1.79344 306.458 1.79344H342.495ZM342.495 0H306.458C293.908 0 283.868 10.2226 283.868 22.5973V58.6454C283.868 71.1994 294.088 81.2427 306.458 81.2427H342.495C355.045 81.2427 365.085 71.0201 365.085 58.6454V22.5973C365.085 10.2226 354.866 0 342.495 0Z" fill="#CB9866"/>
<path d="M52.3521 294.858L53.4278 292.168C53.6071 291.63 53.4278 291.271 52.8899 290.912C52.3521 290.733 51.9935 290.912 51.6349 291.45L50.5592 294.14C24.204 284.994 10.5782 309.026 10.3989 309.385C10.2196 309.743 10.2196 310.102 10.3989 310.281C10.5782 310.64 10.9367 310.64 11.2953 310.64C20.0804 309.564 26.3554 312.433 29.5826 318.711C29.4033 319.249 29.7619 319.607 30.2997 319.787C30.6583 319.787 30.8376 319.787 31.1962 319.607C34.4234 319.249 37.1127 318.89 39.802 319.607L26.1761 351.53C25.9969 352.068 26.1761 352.427 26.714 352.786C26.8933 352.786 26.8933 352.786 27.0726 352.786C27.4312 352.786 27.7897 352.606 27.969 352.248L41.5948 320.145C43.9256 321.221 46.077 323.194 48.587 326.602C48.587 326.96 48.7663 327.319 49.1249 327.498C49.4835 327.678 49.842 327.498 50.2006 327.319C62.0336 324.27 67.7708 334.134 67.9501 334.493C68.1293 334.851 68.4879 335.031 68.8465 334.851C69.2051 334.851 69.5636 334.493 69.5636 334.134C70.9979 326.602 74.9423 306.156 52.3521 294.858ZM49.3042 324.808C44.822 318.89 40.6984 317.455 36.2162 317.455C34.7819 317.455 33.3476 317.634 31.9133 317.814C33.3476 313.689 38.547 302.39 50.5592 296.831C51.6349 299.879 55.0414 311.537 49.3042 324.808Z" fill="#CB9866"/>
<path d="M58.6269 283.021C70.1013 283.021 79.4242 292.347 79.4242 303.825V339.873C79.4242 351.351 70.1013 360.677 58.6269 360.677H22.5902C11.1158 360.677 1.79287 351.351 1.79287 339.873V303.825C1.79287 292.347 11.1158 283.021 22.5902 283.021H58.6269ZM58.6269 281.228H22.5902C10.0401 281.228 0 291.45 0 303.825V339.873C0 352.427 10.2194 362.47 22.5902 362.47H58.6269C71.177 362.47 81.2171 352.248 81.2171 339.873V303.825C81.2171 291.45 70.9977 281.228 58.6269 281.228Z" fill="#CB9866"/>
<path d="M324.094 327.857C321.046 327.857 319.074 325.884 319.074 322.656C319.074 320.324 319.97 318.351 321.405 316.917C322.66 315.661 324.094 314.944 325.887 314.944C328.755 314.944 330.907 317.096 330.907 320.145C330.907 322.476 330.01 324.449 328.576 325.884C327.142 327.319 325.707 327.857 324.094 327.857ZM326.066 343.101C331.086 343.101 335.21 341.666 338.795 339.514L337.899 338.079C334.313 340.231 330.728 341.307 326.066 341.307C314.592 341.307 306.524 332.699 306.524 322.118C306.524 311.536 314.771 302.749 325.707 302.749C336.644 302.749 344.891 311.178 344.891 319.966C344.891 326.601 342.023 329.829 338.437 329.829C336.106 329.829 334.672 328.395 334.672 326.422C334.672 326.063 334.851 325.167 334.851 324.27L337.003 312.074L332.341 311.357L331.803 314.227C330.548 312.254 328.397 310.64 324.99 310.64C319.432 310.64 314.054 315.841 314.054 322.656C314.054 328.215 317.998 331.802 322.839 331.802C326.245 331.802 328.576 330.188 330.369 328.395C331.445 330.188 333.775 331.802 337.54 331.802C342.56 331.802 346.863 327.857 346.863 319.786C346.863 309.743 337.72 300.596 325.887 300.596C314.054 300.596 304.731 310.281 304.731 321.759C304.552 333.596 313.695 343.101 326.066 343.101Z" fill="#CB9866"/>
<path d="M343.815 283.021C355.29 283.021 364.613 292.347 364.613 303.825V339.873C364.613 351.351 355.29 360.677 343.815 360.677H307.779C296.304 360.677 286.981 351.351 286.981 339.873V303.825C286.981 292.347 296.304 283.021 307.779 283.021H343.815ZM343.815 281.228H307.779C295.229 281.228 285.188 291.45 285.188 303.825V339.873C285.188 352.427 295.408 362.47 307.779 362.47H343.815C356.365 362.47 366.406 352.248 366.406 339.873V303.825C366.406 291.45 356.186 281.228 343.815 281.228Z" fill="#CB9866"/>
<path d="M456.29 335.748C455.214 335.569 454.318 335.21 453.6 334.851L452.525 338.259C453.421 338.617 454.497 338.976 455.573 339.155C456.828 339.335 458.083 339.514 459.517 339.514C461.13 339.514 462.565 339.335 464.178 338.797C465.613 338.259 466.868 337.541 467.943 336.645C469.019 335.748 469.916 334.493 470.453 333.237C470.991 331.802 471.35 330.368 471.35 328.574C471.35 327.139 471.171 325.705 470.633 324.629C470.095 323.553 469.557 322.477 468.661 321.58C467.764 320.683 466.868 320.145 465.792 319.607C464.716 319.248 463.461 318.89 462.206 318.89L460.593 319.248V319.069L462.385 317.634L470.274 305.798V304.363H452.704V307.95H462.385L465.613 307.412L463.282 309.564L456.11 320.862V322.297H459.696C462.027 322.297 463.999 322.835 465.254 323.911C466.688 324.987 467.226 326.781 467.226 329.112C467.226 330.188 467.047 331.085 466.688 331.982C466.33 332.878 465.792 333.596 465.075 334.313C464.358 335.031 463.64 335.389 462.565 335.748C461.668 336.107 460.593 336.286 459.517 336.286C458.441 336.107 457.186 336.107 456.29 335.748Z" fill="#CB9866"/>
<path d="M475.832 323.912H482.107V330.189H484.617V323.912H490.892V321.221H484.617V314.944H482.107V321.221H475.832V323.912Z" fill="#CB9866"/>
<path d="M486.41 283.021C497.884 283.021 507.207 292.347 507.207 303.825V339.873C507.207 351.351 497.884 360.677 486.41 360.677H450.373C438.899 360.677 429.576 351.351 429.576 339.873V303.825C429.576 292.347 438.899 283.021 450.373 283.021H486.41ZM486.41 281.228H450.373C437.823 281.228 427.783 291.45 427.783 303.825V339.873C427.783 352.427 438.002 362.47 450.373 362.47H486.41C498.96 362.47 509 352.248 509 339.873V303.825C509 291.45 498.781 281.228 486.41 281.228Z" fill="#CB9866"/>
<path d="M189.388 156.516L171.639 183.059L182.217 185.032L175.045 207.271L194.946 178.217L183.293 175.885L189.388 156.516Z" fill="#CB9866"/>
<path d="M201.4 143.067C212.875 143.067 222.198 152.393 222.198 163.871V199.919C222.198 211.397 212.875 220.723 201.4 220.723H165.184C153.71 220.723 144.387 211.397 144.387 199.919V163.871C144.387 152.393 153.71 143.067 165.184 143.067H201.4ZM201.4 141.273H165.184C152.634 141.273 142.594 151.496 142.594 163.871V199.919C142.594 212.473 152.814 222.516 165.184 222.516H201.221C213.771 222.516 223.811 212.294 223.811 199.919V163.871C223.991 151.496 213.592 141.273 201.4 141.273Z" fill="#CB9866"/>
<path d="M342.202 164.588H327.859V163.153C327.859 162.077 326.963 161.18 325.887 161.18C324.811 161.18 323.915 162.077 323.915 163.153V164.588H309.572C308.675 164.588 307.958 165.305 307.958 166.202C307.958 167.099 308.675 167.816 309.572 167.816H317.281L324.094 171.941V173.555H319.97V175.707H314.054V178.397H337.899V175.707H331.983V173.555H328.038V171.941L334.672 167.995H342.381C343.278 167.995 343.995 167.278 343.995 166.381C343.816 165.305 343.099 164.588 342.202 164.588ZM320.15 167.816H323.915V170.147L320.15 167.816ZM327.859 170.147V167.995H331.445L327.859 170.147Z" fill="#CB9866"/>
<path d="M305.986 183.419H303.476V200.636H305.986V183.419Z" fill="#CB9866"/>
<path d="M348.298 183.419H345.788V200.636H348.298V183.419Z" fill="#CB9866"/>
<path d="M341.306 187.544H332.879V182.702H337.899V180.011H314.054V182.702H319.074V187.544H310.468V183.24H307.958V200.457H310.468V196.152H319.253C319.791 199.739 322.66 202.429 326.066 202.429C329.473 202.429 332.341 199.739 332.879 196.152H341.485V200.457H343.995V183.24H341.485V187.544H341.306Z" fill="#CB9866"/>
<path d="M343.815 143.067C355.29 143.067 364.613 152.393 364.613 163.871V199.919C364.613 211.397 355.29 220.723 343.815 220.723H307.779C296.304 220.723 286.981 211.397 286.981 199.919V163.871C286.981 152.393 296.304 143.067 307.779 143.067H343.815ZM343.815 141.273H307.779C295.229 141.273 285.188 151.496 285.188 163.871V199.919C285.188 212.473 295.408 222.516 307.779 222.516H343.815C356.365 222.516 366.406 212.294 366.406 199.919V163.871C366.406 151.496 356.186 141.273 343.815 141.273Z" fill="#CB9866"/>
<path d="M475.473 171.94C475.473 173.375 476.549 174.451 477.804 174.451C479.059 174.451 480.135 173.375 480.135 171.94C480.135 170.506 479.059 169.43 477.804 169.43C476.549 169.43 475.473 170.506 475.473 171.94Z" fill="#CB9866"/>
<path d="M456.648 171.94C456.648 173.375 457.724 174.451 458.979 174.451C460.234 174.451 461.309 173.375 461.309 171.94C461.309 170.506 460.234 169.43 458.979 169.43C457.724 169.43 456.648 170.506 456.648 171.94Z" fill="#CB9866"/>
<path d="M466.329 165.305C466.329 166.022 466.867 166.56 467.405 166.56H469.736C470.274 166.56 470.811 166.022 470.811 165.305V161.359C470.811 160.642 470.274 160.104 469.736 160.104H467.226C466.688 160.104 466.15 160.642 466.15 161.359V165.305H466.329Z" fill="#CB9866"/>
<path d="M469.915 166.381L470.811 194.718C470.811 194.718 470.811 198.484 475.652 198.304C480.493 198.125 482.465 194.897 483.003 192.924C483.003 192.924 481.569 192.565 480.134 193.283C480.672 190.593 483.003 187.006 485.334 185.392C485.334 185.392 487.485 188.261 487.844 194.897C486.947 194 486.768 193.641 485.334 193.283C482.107 205.657 471.887 202.967 468.122 209.424C467.046 201.174 468.122 165.305 468.122 165.305L469.915 166.381Z" fill="#CB9866"/>
<path d="M466.867 166.381L465.971 194.718C465.971 194.718 465.971 198.484 461.13 198.304C456.289 198.125 454.317 194.897 453.779 192.924C453.779 192.924 455.214 192.565 456.648 193.283C456.11 190.593 453.779 187.006 451.449 185.392C451.449 185.392 449.297 188.261 448.938 194.897C449.835 194 450.014 193.641 451.449 193.283C454.676 205.657 464.895 202.967 468.66 209.424C469.736 201.174 468.66 165.305 468.66 165.305L466.867 166.381Z" fill="#CB9866"/>
<path d="M468.481 156.338C470.453 156.338 471.888 157.952 471.888 159.745C471.888 161.718 470.274 163.153 468.481 163.153C466.509 163.153 465.075 161.539 465.075 159.745C465.075 157.772 466.509 156.338 468.481 156.338ZM468.481 165.305C471.529 165.305 474.039 162.794 474.039 159.745C474.039 156.696 471.529 154.186 468.481 154.186C465.433 154.186 462.923 156.696 462.923 159.745C462.923 162.794 465.433 165.305 468.481 165.305Z" fill="#CB9866"/>
<path d="M476.907 170.686H460.054V173.017H476.907V170.686Z" fill="#CB9866"/>
<path d="M486.41 143.067C497.884 143.067 507.207 152.393 507.207 163.871V199.919C507.207 211.397 497.884 220.723 486.41 220.723H450.373C438.899 220.723 429.576 211.397 429.576 199.919V163.871C429.576 152.393 438.899 143.067 450.373 143.067H486.41ZM486.41 141.273H450.373C437.823 141.273 427.783 151.496 427.783 163.871V199.919C427.783 212.473 438.002 222.516 450.373 222.516H486.41C498.96 222.516 509 212.294 509 199.919V163.871C509 151.496 498.781 141.273 486.41 141.273Z" fill="#CB9866"/>
<path d="M213.592 457.05V461.175L203.911 457.588L205.883 460.995H184.01V439.115L187.237 441.088L183.83 431.404H187.954V429.79H178.452V431.404H182.575L178.99 441.088L182.396 439.115V460.995H160.523L162.495 457.588L152.814 461.175V457.05H151.2V466.555H152.814V462.43L162.495 465.838L160.523 462.609H182.396V484.489L178.99 482.517L182.575 492.201H178.452V493.815H187.954V492.201H183.83L187.237 482.517L184.01 484.31V462.609H205.883L203.911 465.838L213.592 462.43V466.555H215.206V457.05H213.592Z" fill="#CB9866"/>
<path d="M201.221 422.975C212.696 422.975 222.018 432.301 222.018 443.779V479.827C222.018 491.305 212.696 500.631 201.221 500.631H165.184C153.71 500.631 144.387 491.305 144.387 479.827V443.779C144.387 432.301 153.71 422.975 165.184 422.975H201.221ZM201.221 421.182H165.184C152.634 421.182 142.594 431.404 142.594 443.779V479.827C142.594 492.381 152.814 502.424 165.184 502.424H201.221C213.771 502.424 223.811 492.202 223.811 479.827V443.779C223.811 431.404 213.592 421.182 201.221 421.182Z" fill="#CB9866"/>
<path d="M295.946 431.942V432.48V462.789V491.664H355.648V431.942H295.946ZM353.855 460.996H341.305V433.736H353.855V460.996ZM323.197 447.904C323.197 449.159 323.018 450.235 322.48 450.773C322.121 451.491 321.404 451.67 320.687 451.67C319.791 451.67 319.253 451.312 318.894 450.594C318.536 449.877 318.356 448.98 318.356 447.725C318.356 446.469 318.536 445.393 319.074 444.855C319.432 444.138 320.149 443.958 320.866 443.958C321.763 443.958 322.301 444.317 322.839 444.855C323.018 445.573 323.197 446.649 323.197 447.904ZM317.281 447.904C317.281 449.159 317.101 450.235 316.564 450.773C316.205 451.491 315.488 451.67 314.771 451.67C313.874 451.67 313.336 451.312 312.978 450.594C312.619 449.877 312.44 448.98 312.44 447.725C312.44 446.469 312.619 445.393 313.157 444.855C313.516 444.138 314.233 443.958 314.95 443.958C315.846 443.958 316.384 444.317 316.922 444.855C317.101 445.573 317.281 446.649 317.281 447.904ZM308.137 447.366C308.496 447.187 308.675 447.187 309.213 447.187C309.93 447.187 310.468 447.366 310.826 447.725C311.185 448.083 311.364 448.621 311.364 449.339C311.364 449.697 311.364 450.056 311.185 450.235C311.006 450.594 311.006 450.773 310.826 450.953C310.647 451.132 310.468 451.312 310.109 451.491C309.751 451.67 309.571 451.67 309.213 451.67C308.854 451.67 308.496 451.67 308.316 451.491C307.958 451.312 307.779 451.132 307.599 450.953C307.42 450.773 307.241 450.415 307.061 450.056C306.882 449.697 306.882 449.339 306.882 448.98C306.882 448.263 307.061 447.545 307.241 447.007C307.42 446.469 307.599 445.931 307.958 445.393C308.316 444.855 308.675 444.676 309.034 444.317C309.392 443.958 309.93 443.779 310.468 443.779L310.647 444.496C310.289 444.496 309.93 444.676 309.571 444.855C309.213 445.034 309.033 445.214 308.675 445.573C308.496 445.931 308.137 446.111 308.137 446.649C308.137 447.187 307.958 447.366 307.778 447.725C307.778 447.725 307.958 447.545 308.137 447.366ZM304.013 448.263C303.655 448.083 303.296 447.904 302.758 447.904H302.041V447.545L303.655 445.214L304.193 444.676L303.476 444.855H301.324V444.138H305.089V444.496L303.296 447.007L302.938 447.366H303.296C303.655 447.366 303.834 447.366 304.013 447.545C304.193 447.725 304.551 447.725 304.731 447.904C304.91 448.083 305.089 448.263 305.089 448.621C305.268 448.801 305.268 449.159 305.268 449.518C305.268 449.877 305.268 450.235 305.089 450.594C304.91 450.953 304.731 451.132 304.551 451.312C304.372 451.491 304.013 451.67 303.655 451.85C303.296 452.029 302.938 452.029 302.579 452.029C302.221 452.029 302.041 452.029 301.683 452.029C301.503 452.029 301.145 451.85 300.966 451.85L301.145 451.132C301.324 451.132 301.503 451.312 301.683 451.312C301.862 451.312 302.221 451.312 302.4 451.312C302.579 451.312 302.938 451.312 303.117 451.132C303.296 451.132 303.476 450.953 303.655 450.773C303.834 450.594 303.834 450.415 304.013 450.235C304.013 450.056 304.193 449.877 304.193 449.518C304.372 448.98 304.372 448.621 304.013 448.263ZM335.568 444.317C335.389 444.138 335.209 444.138 335.03 444.138C334.851 444.138 334.672 444.138 334.492 444.317C334.313 444.496 334.134 444.496 334.134 444.496L333.954 444.138C334.134 443.958 334.313 443.958 334.492 443.779C334.672 443.779 334.851 443.6 335.209 443.6C335.389 443.6 335.568 443.6 335.747 443.6C335.927 443.6 335.927 443.779 336.106 443.779C336.285 443.779 336.285 443.958 336.285 444.138C336.285 444.317 336.285 444.496 336.285 444.496C336.285 444.676 336.285 444.855 336.106 445.214C336.106 445.393 335.927 445.752 335.747 445.931C335.568 446.111 335.389 446.469 335.389 446.649C335.209 446.828 335.03 447.007 334.851 447.366L334.492 447.725H334.851H336.285V448.263H333.775V448.083C333.954 447.904 333.954 447.904 334.134 447.725C334.313 447.545 334.313 447.366 334.492 447.187C334.672 447.007 334.851 446.828 334.851 446.649C335.03 446.469 335.03 446.29 335.209 446.111C335.389 445.931 335.389 445.752 335.389 445.573C335.389 445.393 335.568 445.214 335.568 445.034C335.747 444.496 335.747 444.317 335.568 444.317ZM327.321 446.29H328.217L329.652 448.621L330.01 449.159L330.369 448.442L331.803 446.111H332.699V451.491H331.803V448.263V447.187L331.444 448.083L330.189 450.235H329.831L328.397 448.083L328.038 447.187V448.263V451.491H327.321V446.29ZM324.99 462.789V489.87H312.261V462.789H324.99ZM326.783 462.789H339.512V489.87H326.783V462.789ZM297.738 462.789H310.468V489.87H297.738V462.789ZM341.305 489.87V462.789H353.855V489.87H341.305Z" fill="#CB9866"/>
<path d="M307.599 448.98V449.159C307.599 449.338 307.599 449.518 307.779 449.876C307.779 450.056 307.958 450.235 308.137 450.414C308.316 450.594 308.496 450.773 308.675 450.773C308.854 450.952 309.034 450.952 309.392 450.952C309.572 450.952 309.751 450.952 309.93 450.773C310.109 450.773 310.289 450.594 310.289 450.414C310.468 450.235 310.468 450.056 310.647 449.876C310.647 449.697 310.827 449.518 310.827 449.338C310.827 448.8 310.647 448.442 310.468 448.262C310.289 448.083 309.93 447.904 309.392 447.904C309.034 447.904 308.675 447.904 308.496 448.083C308.317 448.262 308.137 448.442 307.958 448.621C307.599 448.8 307.599 448.98 307.599 448.98Z" fill="#CB9866"/>
<path d="M321.942 445.573C321.763 445.214 321.584 445.035 321.404 444.856C321.225 444.676 321.046 444.676 320.687 444.676C320.149 444.676 319.791 444.856 319.432 445.394C319.253 445.932 319.074 446.649 319.074 447.725C319.074 448.263 319.074 448.622 319.253 448.981C319.253 449.339 319.432 449.698 319.612 450.057C319.791 450.415 319.97 450.595 320.149 450.774C320.329 450.953 320.508 450.953 320.867 450.953C321.404 450.953 321.763 450.774 322.122 450.236C322.301 449.698 322.48 448.981 322.48 447.904C322.48 447.366 322.48 447.008 322.48 446.649C322.122 446.29 322.122 445.932 321.942 445.573Z" fill="#CB9866"/>
<path d="M316.026 445.573C315.847 445.214 315.667 445.035 315.488 444.856C315.309 444.676 315.129 444.676 314.771 444.676C314.233 444.676 313.874 444.856 313.516 445.394C313.337 445.932 313.157 446.649 313.157 447.725C313.157 448.263 313.157 448.622 313.337 448.981C313.337 449.339 313.516 449.698 313.695 450.057C313.874 450.415 314.054 450.595 314.233 450.774C314.412 450.953 314.592 450.953 314.95 450.953C315.488 450.953 315.847 450.774 316.205 450.236C316.384 449.698 316.564 448.981 316.564 447.904C316.564 447.366 316.564 447.008 316.564 446.649C316.384 446.29 316.205 445.932 316.026 445.573Z" fill="#CB9866"/>
<path d="M343.815 422.975C355.29 422.975 364.613 432.301 364.613 443.779V479.827C364.613 491.305 355.29 500.631 343.815 500.631H307.779C296.304 500.631 286.981 491.305 286.981 479.827V443.779C286.981 432.301 296.304 422.975 307.779 422.975H343.815ZM343.815 421.182H307.779C295.229 421.182 285.188 431.404 285.188 443.779V479.827C285.188 492.381 295.408 502.424 307.779 502.424H343.815C356.365 502.424 366.406 492.202 366.406 479.827V443.779C366.406 431.404 356.186 421.182 343.815 421.182Z" fill="#CB9866"/>
<path d="M41.5946 435.17C38.0088 438.757 33.8852 443.24 36.216 451.67C37.6503 456.512 37.2917 457.588 35.3195 458.843C33.7059 459.561 30.658 458.843 30.658 455.436C10.3986 470.68 25.1002 487.538 36.0367 488.614C36.0367 488.614 28.5066 486.104 28.5066 480.365C32.9888 481.62 33.1681 478.75 32.8095 476.778C32.4509 474.805 30.2995 470.68 33.5267 467.631C36.7538 464.582 42.3117 459.919 42.6703 455.794C47.1525 460.816 46.4353 464.582 43.5667 467.272C41.7739 469.066 38.726 473.37 43.2081 476.06C47.511 477.854 48.2282 472.653 48.2282 471.756C51.4554 474.984 54.3239 484.131 45.8975 488.614C52.5311 486.283 56.6547 482.875 58.6269 478.93C58.6269 478.93 65.2604 468.707 54.6825 456.691C50.7382 452.387 38.726 443.24 41.5946 435.17Z" fill="#CB9866"/>
<path d="M58.6269 422.975C70.1013 422.975 79.4242 432.301 79.4242 443.779V479.827C79.4242 491.305 70.1013 500.631 58.6269 500.631H22.5902C11.1158 500.631 1.79287 491.305 1.79287 479.827V443.779C1.79287 432.301 11.1158 422.975 22.5902 422.975H58.6269ZM58.6269 421.182H22.5902C10.0401 421.182 0 431.404 0 443.779V479.827C0 492.381 10.2194 502.424 22.5902 502.424H58.6269C71.177 502.424 81.2171 492.202 81.2171 479.827V443.779C81.2171 431.404 70.9977 421.182 58.6269 421.182Z" fill="#CB9866"/>
<path d="M457.903 446.648C458.262 446.469 458.62 446.289 458.979 446.289C459.517 446.289 460.054 446.289 460.413 446.289H460.592C460.592 446.11 460.413 446.11 460.413 446.11C460.234 446.11 459.875 445.931 459.696 445.931C459.337 445.931 458.62 446.11 458.441 445.931C457.903 445.572 457.724 445.931 457.544 446.11C457.544 446.11 457.365 446.289 457.365 446.469C457.724 446.469 457.903 446.469 457.903 446.648ZM470.274 444.137C470.274 444.317 470.274 444.496 470.274 444.496C469.915 444.855 470.095 444.855 470.453 444.855C470.991 444.855 471.529 444.855 471.887 444.137C471.887 443.958 472.067 443.958 472.067 443.779C472.605 443.42 472.605 442.882 472.605 442.523C472.605 442.344 472.605 442.344 472.425 442.165C472.246 442.165 472.067 442.165 472.067 442.344C471.708 442.523 471.529 442.882 471.17 442.882C470.453 443.061 470.274 443.42 470.274 444.137ZM467.943 445.034C467.943 444.855 467.764 444.675 467.405 444.675C466.867 444.496 466.509 444.317 465.971 444.137C465.792 444.137 465.612 443.958 465.433 443.779C465.254 443.958 465.074 444.137 465.074 444.317C464.895 444.675 464.537 445.213 463.819 445.034C463.64 445.034 463.102 445.034 463.102 445.034C462.744 445.572 462.206 445.393 461.668 445.393C461.668 445.393 461.489 445.393 461.489 445.572C461.489 445.572 461.489 445.751 461.668 445.751C462.206 445.931 462.744 446.11 463.282 446.289C463.819 445.751 464.537 446.11 465.074 446.11C465.792 446.11 466.509 446.11 467.047 446.11C467.764 445.751 467.943 445.751 467.943 445.034ZM471.17 454.36C471.529 454.36 471.708 454.181 472.067 454.181C472.605 454.001 473.322 454.001 473.68 454.181C474.397 454.36 475.115 454.898 475.473 455.436C475.652 455.615 475.832 455.615 475.832 455.615C476.011 455.436 476.19 455.257 476.19 455.077C476.19 454.898 476.19 454.719 476.011 454.539C475.652 454.539 475.473 454.36 475.115 454.36C473.68 454.001 472.784 453.822 472.784 452.028V451.849C472.784 450.952 472.067 450.414 471.35 450.773C470.632 451.132 469.915 452.028 470.274 452.746C470.453 453.105 470.453 453.643 470.453 454.001C470.632 454.181 470.812 454.36 471.17 454.36ZM473.86 443.599C473.86 443.599 473.86 443.779 473.68 443.958C473.501 444.137 473.322 444.317 473.142 444.496V444.855C473.322 445.034 473.68 444.675 473.86 445.213C473.86 445.572 474.397 445.213 474.756 445.393C475.652 445.751 476.549 445.751 477.266 446.289C477.445 446.469 477.804 446.469 478.162 446.648C478.342 446.648 478.7 446.828 478.7 447.007C478.88 447.545 479.238 447.545 479.597 447.724C479.776 447.904 479.955 447.904 480.135 448.083C480.314 447.904 480.314 447.724 480.493 447.366C480.673 447.007 480.672 446.469 480.672 446.11C480.672 445.931 480.673 445.572 480.493 445.572C479.776 445.213 479.059 444.675 478.342 444.855C477.983 444.855 477.625 445.034 477.625 444.496C477.625 444.496 477.445 444.496 477.266 444.317C476.728 443.958 476.19 443.958 475.832 444.137C475.473 444.137 475.473 443.958 475.473 443.779C475.294 443.42 475.294 442.882 474.935 442.703C474.397 442.344 474.218 441.985 474.577 441.447C474.935 440.909 474.218 441.268 474.218 441.089C474.218 440.909 474.039 440.909 473.86 441.089C473.86 441.447 473.68 441.627 473.68 441.985C473.68 442.882 473.68 443.061 473.86 443.599ZM468.84 427.817C468.84 427.817 469.019 427.996 469.198 427.996C470.095 427.996 470.812 427.996 471.708 427.996C472.425 427.996 473.142 428.176 473.68 428.714C474.218 429.072 474.577 429.79 475.115 429.611C475.294 429.969 475.473 429.969 475.832 430.149C476.37 430.328 476.907 430.866 476.907 431.583C476.907 433.018 476.907 433.018 477.804 433.735C478.521 434.453 478.7 434.453 479.417 434.811C479.955 434.991 479.955 434.632 480.493 434.632C481.21 434.811 481.21 434.632 481.39 435.35C481.748 436.246 482.286 436.784 483.183 436.784C483.541 436.784 483.72 436.964 483.9 437.322C483.9 437.681 484.258 438.04 484.617 438.219C485.155 438.398 485.513 438.936 485.334 439.474C485.334 440.012 485.513 440.73 484.796 440.909C484.796 440.909 484.796 441.089 484.796 441.268C484.796 441.447 484.796 441.627 484.975 441.447C485.334 441.268 485.872 440.909 486.41 441.089C486.948 441.089 486.948 441.089 487.485 441.627C488.382 442.523 488.382 442.523 488.382 443.42C488.382 443.599 488.382 443.958 488.203 443.958C487.665 443.958 487.844 444.855 487.127 444.855C486.948 444.855 486.768 444.855 486.589 444.855C486.589 445.213 486.051 445.034 486.051 445.751C486.051 446.289 485.872 446.469 485.334 446.469C485.155 446.469 484.975 446.469 484.796 446.469C484.617 446.469 484.079 446.469 484.079 446.648C483.9 447.007 483.9 447.366 484.258 447.724C484.437 447.904 484.617 448.262 484.796 448.442C484.975 448.8 485.155 448.98 484.975 449.338L484.796 449.518C484.796 449.876 484.258 450.056 484.438 450.594C484.617 450.952 484.438 451.49 484.617 451.849C484.617 452.028 484.796 452.028 484.796 452.028C485.334 452.028 485.693 452.208 485.693 452.925C485.693 453.284 485.693 453.822 484.975 454.001C484.796 454.001 484.617 454.36 484.617 454.719C484.617 454.898 484.438 455.257 484.438 455.436C484.079 456.153 483.362 456.153 483.003 455.615C482.824 455.257 482.645 455.257 482.465 455.077C482.107 454.719 481.21 454.898 481.21 454.181L481.031 453.284C480.493 453.284 480.135 453.284 479.955 452.925C479.955 452.925 479.776 452.746 479.597 452.925C479.597 452.925 479.417 453.105 479.417 453.284C479.417 453.643 479.417 454.001 479.597 454.36C479.776 454.719 479.597 455.257 479.597 455.615C479.597 455.795 479.776 455.974 479.776 455.974C480.493 455.795 480.314 456.691 480.852 456.691C481.39 456.691 481.748 456.871 482.286 456.871C482.645 456.871 482.824 456.871 482.645 457.229C482.465 457.767 482.824 457.767 483.183 457.947C483.541 458.126 483.72 458.306 484.079 458.485C484.258 458.664 484.438 458.844 484.796 459.023C485.155 459.202 485.693 459.202 485.872 459.561C486.051 459.74 485.872 460.278 485.872 460.637L486.051 460.816C486.948 460.099 487.665 460.458 488.74 460.458C488.92 460.458 488.92 460.458 489.099 460.458C489.458 460.458 489.637 460.637 489.637 460.996C489.637 461.354 489.637 461.354 490.175 461.354C490.533 461.354 491.25 461.534 491.25 461.713C491.25 462.072 491.43 462.43 490.892 462.789C490.533 462.968 489.995 463.148 489.995 463.506C489.816 463.865 490.354 464.224 490.175 464.762C490.175 465.121 490.175 465.3 490.175 465.659C490.175 466.376 489.816 466.735 489.099 466.555C488.74 466.376 488.382 466.376 488.023 466.555C487.844 466.555 487.665 466.555 487.306 466.555C486.41 466.197 485.513 466.376 484.796 466.017C483.9 465.838 483.541 465.838 483.362 465.838C483.182 465.838 482.824 465.838 482.645 465.659C482.286 465.479 481.748 465.3 481.927 464.762C481.927 464.224 481.748 464.045 481.21 464.045C480.135 464.045 479.417 463.686 478.521 462.968C478.342 462.789 477.087 462.43 476.907 462.43C476.19 462.43 475.652 462.251 475.473 461.534C475.294 460.996 474.756 460.816 474.218 460.816C473.501 460.816 472.784 460.816 472.246 460.816C471.887 460.816 471.529 460.816 471.35 460.637C471.17 460.458 470.991 460.458 470.991 460.099C470.991 459.561 470.991 459.202 471.529 457.409C471.529 455.974 470.991 456.512 470.991 456.871C470.991 457.229 470.991 457.409 470.812 457.767C470.632 457.947 470.991 458.306 470.991 458.664C470.991 458.664 470.991 458.844 471.17 458.844L471.35 458.664C471.35 458.306 471.35 457.767 471.887 457.767C472.425 457.767 472.963 457.588 473.322 457.229C473.501 457.05 473.86 457.05 473.86 457.229C474.397 457.767 474.756 456.871 475.115 457.229V457.05C474.756 456.691 474.577 456.333 474.218 455.795C474.039 455.436 473.68 455.257 473.322 455.436C472.963 455.615 473.142 455.974 473.142 456.153C473.142 456.333 473.142 456.691 472.784 456.691C472.425 456.691 472.067 456.871 472.067 456.333C472.067 456.153 471.887 455.974 471.35 457.409C470.812 458.844 470.632 458.844 470.632 458.844C470.632 459.202 470.632 459.561 470.632 460.099C470.453 460.816 470.632 461.175 471.35 461.175C471.708 461.175 472.067 461.534 472.246 461.892C472.425 462.251 472.784 462.968 473.501 462.789C473.68 462.789 473.68 462.968 473.86 462.968C474.577 463.686 474.577 463.686 475.294 463.327C475.473 463.327 475.832 463.148 476.011 463.148C476.728 463.148 476.728 463.148 476.907 464.045C476.907 464.403 477.087 464.403 477.445 464.583C477.804 464.762 478.521 464.762 478.342 465.479C478.162 465.838 478.521 466.017 478.7 466.197C479.238 466.376 479.238 466.735 479.417 467.093C479.597 467.273 479.417 467.811 479.417 468.169C479.059 468.169 478.521 468.169 478.162 468.169C477.983 468.169 477.804 467.99 477.625 467.99C477.445 467.99 477.087 467.811 476.907 467.811C476.549 468.169 476.011 467.99 475.473 467.99C475.115 467.99 474.935 467.99 474.577 467.99C474.039 468.169 473.501 467.99 473.142 467.452C472.963 467.273 472.784 467.093 472.605 466.914C472.067 466.197 471.708 466.197 471.17 466.914C470.991 467.093 470.812 467.273 470.632 467.452C470.095 467.99 470.095 468.528 470.812 468.887C470.991 469.066 471.17 469.066 471.17 469.245C471.35 469.425 471.17 469.784 470.812 469.784C470.095 469.784 470.095 469.784 470.095 470.501C470.095 470.86 470.274 471.398 469.915 471.756C469.736 471.756 469.736 472.115 469.915 472.294C470.274 472.832 470.095 473.37 470.095 473.729C470.095 474.984 470.274 496.685 470.274 497.761C470.274 498.837 470.274 499.734 470.274 500.631C470.274 500.81 470.453 501.169 470.453 501.348C470.632 501.707 470.812 501.886 470.991 502.245C470.632 502.245 470.274 502.245 470.095 502.424C469.736 502.603 469.198 502.603 468.84 502.783C467.943 503.321 467.405 502.603 466.688 502.424C466.509 502.424 466.509 501.886 466.509 501.886C466.867 501.527 466.867 500.989 466.688 500.631C466.688 499.913 466.867 499.375 467.047 499.017C467.047 498.479 466.688 497.761 467.226 497.402V497.223C467.226 495.609 467.405 493.636 467.405 492.022C467.405 490.408 467.047 478.93 467.226 477.316C467.226 476.778 467.226 476.24 466.867 475.881C466.33 475.343 466.509 474.805 466.509 474.446C466.509 474.267 466.688 474.088 466.688 474.088C467.405 474.267 467.226 473.729 467.226 473.37C467.226 471.936 467.226 470.68 467.226 469.066C467.226 468.707 467.226 468.349 467.047 467.811C466.867 467.273 466.867 466.735 467.226 466.197C467.405 466.017 467.226 465.479 467.226 465.3C466.867 465.3 466.509 464.762 465.971 465.121C465.612 465.3 465.254 465.659 464.716 465.479C464.357 465.3 464.178 465.659 464.178 466.017L463.999 466.197C463.819 466.197 463.64 466.197 463.461 466.197C463.102 466.376 463.102 465.479 462.385 465.838C462.027 466.017 461.489 465.838 461.13 465.838C460.413 465.838 460.054 465.479 460.054 464.583C460.054 464.224 460.054 463.686 460.054 463.327V463.148C460.054 462.968 460.054 462.789 460.234 462.789C460.951 462.43 460.951 461.534 461.309 461.354C461.489 461.175 462.027 461.354 462.385 460.996C462.385 460.996 462.744 460.996 462.744 460.816C462.744 459.74 463.461 460.278 463.819 460.099C464.357 460.637 465.074 460.099 465.433 460.099C466.15 460.278 466.509 459.561 466.867 459.382C467.047 459.382 467.226 459.023 467.405 459.023C467.764 459.023 467.764 458.844 467.764 458.664C467.764 458.126 467.764 457.409 467.764 457.05C467.764 456.871 467.764 456.691 467.405 456.691C467.047 456.691 466.688 456.871 466.509 456.871C466.329 456.871 465.971 457.05 465.792 457.05C465.612 457.05 465.254 456.871 465.254 456.691C465.254 456.512 465.254 456.153 465.433 455.974C465.792 455.795 466.15 455.615 466.329 455.615C467.226 455.436 467.405 455.257 467.405 454.36V454.181C467.584 453.284 467.226 452.746 466.509 452.208C465.971 451.849 465.612 451.49 465.074 451.849C464.895 451.849 464.537 452.028 464.537 451.67C464.537 451.132 464.357 451.132 463.819 451.132C463.102 451.132 462.564 451.132 462.027 451.132C461.847 451.132 461.668 451.132 461.309 451.132C460.413 451.311 460.234 452.028 460.951 452.567C461.13 452.746 461.489 453.105 461.668 453.284C462.206 453.643 462.206 454.181 462.027 454.719C461.847 455.077 461.489 455.436 460.951 455.436C460.772 455.436 460.592 455.436 460.413 455.436C460.234 455.436 460.054 455.795 460.054 456.153C460.054 456.512 460.054 456.871 460.413 457.229C460.772 457.588 460.592 458.126 460.592 458.485C460.413 458.844 460.054 459.202 459.517 459.202C459.337 459.202 458.979 459.202 458.799 459.202C458.262 459.202 457.903 459.023 457.544 458.664C457.365 458.485 457.007 458.306 456.827 458.126C456.648 457.947 456.648 457.947 456.469 458.126C455.931 458.664 455.393 458.485 454.497 458.306C453.062 457.947 452.704 457.947 450.911 458.126C450.194 458.306 449.476 458.664 448.939 458.485C448.042 458.306 447.325 458.126 446.429 457.588C446.07 457.409 446.07 457.05 446.07 456.871C446.07 456.512 446.249 456.153 446.429 455.795C446.608 455.436 446.787 455.257 446.787 454.898C446.787 454.719 446.429 454.539 446.07 454.539C445.532 454.36 445.711 454.001 445.532 453.822C445.353 453.284 445.353 452.746 445.353 452.387C445.353 452.387 445.174 452.387 445.174 452.208V450.594C445.711 450.594 446.07 450.773 446.429 450.235C446.608 450.056 446.787 450.056 446.966 450.056C447.325 450.056 449.118 450.414 449.476 450.594C450.194 450.952 450.911 450.773 451.449 450.414C452.345 449.697 453.062 448.98 454.497 448.98H454.676C456.289 448.442 456.648 448.621 458.441 449.518C458.799 449.697 459.158 450.414 459.696 450.056C459.696 450.235 459.875 450.414 459.875 450.594C459.875 450.773 459.696 450.773 459.517 450.952C459.337 450.952 459.158 450.952 458.979 450.952C458.62 450.952 458.441 451.132 458.262 451.311C458.441 451.311 458.62 451.311 458.799 451.49L458.979 451.67C459.158 452.028 459.517 452.028 459.696 451.849C459.875 451.67 460.054 451.49 460.054 451.311C460.054 450.773 460.234 450.773 460.772 450.773C462.385 450.773 464.357 450.773 465.971 450.773C466.33 450.773 466.509 450.594 466.867 450.952C467.047 451.132 467.226 451.132 467.226 450.773C467.226 450.594 467.405 450.235 466.867 450.235C466.33 450.235 465.792 450.056 465.433 449.876C465.254 449.876 465.074 449.518 465.074 449.338C465.074 448.98 465.075 448.621 465.254 448.442C465.254 448.262 465.433 448.083 465.074 448.083C464.357 448.262 463.64 447.904 462.923 448.262C462.206 448.621 461.489 448.442 460.592 448.621C460.054 448.621 459.517 448.621 459.158 448.621C457.724 448.8 456.469 448.262 455.034 447.366C454.855 447.186 454.497 447.366 454.317 447.366C454.497 447.904 453.779 447.724 453.6 447.904C453.421 448.262 453.062 448.442 452.704 448.083C452.345 447.904 452.166 448.083 452.166 448.262C451.986 448.98 451.449 448.8 450.911 448.8C450.732 448.8 450.552 448.442 450.373 448.262C450.373 448.083 450.194 447.724 450.373 447.545C450.731 447.007 450.552 446.469 450.194 446.11C450.014 445.931 450.014 445.572 450.373 445.393C450.731 445.034 450.732 444.855 450.732 444.137C450.732 443.42 450.911 443.241 451.628 443.241C452.166 443.241 452.883 443.241 453.242 443.599C453.6 443.779 453.779 443.958 454.138 443.779C454.317 443.599 454.676 443.42 454.676 443.061C454.676 442.882 454.855 442.703 454.855 442.703C455.214 442.703 455.214 442.523 455.034 442.165C454.855 441.806 454.855 441.447 454.855 441.089C454.855 440.909 455.214 440.73 455.393 440.55C455.572 440.371 455.572 440.371 455.572 440.192C455.393 439.474 455.931 439.116 456.11 438.757C456.648 438.04 457.365 437.681 458.082 437.681C458.262 437.681 458.441 437.681 458.799 437.681L458.979 437.502C458.979 437.322 458.799 437.143 458.799 437.143C458.441 437.143 457.903 436.964 457.903 436.784C457.903 436.246 457.724 436.246 457.365 435.888C457.724 435.708 457.724 435.529 457.724 435.17C457.724 434.811 457.724 434.632 457.365 434.632C456.827 434.632 456.648 434.273 456.648 433.915C456.648 433.377 456.827 433.197 457.186 433.018C457.544 433.018 458.082 432.839 458.441 432.839C459.337 432.659 459.875 433.018 460.592 433.377C461.309 433.735 462.027 433.915 462.744 433.377C463.282 432.659 463.999 432.839 464.357 432.659C464.716 432.659 464.895 432.839 465.074 433.018C465.433 433.556 466.15 433.377 466.509 433.915C466.509 434.094 467.047 434.094 467.047 433.915C467.405 433.556 467.943 433.377 468.302 433.197C468.481 433.197 468.481 432.839 468.481 432.659C467.943 432.121 467.405 431.225 466.509 431.225C465.971 431.225 465.612 430.866 465.254 430.507C464.895 430.149 465.074 429.79 465.074 429.431C465.074 429.252 465.075 428.893 465.254 428.714C465.433 428.355 465.792 427.996 466.15 427.996C466.33 427.817 466.688 427.817 466.867 427.638C467.226 427.638 467.405 427.458 467.585 427.279H468.84V427.817Z" fill="#CB9866"/>
<path d="M486.41 422.975C497.884 422.975 507.207 432.301 507.207 443.779V479.827C507.207 491.305 497.884 500.631 486.41 500.631H450.373C438.899 500.631 429.576 491.305 429.576 479.827V443.779C429.576 432.301 438.899 422.975 450.373 422.975H486.41ZM486.41 421.182H450.373C437.823 421.182 427.783 431.404 427.783 443.779V479.827C427.783 492.381 438.002 502.424 450.373 502.424H486.41C498.96 502.424 509 492.202 509 479.827V443.779C509 431.404 498.781 421.182 486.41 421.182Z" fill="#CB9866"/>
<path d="M58.6269 141.273H22.5902C10.04 141.273 0 151.496 0 163.871V199.919C0 212.473 10.2193 222.516 22.5902 222.516H58.6269C71.177 222.516 81.2171 212.294 81.2171 199.919V163.871C81.2171 151.496 70.9977 141.273 58.6269 141.273ZM79.4242 199.919C79.4242 211.397 70.1013 220.723 58.6269 220.723H22.5902C11.1158 220.723 1.79287 211.397 1.79287 199.919V163.871C1.79287 152.393 11.1158 143.067 22.5902 143.067H58.6269C70.1013 143.067 79.4242 152.393 79.4242 163.871V199.919Z" fill="#CB9866"/>
<path d="M6.81294 190.772C6.63365 190.952 6.45435 191.31 6.45435 191.49C6.45435 193.104 6.45435 194.718 6.45435 196.153C6.45435 196.511 6.45436 196.87 6.63364 197.229C6.99222 197.049 7.3508 197.049 7.70938 196.87C15.0602 192.566 22.9488 191.131 31.3753 192.745C35.4989 193.463 39.6225 194.718 43.7461 195.615C50.0212 196.87 56.4755 197.049 62.7506 195.256C63.1092 195.077 63.647 194.718 63.8263 194.359C66.5156 189.158 69.3842 183.778 72.0735 178.577C73.1492 176.425 74.4042 174.273 75.4799 172.121V171.941C74.9421 171.941 74.2249 171.762 73.6871 171.762C66.6949 171.762 59.882 172.659 53.069 174.093C36.9332 177.68 21.6938 183.599 6.81294 190.772ZM31.5546 188.262C30.4788 188.262 29.7617 187.365 29.7617 186.468C29.7617 185.392 30.6581 184.675 31.5546 184.675C32.6303 184.675 33.3474 185.571 33.3474 186.468C33.3474 187.544 32.451 188.262 31.5546 188.262ZM37.1125 186.468C36.0368 186.468 35.3196 185.751 35.3196 184.675C35.3196 183.599 36.0368 182.881 37.1125 182.702C38.1882 182.702 38.9054 183.419 38.9054 184.495C38.9054 185.571 38.1882 186.468 37.1125 186.468ZM43.029 184.675C41.9533 184.675 41.2361 183.957 41.2361 182.881C41.2361 181.805 41.9533 181.088 43.029 181.088C44.1047 181.088 44.8219 181.805 44.8219 182.881C45.0012 183.778 44.1047 184.675 43.029 184.675Z" fill="#CB9866"/>
<path d="M19.7217 171.941C20.7974 171.761 21.156 171.941 21.3353 173.017C21.3353 173.555 21.6938 173.555 22.2317 173.376C24.2039 172.658 26.176 172.12 28.1482 171.403C28.8653 171.223 29.7617 171.044 29.941 172.12C30.2996 173.196 29.4032 173.376 28.686 173.734C26.7139 174.272 24.7417 174.99 22.7695 175.707C22.2317 175.886 22.0524 176.066 22.2317 176.604C22.7696 177.859 23.1281 179.294 23.4867 180.549C23.666 181.267 23.8452 181.267 24.3831 180.908C30.6582 178.218 37.1125 175.886 43.7462 174.272C47.3319 173.376 51.0969 172.658 54.8619 171.761C54.1448 171.582 53.6069 171.403 53.0691 171.403C48.2283 170.327 43.5668 168.892 38.7261 168.354C32.0925 167.457 25.6381 168.175 19.1838 170.327C17.9288 170.685 16.8531 171.223 15.7773 171.582C15.7773 171.761 15.7773 171.761 15.7773 171.941C17.2116 171.941 18.4667 172.12 19.7217 171.941Z" fill="#CB9866"/>
<path d="M69.9221 193.821C64.3642 196.869 58.4477 197.945 52.3519 197.766C46.4354 197.587 40.8775 196.511 35.1403 194.897C26.7138 192.565 18.6459 192.924 10.7573 196.69C10.0401 197.049 9.32296 197.407 8.60582 197.946C7.88867 198.304 7.1715 198.842 6.45435 199.38C6.63363 199.38 6.81296 199.38 7.17154 199.38C15.598 195.973 24.3831 195.614 32.9889 197.946C37.4711 199.201 41.9532 200.636 46.794 200.815C53.0691 201.174 59.1648 200.456 64.902 197.407C66.8742 196.331 68.6671 195.076 70.8185 193.641C70.46 193.462 70.2806 193.462 70.2806 193.462C70.1014 193.641 69.9221 193.821 69.9221 193.821Z" fill="#CB9866"/>
<path d="M40.6982 201.534C36.5746 201.534 32.6303 200.996 28.686 199.92C23.4866 198.485 18.4666 197.768 13.2672 199.561C11.1158 200.278 8.96435 201.354 6.99219 202.251C6.99219 202.43 7.17149 202.43 7.17149 202.61C7.35077 202.61 7.53004 202.61 7.70933 202.43C13.8051 200.099 19.9008 199.92 26.1759 201.713C30.4788 202.968 34.961 204.045 39.6224 203.686C41.7739 203.507 43.9253 202.968 46.0768 202.61C46.0768 202.43 46.0768 202.43 46.0768 202.251C44.1046 201.892 42.3117 201.534 40.6982 201.534Z" fill="#CB9866"/>
<path d="M35.8574 199.919C32.6302 199.202 29.403 198.485 25.9966 197.767C25.9966 197.947 25.9966 198.126 25.9966 198.126C29.2238 198.843 32.4509 199.561 35.6781 200.278C35.6781 200.278 35.8574 200.099 35.8574 199.919Z" fill="#CB9866"/>
<path d="M201.221 283.021C212.696 283.021 222.018 292.347 222.018 303.825V339.873C222.018 351.351 212.696 360.677 201.221 360.677H165.184C153.71 360.677 144.387 351.351 144.387 339.873V303.825C144.387 292.347 153.71 283.021 165.184 283.021H201.221ZM201.221 281.228H165.184C152.634 281.228 142.594 291.45 142.594 303.825V339.873C142.594 352.427 152.814 362.47 165.184 362.47H201.221C213.771 362.47 223.811 352.248 223.811 339.873V303.825C223.811 291.45 213.592 281.228 201.221 281.228Z" fill="#CB9866"/>
<path d="M151.738 340.413C155.682 337.902 159.627 337.722 163.75 340.413C166.44 342.206 169.667 342.206 172.356 340.413C175.942 337.902 180.424 337.902 184.01 340.413C186.878 342.385 190.106 342.385 192.974 340.413C196.381 338.081 200.863 337.902 204.269 340.233C206.779 342.027 210.186 342.744 213.413 340.592C213.951 341.309 214.489 341.847 215.026 342.565C212.875 344 210.724 344.717 208.214 344.358C206.421 344.179 204.628 343.461 203.014 342.385C200.504 340.592 197.277 340.592 194.588 342.385C190.643 345.255 185.803 344.717 182.396 342.385C179.707 340.413 176.838 340.592 173.97 342.385C169.846 345.076 165.722 344.896 161.778 342.206C159.268 340.592 156.579 340.592 154.069 342.027C153.889 342.027 153.889 342.206 153.71 342.206C153.71 342.206 153.531 342.385 153.352 342.385C152.814 341.847 152.276 341.13 151.738 340.413Z" fill="#CB9866"/>
<path d="M151.738 347.048C153.352 345.972 155.144 345.254 157.117 345.254C159.447 345.075 161.599 345.792 163.571 347.048C165.902 348.662 168.412 349.021 171.101 347.765C171.639 347.586 171.997 347.227 172.356 347.048C175.763 344.716 180.424 344.537 183.83 347.048C186.699 349.021 190.106 349.2 193.153 347.048C196.56 344.716 201.042 344.716 204.628 347.048C206.779 348.483 209.289 349.021 211.799 348.124C212.337 347.944 212.875 347.586 213.592 347.227C214.13 347.944 214.489 348.482 215.026 349.2C214.847 349.379 214.668 349.379 214.668 349.559C211.261 351.711 206.779 351.711 203.552 349.379C200.504 347.227 196.918 347.586 194.408 349.379C191.002 351.711 186.34 351.711 182.934 349.379C179.886 347.227 176.48 347.586 173.97 349.379C170.384 351.711 165.902 351.89 162.495 349.379C159.627 347.406 156.758 347.406 153.889 349.021C153.889 349.021 153.71 349.021 153.71 349.2C152.814 348.482 152.276 347.944 151.738 347.048C151.738 347.227 151.738 347.227 151.738 347.048Z" fill="#CB9866"/>
<path d="M151.738 333.597C155.144 331.086 159.806 331.087 163.392 333.418C165.364 334.853 167.515 335.391 169.846 334.673C170.742 334.494 171.46 333.956 172.177 333.597C175.942 331.086 180.245 331.086 184.01 333.597C186.878 335.57 190.106 335.57 192.974 333.597C196.381 331.266 200.863 331.087 204.448 333.418C207.496 335.391 210.365 335.749 213.413 333.597C213.951 334.315 214.489 335.032 215.026 335.57C213.054 337.005 210.903 337.722 208.393 337.364C206.421 337.184 204.628 336.467 203.014 335.391C200.504 333.597 197.277 333.597 194.588 335.391C190.464 338.081 186.34 338.081 182.396 335.391C179.707 333.597 176.838 333.777 174.149 335.391C170.025 338.081 165.902 338.081 161.957 335.391C159.447 333.777 156.758 333.777 154.069 335.211C153.889 335.391 153.71 335.391 153.531 335.57C152.814 335.032 152.276 334.494 151.738 333.597C151.738 333.777 151.738 333.777 151.738 333.597Z" fill="#CB9866"/>
<path d="M158.372 321.044C157.654 321.044 157.117 321.044 156.399 321.044C155.682 321.044 155.324 320.506 155.324 319.789C155.324 319.071 155.682 318.533 156.399 318.533C157.654 318.533 159.089 318.533 160.344 318.533C161.061 318.533 161.42 319.071 161.42 319.789C161.42 320.506 160.882 321.044 160.344 321.044C159.627 321.044 158.909 321.044 158.372 321.044Z" fill="#CB9866"/>
<path d="M210.723 321.044C210.006 321.044 209.468 321.044 208.751 321.044C208.034 321.044 207.676 320.506 207.676 319.789C207.676 319.071 208.034 318.533 208.751 318.533C210.006 318.533 211.261 318.533 212.516 318.533C213.233 318.533 213.592 319.071 213.592 319.789C213.592 320.506 213.054 321.044 212.337 321.044C211.978 321.044 211.441 321.044 210.723 321.044Z" fill="#CB9866"/>
<path d="M185.623 293.962C185.623 294.5 185.623 295.218 185.623 295.756C185.623 296.473 185.265 296.832 184.547 296.832C184.01 296.832 183.472 296.473 183.472 295.756C183.472 294.5 183.472 293.245 183.472 291.99C183.472 291.272 184.01 290.914 184.547 290.914C185.085 290.914 185.623 291.272 185.623 291.99C185.623 292.707 185.623 293.245 185.623 293.962Z" fill="#CB9866"/>
<path d="M164.467 298.804C164.826 298.984 165.185 299.163 165.364 299.342C166.26 300.06 166.977 300.957 167.695 301.674C168.232 302.212 168.232 302.929 167.874 303.288C167.336 303.826 166.798 303.647 166.26 303.109C165.364 302.212 164.647 301.495 163.75 300.598C163.392 300.239 163.212 299.701 163.571 299.342C163.75 299.342 164.109 299.163 164.467 298.804Z" fill="#CB9866"/>
<path d="M204.628 298.804C204.986 298.984 205.345 299.163 205.524 299.522C205.703 299.88 205.703 300.419 205.524 300.598C204.628 301.674 203.552 302.571 202.655 303.647C202.297 304.005 201.759 304.005 201.221 303.467C200.863 303.109 200.683 302.391 201.042 302.033C201.938 301.136 202.835 300.06 203.91 299.163C203.91 298.984 204.269 298.984 204.628 298.804Z" fill="#CB9866"/>
<path d="M184.548 323.195C191.54 323.195 197.994 324.63 202.656 327.141C205.345 320.684 204.269 311.179 196.918 305.081C189.926 299.163 179.707 299.163 172.535 304.902C165.005 310.82 163.571 320.505 166.44 327.32C171.101 324.63 177.376 323.195 184.548 323.195Z" fill="#CB9866"/>
</svg>
