<svg width="1920" height="546" viewBox="0 0 1920 546" fill="none" xmlns="http://www.w3.org/2000/svg"><path d="M46.961 340.228c13.013 10.06 28.799 13.434 43.473 13.145 16.973-.288 32.693-3.653 46.458-11.535 13.562-7.767 25.163-19.881 34.192-37.616l56.904 23.686c-22.116 51.953-69.203 83.354-137.58 83.92-37.836.285-74.183-11.709-101.06-36.217C-37.516 351.117-55 314.048-55 264.006c0-50.043 17.485-87.124 44.347-111.63 26.878-24.52 63.226-36.525 101.062-36.24 37.561.285 74.059 12.281 101.153 36.657 27.077 24.359 44.843 61.153 44.843 111.213 0 7.758-.526 15.028-1.578 22.237H20.141l.153 1.133c3.508 26.092 13.636 42.778 26.667 52.852zM21.455 232.956l-.285 1.226h138.48l-.27-1.217c-4.695-21.152-14.55-35.766-26.965-45.158-12.405-9.383-27.293-13.499-41.98-13.789-14.427-.29-29.185 3.689-41.592 13.147-12.415 9.464-22.409 24.362-27.39 45.791zm358.838 85.413l63.094-198.75h82.12L417.599 408.345h-76.47L233.221 119.619h82.072l63.094 198.75.953 3.003.953-3.003zm242.036 21.859c13.013 10.06 28.799 13.434 43.473 13.145 16.973-.288 32.693-3.653 46.458-11.536 13.563-7.766 25.163-19.88 34.192-37.615l56.905 23.686c-22.07 51.952-69.204 83.354-137.581 83.92-37.836.285-74.183-11.709-101.06-36.223-26.862-24.5-44.348-61.581-44.348-111.647s17.486-87.147 44.348-111.647c26.877-24.514 63.224-36.508 101.061-36.223 37.561.285 74.059 12.281 101.153 36.657 27.077 24.359 44.843 61.153 44.843 111.213 0 7.804-.526 15.076-1.578 22.285H595.509l.153 1.133c3.508 26.092 13.636 42.777 26.667 52.852zm-25.506-107.273l-.286 1.227h138.482l-.27-1.217c-4.694-21.128-14.538-35.731-26.947-45.122-12.398-9.383-27.286-13.511-41.996-13.825h-.001c-14.428-.29-29.174 3.689-41.575 13.147-12.408 9.464-22.403 24.362-27.407 45.79zm326.515 82.774v92.616h-73.521V119.619h73.521v52.488l1.91.416c9.225-20.195 21.731-34.563 37.794-43.896 16.073-9.34 35.79-13.684 59.508-13.684h.15v64.326c-33.027.144-57.909 7.497-74.511 28.201-16.715 20.845-24.851 55.009-24.851 108.259zm325.542-196.062h78.59l-123.82 330.6-.01.018v.017c-12.46 37.394-28.2 61.034-47.01 75.339-18.8 14.295-40.79 19.359-65.95 19.359H1076v-64.276h14.68c13.59 0 22.19-.413 28.65-4.446 6.49-4.051 10.65-11.63 15.86-25.255l.01-.014.01-.015 14.54-41.846.12-.341-.13-.338-108.15-288.802h78.6l63.09 185.981.94 2.778.95-2.775 63.71-185.984zm229.9 58.406h-1v230.272h-73.52V178.073h-45.35v-58.454h45.35v-16.698c.02-36.819 7.85-62.184 26.77-78.4 18.83-16.134 48.86-23.414 93.85-23.52V60.65c-17.77.089-29.57 2.573-36.92 9.113-7.53 6.698-10.14 17.408-10.14 33.158v16.698h48.83v58.454h-47.87zM1580.14 3.338h75.85v74.153h-75.85V3.338zm1.14 116.281h73.52v288.726h-73.52V119.619zM1974 245.397v162.996h-73.52V245.397c0-24.7-1.15-45.659-6.44-60.457-2.66-7.421-6.38-13.366-11.58-17.453-5.22-4.097-11.85-6.257-20.17-6.257-10.37 0-29.58 2.83-46.16 22.532-16.55 19.664-30.36 55.988-30.36 122.662v101.921h-73.52V119.619h73.47v58.309l1.89.461c22.49-43.309 57.64-63.399 96.14-63.399 20.19 0 35.87 4.328 48.05 11.719 12.18 7.389 20.93 17.88 27.18 30.316 12.53 24.918 15.02 57.559 15.02 88.372z" stroke="#4EF19F" stroke-width="2"/></svg>