<svg width="1000" height="269" viewBox="0 0 1000 269" fill="none" xmlns="http://www.w3.org/2000/svg"><path d="M95.226 168.75c6.666-3.817 12.366-9.729 16.82-18.312l27.112 11.285c-10.885 25.092-33.794 40.265-67.075 40.541-18.523.139-36.29-5.733-49.413-17.7C9.56 172.611 1 154.501 1 129.988S9.56 87.36 22.67 75.4c13.124-11.973 30.89-17.85 49.413-17.71 18.393.139 36.237 6.013 49.469 17.918 13.215 11.888 21.911 29.862 21.911 54.38 0 3.64-.236 7.059-.709 10.441H36.909l.153 1.134c1.74 12.951 6.78 21.299 13.322 26.356 6.523 5.043 14.42 6.722 21.724 6.578 8.418-.143 16.247-1.812 23.118-5.747zm-57.584-54.165l-.285 1.226h69.455l-.27-1.216c-2.334-10.519-7.246-17.825-13.466-22.53-6.208-4.696-13.648-6.747-20.965-6.892-7.203-.145-14.585 1.842-20.797 6.578-6.218 4.74-11.197 12.184-13.672 22.834zm247.942-55.181l-52.751 141.144h-36.947L143.135 59.404h39.306l30.954 97.504.953 3.003.953-3.003 30.953-97.504h39.33zm48.093 108.515c6.524 5.044 14.422 6.722 21.727 6.578 8.417-.143 16.245-1.813 23.115-5.747 6.666-3.817 12.366-9.729 16.82-18.312l27.112 11.285c-10.862 25.092-33.793 40.265-67.075 40.54-18.523.14-36.289-5.732-49.413-17.702-13.109-11.956-21.67-30.072-21.67-54.596 0-24.525 8.561-42.64 21.67-54.597 13.124-11.97 30.89-17.842 49.413-17.702 18.393.14 36.237 6.013 49.469 17.918 13.215 11.888 21.911 29.862 21.911 54.381 0 3.661-.236 7.082-.709 10.464H320.202l.152 1.134c1.742 12.951 6.781 21.298 13.323 26.356zm-12.742-53.335l-.287 1.227h69.457l-.27-1.216c-2.334-10.507-7.241-17.807-13.457-22.512-6.205-4.696-13.645-6.753-20.973-6.91h-.001c-7.203-.145-14.58 1.842-20.788 6.578-6.216 4.74-11.194 12.184-13.681 22.833zm160.752 40.871v45.094h-35.184V59.404h35.184V84.74l1.91.416c4.506-9.864 10.598-16.851 18.402-21.385 7.716-4.484 17.186-6.615 28.61-6.668v30.659c-16.077.144-28.346 3.81-36.574 14.072-8.344 10.406-12.348 27.378-12.348 53.621zm161.155-96.027h37.601l-60.708 162.091-.006.018-.006.017c-6.114 18.356-13.817 29.891-22.97 36.851-9.139 6.949-19.845 9.428-32.162 9.428h-6.723v-30.632h6.723c6.652 0 11.045-.189 14.373-2.266 3.358-2.095 5.454-5.986 8.017-12.684l.005-.015.005-.014 7.16-20.604.118-.341-.126-.338L541.15 59.428h37.607l30.944 91.226.943 2.779.95-2.776 31.248-91.23zM755.675 87.17h-1v113.378h-35.184V87.17h-22.324V59.404h22.324v-8.728c.012-18.072 3.859-30.376 13.008-38.217 9.056-7.761 23.529-11.35 45.369-11.457v28.356c-8.486.088-14.312 1.323-18.01 4.612-3.88 3.452-5.159 8.925-5.159 16.705v8.73h24.038V87.17h-23.062zm50.414-85.019h36.334v35.495h-36.334V2.151zm.564 57.253h35.184v141.144h-35.184V59.404zM999 120.826v79.746h-35.184v-79.746c0-12.154-.561-22.558-3.201-29.939-1.327-3.71-3.204-6.731-5.866-8.821-2.675-2.1-6.052-3.189-10.243-3.189-5.204 0-14.825 1.425-23.116 11.275-8.259 9.812-15.068 27.837-15.068 60.722v49.674h-35.184V59.404h35.161v28.202l1.887.461c10.994-21.17 28.133-30.942 46.884-30.942 9.867 0 17.493 2.115 23.397 5.696 5.902 3.58 10.148 8.668 13.193 14.721 6.112 12.153 7.34 28.118 7.34 43.284z" stroke="#4EF19F" stroke-width="2"/></svg>