<?xml version="1.0" standalone="no"?>
<!DOCTYPE svg PUBLIC "-//W3C//DTD SVG 20010904//EN"
 "http://www.w3.org/TR/2001/REC-SVG-20010904/DTD/svg10.dtd">
<svg version="1.0" xmlns="http://www.w3.org/2000/svg"
 width="700.000000pt" height="700.000000pt" viewBox="0 0 700.000000 700.000000"
 preserveAspectRatio="xMidYMid meet">
<metadata>
Created by potrace 1.11, written by Peter Selinger 2001-2013
</metadata>
<g transform="translate(0.000000,700.000000) scale(0.100000,-0.100000)"
fill="#000000" stroke="none">
<path d="M979 6980 c-75 -40 -69 53 -69 -1139 0 -1013 1 -1075 19 -1183 102
-592 512 -1063 1210 -1387 411 -191 925 -337 1436 -406 459 -61 894 -166 1018
-244 128 -82 212 -194 265 -356 21 -64 24 -339 4 -400 -55 -167 -166 -315
-292 -387 -96 -56 -378 -133 -592 -163 -135 -18 -253 -20 -935 -17 l-573 2 0
573 c0 452 -3 577 -13 591 -8 11 -60 29 -147 51 -291 73 -530 176 -765 329
-149 97 -253 183 -396 326 -75 75 -144 140 -154 144 -12 4 -26 -1 -42 -15
l-23 -22 0 -1639 0 -1639 1723 4 c1189 3 1751 8 1817 15 406 48 650 105 905
208 264 108 489 265 661 461 223 255 363 530 433 849 56 251 43 762 -25 1059
-154 669 -570 1102 -1294 1345 -160 53 -352 97 -706 160 -942 168 -1251 238
-1498 339 -228 93 -363 213 -423 374 -41 112 -45 154 -50 515 l-5 352 419 3
c566 3 663 1 780 -12 211 -25 493 -99 607 -160 59 -32 111 -95 160 -196 62
-127 71 -172 71 -355 0 -91 -4 -195 -8 -231 -8 -61 -7 -67 15 -92 20 -23 39
-29 147 -47 339 -56 732 -172 1064 -313 148 -64 149 -63 241 128 115 239 163
481 151 755 -15 318 -62 522 -180 765 -96 199 -250 409 -382 522 -30 27 -81
71 -112 98 -31 28 -76 59 -101 69 -105 45 -158 70 -200 96 -25 15 -56 31 -68
35 -13 4 -46 20 -72 37 -27 17 -77 38 -112 48 -35 9 -117 33 -183 53 -171 50
-230 60 -565 94 -145 15 -344 17 -1645 20 -1445 2 -1481 2 -1516 -17z"/>
</g>
</svg>
