<svg fill="#f3e2c3" data-name="Layer 1" xmlns="http://www.w3.org/2000/svg" viewBox="0 0 583.5 51.1"><path d="M113 42H92.5L89 50.6H78.8L98 6.4h10.3l18.9 44.2h-10.7zm-3.2-8l-7-17.2-7 17.2h14zm46.6-27.6v44.2h-10V6.4h10zm59.7 0v6.7l-24.7 29.2h25.1l-.1 8.3h-38.5v-6.7l24.8-29.1h-23.9V6.5h37.3v-.1zm50.8 44.2l-12.7-18-6.4 7.1v10.9h-10V6.4h10v20.1l18.4-20.1h11.6l-16.6 18.5L279 50.7h-12.1v-.1zm47.9-8.3c5.9 0 9.9-3.9 9.9-10.2V6.4h10v25.7c0 11.7-7.6 19-19.8 19s-20.1-7.3-20.1-19V6.4h10v25.7c-.1 6.4 4.1 10.2 10 10.2zm49.9-35.9v35.5h19v8.7h-28.9V6.4h9.9zm49.5 0v44.2h-10V6.4h10zm39.7 8.1c-3.3 0-5.6 1.2-5.6 3.6 0 8.2 23.6 3.6 23.5 19.5 0 8.7-7.5 13.3-17.3 13.3a31.12 31.12 0 01-19.5-7l4-8.2c4.6 4 11 6.6 15.7 6.6 4.1 0 6.6-1.5 6.6-4.2 0-8.3-23.6-3.5-23.6-19.1 0-8 6.9-13.1 17.1-13.1a31.56 31.56 0 0116.8 4.8l-3.9 8.3c-4.7-2.8-10.2-4.5-13.8-4.5zm73.2-8.1v8.3h-23.7v9.6h21.3v8.3h-21.3v9.8h24.4v8.3h-34.4V6.5h33.7v-.1zm38.5 8.1c-3.3 0-5.6 1.2-5.6 3.6 0 8.2 23.6 3.6 23.5 19.5 0 8.7-7.5 13.3-17.3 13.3a31.12 31.12 0 01-19.5-7l4-8.2c4.6 4 11 6.6 15.7 6.6 4.1 0 6.6-1.5 6.6-4.2 0-8.3-23.6-3.5-23.6-19.1 0-8 6.9-13.1 17.1-13.1a31.56 31.56 0 0116.8 4.8l-3.9 8.3c-4.7-2.8-10.2-4.5-13.8-4.5zM0 0v50.6h50.6V0H0zm47.1 47.1H31.4V31.4L15.7 47.1H3.5L47.1 3.5v43.6z"/></svg>