<?xml version="1.0" standalone="no"?>
<!DOCTYPE svg PUBLIC "-//W3C//DTD SVG 1.1//EN" "http://www.w3.org/Graphics/SVG/1.1/DTD/svg11.dtd" >
<svg xmlns="http://www.w3.org/2000/svg" xmlns:xlink="http://www.w3.org/1999/xlink" version="1.1">
<metadata>
Created by FontForge 20170731 at Sat Feb 15 14:10:06 2014
 By Aleksey,,,
Copyright (c) ParaType, Inc., 2006. All rights reserved.
</metadata>
<defs>
<font id="JournalSans" horiz-adv-x="0" >
  <font-face 
    font-family="Journal Sans"
    font-weight="400"
    font-stretch="normal"
    units-per-em="1000"
    panose-1="2 0 5 3 2 0 0 2 0 3"
    ascent="800"
    descent="-200"
    x-height="437"
    cap-height="666"
    bbox="-400 -289 1225 889"
    underline-thickness="50"
    underline-position="-200"
    unicode-range="U+0020-F6DC"
  />
<missing-glyph horiz-adv-x="233" 
 />
    <glyph glyph-name="afii10017.var.accented" unicode="&#x410;`" horiz-adv-x="733" 
d="M505 179h-277l-86 -179h-103l327 680l328 -680h-103zM366 467l-105 -204h211zM359 695h-65l87 139h142z" />
    <glyph glyph-name="afii10022.var.accented" unicode="&#x415;`" horiz-adv-x="515" 
d="M148 402h314v-84h-314v-234h314v-84h-409v666h409v-83h-314v-181zM250 695h-65l87 139h142z" />
    <glyph glyph-name="afii10026.var.accented" unicode="&#x418;`" horiz-adv-x="668" 
d="M520 0v469l-467 -483v680h95v-468l467 482v-680h-95zM326 695h-65l87 139h142z" />
    <glyph glyph-name="afii10032.var.accented" unicode="&#x41e;`" horiz-adv-x="801" 
d="M42 333q0 139 102 243q104 104 258 104q150 0 254 -104q103 -103 103 -243t-103 -243q-102 -104 -254 -104q-106 0 -190 51q-82 51 -126 129t-44 167zM401 70q113 0 185 75q72 77 72 187t-72 187t-185 77q-114 0 -186 -77t-72 -187t72 -186t186 -76zM393 695h-65l87 139
h142z" />
    <glyph glyph-name="afii10037.var.accented" unicode="&#x423;`" horiz-adv-x="668" 
d="M146 666l222 -391l158 391h103l-155 -386l-14 -35q-11 -29 -26 -64q-4 -11 -25 -55q-17 -35 -29 -49q-43 -53 -76 -68q-56 -23 -118 -23q-48 0 -88 14v88q58 -18 113 -18q76 0 113 94l-285 502h107zM326 695h-65l87 139h142z" />
    <glyph glyph-name="afii10045.var.accented" unicode="&#x42b;`" horiz-adv-x="764" 
d="M711 0h-95v666h95v-666zM53 666h95v-267h132q106 0 165 -56t59 -133q0 -72 -41 -136q-22 -34 -68 -54t-108 -20h-234v666zM148 315v-231h113q43 0 72 8q65 18 70 113q0 110 -141 110h-114zM374 695h-65l87 139h142z" />
    <glyph glyph-name="afii10047.var.accented" unicode="&#x42d;`" horiz-adv-x="680" 
d="M42 65l65 68q75 -63 177 -63q113 0 178 68q66 70 76 164h-324v84h324q-18 95 -89 152q-70 58 -169 58q-103 0 -173 -61l-65 70q97 75 239 75q153 0 254 -97q103 -97 103 -242q0 -144 -97 -250q-97 -105 -262 -105q-125 0 -237 79zM332 695h-65l87 139h142z" />
    <glyph glyph-name="afii10048.var.accented" unicode="&#x42e;`" horiz-adv-x="1081" 
d="M148 320v-320h-95v666h95v-262h182q25 117 122 197q95 79 230 79q150 0 254 -104q103 -103 103 -243t-103 -243q-102 -104 -254 -104q-145 0 -248 94q-104 94 -111 240h-175zM681 70q113 0 185 75q72 77 72 187t-72 187t-185 77q-114 0 -186 -77t-72 -187t72 -186
t186 -76zM533 695h-65l87 139h142z" />
    <glyph glyph-name="afii10049.var.accented" unicode="&#x42f;`" horiz-adv-x="591" 
d="M442 0v280h-42l-243 -280h-118l243 278q-23 3 -45 10t-48.5 22.5t-46.5 36.5t-33.5 55t-13.5 76q0 87 59 137q60 51 153 51h231v-666h-96zM442 364v218h-107q-139 0 -139 -105q0 -35 22 -70q29 -43 118 -43h106zM288 695h-65l87 139h142z" />
    <glyph glyph-name="afii10065.var.accented" unicode="&#x430;`" horiz-adv-x="496" 
d="M118 342l-18 76q84 30 166 30t129.5 -35t47.5 -99v-314h-90v26q-64 -37 -141 -37q-82 0 -126 44q-44 46 -44 101q0 50 46 93q47 44 142 44q65 0 123 -29v22q0 38 -12 65q-13 40 -85 40q-78 0 -138 -27zM137 133q0 -28 26 -47t75 -19q60 0 87.5 19t27.5 47
q0 25 -29.5 42.5t-80.5 17.5q-49 0 -77.5 -17t-28.5 -43zM240 533h-65l87 167h142z" />
    <glyph glyph-name="afii10070.var.accented" unicode="&#x435;`" horiz-adv-x="549" 
d="M438 128l63 -49q-43 -51 -92.5 -70.5t-118.5 -19.5q-124 0 -186 68t-62 168t67 161q68 62 178 62q55 0 97 -17t65.5 -43t37.5 -60.5t18 -65t2 -60.5h-369q-1 -55 43 -95t110 -40q92 0 147 61zM149 280h250q-7 44 -39.5 69t-79.5 25q-49 0 -84.5 -25.5t-46.5 -68.5z
M267 533h-65l87 167h142z" />
    <glyph glyph-name="afii10074.var.accented" unicode="&#x438;`" horiz-adv-x="496" 
d="M353 0v273l-300 -284v448h90v-269l300 280v-448h-90zM240 533h-65l87 167h142z" />
    <glyph glyph-name="afii10080.var.accented" unicode="&#x43e;`" horiz-adv-x="578" 
d="M42 218q0 86 66 158q68 72 181 72q105 0 175 -66q72 -66 72 -164q0 -97 -72 -163q-70 -66 -175 -66q-113 0 -181 72q-66 72 -66 157zM138 218q0 -60 44 -106q44 -45 107 -45q62 0 106 44q45 45 45 107t-45 107q-43 45 -106 45t-107 -45q-44 -46 -44 -107zM281 533h-65
l87 167h142z" />
    <glyph glyph-name="afii10085.var.accented" unicode="&#x443;`" horiz-adv-x="532" 
d="M126 437l141 -310l139 310h90l-291 -649h-90l108 242l-187 407h90zM258 533h-65l87 167h142z" />
    <glyph glyph-name="afii10093.var.accented" unicode="&#x44b;`" horiz-adv-x="667" 
d="M614 0h-90v437h90v-437zM53 437h90v-156h117q83 0 126 -41q42 -40 42 -95q0 -48 -32 -92q-38 -53 -147 -53h-196v437zM143 203v-125h105q85 0 85 66q0 59 -85 59h-105zM326 533h-65l87 167h142z" />
    <glyph glyph-name="afii10095.var.accented" unicode="&#x44d;`" horiz-adv-x="482" 
d="M345 187h-173v78h172q-6 50 -41.5 77.5t-93.5 27.5q-63 0 -106 -43l-35 65q68 56 154 56q100 0 159 -56.5t59 -159.5q0 -113 -58 -178q-57 -65 -153 -65q-117 0 -187 85l45 52q59 -59 123 -59q58 0 95.5 32.5t39.5 87.5zM233 533h-65l87 167h142z" />
    <glyph glyph-name="afii10096.var.accented" unicode="&#x44e;`" horiz-adv-x="795" 
d="M143 437v-162h125q24 81 92 127q67 46 147 46q102 0 173 -67q73 -67 73 -163q0 -95 -73 -162q-71 -67 -173 -67q-85 0 -158 54q-74 54 -87 154h-119v-197h-90v437h90zM507 370q-63 0 -107 -45q-44 -46 -44 -107q0 -60 44 -106q43 -45 107 -45q62 0 106 44q45 45 45 107
t-45 107q-43 45 -106 45zM390 533h-65l87 167h142z" />
    <glyph glyph-name="afii10097.var.accented" unicode="&#x44f;`" horiz-adv-x="453" 
d="M232 437h168v-437h-90v180h-42l-121 -180h-111l128 180q-47 10 -75 45t-28 79q0 54 40 93q40 40 131 40zM310 237v122h-79q-75 0 -75 -59q0 -28 15 -43q10 -10 21.5 -14.5t20 -5t26.5 -0.5h71zM219 533h-65l87 167h142z" />
    <glyph glyph-name=".notdef" horiz-adv-x="233" 
 />
    <glyph glyph-name=".null" 
 />
    <glyph glyph-name="nonmarkingreturn" horiz-adv-x="333" 
 />
    <glyph glyph-name="space" unicode=" " horiz-adv-x="233" 
 />
    <glyph glyph-name="space" unicode="&#xa0;" horiz-adv-x="233" 
 />
    <glyph glyph-name="exclam" unicode="!" horiz-adv-x="350" 
d="M210 196h-70l-28 470h126zM112 0v126h126v-126h-126z" />
    <glyph glyph-name="quotedbl" unicode="&#x22;" horiz-adv-x="412" 
d="M70 666h95l-28 -218h-39zM246 666h96l-29 -218h-38z" />
    <glyph glyph-name="numbersign" unicode="#" horiz-adv-x="910" 
d="M603 126l-34 -182h-90l35 182h-191l-34 -182h-90l35 182h-178l17 84h178l37 196h-178l18 84h177l35 182h90l-35 -182h190l35 182h90l-35 -182h179l-18 -84h-178l-37 -196h177l-17 -84h-178zM341 210h190l37 196h-190z" />
    <glyph glyph-name="dollar" unicode="$" horiz-adv-x="538" 
d="M53 49l43 85q74 -53 154 -62v227q-93 58 -124 85q-54 50 -54 122q0 63 46 115q46 51 132 59v73h45v-73q69 -5 149 -46l-37 -80q-55 28 -112 36v-209q88 -45 132 -85q58 -48 58 -125q0 -60 -50 -118q-49 -56 -140 -67v-129h-45v129q-102 12 -197 63zM295 274v-203
q41 8 65 35t24 61q0 33 -26 61.5t-63 45.5zM250 408v182q-35 -7 -56 -31t-21 -55q0 -60 77 -96z" />
    <glyph glyph-name="percent" unicode="%" horiz-adv-x="885" 
d="M662 335q80 0 123 -54q44 -53 44 -122q0 -68 -44 -123q-44 -53 -123 -53t-123 53t-44 123t44 123t123 53zM568 158q0 -48 25 -78t69 -30q45 0 69.5 29.5t24.5 78.5t-24.5 79.5t-69.5 30.5q-43 0 -68.5 -30.5t-25.5 -79.5zM705 670l-469 -715l-59 38l466 718zM56 504
q0 78 48 127t119 49q79 0 123 -54q44 -53 44 -122q0 -76 -48 -126q-47 -50 -119 -50q-71 0 -119 49t-48 127zM129 504q0 -49 25 -78.5t69 -29.5q45 0 69.5 29t24.5 79t-24.5 79.5t-69.5 29.5q-65 0 -83 -52q-11 -35 -11 -57z" />
    <glyph glyph-name="ampersand" unicode="&#x26;" horiz-adv-x="669" 
d="M536 365l77 -39q-37 -90 -96 -172l96 -154h-109l-49 70q-23 -24 -50 -43q-59 -41 -131 -41q-90 0 -155 65q-63 64 -63 154q0 79 48 144q49 64 125 83q-6 8 -14 24t-14 24l-10 19q-13 29 -16 67q0 42 37 78q38 36 110 36q62 0 118 -27l-26 -79q-43 22 -84 22h-3
q-23 0 -36 -4q-21 -5 -21 -25q0 -29 32 -79l165 -253q29 48 69 130zM408 153l-140 220q-53 -21 -82 -65.5t-29 -102.5q0 -59 33 -97t79 -38q42 0 80 22t59 61z" />
    <glyph glyph-name="quotesingle" unicode="'" horiz-adv-x="236" 
d="M70 666h96l-29 -218h-38z" />
    <glyph glyph-name="parenleft" unicode="(" horiz-adv-x="356" 
d="M229 717l71 -52q-93 -102 -121 -236q-22 -104 -22 -180q0 -58 7 -113t41 -147q36 -93 92 -155l-68 -52q-173 209 -173 456q0 259 173 479z" />
    <glyph glyph-name="parenright" unicode=")" horiz-adv-x="356" 
d="M56 665l71 52q173 -215 173 -479q0 -180 -80 -318q-27 -48 -55 -89q-16 -23 -38 -49l-68 52q140 161 140 415q0 258 -143 416z" />
    <glyph glyph-name="asterisk" unicode="*" horiz-adv-x="425" 
d="M363 558l-90 -29l56 -76l-62 -44l-55 75l-55 -75l-61 44l54 76l-88 29l24 72l89 -29v93h75v-93l89 29z" />
    <glyph glyph-name="plus" unicode="+" horiz-adv-x="742" 
d="M413 238v-280h-84v280h-280v84h280v280h84v-280h280v-84h-280z" />
    <glyph glyph-name="comma" unicode="," horiz-adv-x="350" 
d="M143 126h109l-73 -252h-81z" />
    <glyph glyph-name="hyphen" unicode="-" horiz-adv-x="350" 
d="M322 182h-294v84h294v-84z" />
    <glyph glyph-name="hyphen" unicode="&#x2010;" horiz-adv-x="350" 
d="M322 182h-294v84h294v-84z" />
    <glyph glyph-name="hyphen" unicode="&#xad;" horiz-adv-x="350" 
d="M322 182h-294v84h294v-84z" />
    <glyph glyph-name="period" unicode="." horiz-adv-x="350" 
d="M112 0v126h126v-126h-126z" />
    <glyph glyph-name="slash" unicode="/" horiz-adv-x="709" 
d="M639 622l-504 -835l-65 42l502 837z" />
    <glyph glyph-name="zero" unicode="0" horiz-adv-x="526" 
d="M42 333q0 171 43 254q19 37 49 58q49 35 129 35t128 -35q45 -30 68 -104t25 -208q0 -158 -39 -244q-44 -103 -182 -103q-136 0 -183 103q-38 89 -38 244zM143 345v-12q0 -125 14 -175q25 -88 107 -88q71 0 97 66q15 41 19 91q2 42 2 47q1 11 1 49v10q0 129 -15 178
q-28 84 -104 85q-76 6 -106 -85q-8 -21 -11 -55l-4 -55v-56z" />
    <glyph glyph-name="one" unicode="1" horiz-adv-x="526" 
d="M150 437v102q34 25 66 61t47 66h74v-666h-95v527q-37 -49 -92 -90z" />
    <glyph glyph-name="two" unicode="2" horiz-adv-x="526" 
d="M199 84h261l-42 -84h-398q70 90 142 174l112 133q86 101 86 175q0 50 -28.5 82t-78.5 32q-71 0 -123 -55l-43 80q80 59 177 59q92 0 145 -54q52 -53 52 -126q0 -85 -65 -182q-67 -99 -197 -234z" />
    <glyph glyph-name="three" unicode="3" horiz-adv-x="526" 
d="M94 561l-35 72q83 47 166 47q90 0 146 -38q57 -38 57 -90q0 -126 -95 -176q70 -23 102 -68t32 -101q0 -93 -70 -157t-189 -64q-72 0 -143 25v94q78 -35 143 -35q78 0 121.5 36.5t43.5 93.5q0 62 -54 98.5t-149 28.5v84q7 -1 29 -1q136 0 136 122q0 21 -28 42.5t-87 21.5
q-54 0 -126 -35z" />
    <glyph glyph-name="four" unicode="4" horiz-adv-x="526" 
d="M432 192h55l-28 -84h-27v-108h-96v108h-297v55l332 503h61v-474zM149 192h187v284z" />
    <glyph glyph-name="five" unicode="5" horiz-adv-x="526" 
d="M443 582h-213l-45 -138q84 -1 143.5 -26t88 -64t40 -76t11.5 -76q0 -38 -15 -74.5t-44.5 -69t-82 -52.5t-119.5 -20q-79 0 -145 29v89q53 -34 127 -34q92 0 135 43t43 93q0 66 -52 114q-53 48 -140 48h-92l96 298h289z" />
    <glyph glyph-name="six" unicode="6" horiz-adv-x="526" 
d="M163 486l140 180h119l-225 -285q40 15 80 15q88 0 148 -57q61 -55 61 -140t-61 -149q-60 -64 -158 -64q-97 0 -161 58t-64 143q0 145 121 299zM143 192q0 -51 35 -86.5t86 -35.5q50 0 85 35q36 36 36 87q0 50 -36 85q-35 36 -85 36q-52 0 -86 -36q-35 -35 -35 -85z" />
    <glyph glyph-name="seven" unicode="7" horiz-adv-x="526" 
d="M340 582h-298l42 84h401l-338 -666h-101z" />
    <glyph glyph-name="eight" unicode="8" horiz-adv-x="526" 
d="M170 357q-98 55 -98 137q0 74 53 130q54 56 138 56q85 0 138 -56q54 -56 54 -130q0 -81 -98 -137q57 -24 91.5 -68t34.5 -94q0 -81 -61 -145t-159 -64q-97 0 -158 64q-62 65 -62 145q0 49 36 94.5t91 67.5zM262 70q53 0 87 37q35 38 35 86q0 50 -34 85q-34 37 -87 37
t-87 -37q-33 -36 -33 -85q0 -48 35 -86q34 -37 84 -37zM263 399q40 0 65 31q26 32 26 66q0 36 -23 68t-68 32q-44 0 -67 -32t-23 -68q0 -38 26 -67.5t64 -29.5z" />
    <glyph glyph-name="nine" unicode="9" horiz-adv-x="526" 
d="M365 181l-141 -181h-119l225 286q-42 -17 -73 -17q-90 0 -154 59q-62 60 -62 140q0 82 60 147q62 65 159 65q96 0 160 -58q65 -59 65 -142q0 -144 -120 -299zM384 475q0 51 -36 86q-35 35 -85 35q-51 0 -86 -36q-35 -35 -35 -85q0 -49 35 -86q34 -36 86 -36q51 0 85 36
q36 36 36 86z" />
    <glyph glyph-name="colon" unicode=":" horiz-adv-x="350" 
d="M112 0v126h126v-126h-126zM112 322v126h126v-126h-126z" />
    <glyph glyph-name="semicolon" unicode=";" horiz-adv-x="350" 
d="M126 322v126h126v-126h-126zM143 126h109l-73 -252h-81z" />
    <glyph glyph-name="semicolon" unicode="&#x37e;" horiz-adv-x="350" 
d="M126 322v126h126v-126h-126zM143 126h109l-73 -252h-81z" />
    <glyph glyph-name="less" unicode="&#x3c;" horiz-adv-x="832" 
d="M747 -24l-685 304l685 304l23 -60l-526 -244l526 -244z" />
    <glyph glyph-name="equal" unicode="=" horiz-adv-x="742" 
d="M700 140h-658v84h658v-84zM700 336h-658v84h658v-84z" />
    <glyph glyph-name="greater" unicode="&#x3e;" horiz-adv-x="832" 
d="M85 584l685 -304l-685 -304l-23 60l526 244l-526 244z" />
    <glyph glyph-name="question" unicode="?" horiz-adv-x="353" 
d="M42 596l21 75q39 9 89 9q159 0 159 -118q0 -51 -46 -103l-65 -71q-29 -35 -29 -53q0 -14 11 -33q15 -22 60 -60l-59 -66q-39 32 -55 47q-21 21 -39 50q-19 31 -19 61q0 36 52 97l68 81q14 17 14 63q0 29 -61 29q-59 0 -101 -8zM91 0v126h126v-126h-126z" />
    <glyph glyph-name="at" unicode="@" horiz-adv-x="742" 
d="M502 504h63l-63 -214q-11 -46 -11 -47q0 -22 12 -34.5t32 -12.5q48 0 92 53q45 53 45 138q0 104 -91 180q-91 77 -203 77q-119 0 -214 -89q-94 -88 -94 -219q0 -124 90 -216t222 -92q103 0 189 68l25 -34q-97 -76 -218 -76q-148 0 -249 104t-101 246q0 148 103 248
q104 101 245 101t239 -94q99 -94 99 -214q0 -101 -60 -163q-58 -60 -137 -60q-60 0 -83 41q-64 -41 -115 -41q-45 0 -77 34.5t-32 96.5q0 104 58 168q59 65 132 65q57 0 92 -47zM425 254l49 161q-11 28 -34 44.5t-48 16.5q-49 0 -88 -50q-38 -50 -38 -113q0 -117 76 -117
q24 0 47 15.5t36 42.5z" />
    <glyph glyph-name="A" unicode="A" horiz-adv-x="733" 
d="M505 179h-277l-86 -179h-103l327 680l328 -680h-103zM366 467l-105 -204h211z" />
    <glyph glyph-name="B" unicode="B" horiz-adv-x="543" 
d="M280 0h-227v666h188h30q9 0 38 -3t45 -9q57 -20 79 -48q35 -42 35 -109q0 -55 -23 -94t-67 -51q54 -13 88.5 -55t34.5 -101q0 -55 -18 -97q-41 -95 -203 -99zM148 582v-197h99q120 0 120 102q0 42 -29 68.5t-91 26.5h-99zM148 301v-217h118q67 0 100.5 25.5t33.5 85.5
q0 106 -133 106h-119z" />
    <glyph glyph-name="C" unicode="C" horiz-adv-x="680" 
d="M573 159l65 -53q-98 -120 -253 -120q-84 0 -153 32t-110 87q-80 111 -80 242q0 144 105 239q106 94 261 94q61 0 109 -21.5t100 -68.5l-65 -63q-61 69 -152 69q-106 0 -182 -70q-76 -69 -76 -182q0 -111 62 -193q62 -81 168 -81q124 0 201 89z" />
    <glyph glyph-name="D" unicode="D" horiz-adv-x="655" 
d="M253 0h-200v666h203q89 0 159.5 -27.5t112.5 -76.5q85 -96 85 -229q0 -97 -39 -174q-82 -159 -321 -159zM255 582h-107v-498h107q77 0 129 19q38 13 64 39q64 60 64 190q0 131 -65 190.5t-192 59.5z" />
    <glyph glyph-name="E" unicode="E" horiz-adv-x="515" 
d="M148 402h314v-84h-314v-234h314v-84h-409v666h409v-83h-314v-181z" />
    <glyph glyph-name="F" unicode="F" horiz-adv-x="515" 
d="M148 403h311v-84h-311v-319h-95v666h409v-84h-314v-179z" />
    <glyph glyph-name="G" unicode="G" horiz-adv-x="781" 
d="M659 574l-72 -56q-77 78 -186 78q-114 0 -186 -77t-72 -187t72 -186t186 -76q96 0 160 55q65 56 74 143h-245l34 84h315q-2 -102 -46 -192q-37 -78 -109 -126t-182 -48q-75 0 -138.5 23.5t-105.5 61.5q-58 54 -88 127t-28 135q0 139 102 243q104 104 258 104
q147 0 257 -106z" />
    <glyph glyph-name="H" unicode="H" horiz-adv-x="666" 
d="M518 320h-370v-320h-95v666h95v-262h370v262h95v-666h-95v320z" />
    <glyph glyph-name="I" unicode="I" horiz-adv-x="201" 
d="M148 0h-95v666h95v-666z" />
    <glyph glyph-name="J" unicode="J" horiz-adv-x="333" 
d="M184 141v525h96v-548q0 -56 -21 -91q-26 -41 -117 -41q-53 0 -103 7v77q49 -11 84 -11q43 0 54 30q7 21 7 52z" />
    <glyph glyph-name="K" unicode="K" horiz-adv-x="648" 
d="M148 0h-95v666h95v-305l235 305h122l-267 -312l371 -354h-133l-291 291l-37 -46v-245z" />
    <glyph glyph-name="L" unicode="L" horiz-adv-x="498" 
d="M462 84v-84h-409v666h95v-582h314z" />
    <glyph glyph-name="M" unicode="M" horiz-adv-x="906" 
d="M237 680l216 -483l216 483l198 -680h-95l-123 425l-196 -439l-196 439l-123 -425h-95z" />
    <glyph glyph-name="N" unicode="N" horiz-adv-x="645" 
d="M592 -14l-455 483v-469h-84v680l455 -480v466h84v-680z" />
    <glyph glyph-name="O" unicode="O" horiz-adv-x="801" 
d="M42 333q0 139 102 243q104 104 258 104q150 0 254 -104q103 -103 103 -243t-103 -243q-102 -104 -254 -104q-106 0 -190 51q-82 51 -126 129t-44 167zM401 70q113 0 185 75q72 77 72 187t-72 187t-185 77q-114 0 -186 -77t-72 -187t72 -186t186 -76z" />
    <glyph glyph-name="P" unicode="P" horiz-adv-x="526" 
d="M267 271h-119v-271h-95v666h209q111 0 165 -52q23 -21 36 -51q21 -44 21 -96q0 -46 -18 -89q-37 -103 -199 -107zM148 582v-227h103q132 0 132 116q0 71 -46 92q-35 19 -91 19h-98z" />
    <glyph glyph-name="Q" unicode="Q" horiz-adv-x="800" 
d="M768 65l-30 -84q-74 28 -172 28q-17 0 -72 -11q-52 -12 -92 -12q-113 0 -197 51q-163 99 -163 296q0 141 102 244t258 103q152 0 254 -99q102 -97 102 -246q0 -46 -20 -111q-26 -84 -117 -143l2 -8q68 13 145 -8zM401 70q113 0 185 75q72 77 72 187t-72 187t-185 77
q-114 0 -186 -77t-72 -187t72 -186t186 -76z" />
    <glyph glyph-name="R" unicode="R" horiz-adv-x="590" 
d="M190 280h-42v-280h-95v666h230q94 0 153 -50t59 -138t-56 -141q-54 -51 -134 -56l246 -281h-118zM255 582h-107v-218h106q140 0 140 113q0 105 -139 105z" />
    <glyph glyph-name="S" unicode="S" horiz-adv-x="514" 
d="M42 50l41 79q82 -59 174 -59q57 0 85.5 28t28.5 71q0 21 -12 50q-4 11 -34 37q-14 14 -51 31l-32 16l-33 17q-49 24 -93 61q-51 48 -51 126q0 73 58 122q59 51 153 51q90 0 166 -36l-42 -81q-56 33 -123 33q-54 0 -82.5 -25.5t-28.5 -61.5q0 -45 48 -81q22 -15 46 -28
q15 -8 53.5 -27t48.5 -25q56 -32 83 -74.5t27 -106.5q0 -83 -63 -132q-61 -49 -154 -49q-113 0 -213 64z" />
    <glyph glyph-name="T" unicode="T" horiz-adv-x="503" 
d="M299 0h-95v582h-168v84h431v-84h-168v-582z" />
    <glyph glyph-name="U" unicode="U" horiz-adv-x="660" 
d="M512 666h95v-396q0 -78 -24 -137q-17 -44 -44 -73q-29 -32 -84 -53t-124 -21q-155 0 -224 96q-35 49 -47 109q-7 41 -7 79v396h95v-399q0 -197 182 -197q93 0 137 46q17 17 29 49q16 42 16 102v399z" />
    <glyph glyph-name="V" unicode="V" horiz-adv-x="710" 
d="M355 200l224 466h103l-327 -680l-327 680h103z" />
    <glyph glyph-name="W" unicode="W" horiz-adv-x="1090" 
d="M761 -14l-216 484l-216 -484l-301 680h96l202 -476l219 490l220 -490l201 476h96z" />
    <glyph glyph-name="X" unicode="X" horiz-adv-x="638" 
d="M486 0l-167 273l-167 -273h-113l223 365l-183 301h113l126 -209l128 209h113l-184 -301l224 -365h-113z" />
    <glyph glyph-name="Y" unicode="Y" horiz-adv-x="633" 
d="M269 0v218l-241 448h103l185 -346l186 346h103l-241 -448v-218h-95z" />
    <glyph glyph-name="Z" unicode="Z" horiz-adv-x="598" 
d="M534 0h-506l369 582h-345l25 84h486l-369 -582h369z" />
    <glyph glyph-name="bracketleft" unicode="[" horiz-adv-x="350" 
d="M70 -213v879h210v-84h-115v-711h115v-84h-210z" />
    <glyph glyph-name="backslash" unicode="\" horiz-adv-x="705" 
d="M635 -175l-59 -38l-506 839l61 40z" />
    <glyph glyph-name="bracketright" unicode="]" horiz-adv-x="350" 
d="M70 666h210v-879h-210v84h115v711h-115v84z" />
    <glyph glyph-name="asciicircum" unicode="^" horiz-adv-x="364" 
d="M242 543l-60 60l-60 -60h-63l123 123l123 -123h-63z" />
    <glyph glyph-name="underscore" unicode="_" horiz-adv-x="599" 
d="M599 -224h-599v84h599v-84z" />
    <glyph glyph-name="grave" unicode="`" horiz-adv-x="349" 
d="M161 700l86 -167h-64l-165 167h143z" />
    <glyph glyph-name="a" unicode="a" horiz-adv-x="496" 
d="M118 342l-18 76q84 30 166 30t129.5 -35t47.5 -99v-314h-90v26q-64 -37 -141 -37q-82 0 -126 44q-44 46 -44 101q0 50 46 93q47 44 142 44q65 0 123 -29v22q0 38 -12 65q-13 40 -85 40q-78 0 -138 -27zM137 133q0 -28 26 -47t75 -19q60 0 87.5 19t27.5 47
q0 25 -29.5 42.5t-80.5 17.5q-49 0 -77.5 -17t-28.5 -43z" />
    <glyph glyph-name="b" unicode="b" horiz-adv-x="588" 
d="M143 67v-67h-90v711h90v-341q73 78 169 78q104 0 169 -71t65 -162t-65 -159q-64 -67 -161 -67q-106 0 -177 78zM144 213q0 -58 44 -102t106 -44q64 0 110 42q47 44 47 105q0 64 -43 110t-111 46q-70 0 -112 -49q-41 -49 -41 -108z" />
    <glyph glyph-name="c" unicode="c" horiz-adv-x="479" 
d="M437 376l-56 -54q-30 28 -51.5 38t-53.5 10q-64 0 -102 -47q-37 -46 -37 -109q0 -67 43 -107t108 -40q48 0 101 48l48 -62q-55 -64 -153 -64q-111 0 -177 67q-65 68 -65 159q0 99 67 166t162 67q99 0 166 -72z" />
    <glyph glyph-name="d" unicode="d" horiz-adv-x="588" 
d="M445 0v67q-71 -78 -177 -78q-95 0 -161 68q-65 68 -65 158q0 91 65 162q66 71 168 71q98 0 170 -78v330h90v-700h-90zM445 213q0 59 -43 108t-111 49q-69 0 -112 -46q-42 -46 -42 -110q0 -62 46 -105q47 -42 111 -42q60 0 106 44q45 43 45 102z" />
    <glyph glyph-name="e" unicode="e" horiz-adv-x="549" 
d="M438 128l63 -49q-43 -51 -92.5 -70.5t-118.5 -19.5q-124 0 -186 68t-62 168t67 161q68 62 178 62q55 0 97 -17t65.5 -43t37.5 -60.5t18 -65t2 -60.5h-369q-1 -55 43 -95t110 -40q92 0 147 61zM149 280h250q-7 44 -39.5 69t-79.5 25q-49 0 -84.5 -25.5t-46.5 -68.5z" />
    <glyph glyph-name="f" unicode="f" horiz-adv-x="245" 
d="M166 0h-90v359h-51v78h51v50q0 84 24 141q30 72 122 72h41v-76h-20q-43 0 -60 -32.5t-17 -100.5v-54h54v-78h-54v-359z" />
    <glyph glyph-name="g" unicode="g" horiz-adv-x="588" 
d="M445 370v67h90v-385q0 -161 -63 -217q-32 -28 -76 -39.5t-114 -11.5q-120 0 -213 35l22 84q93 -37 201 -37q68 0 107 29q46 31 46 137v35q-28 -32 -69 -52q-55 -26 -101 -26q-105 0 -169 70t-64 163q0 102 70 163q70 63 156 63q106 0 177 -78zM445 224q0 58 -44 102
t-107 44q-60 0 -109 -39q-48 -39 -48 -109q0 -63 41 -110q41 -45 113 -45q71 0 112 48q42 49 42 109z" />
    <glyph glyph-name="h" unicode="h" horiz-adv-x="504" 
d="M53 700h90v-354q37 102 133 102q27 0 36 -1q17 -2 43 -10q29 -9 48 -26q48 -46 48 -139v-272h-90v249q0 43 -12 75q-17 46 -81 46q-57 0 -90 -40q-32 -41 -35 -91v-239h-90v700z" />
    <glyph glyph-name="i" unicode="i" horiz-adv-x="196" 
d="M143 0h-90v437h90v-437zM143 666v-96h-90v96h90z" />
    <glyph glyph-name="j" unicode="j" horiz-adv-x="204" 
d="M61 -64v501h90v-485q0 -165 -131 -165h-20v87q36 -2 48.5 12.5t12.5 49.5zM151 666v-96h-90v96h90z" />
    <glyph glyph-name="k" unicode="k" horiz-adv-x="483" 
d="M143 0h-90v700h90v-448l158 185h123l-196 -191l219 -246h-119l-148 201l-37 -37v-164z" />
    <glyph glyph-name="l" unicode="l" horiz-adv-x="196" 
d="M143 0h-90v700h90v-700z" />
    <glyph glyph-name="m" unicode="m" horiz-adv-x="762" 
d="M143 0h-90v437h90v-67q39 78 127 78q48 0 87 -26t54 -68q14 43 56.5 68.5t89.5 25.5q23 0 47.5 -8t49 -25.5t40 -51t15.5 -78.5v-285h-90v274q0 96 -89 96q-47 0 -75.5 -29.5t-28.5 -84.5v-256h-90v258q0 45 -15 75q-17 37 -78 37q-43 0 -70.5 -33.5t-29.5 -81.5v-255z
" />
    <glyph glyph-name="n" unicode="n" horiz-adv-x="504" 
d="M143 0h-90v437h90v-91q37 102 133 102q32 0 61 -8t55.5 -25.5t42.5 -50.5t16 -78v-286h-90v263q0 54 -26 80.5t-67 26.5q-51 0 -86.5 -37t-38.5 -94v-239z" />
    <glyph glyph-name="o" unicode="o" horiz-adv-x="578" 
d="M42 218q0 86 66 158q68 72 181 72q105 0 175 -66q72 -66 72 -164q0 -97 -72 -163q-70 -66 -175 -66q-113 0 -181 72q-66 72 -66 157zM138 218q0 -60 44 -106q44 -45 107 -45q62 0 106 44q45 45 45 107t-45 107q-43 45 -106 45t-107 -45q-44 -46 -44 -107z" />
    <glyph glyph-name="p" unicode="p" horiz-adv-x="588" 
d="M143 437v-67q71 78 177 78q95 0 160 -68q66 -68 66 -158q0 -92 -66 -163q-64 -70 -167 -70q-101 0 -170 78v-280h-90v650h90zM143 224q0 -59 41 -109q42 -48 109 -48q71 0 114 46q44 47 44 109q0 60 -48 104q-47 44 -114 44q-65 0 -106 -48q-40 -46 -40 -98z" />
    <glyph glyph-name="q" unicode="q" horiz-adv-x="588" 
d="M445 370v67h90v-650h-90v280q-28 -32 -69 -52q-55 -26 -101 -26q-105 0 -169 70t-64 163q0 102 70 163q70 63 156 63q106 0 177 -78zM445 224q0 58 -44 102t-107 44q-66 0 -112 -43q-45 -42 -45 -105t41 -110q42 -45 113 -45t112 48q42 49 42 109z" />
    <glyph glyph-name="r" unicode="r" horiz-adv-x="333" 
d="M143 0h-90v437h90v-105q71 116 142 116h26v-90h-30q-47 0 -85 -31.5t-53 -89.5v-237z" />
    <glyph glyph-name="s" unicode="s" horiz-adv-x="417" 
d="M361 418l-37 -76q-46 28 -94 28q-33 0 -52 -12t-19 -33t30 -44l34 -18l43 -20q109 -52 109 -138q0 -53 -52 -84q-52 -32 -121 -32q-82 0 -160 39l45 78q65 -39 113 -39q35 0 57.5 11.5t22.5 30.5q0 14 -13.5 29t-32.5 25q-23 13 -45 23q-16 8 -42 22q-47 27 -65.5 53
t-18.5 68q0 43 39 80q39 39 120 39q74 0 139 -30z" />
    <glyph glyph-name="t" unicode="t" horiz-adv-x="341" 
d="M215 0h-90v359h-89v78h89v157l90 44v-201h90v-78h-90v-359z" />
    <glyph glyph-name="u" unicode="u" horiz-adv-x="504" 
d="M361 437h90v-437h-90v91q-14 -45 -47.5 -73.5t-85.5 -28.5q-72 0 -124 38q-51 37 -51 124v286h90v-263q0 -33 10.5 -56.5t27 -33t30 -13.5t26.5 -4q50 0 87 37t37 94v239z" />
    <glyph glyph-name="v" unicode="v" horiz-adv-x="526" 
d="M131 437l132 -303l132 303h95l-195 -437h-64l-195 437h95z" />
    <glyph glyph-name="w" unicode="w" horiz-adv-x="769" 
d="M271 0h-67l-168 437h95l109 -309l103 309h84l102 -309l109 309h95l-168 -437h-67l-113 334z" />
    <glyph glyph-name="x" unicode="x" horiz-adv-x="469" 
d="M339 0l-105 163l-104 -163h-94l151 235l-130 202h94l83 -129l84 129h94l-131 -202l152 -235h-94z" />
    <glyph glyph-name="y" unicode="y" horiz-adv-x="532" 
d="M126 437l141 -310l139 310h90l-291 -649h-90l108 242l-187 407h90z" />
    <glyph glyph-name="z" unicode="z" horiz-adv-x="467" 
d="M431 437l-237 -359h237l-34 -78h-361l238 359h-214l32 78h339z" />
    <glyph glyph-name="braceleft" unicode="{" horiz-adv-x="419" 
d="M126 333q80 -17 104 -77q21 -49 21 -99q0 -8 -2 -64q-1 -27 -1 -76q0 -88 73 -100l-10 -51q-40 4 -72 20.5t-48 38.5q-15 22 -22 49q-10 36 -10 84q0 10 1.5 46t1.5 46q0 75 -25.5 109.5t-66.5 35.5v76q41 1 66.5 35.5t25.5 109.5q0 10 -1.5 46t-1.5 46q0 48 10 84
q21 91 142 108l10 -51q-73 -12 -73 -100q0 -49 1 -77q2 -54 2 -63q0 -50 -21 -99q-24 -60 -104 -77z" />
    <glyph glyph-name="bar" unicode="|" horiz-adv-x="224" 
d="M154 -224h-84v1053h84v-1053z" />
    <glyph glyph-name="braceright" unicode="}" horiz-adv-x="419" 
d="M265 333q-79 17 -105 77q-20 49 -20 99q0 36 1 63q2 56 2 77q0 88 -73 100l10 51q40 -4 72 -20.5t47 -38.5q16 -21 23 -49q10 -36 10 -84q0 -10 -1.5 -46t-1.5 -46q0 -75 25.5 -109.5t66.5 -35.5v-76q-41 -1 -66.5 -35.5t-25.5 -109.5q0 -10 1.5 -46t1.5 -46
q0 -48 -10 -84q-21 -91 -142 -108l-10 51q73 12 73 100q0 22 -2 76q-1 28 -1 64q0 50 20 99q26 60 105 77z" />
    <glyph glyph-name="asciitilde" unicode="~" horiz-adv-x="518" 
d="M442 519h27q-50 -101 -124 -101q-14 0 -102 17q-70 14 -103 14q-44 0 -63 -36h-28q18 46 54.5 77.5t79.5 31.5q39 0 121 -20q72 -19 83 -19q13 0 27 7q3 1 13 11q13 13 15 18z" />
    <glyph glyph-name="exclamdown" unicode="&#xa1;" horiz-adv-x="350" 
d="M112 -230l28 471h70l28 -471h-126zM238 311h-126v126h126v-126z" />
    <glyph glyph-name="cent" unicode="&#xa2;" horiz-adv-x="479" 
d="M381 115l56 -54q-61 -65 -150 -72v-129h-53v132q-87 15 -140 80q-52 64 -52 150q0 85 53 147q52 61 139 75v88h53v-84q92 0 150 -64l-48 -62q-55 48 -101 48h-1v-303q45 2 94 48zM234 74v288q-43 -9 -70 -49t-27 -90q0 -54 26 -94.5t71 -54.5z" />
    <glyph glyph-name="sterling" unicode="&#xa3;" horiz-adv-x="610" 
d="M149 -14l-53 93q48 34 69 64.5t21 68.5q0 41 -11 69h-91v63h63q-26 69 -26 133q0 93 61 148t161 55q112 0 167 -59q67 -70 61 -170h-101q1 4 1 19q0 33 -20 72q-25 54 -108 54q-54 0 -84.5 -34t-30.5 -90q0 -44 28 -128h150v-63h-131q5 -22 5 -62q0 -64 -47 -111l2 -5
q36 12 66 12q28 0 77 -23q45 -22 74 -22q46 0 80 43l50 -61q-63 -66 -134 -66q-46 0 -119 24q-44 14 -80 14q-50 0 -100 -38z" />
    <glyph glyph-name="currency" unicode="&#xa4;" horiz-adv-x="875" 
d="M140 -14l-70 70l118 118q-56 79 -56 176t56 176l-118 118l70 70l117 -118q75 60 180 60t180 -60l118 118l70 -70l-118 -118q56 -79 56 -176t-56 -176l118 -118l-70 -70l-118 118q-75 -60 -180 -60t-180 60zM277 510q-66 -68 -66 -160t66 -160q67 -67 160 -67t160 67
t67 160t-67 160t-160 67t-160 -67z" />
    <glyph glyph-name="yen" unicode="&#xa5;" horiz-adv-x="633" 
d="M269 174h-171v44h171l-241 448h103l185 -346l186 346h103l-241 -448h172v-44h-172v-29h172v-44h-172v-101h-95v101h-171v44h171v29z" />
    <glyph glyph-name="brokenbar" unicode="&#xa6;" horiz-adv-x="224" 
d="M70 829h84v-455h-84v455zM70 230h84v-455h-84v455z" />
    <glyph glyph-name="section" unicode="&#xa7;" horiz-adv-x="583" 
d="M107 -51l77 32q6 -48 37 -77.5t68 -29.5q34 0 60.5 21.5t26.5 61.5t-32 66q-33 27 -133 76q-54 28 -96 65q-53 51 -53 129q0 50 34.5 89.5t87.5 50.5q-55 52 -55 120q0 62 47 101.5t122 39.5q125 0 167 -136l-78 -27q-24 95 -93 95q-37 0 -59 -20t-22 -49q0 -23 17 -45
q24 -30 98 -68l14 -7q27 -15 51 -29q15 -7 46 -30q31 -22 44 -39q38 -46 38 -105q0 -70 -48 -106q-35 -26 -71 -37q58 -64 58 -134q0 -59 -50 -106t-125 -47q-87 0 -132 58q-34 44 -46 87zM142 303q0 -55 66 -107q68 -53 129 -53q47 0 73.5 22t26.5 59q0 52 -67 101
q-68 51 -120 51q-48 0 -78 -18.5t-30 -54.5z" />
    <glyph glyph-name="dieresis" unicode="&#xa8;" 
d="M140 666v-96h-97v96h97zM-44 666v-96h-96v96h96z" />
    <glyph glyph-name="copyright" unicode="&#xa9;" horiz-adv-x="784" 
d="M489 245l46 -44q-54 -60 -137 -60q-86 0 -137 59q-50 61 -50 133q0 75 54 131q56 56 144 56q79 0 126 -53l-40 -51q-43 37 -83 37q-54 0 -89.5 -33t-35.5 -86t31.5 -90t83.5 -37q44 0 87 38zM103 333q0 -119 84 -204t205 -85q119 0 204 85t85 204t-85 204t-204 85
q-120 0 -205 -85q-84 -84 -84 -204zM45 333q0 145 101 246t246 101q143 0 245 -102q102 -101 102 -245t-102 -246q-103 -101 -245 -101q-143 0 -246 101q-101 103 -101 246z" />
    <glyph glyph-name="ordfeminine" unicode="&#xaa;" horiz-adv-x="363" 
d="M94 632l-12 50q57 20 110 20q54 0 85.5 -23.5t31.5 -65.5v-207h-59v17q-44 -24 -94 -24q-52 0 -82 28t-30 67q0 37 32.5 64t91.5 27q44 0 82 -19v14q0 25 -8 44q-11 26 -57 26q-51 0 -91 -18zM107 494q0 -19 17 -31.5t50 -12.5q39 0 57.5 13t18.5 31q0 16 -19.5 27.5
t-53.5 11.5q-32 0 -51 -11.5t-19 -27.5zM309 352v-53h-255v53h255z" />
    <glyph glyph-name="guillemotleft" unicode="&#xab;" horiz-adv-x="526" 
d="M366 45l-127 173l127 174h96l-124 -174l124 -173h-96zM191 45l-127 173l127 174h96l-124 -174l124 -173h-96z" />
    <glyph glyph-name="logicalnot" unicode="&#xac;" horiz-adv-x="616" 
d="M490 238h-448v84h532v-184h-84v100z" />
    <glyph glyph-name="registered" unicode="&#xae;" horiz-adv-x="800" 
d="M399 680q123 0 230 -87q54 -43 86 -111.5t32 -149.5q0 -145 -101 -246q-100 -100 -247 -100q-141 0 -244 101q-102 102 -102 245t102 245q103 103 244 103zM111 332q0 -99 72 -190q37 -44 93.5 -71t122.5 -27q123 0 207 84t84 204t-85 205t-206 85q-116 0 -202 -86
t-86 -204zM362 308h-14v-153h-66v364h161q48 0 79 -30.5t31 -72.5q0 -40 -28 -74t-88 -32l129 -155h-85zM413 471h-65v-113h65q68 0 68 58q0 26 -19 40.5t-49 14.5z" />
    <glyph glyph-name="overscore" unicode="&#xaf;" 
d="M152 585h-305v67h305v-67z" />
    <glyph glyph-name="overscore" unicode="&#x2c9;" 
d="M152 585h-305v67h305v-67z" />
    <glyph glyph-name="degree" unicode="&#xb0;" horiz-adv-x="348" 
d="M104 554q0 -31 21.5 -50.5t48.5 -19.5q28 0 49 21t21 49q0 27 -19.5 48.5t-50.5 21.5q-29 0 -49.5 -20.5t-20.5 -49.5zM95 475q-33 33 -33 79t33 79t79 33t79 -33t33 -79t-33 -79t-79 -33t-79 33z" />
    <glyph glyph-name="plusminus" unicode="&#xb1;" horiz-adv-x="870" 
d="M421 357v-140h-70v140h-231v70h231v178h70v-178h231v-70h-231zM652 98h-532v70h532v-70z" />
    <glyph glyph-name="twosuperior" unicode="&#xb2;" horiz-adv-x="445" 
d="M226 388h138l-32 -64h-273q130 107 157 133q62 60 62 104q0 36 -21 56.5t-60 20.5q-53 0 -94 -42l-33 61q62 45 135 45q70 0 110 -35.5t40 -91.5q0 -59 -31 -99q-28 -37 -98 -88z" />
    <glyph glyph-name="threesuperior" unicode="&#xb3;" horiz-adv-x="436" 
d="M93 616l-27 56q52 30 119 30q70 0 111 -29.5t41 -77.5q0 -62 -55 -81q75 -11 75 -79q0 -62 -42.5 -89t-126.5 -27q-73 0 -118 17v73q52 -24 117 -24q97 0 97 44q0 59 -149 47v66q24 -3 46 -3q48 0 65.5 11.5t17.5 36.5q0 49 -80 49q-46 0 -91 -20z" />
    <glyph glyph-name="acute" unicode="&#xb4;" horiz-adv-x="351" 
d="M168 533h-65l87 167h142z" />
    <glyph glyph-name="mu" unicode="&#xb5;" horiz-adv-x="504" 
d="M361 198v239h90v-437h-90v67q-10 -36 -41 -58.5t-71 -22.5q-42 0 -70.5 22t-36.5 59v-280h-89v650h90v-239q0 -66 31.5 -98.5t80.5 -32.5q43 0 75 39q32 40 31 92z" />
    <glyph glyph-name="mu" unicode="&#x3bc;" horiz-adv-x="504" 
d="M361 198v239h90v-437h-90v67q-10 -36 -41 -58.5t-71 -22.5q-42 0 -70.5 22t-36.5 59v-280h-89v650h90v-239q0 -66 31.5 -98.5t80.5 -32.5q43 0 75 39q32 40 31 92z" />
    <glyph glyph-name="paragraph" unicode="&#xb6;" horiz-adv-x="476" 
d="M287 -196h-70v546q-82 1 -129 55q-46 53 -46 120t46 119q47 53 129 56h70v-896zM434 -196h-70v896h70v-896z" />
    <glyph glyph-name="middot" unicode="&#xb7;" horiz-adv-x="250" 
d="M62 299v126h126v-126h-126z" />
    <glyph glyph-name="middot" unicode="&#x22c5;" horiz-adv-x="250" 
d="M62 299v126h126v-126h-126z" />
    <glyph glyph-name="middot" unicode="&#x2219;" horiz-adv-x="250" 
d="M62 299v126h126v-126h-126z" />
    <glyph glyph-name="cedilla" unicode="&#xb8;" 
d="M-67 -207l5 60q2 -1 8.5 -1t8.5 -1q2 0 8 -0.5t7 -0.5q46 0 52 27q2 5 0 10q-6 15 -50 15l5 55q116 5 116 -47q0 -46 -29 -83q-28 -36 -94 -36q-21 0 -37 2z" />
    <glyph glyph-name="onesuperior" unicode="&#xb9;" horiz-adv-x="312" 
d="M62 525v77q63 49 86 97h56v-372h-72v266q-31 -38 -70 -68z" />
    <glyph glyph-name="ordmasculine" unicode="&#xba;" horiz-adv-x="403" 
d="M363 353v-53h-324v53h324zM39 550q0 58 43 104q44 48 119 48q68 0 115 -44q48 -44 48 -108t-48 -107q-46 -43 -115 -43q-75 0 -119 47q-43 46 -43 103zM102 550q0 -39 29 -70q29 -29 70 -29t70 29t29 70t-29 70.5t-70 29.5t-70 -29.5t-29 -70.5z" />
    <glyph glyph-name="guillemotright" unicode="&#xbb;" horiz-adv-x="526" 
d="M161 392l126 -174l-126 -173h-97l125 173l-125 174h97zM336 392l126 -174l-126 -173h-97l124 173l-124 174h97z" />
    <glyph glyph-name="onequarter" unicode="&#xbc;" horiz-adv-x="810" 
d="M701 615l-591 -615l-48 48l591 618zM90 528v77q63 49 86 97h56v-372h-72v266q-31 -38 -70 -68zM691 134h41l-21 -63h-20v-71h-72v71h-194v38l224 263h42v-238zM517 134h102v117z" />
    <glyph glyph-name="onehalf" unicode="&#xbd;" horiz-adv-x="877" 
d="M670 64h138l-32 -64h-273q130 107 157 133q62 60 62 104q0 36 -21 56.5t-60 20.5q-53 0 -94 -42l-33 61q62 45 135 45q70 0 110 -35.5t40 -91.5q0 -59 -31 -99q-28 -37 -98 -88zM701 615l-591 -615l-48 48l591 618zM90 528v77q63 49 86 97h56v-372h-72v266
q-31 -38 -70 -68z" />
    <glyph glyph-name="threequarters" unicode="&#xbe;" horiz-adv-x="912" 
d="M93 616l-27 56q52 30 119 30q70 0 111 -29.5t41 -77.5q0 -62 -55 -81q75 -11 75 -79q0 -62 -42.5 -89t-126.5 -27q-73 0 -118 17v73q52 -24 117 -24q97 0 97 44q0 59 -149 47v66q24 -3 46 -3q48 0 65.5 11.5t17.5 36.5q0 49 -80 49q-46 0 -91 -20zM803 615l-591 -615
l-48 48l591 618zM793 134h41l-21 -63h-20v-71h-72v71h-194v38l224 263h42v-238zM619 134h102v117z" />
    <glyph glyph-name="questiondown" unicode="&#xbf;" horiz-adv-x="353" 
d="M311 -160l-21 -74q-41 -10 -89 -10q-81 0 -120 32.5t-39 86.5q0 53 46 102l65 71q29 32 29 53q0 17 -15 36q-16 22 -24 29l-32 29l58 65q114 -86 114 -157q0 -36 -52 -97l-68 -81q-20 -25 -20 -36q0 -8 1 -14t6 -17.5t20.5 -18t39.5 -6.5q65 0 101 7zM262 437v-126h-126
v126h126z" />
    <glyph glyph-name="Agrave" unicode="&#xc0;" horiz-adv-x="733" 
d="M505 179h-277l-86 -179h-103l327 680l328 -680h-103zM366 467l-105 -204h211zM315 834l86 -139h-64l-165 139h143z" />
    <glyph glyph-name="Aacute" unicode="&#xc1;" horiz-adv-x="733" 
d="M505 179h-277l-86 -179h-103l327 680l328 -680h-103zM366 467l-105 -204h211zM399 695h-65l87 139h142z" />
    <glyph glyph-name="Acircumflex" unicode="&#xc2;" horiz-adv-x="733" 
d="M505 179h-277l-86 -179h-103l327 680l328 -680h-103zM366 467l-105 -204h211zM446 688l-80 86l-80 -86h-69l104 160h87l107 -160h-69z" />
    <glyph glyph-name="Atilde" unicode="&#xc3;" horiz-adv-x="733" 
d="M505 179h-277l-86 -179h-103l327 680l328 -680h-103zM366 467l-105 -204h211zM259 695l-54 21q6 44 36.5 74t73.5 30q22 0 49 -7q21 -6 52 -18q32 -12 46 -12q13 0 20 8t13 28l53 -24q-6 -40 -34.5 -67t-68.5 -27q-15 -1 -38.5 5t-48 14.5t-30.5 9.5q-12 3 -24 3
q-32 0 -45 -38z" />
    <glyph glyph-name="Adieresis" unicode="&#xc4;" horiz-adv-x="733" 
d="M505 179h-277l-86 -179h-103l327 680l328 -680h-103zM366 467l-105 -204h211zM506 806v-96h-96v96h96zM323 806v-96h-97v96h97z" />
    <glyph glyph-name="Aring" unicode="&#xc5;" horiz-adv-x="733" 
d="M505 179h-277l-86 -179h-103l327 680l328 -680h-103zM366 467l-105 -204h211zM300 668q-27 28 -27 67t27 66q27 28 66 28t66 -28q28 -28 28 -66t-28 -66q-27 -28 -66 -28t-66 27zM366 683q22 0 37 15t15 37t-15 37t-37 15q-21 0 -36 -15t-15 -37t15 -37t36 -15z" />
    <glyph glyph-name="AE" unicode="&#xc6;" horiz-adv-x="957" 
d="M149 0h-110l395 666h470v-83h-314v-181h314v-84h-314v-234h314v-84h-409v163h-249zM495 247v336l-200 -336h200z" />
    <glyph glyph-name="Ccedilla" unicode="&#xc7;" horiz-adv-x="680" 
d="M573 159l65 -53q-98 -120 -253 -120q-84 0 -153 32t-110 87q-80 111 -80 242q0 144 105 239q106 94 261 94q61 0 109 -21.5t100 -68.5l-65 -63q-61 69 -152 69q-106 0 -182 -70q-76 -69 -76 -182q0 -111 62 -193q62 -81 168 -81q124 0 201 89zM260 -207l5 60q2 -1 8.5 -1
t8.5 -1q1 0 7 -0.5t8 -0.5q46 0 52 27q2 5 0 10q-6 15 -50 15l5 55q116 5 116 -47q0 -46 -29 -83q-29 -36 -94 -36q-21 0 -37 2z" />
    <glyph glyph-name="Egrave" unicode="&#xc8;" horiz-adv-x="515" 
d="M148 402h314v-84h-314v-234h314v-84h-409v666h409v-83h-314v-181zM244 834l86 -139h-64l-165 139h143z" />
    <glyph glyph-name="Eacute" unicode="&#xc9;" horiz-adv-x="515" 
d="M148 402h314v-84h-314v-234h314v-84h-409v666h409v-83h-314v-181zM250 695h-65l87 139h142z" />
    <glyph glyph-name="Ecircumflex" unicode="&#xca;" horiz-adv-x="515" 
d="M148 402h314v-84h-314v-234h314v-84h-409v666h409v-83h-314v-181zM337 688l-80 86l-80 -86h-69l104 160h87l107 -160h-69z" />
    <glyph glyph-name="Edieresis" unicode="&#xcb;" horiz-adv-x="515" 
d="M148 402h314v-84h-314v-234h314v-84h-409v666h409v-83h-314v-181zM208 812v-98h-98v98h98zM404 812v-98h-98v98h98z" />
    <glyph glyph-name="Igrave" unicode="&#xcc;" horiz-adv-x="201" 
d="M49 834l86 -139h-64l-165 139h143zM148 0h-95v666h95v-666z" />
    <glyph glyph-name="Iacute" unicode="&#xcd;" horiz-adv-x="201" 
d="M148 0h-95v666h95v-666zM132 695h-65l87 139h142z" />
    <glyph glyph-name="Icircumflex" unicode="&#xce;" horiz-adv-x="201" 
d="M148 0h-95v666h95v-666zM180 688l-80 86l-80 -86h-69l104 160h87l107 -160h-69z" />
    <glyph glyph-name="Idieresis" unicode="&#xcf;" horiz-adv-x="398" 
d="M151 812v-98h-98v98h98zM345 812v-98h-98v98h98zM247 0h-96v666h96v-666z" />
    <glyph glyph-name="Eth" unicode="&#xd0;" horiz-adv-x="695" 
d="M293 0h-200v294h-81v84h81v288h203q89 0 159.5 -27.5t112.5 -76.5q85 -96 85 -229q0 -97 -39 -174q-82 -159 -321 -159zM295 582h-107v-204h146v-84h-146v-210h107q77 0 129 19q38 13 64 39q64 60 64 190q0 131 -65 190.5t-192 59.5z" />
    <glyph glyph-name="Ntilde" unicode="&#xd1;" horiz-adv-x="645" 
d="M592 -14l-455 483v-469h-84v680l455 -480v466h84v-680zM205 695l-54 21q6 44 36.5 74t73.5 30q22 0 49 -7q21 -6 52 -18q32 -12 46 -12q13 0 20 8t13 28l53 -24q-6 -40 -34.5 -67t-68.5 -27q-15 -1 -38.5 5t-48 14.5t-30.5 9.5q-12 3 -24 3q-32 0 -45 -38z" />
    <glyph glyph-name="Ograve" unicode="&#xd2;" horiz-adv-x="801" 
d="M42 333q0 139 102 243q104 104 258 104q150 0 254 -104q103 -103 103 -243t-103 -243q-102 -104 -254 -104q-106 0 -190 51q-82 51 -126 129t-44 167zM401 70q113 0 185 75q72 77 72 187t-72 187t-185 77q-114 0 -186 -77t-72 -187t72 -186t186 -76zM347 839l86 -139h-64
l-165 139h143z" />
    <glyph glyph-name="Oacute" unicode="&#xd3;" horiz-adv-x="801" 
d="M42 333q0 139 102 243q104 104 258 104q150 0 254 -104q103 -103 103 -243t-103 -243q-102 -104 -254 -104q-106 0 -190 51q-82 51 -126 129t-44 167zM401 70q113 0 185 75q72 77 72 187t-72 187t-185 77q-114 0 -186 -77t-72 -187t72 -186t186 -76zM433 700h-65l87 139
h142z" />
    <glyph glyph-name="Ocircumflex" unicode="&#xd4;" horiz-adv-x="801" 
d="M42 333q0 139 102 243q104 104 258 104q150 0 254 -104q103 -103 103 -243t-103 -243q-102 -104 -254 -104q-106 0 -190 51q-82 51 -126 129t-44 167zM401 70q113 0 185 75q72 77 72 187t-72 187t-185 77q-114 0 -186 -77t-72 -187t72 -186t186 -76zM480 688l-80 86
l-80 -86h-69l104 160h87l107 -160h-69z" />
    <glyph glyph-name="Otilde" unicode="&#xd5;" horiz-adv-x="801" 
d="M42 333q0 139 102 243q104 104 258 104q150 0 254 -104q103 -103 103 -243t-103 -243q-102 -104 -254 -104q-106 0 -190 51q-82 51 -126 129t-44 167zM401 70q113 0 185 75q72 77 72 187t-72 187t-185 77q-114 0 -186 -77t-72 -187t72 -186t186 -76zM283 695l-54 21
q6 44 36.5 74t73.5 30q22 0 49 -7q21 -6 52 -18t46 -12q13 0 20 8t13 28l53 -24q-6 -40 -34.5 -67t-68.5 -27q-15 -1 -38.5 5t-48 14.5t-30.5 9.5q-12 3 -24 3q-32 0 -45 -38z" />
    <glyph glyph-name="Odieresis" unicode="&#xd6;" horiz-adv-x="823" 
d="M53 333q0 139 102 243q104 104 258 104q150 0 254 -104q103 -103 103 -243t-103 -243q-102 -104 -254 -104q-106 0 -190 51q-82 51 -126 129t-44 167zM412 70q113 0 185 75q72 77 72 187t-72 187t-185 77q-114 0 -186 -77t-72 -187t72 -186t186 -76zM580 806v-96h-97v96
h97zM340 806v-96h-97v96h97z" />
    <glyph glyph-name="multiply" unicode="&#xd7;" horiz-adv-x="743" 
d="M435 259l200 -200l-64 -63l-199 200l-200 -200l-64 63l200 200l-200 200l64 63l200 -200l199 200l64 -63z" />
    <glyph glyph-name="Oslash" unicode="&#xd8;" horiz-adv-x="829" 
d="M185 64l-82 -78l-47 52l77 73q-77 104 -77 222q-2 88 44 168t131 130t185 49q124 0 224 -78l82 78l51 -49l-81 -79q81 -98 81 -219q2 -88 -44.5 -168.5t-131 -130.5t-181.5 -48q-128 0 -231 78zM625 489l-378 -363q67 -56 167 -56q114 0 186 75q72 77 72 187
q0 92 -47 157zM201 178l376 363q-70 55 -162 55q-112 0 -186 -77q-72 -77 -72 -187q0 -84 44 -154z" />
    <glyph glyph-name="Ugrave" unicode="&#xd9;" horiz-adv-x="660" 
d="M512 666h95v-396q0 -78 -24 -137q-17 -44 -44 -73q-29 -32 -84 -53t-124 -21q-155 0 -224 96q-35 49 -47 109q-7 41 -7 79v396h95v-399q0 -197 182 -197q93 0 137 46q17 17 29 49q16 42 16 102v399zM276 834l86 -139h-64l-165 139h143z" />
    <glyph glyph-name="Uacute" unicode="&#xda;" horiz-adv-x="660" 
d="M512 666h95v-396q0 -78 -24 -137q-17 -44 -44 -73q-29 -32 -84 -53t-124 -21q-155 0 -224 96q-35 49 -47 109q-7 41 -7 79v396h95v-399q0 -197 182 -197q93 0 137 46q17 17 29 49q16 42 16 102v399zM352 695h-65l87 139h142z" />
    <glyph glyph-name="Ucircumflex" unicode="&#xdb;" horiz-adv-x="660" 
d="M512 666h95v-396q0 -78 -24 -137q-17 -44 -44 -73q-29 -32 -84 -53t-124 -21q-155 0 -224 96q-35 49 -47 109q-7 41 -7 79v396h95v-399q0 -197 182 -197q93 0 137 46q17 17 29 49q16 42 16 102v399zM410 688l-80 86l-80 -86h-69l104 160h87l107 -160h-69z" />
    <glyph glyph-name="Udieresis" unicode="&#xdc;" horiz-adv-x="660" 
d="M512 666h95v-396q0 -78 -24 -137q-17 -44 -44 -73q-29 -32 -84 -53t-124 -21q-155 0 -224 96q-35 49 -47 109q-7 41 -7 79v396h95v-399q0 -197 182 -197q93 0 137 46q17 17 29 49q16 42 16 102v399zM470 806v-96h-96v96h96zM286 806v-96h-96v96h96z" />
    <glyph glyph-name="Yacute" unicode="&#xdd;" horiz-adv-x="633" 
d="M269 0v218l-241 448h103l185 -346l186 346h103l-241 -448v-218h-95zM339 695h-65l87 139h142z" />
    <glyph glyph-name="Thorn" unicode="&#xde;" horiz-adv-x="526" 
d="M267 151h-119v-151h-95v666h95v-120h114q111 0 165 -52q23 -21 36 -51q21 -44 21 -96q0 -46 -18 -89q-37 -103 -199 -107zM148 462v-227h103q132 0 132 116q0 71 -46 92q-35 19 -91 19h-98z" />
    <glyph glyph-name="germandbls" unicode="&#xdf;" horiz-adv-x="554" 
d="M170 0h-89v432q0 123 16 186q16 55 52 78t109 26q90 0 148 -46q59 -47 59 -125q0 -55 -29 -96.5t-75 -49.5v-5q64 -7 100.5 -62.5t36.5 -136.5q0 -103 -54 -159q-53 -56 -130 -56q-54 0 -86 28l27 70q23 -14 50 -14q43 0 67.5 34.5t24.5 96.5q0 87 -34 127t-108 34v70
q56 -1 83 26.5t27 86.5q0 93 -113 93q-46 0 -64 -26.5t-18 -102.5v-509z" />
    <glyph glyph-name="agrave" unicode="&#xe0;" horiz-adv-x="496" 
d="M118 342l-18 76q84 30 166 30t129.5 -35t47.5 -99v-314h-90v26q-64 -37 -141 -37q-82 0 -126 44q-44 46 -44 101q0 50 46 93q47 44 142 44q65 0 123 -29v22q0 38 -12 65q-13 40 -85 40q-78 0 -138 -27zM137 133q0 -28 26 -47t75 -19q60 0 87.5 19t27.5 47
q0 25 -29.5 42.5t-80.5 17.5q-49 0 -77.5 -17t-28.5 -43zM214 700l86 -167h-64l-165 167h143z" />
    <glyph glyph-name="aacute" unicode="&#xe1;" horiz-adv-x="496" 
d="M118 342l-18 76q84 30 166 30t129.5 -35t47.5 -99v-314h-90v26q-64 -37 -141 -37q-82 0 -126 44q-44 46 -44 101q0 50 46 93q47 44 142 44q65 0 123 -29v22q0 38 -12 65q-13 40 -85 40q-78 0 -138 -27zM137 133q0 -28 26 -47t75 -19q60 0 87.5 19t27.5 47
q0 25 -29.5 42.5t-80.5 17.5q-49 0 -77.5 -17t-28.5 -43zM300 533h-65l87 167h142z" />
    <glyph glyph-name="acircumflex" unicode="&#xe2;" horiz-adv-x="496" 
d="M118 342l-18 76q84 30 166 30t129.5 -35t47.5 -99v-314h-90v26q-64 -37 -141 -37q-82 0 -126 44q-44 46 -44 101q0 50 46 93q47 44 142 44q65 0 123 -29v22q0 38 -12 65q-13 40 -85 40q-78 0 -138 -27zM137 133q0 -28 26 -47t75 -19q60 0 87.5 19t27.5 47
q0 25 -29.5 42.5t-80.5 17.5q-49 0 -77.5 -17t-28.5 -43zM338 540l-80 86l-80 -86h-69l104 160h87l107 -160h-69z" />
    <glyph glyph-name="atilde" unicode="&#xe3;" horiz-adv-x="496" 
d="M118 342l-18 76q84 30 166 30t129.5 -35t47.5 -99v-314h-90v26q-64 -37 -141 -37q-82 0 -126 44q-44 46 -44 101q0 50 46 93q47 44 142 44q65 0 123 -29v22q0 38 -12 65q-13 40 -85 40q-78 0 -138 -27zM137 133q0 -28 26 -47t75 -19q60 0 87.5 19t27.5 47
q0 25 -29.5 42.5t-80.5 17.5q-49 0 -77.5 -17t-28.5 -43zM141 553l-59 22q29 97 115 97q36 0 102 -26q23 -10 37 -10q32 0 41 42l56 -25q-7 -24 -29 -53q-27 -36 -77 -36q-22 0 -46 7q-3 1 -25.5 9.5t-38.5 13t-25 4.5q-38 0 -51 -45z" />
    <glyph glyph-name="adieresis" unicode="&#xe4;" horiz-adv-x="496" 
d="M118 342l-18 76q84 30 166 30t129.5 -35t47.5 -99v-314h-90v26q-64 -37 -141 -37q-82 0 -126 44q-44 46 -44 101q0 50 46 93q47 44 142 44q65 0 123 -29v22q0 34 -6 54q-14 48 -91 52q-75 0 -138 -28zM137 133q0 -28 26 -47t75 -19q60 0 87.5 19t27.5 47q0 25 -29.5 42.5
t-80.5 17.5q-49 0 -77.5 -17t-28.5 -43zM204 666v-96h-96v96h96zM387 666v-96h-96v96h96z" />
    <glyph glyph-name="aring" unicode="&#xe5;" horiz-adv-x="496" 
d="M118 342l-18 76q84 30 166 30t129.5 -35t47.5 -99v-314h-90v26q-64 -37 -141 -37q-82 0 -126 44q-44 46 -44 101q0 50 46 93q47 44 142 44q65 0 123 -29v22q0 38 -12 65q-13 40 -85 40q-78 0 -138 -27zM137 133q0 -28 26 -47t75 -19q60 0 87.5 19t27.5 47
q0 25 -29.5 42.5t-80.5 17.5q-49 0 -77.5 -17t-28.5 -43zM181 542q-27 28 -27 67t27 66q27 28 66 28t66 -28q28 -28 28 -66t-28 -66q-27 -28 -66 -28t-66 27zM247 557q22 0 37 15t15 37t-15 37t-37 15q-21 0 -36 -15t-15 -37t15 -37t36 -15z" />
    <glyph glyph-name="ae" unicode="&#xe6;" horiz-adv-x="853" 
d="M118 342l-18 76q84 30 166 30q106 0 150 -62q60 62 175 62q55 0 97 -17t65.5 -43t37.5 -60t18 -64.5t2 -61.5h-369q-2 -54 40 -94q43 -41 113 -41q95 0 146 61l63 -49q-72 -90 -210 -90q-116 0 -180 61q-71 -61 -194 -61q-90 0 -134 43q-44 44 -44 102q0 50 46 93
q47 44 142 44q65 0 123 -29l-1 22q0 1 -0.5 12t-0.5 14q0 18 -11 40q-13 39 -84 39q-78 0 -138 -27zM137 133q0 -28 26 -47t75 -19q60 0 87.5 19t27.5 47q0 25 -29.5 42.5t-80.5 17.5q-49 0 -77.5 -17t-28.5 -43zM453 280h250q-7 44 -39.5 69t-79.5 25q-50 0 -85 -25.5
t-46 -68.5z" />
    <glyph glyph-name="ccedilla" unicode="&#xe7;" horiz-adv-x="479" 
d="M437 376l-56 -54q-30 28 -51.5 38t-53.5 10q-64 0 -102 -47q-37 -46 -37 -109q0 -67 43 -107t108 -40q48 0 101 48l48 -62q-55 -64 -153 -64q-111 0 -177 67q-65 68 -65 159q0 99 67 166t162 67q99 0 166 -72zM209 -166l5 48q8 0 16 -1l9 -1q16 0 26.5 5t13 9.5t2.5 7.5
q0 20 -35 20h-6l4 44h21q72 -4 72 -38q0 -28 -15 -57q-18 -38 -83 -38q-23 0 -30 1z" />
    <glyph glyph-name="egrave" unicode="&#xe8;" horiz-adv-x="549" 
d="M438 128l63 -49q-43 -51 -92.5 -70.5t-118.5 -19.5q-124 0 -186 68t-62 168t67 161q68 62 178 62q55 0 97 -17t65.5 -43t37.5 -60.5t18 -65t2 -60.5h-369q-1 -55 43 -95t110 -40q92 0 147 61zM149 280h250q-7 44 -39.5 69t-79.5 25q-49 0 -84.5 -25.5t-46.5 -68.5z
M231 700l86 -167h-64l-165 167h143z" />
    <glyph glyph-name="eacute" unicode="&#xe9;" horiz-adv-x="549" 
d="M438 128l63 -49q-43 -51 -92.5 -70.5t-118.5 -19.5q-124 0 -186 68t-62 168t67 161q68 62 178 62q55 0 97 -17t65.5 -43t37.5 -60.5t18 -65t2 -60.5h-369q-1 -55 43 -95t110 -40q92 0 147 61zM149 280h250q-7 44 -39.5 69t-79.5 25q-49 0 -84.5 -25.5t-46.5 -68.5z
M317 533h-65l87 167h142z" />
    <glyph glyph-name="ecircumflex" unicode="&#xea;" horiz-adv-x="549" 
d="M438 128l63 -49q-43 -51 -92.5 -70.5t-118.5 -19.5q-124 0 -186 68t-62 168t67 161q68 62 178 62q55 0 97 -17t65.5 -43t37.5 -60.5t18 -65t2 -60.5h-369q-1 -55 43 -95t110 -40q92 0 147 61zM149 280h250q-7 44 -39.5 69t-79.5 25q-49 0 -84.5 -25.5t-46.5 -68.5z
M354 540l-80 86l-80 -86h-69l104 160h87l107 -160h-69z" />
    <glyph glyph-name="edieresis" unicode="&#xeb;" horiz-adv-x="549" 
d="M414 666v-96h-96v96h96zM231 666v-96h-96v96h96zM438 128l63 -49q-43 -51 -92.5 -70.5t-117.5 -19.5q-125 0 -187 68t-62 168t67 161q68 62 178 62q68 0 115.5 -25t69 -65.5t30 -79t5.5 -76.5h-369q-2 -53 41 -94q44 -41 112 -41q98 0 147 61zM150 280h249
q-7 44 -39.5 69t-78.5 25q-50 0 -85.5 -25.5t-45.5 -68.5z" />
    <glyph glyph-name="igrave" unicode="&#xec;" horiz-adv-x="195" 
d="M142 0h-89v437h89v-437zM41 700l86 -167h-64l-165 167h143z" />
    <glyph glyph-name="iacute" unicode="&#xed;" horiz-adv-x="195" 
d="M142 0h-89v437h89v-437zM130 533h-65l87 167h142z" />
    <glyph glyph-name="icircumflex" unicode="&#xee;" horiz-adv-x="195" 
d="M142 0h-89v437h89v-437zM177 540l-80 86l-80 -86h-69l104 160h87l107 -160h-69z" />
    <glyph glyph-name="idieresis" unicode="&#xef;" horiz-adv-x="194" 
d="M142 0h-90v437h90v-437zM237 666v-96h-96v96h96zM53 666v-96h-96v96h96z" />
    <glyph glyph-name="eth" unicode="&#xf0;" horiz-adv-x="588" 
d="M42 218q0 86 66 158q68 72 181 72q71 0 125 -30q-18 61 -44 101l-112 -36l-30 73l98 31q-22 25 -44 45l-7 5l54 64q54 -38 92 -87l123 39l30 -72l-109 -32q37 -73 54 -139t17 -152q0 -130 -69 -200q-69 -69 -178 -69q-113 0 -181 72q-66 72 -66 157zM138 218
q0 -60 44 -106q44 -45 107 -45q62 0 106 44q45 45 45 107t-45 107q-43 45 -106 45t-107 -45q-44 -46 -44 -107z" />
    <glyph glyph-name="ntilde" unicode="&#xf1;" horiz-adv-x="504" 
d="M143 0h-90v437h90v-91q37 102 133 102q32 0 61 -8t55.5 -25.5t42.5 -50.5t16 -78v-286h-90v263q0 54 -26 80.5t-67 26.5q-51 0 -86.5 -37t-38.5 -94v-239zM135 553l-59 22q29 97 115 97q36 0 102 -26q23 -10 37 -10q32 0 41 42l56 -25q-7 -24 -29 -53q-27 -36 -77 -36
q-22 0 -46 7q-3 1 -25.5 9.5t-38.5 13t-25 4.5q-38 0 -51 -45z" />
    <glyph glyph-name="ograve" unicode="&#xf2;" horiz-adv-x="578" 
d="M42 218q0 86 66 158q68 72 181 72q105 0 175 -66q72 -66 72 -164q0 -97 -72 -163q-70 -66 -175 -66q-113 0 -181 72q-66 72 -66 157zM138 218q0 -60 44 -106q44 -45 107 -45q62 0 106 44q45 45 45 107t-45 107q-43 45 -106 45t-107 -45q-44 -46 -44 -107zM235 700
l86 -167h-64l-165 167h143z" />
    <glyph glyph-name="oacute" unicode="&#xf3;" horiz-adv-x="578" 
d="M42 218q0 86 66 158q68 72 181 72q105 0 175 -66q72 -66 72 -164q0 -97 -72 -163q-70 -66 -175 -66q-113 0 -181 72q-66 72 -66 157zM138 218q0 -60 44 -106q44 -45 107 -45q62 0 106 44q45 45 45 107t-45 107q-43 45 -106 45t-107 -45q-44 -46 -44 -107zM321 533h-65
l87 167h142z" />
    <glyph glyph-name="ocircumflex" unicode="&#xf4;" horiz-adv-x="578" 
d="M42 218q0 86 66 158q68 72 181 72q105 0 175 -66q72 -66 72 -164q0 -97 -72 -163q-70 -66 -175 -66q-113 0 -181 72q-66 72 -66 157zM138 218q0 -60 44 -106q44 -45 107 -45q62 0 106 44q45 45 45 107t-45 107q-43 45 -106 45t-107 -45q-44 -46 -44 -107zM369 540l-80 86
l-80 -86h-69l104 160h87l107 -160h-69z" />
    <glyph glyph-name="otilde" unicode="&#xf5;" horiz-adv-x="578" 
d="M42 218q0 86 66 158q68 72 181 72q105 0 175 -66q72 -66 72 -164q0 -97 -72 -163q-70 -66 -175 -66q-113 0 -181 72q-66 72 -66 157zM138 218q0 -60 44 -106q44 -45 107 -45q62 0 106 44q45 45 45 107t-45 107q-43 45 -106 45t-107 -45q-44 -46 -44 -107zM172 553l-59 22
q29 97 115 97q36 0 102 -26q23 -10 37 -10q32 0 41 42l56 -25q-7 -24 -29 -53q-27 -36 -77 -36q-22 0 -46 7q-3 1 -25.5 9.5t-38.5 13t-25 4.5q-38 0 -51 -45z" />
    <glyph glyph-name="odieresis" unicode="&#xf6;" horiz-adv-x="578" 
d="M42 218q0 86 66 158q68 72 181 72q105 0 175 -66q72 -66 72 -164q0 -97 -72 -163q-70 -66 -175 -66q-113 0 -181 72q-66 72 -66 157zM138 218q0 -60 44 -106q44 -45 107 -45q62 0 106 44q45 45 45 107t-45 107q-43 45 -106 45t-107 -45q-44 -46 -44 -107zM428 666v-96
h-96v96h96zM245 666v-96h-96v96h96z" />
    <glyph glyph-name="divide" unicode="&#xf7;" horiz-adv-x="742" 
d="M700 238h-658v84h658v-84zM314 419q-23 24 -23 57t23 56q24 24 57 24t56 -24q24 -23 24 -56t-24 -57q-23 -23 -56 -23t-57 23zM314 27q-23 24 -23 57t23 56q24 24 57 24t56 -24q24 -23 24 -56t-24 -57q-23 -23 -56 -23t-57 23z" />
    <glyph glyph-name="oslash" unicode="&#xf8;" horiz-adv-x="580" 
d="M142 31l-49 -42l-51 55l47 43q-45 55 -45 132q0 94 64 161q65 68 181 68q82 0 145 -45l41 39l53 -55l-37 -34q47 -56 47 -135q0 -95 -70 -162t-179 -67q-85 0 -147 42zM422 290l-216 -198q32 -25 88 -25q72 0 111 45q39 46 39 103q0 47 -22 75zM155 148l216 198
q-35 24 -77 24q-72 0 -115 -45q-43 -43 -43 -107q0 -35 19 -70z" />
    <glyph glyph-name="ugrave" unicode="&#xf9;" horiz-adv-x="504" 
d="M361 437h90v-437h-90v91q-14 -45 -47.5 -73.5t-85.5 -28.5q-72 0 -124 38q-51 37 -51 124v286h90v-263q0 -33 10.5 -56.5t27 -33t30 -13.5t26.5 -4q50 0 87 37t37 94v239zM198 700l86 -167h-64l-165 167h143z" />
    <glyph glyph-name="uacute" unicode="&#xfa;" horiz-adv-x="504" 
d="M361 437h90v-437h-90v91q-14 -45 -47.5 -73.5t-85.5 -28.5q-72 0 -124 38q-51 37 -51 124v286h90v-263q0 -33 10.5 -56.5t27 -33t30 -13.5t26.5 -4q50 0 87 37t37 94v239zM284 533h-65l87 167h142z" />
    <glyph glyph-name="ucircumflex" unicode="&#xfb;" horiz-adv-x="504" 
d="M361 437h90v-437h-90v91q-14 -45 -47.5 -73.5t-85.5 -28.5q-72 0 -124 38q-51 37 -51 124v286h90v-263q0 -33 10.5 -56.5t27 -33t30 -13.5t26.5 -4q50 0 87 37t37 94v239zM332 540l-80 86l-80 -86h-69l104 160h87l107 -160h-69z" />
    <glyph glyph-name="udieresis" unicode="&#xfc;" horiz-adv-x="504" 
d="M361 437h90v-437h-90v91q-14 -45 -47.5 -73.5t-85.5 -28.5q-72 0 -124 38q-51 37 -51 124v286h90v-263q0 -33 10.5 -56.5t27 -33t30 -13.5t26.5 -4q50 0 87 37t37 94v239zM208 666v-96h-96v96h96zM391 666v-96h-96v96h96z" />
    <glyph glyph-name="yacute" unicode="&#xfd;" horiz-adv-x="532" 
d="M126 437l141 -310l139 310h90l-291 -649h-90l108 242l-187 407h90zM298 533h-65l87 167h142z" />
    <glyph glyph-name="thorn" unicode="&#xfe;" horiz-adv-x="588" 
d="M143 700v-330q71 78 177 78q95 0 160 -68q66 -68 66 -158q0 -92 -66 -163q-64 -70 -167 -70q-101 0 -170 78v-280h-90v913h90zM143 224q0 -59 41 -109q42 -48 109 -48q71 0 114 46q44 47 44 109q0 60 -48 104q-47 44 -114 44q-65 0 -106 -48q-40 -46 -40 -98z" />
    <glyph glyph-name="ydieresis" unicode="&#xff;" horiz-adv-x="532" 
d="M126 437l141 -310l139 310h90l-291 -649h-90l108 242l-187 407h90zM406 666v-96h-97v96h97zM222 666v-96h-96v96h96z" />
    <glyph glyph-name="Amacron" unicode="&#x100;" horiz-adv-x="733" 
d="M505 179h-277l-86 -179h-103l327 680l328 -680h-103zM366 467l-105 -204h211zM519 739h-305v67h305v-67z" />
    <glyph glyph-name="amacron" unicode="&#x101;" horiz-adv-x="496" 
d="M118 342l-18 76q84 30 166 30t129.5 -35t47.5 -99v-314h-90v26q-64 -37 -141 -37q-82 0 -126 44q-44 46 -44 101q0 50 46 93q47 44 142 44q65 0 123 -29v22q0 38 -12 65q-13 40 -85 40q-78 0 -138 -27zM137 133q0 -28 26 -47t75 -19q60 0 87.5 19t27.5 47
q0 25 -29.5 42.5t-80.5 17.5q-49 0 -77.5 -17t-28.5 -43zM410 585h-305v67h305v-67z" />
    <glyph glyph-name="Abreve" unicode="&#x102;" horiz-adv-x="733" 
d="M505 179h-277l-86 -179h-103l327 680l328 -680h-103zM366 467l-105 -204h211zM458 820h74q-48 -120 -165 -120q-118 0 -166 120h74q15 -42 53.5 -58.5t77 0t52.5 58.5z" />
    <glyph glyph-name="abreve" unicode="&#x103;" horiz-adv-x="496" 
d="M118 342l-18 76q84 30 166 30t129.5 -35t47.5 -99v-314h-90v26q-64 -37 -141 -37q-82 0 -126 44q-44 46 -44 101q0 50 46 93q47 44 142 44q65 0 123 -29v22q0 38 -12 65q-13 40 -85 40q-78 0 -138 -27zM137 133q0 -28 26 -47t75 -19q60 0 87.5 19t27.5 47
q0 25 -29.5 42.5t-80.5 17.5q-49 0 -77.5 -17t-28.5 -43zM356 680h81q-35 -92 -104 -117q-50 -16 -76 -16q-129 0 -179 133h81q14 -33 41 -53t57 -20t58.5 20.5t40.5 52.5z" />
    <glyph glyph-name="Cacute" unicode="&#x106;" horiz-adv-x="680" 
d="M573 159l65 -53q-98 -120 -253 -120q-84 0 -153 32t-110 87q-80 111 -80 242q0 144 105 239q106 94 261 94q61 0 109 -21.5t100 -68.5l-65 -63q-61 69 -152 69q-106 0 -182 -70q-76 -69 -76 -182q0 -111 62 -193q62 -81 168 -81q124 0 201 89zM431 700h-65l87 139h142z
" />
    <glyph glyph-name="cacute" unicode="&#x107;" horiz-adv-x="479" 
d="M437 376l-56 -54q-30 28 -51.5 38t-53.5 10q-64 0 -102 -47q-37 -46 -37 -109q0 -67 43 -107t108 -40q48 0 101 48l48 -62q-55 -64 -153 -64q-111 0 -177 67q-65 68 -65 159q0 99 67 166t162 67q99 0 166 -72zM309 533h-65l87 167h142z" />
    <glyph glyph-name="Ccircumflex" unicode="&#x108;" horiz-adv-x="680" 
d="M573 159l65 -53q-98 -120 -253 -120q-84 0 -153 32t-110 87q-80 111 -80 242q0 144 105 239q106 94 261 94q61 0 109 -21.5t100 -68.5l-65 -63q-61 69 -152 69q-106 0 -182 -70q-76 -69 -76 -182q0 -111 62 -193q62 -81 168 -81q124 0 201 89zM471 696l-80 86l-80 -86
h-69l104 160h87l107 -160h-69z" />
    <glyph glyph-name="ccircumflex" unicode="&#x109;" horiz-adv-x="479" 
d="M437 376l-56 -54q-30 28 -51.5 38t-53.5 10q-64 0 -102 -47q-37 -46 -37 -109q0 -67 43 -107t108 -40q48 0 101 48l48 -62q-55 -64 -153 -64q-111 0 -177 67q-65 68 -65 159q0 99 67 166t162 67q99 0 166 -72zM349 540l-80 86l-80 -86h-69l104 160h87l107 -160h-69z" />
    <glyph glyph-name="Cdotaccent" unicode="&#x10a;" horiz-adv-x="680" 
d="M573 159l65 -53q-98 -120 -253 -120q-84 0 -153 32t-110 87q-80 111 -80 242q0 144 105 239q106 94 261 94q61 0 109 -21.5t100 -68.5l-65 -63q-61 69 -152 69q-106 0 -182 -70q-76 -69 -76 -182q0 -111 62 -193q62 -81 168 -81q124 0 201 89zM337 700v126h126v-126h-126
z" />
    <glyph glyph-name="Ccaron" unicode="&#x10c;" horiz-adv-x="680" 
d="M573 159l65 -53q-98 -120 -253 -120q-84 0 -153 32t-110 87q-80 111 -80 242q0 144 105 239q106 94 261 94q61 0 109 -21.5t100 -68.5l-65 -63q-61 69 -152 69q-106 0 -182 -70q-76 -69 -76 -182q0 -111 62 -193q62 -81 168 -81q124 0 201 89zM321 859l80 -86l80 86h69
l-107 -160h-87l-104 160h69z" />
    <glyph glyph-name="ccaron" unicode="&#x10d;" horiz-adv-x="479" 
d="M437 376l-56 -54q-30 28 -51.5 38t-53.5 10q-64 0 -102 -47q-37 -46 -37 -109q0 -67 43 -107t108 -40q48 0 101 48l48 -62q-55 -64 -153 -64q-111 0 -177 67q-65 68 -65 159q0 99 67 166t162 67q99 0 166 -72zM188 700l80 -86l80 86h69l-107 -160h-87l-104 160h69z" />
    <glyph glyph-name="Dcaron" unicode="&#x10e;" horiz-adv-x="655" 
d="M253 0h-200v666h203q89 0 159.5 -27.5t112.5 -76.5q85 -96 85 -229q0 -97 -39 -174q-82 -159 -321 -159zM255 582h-107v-498h107q77 0 129 19q38 13 64 39q64 60 64 190q0 131 -65 190.5t-192 59.5zM223 848l80 -86l80 86h69l-107 -160h-87l-104 160h69z" />
    <glyph glyph-name="dcaron" unicode="&#x10f;" horiz-adv-x="683" 
d="M445 0v67q-71 -78 -177 -78q-95 0 -161 68q-65 68 -65 158q0 91 65 162q66 71 168 71q98 0 170 -78v330h90v-700h-90zM445 213q0 59 -43 108t-111 49q-69 0 -112 -46q-42 -46 -42 -110q0 -62 46 -105q47 -42 111 -42q60 0 106 44q45 43 45 102zM629 680h109l-73 -252h-81
z" />
    <glyph glyph-name="Emacron" unicode="&#x112;" horiz-adv-x="515" 
d="M148 402h314v-84h-314v-234h314v-84h-409v666h409v-83h-314v-181zM410 739h-305v67h305v-67z" />
    <glyph glyph-name="emacron" unicode="&#x113;" horiz-adv-x="549" 
d="M438 128l63 -49q-43 -51 -92.5 -70.5t-118.5 -19.5q-124 0 -186 68t-62 168t67 161q68 62 178 62q55 0 97 -17t65.5 -43t37.5 -60.5t18 -65t2 -60.5h-369q-1 -55 43 -95t110 -40q92 0 147 61zM149 280h250q-7 44 -39.5 69t-79.5 25q-49 0 -84.5 -25.5t-46.5 -68.5z
M433 586h-305v67h305v-67z" />
    <glyph glyph-name="Edotaccent" unicode="&#x116;" horiz-adv-x="515" 
d="M148 402h314v-84h-314v-234h314v-84h-409v666h409v-83h-314v-181zM194 694v126h126v-126h-126z" />
    <glyph glyph-name="Ecaron" unicode="&#x11a;" horiz-adv-x="515" 
d="M148 402h314v-84h-314v-234h314v-84h-409v666h409v-83h-314v-181zM177 848l80 -86l80 86h69l-107 -160h-87l-104 160h69z" />
    <glyph glyph-name="ecaron" unicode="&#x11b;" horiz-adv-x="549" 
d="M438 128l63 -49q-43 -51 -92.5 -70.5t-118.5 -19.5q-124 0 -186 68t-62 168t67 161q68 62 178 62q55 0 97 -17t65.5 -43t37.5 -60.5t18 -65t2 -60.5h-369q-1 -55 43 -95t110 -40q92 0 147 61zM149 280h250q-7 44 -39.5 69t-79.5 25q-49 0 -84.5 -25.5t-46.5 -68.5z
M205 700l80 -86l80 86h69l-107 -160h-87l-104 160h69z" />
    <glyph glyph-name="Gcircumflex" unicode="&#x11c;" horiz-adv-x="781" 
d="M659 574l-72 -56q-77 78 -186 78q-114 0 -186 -77t-72 -187t72 -186t186 -76q96 0 160 55q65 56 74 143h-245l34 84h315q-2 -102 -46 -192q-37 -78 -109 -126t-182 -48q-75 0 -138.5 23.5t-105.5 61.5q-58 54 -88 127t-28 135q0 139 102 243q104 104 258 104
q147 0 257 -106zM470 699l-80 86l-80 -86h-69l104 160h87l107 -160h-69z" />
    <glyph glyph-name="gcircumflex" unicode="&#x11d;" horiz-adv-x="588" 
d="M445 370v67h90v-385q0 -161 -63 -217q-32 -28 -76 -39.5t-114 -11.5q-120 0 -213 35l22 84q93 -37 201 -37q68 0 107 29q46 31 46 137v35q-28 -32 -69 -52q-55 -26 -101 -26q-105 0 -169 70t-64 163q0 102 70 163q70 63 156 63q106 0 177 -78zM445 224q0 58 -44 102
t-107 44q-60 0 -109 -39q-48 -39 -48 -109q0 -63 41 -110q41 -45 113 -45q71 0 112 48q42 49 42 109zM374 540l-80 86l-80 -86h-69l104 160h87l107 -160h-69z" />
    <glyph glyph-name="Gbreve" unicode="&#x11e;" horiz-adv-x="781" 
d="M659 574l-72 -56q-77 78 -186 78q-114 0 -186 -77t-72 -187t72 -186t186 -76q96 0 160 55q65 56 74 143h-245l34 84h315q-2 -102 -46 -192q-37 -78 -109 -126t-182 -48q-75 0 -138.5 23.5t-105.5 61.5q-58 54 -88 127t-28 135q0 139 102 243q104 104 258 104
q147 0 257 -106zM482 820h74q-48 -120 -165 -120q-118 0 -166 120h74q15 -42 53.5 -58.5t77 0t52.5 58.5z" />
    <glyph glyph-name="gbreve" unicode="&#x11f;" horiz-adv-x="588" 
d="M445 370v67h90v-385q0 -161 -63 -217q-32 -28 -76 -39.5t-114 -11.5q-120 0 -213 35l22 84q93 -37 201 -37q68 0 107 29q46 31 46 137v35q-28 -32 -69 -52q-55 -26 -101 -26q-105 0 -169 70t-64 163q0 102 70 163q70 63 156 63q106 0 177 -78zM445 224q0 58 -44 102
t-107 44q-60 0 -109 -39q-48 -39 -48 -109q0 -63 41 -110q41 -45 113 -45q71 0 112 48q42 49 42 109zM392 680h81q-35 -92 -104 -117q-50 -16 -76 -16q-129 0 -179 133h81q14 -33 41 -53t57 -20t58.5 20.5t40.5 52.5z" />
    <glyph glyph-name="Gcommaaccent" unicode="&#x122;" horiz-adv-x="781" 
d="M659 574l-72 -56q-77 78 -186 78q-114 0 -186 -77t-72 -187t72 -186t186 -76q96 0 160 55q65 56 74 143h-245l34 84h315q-2 -102 -46 -192q-37 -78 -109 -126t-182 -48q-75 0 -138.5 23.5t-105.5 61.5q-58 54 -88 127t-28 135q0 139 102 243q104 104 258 104
q147 0 257 -106zM350 -37h109l-73 -252h-81z" />
    <glyph glyph-name="gcommaaccent" unicode="&#x123;" horiz-adv-x="588" 
d="M445 370v67h90v-385q0 -161 -63 -217q-32 -28 -76 -39.5t-114 -11.5q-120 0 -213 35l22 84q93 -37 201 -37q68 0 107 29q46 31 46 137v35q-28 -32 -69 -52q-55 -26 -101 -26q-105 0 -169 70t-64 163q0 102 70 163q70 63 156 63q106 0 177 -78zM445 224q0 58 -44 102
t-107 44q-60 0 -109 -39q-48 -39 -48 -109q0 -63 41 -110q41 -45 113 -45q71 0 112 48q42 49 42 109zM339 477h-109l73 252h81z" />
    <glyph glyph-name="Hcircumflex" unicode="&#x124;" horiz-adv-x="666" 
d="M518 320h-370v-320h-95v666h95v-262h370v262h95v-666h-95v320zM413 688l-80 86l-80 -86h-69l104 160h87l107 -160h-69z" />
    <glyph glyph-name="hcircumflex" unicode="&#x125;" horiz-adv-x="504" 
d="M53 700h90v-354q37 102 133 102q27 0 36 -1q17 -2 43 -10q29 -9 48 -26q48 -46 48 -139v-272h-90v249q0 43 -12 75q-17 46 -81 46q-57 0 -90 -40q-32 -41 -35 -91v-239h-90v700zM178 708l-80 86l-80 -86h-69l104 160h87l107 -160h-69z" />
    <glyph glyph-name="Imacron" unicode="&#x12a;" horiz-adv-x="201" 
d="M148 0h-95v666h95v-666zM253 739h-305v67h305v-67z" />
    <glyph glyph-name="imacron" unicode="&#x12b;" horiz-adv-x="195" 
d="M142 0h-89v437h89v-437zM250 585h-305v67h305v-67z" />
    <glyph glyph-name="Idot" unicode="&#x130;" horiz-adv-x="204" 
d="M151 812v-98h-98v98h98zM150 0h-96v666h96v-666z" />
    <glyph glyph-name="dotlessi" unicode="&#x131;" horiz-adv-x="195" 
d="M142 0h-89v437h89v-437z" />
    <glyph glyph-name="Jcircumflex" unicode="&#x134;" horiz-adv-x="333" 
d="M184 141v525h96v-548q0 -56 -21 -91q-26 -41 -117 -41q-53 0 -103 7v77q49 -11 84 -11q43 0 54 30q7 21 7 52zM312 688l-80 86l-80 -86h-69l104 160h87l107 -160h-69z" />
    <glyph glyph-name="Kcommaaccent" unicode="&#x136;" horiz-adv-x="648" 
d="M148 0h-95v666h95v-305l235 305h122l-267 -312l371 -354h-133l-291 291l-37 -46v-245zM233 64h109l-73 -252h-81z" />
    <glyph glyph-name="kcommaaccent" unicode="&#x137;" horiz-adv-x="483" 
d="M143 0h-90v700h90v-448l158 185h123l-196 -191l219 -246h-119l-148 201l-37 -37v-164zM175 0h109l-73 -252h-81z" />
    <glyph glyph-name="Lacute" unicode="&#x139;" horiz-adv-x="498" 
d="M462 84v-84h-409v666h95v-582h314zM134 695h-65l87 139h142z" />
    <glyph glyph-name="lacute" unicode="&#x13a;" horiz-adv-x="196" 
d="M143 0h-90v700h90v-700zM129 722h-65l87 167h142z" />
    <glyph glyph-name="Lcommaaccent" unicode="&#x13b;" horiz-adv-x="498" 
d="M462 84v-84h-409v666h95v-582h314zM214 -23h109l-73 -252h-81z" />
    <glyph glyph-name="lcommaaccent" unicode="&#x13c;" horiz-adv-x="196" 
d="M143 0h-90v700h90v-700zM44 -22h109l-73 -252h-81z" />
    <glyph glyph-name="Lcaron" unicode="&#x13d;" horiz-adv-x="498" 
d="M462 84v-84h-409v666h95v-582h314zM361 680h109l-73 -252h-81z" />
    <glyph glyph-name="lcaron" unicode="&#x13e;" horiz-adv-x="273" 
d="M143 0h-90v700h90v-700zM219 680h109l-73 -252h-81z" />
    <glyph glyph-name="Lslash" unicode="&#x141;" horiz-adv-x="568" 
d="M366 510v-92l-148 -86v-248h314v-84h-409v277l-105 -61v94l105 60v296h95v-241z" />
    <glyph glyph-name="lslash" unicode="&#x142;" horiz-adv-x="328" 
d="M308 493v-92l-99 -58v-343h-90v290l-99 -57v94l99 57v316h90v-264z" />
    <glyph glyph-name="Nacute" unicode="&#x143;" horiz-adv-x="645" 
d="M592 -14l-455 483v-469h-84v680l455 -480v466h84v-680zM315 695h-65l87 139h142z" />
    <glyph glyph-name="nacute" unicode="&#x144;" horiz-adv-x="504" 
d="M143 0h-90v437h90v-91q37 102 133 102q32 0 61 -8t55.5 -25.5t42.5 -50.5t16 -78v-286h-90v263q0 54 -26 80.5t-67 26.5q-51 0 -86.5 -37t-38.5 -94v-239zM291 533h-65l87 167h142z" />
    <glyph glyph-name="Ncommaaccent" unicode="&#x145;" horiz-adv-x="645" 
d="M592 -14l-455 483v-469h-84v680l455 -480v466h84v-680zM279 77h109l-73 -252h-81z" />
    <glyph glyph-name="ncommaaccent" unicode="&#x146;" horiz-adv-x="504" 
d="M143 0h-90v437h90v-91q37 102 133 102q32 0 61 -8t55.5 -25.5t42.5 -50.5t16 -78v-286h-90v263q0 54 -26 80.5t-67 26.5q-51 0 -86.5 -37t-38.5 -94v-239zM203 47h109l-73 -252h-81z" />
    <glyph glyph-name="Ncaron" unicode="&#x147;" horiz-adv-x="645" 
d="M592 -14l-455 483v-469h-84v680l455 -480v466h84v-680zM242 848l80 -86l80 86h69l-107 -160h-87l-104 160h69z" />
    <glyph glyph-name="ncaron" unicode="&#x148;" horiz-adv-x="504" 
d="M143 0h-90v437h90v-91q37 102 133 102q32 0 61 -8t55.5 -25.5t42.5 -50.5t16 -78v-286h-90v263q0 54 -26 80.5t-67 26.5q-51 0 -86.5 -37t-38.5 -94v-239zM189 700l80 -86l80 86h69l-107 -160h-87l-104 160h69z" />
    <glyph glyph-name="Omacron" unicode="&#x14c;" horiz-adv-x="801" 
d="M42 333q0 139 102 243q104 104 258 104q150 0 254 -104q103 -103 103 -243t-103 -243q-102 -104 -254 -104q-106 0 -190 51q-82 51 -126 129t-44 167zM401 70q113 0 185 75q72 77 72 187t-72 187t-185 77q-114 0 -186 -77t-72 -187t72 -186t186 -76zM553 739h-305v67h305
v-67z" />
    <glyph glyph-name="omacron" unicode="&#x14d;" horiz-adv-x="578" 
d="M42 218q0 86 66 158q68 72 181 72q105 0 175 -66q72 -66 72 -164q0 -97 -72 -163q-70 -66 -175 -66q-113 0 -181 72q-66 72 -66 157zM138 218q0 -60 44 -106q44 -45 107 -45q62 0 106 44q45 45 45 107t-45 107q-43 45 -106 45t-107 -45q-44 -46 -44 -107zM441 585h-305
v67h305v-67z" />
    <glyph glyph-name="Obreve" unicode="&#x14e;" horiz-adv-x="801" 
d="M42 333q0 139 102 243q104 104 258 104q150 0 254 -104q103 -103 103 -243t-103 -243q-102 -104 -254 -104q-106 0 -190 51q-82 51 -126 129t-44 167zM401 70q113 0 185 75q72 77 72 187t-72 187t-185 77q-114 0 -186 -77t-72 -187t72 -186t186 -76zM492 820h74
q-48 -120 -165 -120q-118 0 -166 120h74q15 -42 53.5 -58.5t77 0t52.5 58.5z" />
    <glyph glyph-name="obreve" unicode="&#x14f;" horiz-adv-x="578" 
d="M42 218q0 86 66 158q68 72 181 72q105 0 175 -66q72 -66 72 -164q0 -97 -72 -163q-70 -66 -175 -66q-113 0 -181 72q-66 72 -66 157zM138 218q0 -60 44 -106q44 -45 107 -45q62 0 106 44q45 45 45 107t-45 107q-43 45 -106 45t-107 -45q-44 -46 -44 -107zM387 680h81
q-35 -92 -104 -117q-50 -16 -76 -16q-129 0 -179 133h81q14 -33 41 -53t57 -20t58.5 20.5t40.5 52.5z" />
    <glyph glyph-name="Ohungarumlaut" unicode="&#x150;" horiz-adv-x="801" 
d="M42 333q0 139 102 243q104 104 258 104q150 0 254 -104q103 -103 103 -243t-103 -243q-102 -104 -254 -104q-106 0 -190 51q-82 51 -126 129t-44 167zM401 70q113 0 185 75q72 77 72 187t-72 187t-185 77q-114 0 -186 -77t-72 -187t72 -186t186 -76zM349 700h-55l87 167
h132zM509 700h-55l87 167h132z" />
    <glyph glyph-name="ohungarumlaut" unicode="&#x151;" horiz-adv-x="578" 
d="M42 218q0 86 66 158q68 72 181 72q105 0 175 -66q72 -66 72 -164q0 -97 -72 -163q-70 -66 -175 -66q-113 0 -181 72q-66 72 -66 157zM138 218q0 -60 44 -106q44 -45 107 -45q62 0 106 44q45 45 45 107t-45 107q-43 45 -106 45t-107 -45q-44 -46 -44 -107zM245 700h-55
l87 167h132zM405 700h-55l87 167h132z" />
    <glyph glyph-name="OE" unicode="&#x152;" horiz-adv-x="952" 
d="M899 -1h-409q-45 -13 -88 -13q-107 0 -190 52q-82 52 -126 130t-44 165q0 135 99 239q48 50 116.5 79t144.5 29q43 0 88 -13h409v-84h-313v-181h313v-84h-313v-234h313v-85zM490 82v502q-45 12 -89 12q-114 0 -186 -77t-72 -187t72 -186t186 -76q44 0 89 12z" />
    <glyph glyph-name="oe" unicode="&#x153;" horiz-adv-x="947" 
d="M835 128l63 -49q-70 -90 -210 -90q-70 0 -117 20t-88 70q-77 -90 -194 -90q-101 0 -174 67t-73 162t73 162q74 68 174 68q116 0 194 -89q74 89 202 89q66 0 113.5 -25.5t69.5 -65.5t30.5 -78.5t6.5 -76.5h-369q-2 -54 40 -94q43 -41 113 -41q95 0 146 61zM138 218
q0 -60 44 -106q44 -45 107 -45q62 0 106 44q45 45 45 107t-45 107q-43 45 -106 45t-107 -45q-44 -46 -44 -107zM547 280h250q-7 44 -39.5 69t-79.5 25q-50 0 -85 -25.5t-46 -68.5z" />
    <glyph glyph-name="Racute" unicode="&#x154;" horiz-adv-x="590" 
d="M190 280h-42v-280h-95v666h230q94 0 153 -50t59 -138t-56 -141q-54 -51 -134 -56l246 -281h-118zM255 582h-107v-218h106q140 0 140 113q0 105 -139 105zM255 695h-65l87 139h142z" />
    <glyph glyph-name="racute" unicode="&#x155;" horiz-adv-x="333" 
d="M143 0h-90v437h90v-105q71 116 142 116h26v-90h-30q-47 0 -85 -31.5t-53 -89.5v-237zM190 533h-65l87 167h142z" />
    <glyph glyph-name="Rcommaaccent" unicode="&#x156;" horiz-adv-x="590" 
d="M190 280h-42v-280h-95v666h230q94 0 153 -50t59 -138t-56 -141q-54 -51 -134 -56l246 -281h-118zM255 582h-107v-218h106q140 0 140 113q0 105 -139 105zM225 48h109l-73 -252h-81z" />
    <glyph glyph-name="rcommaaccent" unicode="&#x157;" horiz-adv-x="333" 
d="M143 0h-90v437h90v-105q71 116 142 116h26v-90h-30q-47 0 -85 -31.5t-53 -89.5v-237zM44 -22h109l-73 -252h-81z" />
    <glyph glyph-name="Rcaron" unicode="&#x158;" horiz-adv-x="590" 
d="M190 280h-42v-280h-95v666h230q94 0 153 -50t59 -138t-56 -141q-54 -51 -134 -56l246 -281h-118zM255 582h-107v-218h106q140 0 140 113q0 105 -139 105zM173 848l80 -86l80 86h69l-107 -160h-87l-104 160h69z" />
    <glyph glyph-name="rcaron" unicode="&#x159;" horiz-adv-x="333" 
d="M143 0h-90v437h90v-105q71 116 142 116h26v-90h-30q-47 0 -85 -31.5t-53 -89.5v-237zM97 700l80 -86l80 86h69l-107 -160h-87l-104 160h69z" />
    <glyph glyph-name="Sacute" unicode="&#x15a;" horiz-adv-x="514" 
d="M42 50l41 79q82 -59 174 -59q57 0 85.5 28t28.5 71q0 21 -12 50q-4 11 -34 37q-14 14 -51 31l-32 16l-33 17q-49 24 -93 61q-51 48 -51 126q0 73 58 122q59 51 153 51q90 0 166 -36l-42 -81q-56 33 -123 33q-54 0 -82.5 -25.5t-28.5 -61.5q0 -45 48 -81q22 -15 46 -28
q15 -8 53.5 -27t48.5 -25q56 -32 83 -74.5t27 -106.5q0 -83 -63 -132q-61 -49 -154 -49q-113 0 -213 64zM303 700h-65l87 139h142z" />
    <glyph glyph-name="sacute" unicode="&#x15b;" horiz-adv-x="417" 
d="M361 418l-37 -76q-46 28 -94 28q-33 0 -52 -12t-19 -33t30 -44l34 -18l43 -20q109 -52 109 -138q0 -53 -52 -84q-52 -32 -121 -32q-82 0 -160 39l45 78q65 -39 113 -39q35 0 57.5 11.5t22.5 30.5q0 14 -13.5 29t-32.5 25q-23 13 -45 23q-16 8 -42 22q-47 27 -65.5 53
t-18.5 68q0 43 39 80q39 39 120 39q74 0 139 -30zM249 533h-65l87 167h142z" />
    <glyph glyph-name="Scircumflex" unicode="&#x15c;" horiz-adv-x="514" 
d="M42 50l41 79q82 -59 174 -59q57 0 85.5 28t28.5 71q0 21 -12 50q-4 11 -34 37q-14 14 -51 31l-32 16l-33 17q-49 24 -93 61q-51 48 -51 126q0 73 58 122q59 51 153 51q90 0 166 -36l-42 -81q-56 33 -123 33q-54 0 -82.5 -25.5t-28.5 -61.5q0 -45 48 -81q22 -15 46 -28
q15 -8 53.5 -27t48.5 -25q56 -32 83 -74.5t27 -106.5q0 -83 -63 -132q-61 -49 -154 -49q-113 0 -213 64zM358 698l-80 86l-80 -86h-69l104 160h87l107 -160h-69z" />
    <glyph glyph-name="scircumflex" unicode="&#x15d;" horiz-adv-x="417" 
d="M361 418l-37 -76q-46 28 -94 28q-33 0 -52 -12t-19 -33t30 -44l34 -18l43 -20q109 -52 109 -138q0 -53 -52 -84q-52 -32 -121 -32q-82 0 -160 39l45 78q65 -39 113 -39q35 0 57.5 11.5t22.5 30.5q0 14 -13.5 29t-32.5 25q-23 13 -45 23q-16 8 -42 22q-47 27 -65.5 53
t-18.5 68q0 43 39 80q39 39 120 39q74 0 139 -30zM301 540l-80 86l-80 -86h-69l104 160h87l107 -160h-69z" />
    <glyph glyph-name="Scedilla" unicode="&#x15e;" horiz-adv-x="514" 
d="M42 50l41 79q82 -59 174 -59q57 0 85.5 28t28.5 71q0 21 -12 50q-4 11 -34 37q-14 14 -51 31l-32 16l-33 17q-49 24 -93 61q-51 48 -51 126q0 73 58 122q59 51 153 51q90 0 166 -36l-42 -81q-56 33 -123 33q-54 0 -82.5 -25.5t-28.5 -61.5q0 -45 48 -81q22 -15 46 -28
q15 -8 53.5 -27t48.5 -25q56 -32 83 -74.5t27 -106.5q0 -83 -63 -132q-61 -49 -154 -49q-113 0 -213 64zM174 -207l5 60q2 -1 8.5 -1t8.5 -1q1 0 7 -0.5t8 -0.5q46 0 52 27q2 5 0 10q-6 15 -50 15l5 55q116 5 116 -47q0 -46 -29 -83q-28 -36 -94 -36q-21 0 -37 2z" />
    <glyph glyph-name="Scedilla" unicode="&#xf6c1;" horiz-adv-x="514" 
d="M42 50l41 79q82 -59 174 -59q57 0 85.5 28t28.5 71q0 21 -12 50q-4 11 -34 37q-14 14 -51 31l-32 16l-33 17q-49 24 -93 61q-51 48 -51 126q0 73 58 122q59 51 153 51q90 0 166 -36l-42 -81q-56 33 -123 33q-54 0 -82.5 -25.5t-28.5 -61.5q0 -45 48 -81q22 -15 46 -28
q15 -8 53.5 -27t48.5 -25q56 -32 83 -74.5t27 -106.5q0 -83 -63 -132q-61 -49 -154 -49q-113 0 -213 64zM174 -207l5 60q2 -1 8.5 -1t8.5 -1q1 0 7 -0.5t8 -0.5q46 0 52 27q2 5 0 10q-6 15 -50 15l5 55q116 5 116 -47q0 -46 -29 -83q-28 -36 -94 -36q-21 0 -37 2z" />
    <glyph glyph-name="scedilla" unicode="&#x15f;" horiz-adv-x="417" 
d="M361 418l-37 -76q-46 28 -94 28q-33 0 -52 -12t-19 -33t30 -44l34 -18l43 -20q109 -52 109 -138q0 -53 -52 -84q-52 -32 -121 -32q-82 0 -160 39l45 78q65 -39 113 -39q35 0 57.5 11.5t22.5 30.5q0 14 -13.5 29t-32.5 25q-23 13 -45 23q-16 8 -42 22q-47 27 -65.5 53
t-18.5 68q0 43 39 80q39 39 120 39q74 0 139 -30zM119 -207l5 60q2 -1 8.5 -1t8.5 -1q2 0 8 -0.5t7 -0.5q46 0 52 27q2 5 0 10q-6 15 -50 15l5 55q116 5 116 -47q0 -46 -29 -83q-28 -36 -94 -36q-21 0 -37 2z" />
    <glyph glyph-name="scedilla" unicode="&#xf6c2;" horiz-adv-x="417" 
d="M361 418l-37 -76q-46 28 -94 28q-33 0 -52 -12t-19 -33t30 -44l34 -18l43 -20q109 -52 109 -138q0 -53 -52 -84q-52 -32 -121 -32q-82 0 -160 39l45 78q65 -39 113 -39q35 0 57.5 11.5t22.5 30.5q0 14 -13.5 29t-32.5 25q-23 13 -45 23q-16 8 -42 22q-47 27 -65.5 53
t-18.5 68q0 43 39 80q39 39 120 39q74 0 139 -30zM119 -207l5 60q2 -1 8.5 -1t8.5 -1q2 0 8 -0.5t7 -0.5q46 0 52 27q2 5 0 10q-6 15 -50 15l5 55q116 5 116 -47q0 -46 -29 -83q-28 -36 -94 -36q-21 0 -37 2z" />
    <glyph glyph-name="Scaron" unicode="&#x160;" horiz-adv-x="514" 
d="M42 50l41 79q82 -59 174 -59q57 0 85.5 28t28.5 71q0 21 -12 50q-4 11 -34 37q-14 14 -51 31l-32 16l-33 17q-49 24 -93 61q-51 48 -51 126q0 73 58 122q59 51 153 51q90 0 166 -36l-42 -81q-56 33 -123 33q-54 0 -82.5 -25.5t-28.5 -61.5q0 -45 48 -81q22 -15 46 -28
q15 -8 53.5 -27t48.5 -25q56 -32 83 -74.5t27 -106.5q0 -83 -63 -132q-61 -49 -154 -49q-113 0 -213 64zM187 859l80 -86l80 86h69l-107 -160h-87l-104 160h69z" />
    <glyph glyph-name="scaron" unicode="&#x161;" horiz-adv-x="417" 
d="M361 418l-37 -76q-46 28 -94 28q-33 0 -52 -12t-19 -33t30 -44l34 -18l43 -20q109 -52 109 -138q0 -53 -52 -84q-52 -32 -121 -32q-82 0 -160 39l45 78q65 -39 113 -39q35 0 57.5 11.5t22.5 30.5q0 14 -13.5 29t-32.5 25q-23 13 -45 23q-16 8 -42 22q-47 27 -65.5 53
t-18.5 68q0 43 39 80q39 39 120 39q74 0 139 -30zM128 700l80 -86l80 86h69l-107 -160h-87l-104 160h69z" />
    <glyph glyph-name="Tcedilla" unicode="&#x162;" horiz-adv-x="503" 
d="M163 -207l5 60q2 -1 8.5 -1t8.5 -1q2 0 8 -0.5t7 -0.5q46 0 52 27q2 5 0 10q-6 15 -50 15l5 55q116 5 116 -47q0 -46 -29 -83q-28 -36 -94 -36q-21 0 -37 2zM299 0h-95v582h-168v84h431v-84h-168v-582z" />
    <glyph glyph-name="tcedilla" unicode="&#x163;" horiz-adv-x="341" 
d="M215 0h-90v359h-89v78h89v157l90 44v-201h90v-78h-90v-359zM82 -205l5 60q2 -1 8.5 -1t8.5 -1q1 0 7 -0.5t8 -0.5q46 0 52 27q2 5 0 10q-6 15 -50 15l5 55q116 5 116 -47q0 -46 -29 -83q-29 -36 -94 -36q-21 0 -37 2z" />
    <glyph glyph-name="Tcaron" unicode="&#x164;" horiz-adv-x="503" 
d="M299 0h-95v582h-168v84h431v-84h-168v-582zM171 848l80 -86l80 86h69l-107 -160h-87l-104 160h69z" />
    <glyph glyph-name="tcaron" unicode="&#x165;" horiz-adv-x="368" 
d="M215 0h-90v359h-89v78h89v157l90 44v-201h90v-78h-90v-359zM314 727h109l-73 -252h-81z" />
    <glyph glyph-name="Umacron" unicode="&#x16a;" horiz-adv-x="660" 
d="M512 666h95v-396q0 -78 -24 -137q-17 -44 -44 -73q-29 -32 -84 -53t-124 -21q-155 0 -224 96q-35 49 -47 109q-7 41 -7 79v396h95v-399q0 -197 182 -197q93 0 137 46q17 17 29 49q16 42 16 102v399zM482 739h-305v67h305v-67z" />
    <glyph glyph-name="umacron" unicode="&#x16b;" horiz-adv-x="504" 
d="M361 437h90v-437h-90v91q-14 -45 -47.5 -73.5t-85.5 -28.5q-72 0 -124 38q-51 37 -51 124v286h90v-263q0 -33 10.5 -56.5t27 -33t30 -13.5t26.5 -4q50 0 87 37t37 94v239zM404 585h-305v67h305v-67z" />
    <glyph glyph-name="Ubreve" unicode="&#x16c;" horiz-adv-x="660" 
d="M512 666h95v-396q0 -78 -24 -137q-17 -44 -44 -73q-29 -32 -84 -53t-124 -21q-155 0 -224 96q-35 49 -47 109q-7 41 -7 79v396h95v-399q0 -197 182 -197q93 0 137 46q17 17 29 49q16 42 16 102v399zM421 820h74q-48 -120 -165 -120q-118 0 -166 120h74q15 -42 53.5 -58.5
t77 0t52.5 58.5z" />
    <glyph glyph-name="ubreve" unicode="&#x16d;" horiz-adv-x="504" 
d="M361 437h90v-437h-90v91q-14 -45 -47.5 -73.5t-85.5 -28.5q-72 0 -124 38q-51 37 -51 124v286h90v-263q0 -33 10.5 -56.5t27 -33t30 -13.5t26.5 -4q50 0 87 37t37 94v239zM350 680h81q-35 -92 -104 -117q-50 -16 -76 -16q-129 0 -179 133h81q14 -33 41 -53t57 -20
t58.5 20.5t40.5 52.5z" />
    <glyph glyph-name="Uring" unicode="&#x16e;" horiz-adv-x="660" 
d="M512 666h95v-396q0 -78 -24 -137q-17 -44 -44 -73q-29 -32 -84 -53t-124 -21q-155 0 -224 96q-35 49 -47 109q-7 41 -7 79v396h95v-399q0 -197 182 -197q93 0 137 46q17 17 29 49q16 42 16 102v399zM263 668q-27 28 -27 67t27 66q27 28 66 28t66 -28q28 -28 28 -66
t-28 -66q-27 -28 -66 -28t-66 27zM329 683q22 0 37 15t15 37t-15 37t-37 15q-21 0 -36 -15t-15 -37t15 -37t36 -15z" />
    <glyph glyph-name="uring" unicode="&#x16f;" horiz-adv-x="504" 
d="M361 437h90v-437h-90v91q-14 -45 -47.5 -73.5t-85.5 -28.5q-72 0 -124 38q-51 37 -51 124v286h90v-263q0 -33 10.5 -56.5t27 -33t30 -13.5t26.5 -4q50 0 87 37t37 94v239zM185 542q-27 28 -27 67t27 66q27 28 66 28t66 -28q28 -28 28 -66t-28 -66q-27 -28 -66 -28t-66 27
zM251 557q22 0 37 15t15 37t-15 37t-37 15q-21 0 -36 -15t-15 -37t15 -37t36 -15z" />
    <glyph glyph-name="Uhungarumlaut" unicode="&#x170;" horiz-adv-x="660" 
d="M512 666h95v-396q0 -78 -24 -137q-17 -44 -44 -73q-29 -32 -84 -53t-124 -21q-155 0 -224 96q-35 49 -47 109q-7 41 -7 79v396h95v-399q0 -197 182 -197q93 0 137 46q17 17 29 49q16 42 16 102v399zM266 700h-55l87 167h132zM426 700h-55l87 167h132z" />
    <glyph glyph-name="uhungarumlaut" unicode="&#x171;" horiz-adv-x="504" 
d="M361 437h90v-437h-90v91q-14 -45 -47.5 -73.5t-85.5 -28.5q-72 0 -124 38q-51 37 -51 124v286h90v-263q0 -33 10.5 -56.5t27 -33t30 -13.5t26.5 -4q50 0 87 37t37 94v239zM194 700h-55l87 167h132zM354 700h-55l87 167h132z" />
    <glyph glyph-name="Ydieresis" unicode="&#x178;" horiz-adv-x="633" 
d="M269 0v218l-241 448h103l185 -346l186 346h103l-241 -448v-218h-95zM456 806v-96h-97v96h97zM272 806v-96h-96v96h96z" />
    <glyph glyph-name="Zacute" unicode="&#x179;" horiz-adv-x="598" 
d="M534 0h-506l369 582h-345l25 84h486l-369 -582h369zM291 695h-65l87 139h142z" />
    <glyph glyph-name="zacute" unicode="&#x17a;" horiz-adv-x="467" 
d="M431 437l-237 -359h237l-34 -78h-361l238 359h-214l32 78h339zM272 533h-65l87 167h142z" />
    <glyph glyph-name="Zdotaccent" unicode="&#x17b;" horiz-adv-x="598" 
d="M534 0h-506l369 582h-345l25 84h486l-369 -582h369zM236 694v126h126v-126h-126z" />
    <glyph glyph-name="Zcaron" unicode="&#x17d;" horiz-adv-x="598" 
d="M534 0h-506l369 582h-345l25 84h486l-369 -582h369zM219 848l80 -86l80 86h69l-107 -160h-87l-104 160h69z" />
    <glyph glyph-name="zcaron" unicode="&#x17e;" horiz-adv-x="467" 
d="M431 437l-237 -359h237l-34 -78h-361l238 359h-214l32 78h339zM165 700l80 -86l80 86h69l-107 -160h-87l-104 160h69z" />
    <glyph glyph-name="florin" unicode="&#x192;" horiz-adv-x="245" 
d="M220 359h-54v-359q0 -84 -24 -141q-30 -72 -122 -72h-41v76h20q43 0 60 32.5t17 100.5v363h-51v78h51v50q0 84 24 141q30 72 122 72h41v-76h-20q-43 0 -60 -32.5t-17 -100.5v-54h54v-78z" />
    <glyph glyph-name="Icaron" unicode="&#x1cf;" horiz-adv-x="201" 
d="M20 848l80 -86l80 86h69l-107 -160h-87l-104 160h69zM148 0h-95v666h95v-666z" />
    <glyph glyph-name="icaron" unicode="&#x1d0;" horiz-adv-x="195" 
d="M17 700l80 -86l80 86h69l-107 -160h-87l-104 160h69zM142 0h-89v437h89v-437z" />
    <glyph glyph-name="Gcaron" unicode="&#x1e6;" horiz-adv-x="781" 
d="M659 574l-72 -56q-77 78 -186 78q-114 0 -186 -77t-72 -187t72 -186t186 -76q96 0 160 55q65 56 74 143h-245l34 84h315q-2 -102 -46 -192q-37 -78 -109 -126t-182 -48q-75 0 -138.5 23.5t-105.5 61.5q-58 54 -88 127t-28 135q0 139 102 243q104 104 258 104
q147 0 257 -106zM316 862l80 -86l80 86h69l-107 -160h-87l-104 160h69z" />
    <glyph glyph-name="gcaron" unicode="&#x1e7;" horiz-adv-x="588" 
d="M445 370v67h90v-385q0 -161 -63 -217q-32 -28 -76 -39.5t-114 -11.5q-120 0 -213 35l22 84q93 -37 201 -37q68 0 107 29q46 31 46 137v35q-28 -32 -69 -52q-55 -26 -101 -26q-105 0 -169 70t-64 163q0 102 70 163q70 63 156 63q106 0 177 -78zM445 224q0 58 -44 102
t-107 44q-60 0 -109 -39q-48 -39 -48 -109q0 -63 41 -110q41 -45 113 -45q71 0 112 48q42 49 42 109zM214 700l80 -86l80 86h69l-107 -160h-87l-104 160h69z" />
    <glyph glyph-name="AEacute" unicode="&#x1fc;" horiz-adv-x="957" 
d="M149 0h-110l395 666h470v-83h-314v-181h314v-84h-314v-234h314v-84h-409v163h-249zM495 247v336l-200 -336h200zM636 695h-65l87 139h142z" />
    <glyph glyph-name="aeacute" unicode="&#x1fd;" horiz-adv-x="853" 
d="M118 342l-18 76q84 30 166 30q106 0 150 -62q60 62 175 62q55 0 97 -17t65.5 -43t37.5 -60t18 -64.5t2 -61.5h-369q-2 -54 40 -94q43 -41 113 -41q95 0 146 61l63 -49q-72 -90 -210 -90q-116 0 -180 61q-71 -61 -194 -61q-90 0 -134 43q-44 44 -44 102q0 50 46 93
q47 44 142 44q65 0 123 -29l-1 22q0 1 -0.5 12t-0.5 14q0 18 -11 40q-13 39 -84 39q-78 0 -138 -27zM137 133q0 -28 26 -47t75 -19q60 0 87.5 19t27.5 47q0 25 -29.5 42.5t-80.5 17.5q-49 0 -77.5 -17t-28.5 -43zM453 280h250q-7 44 -39.5 69t-79.5 25q-50 0 -85 -25.5
t-46 -68.5zM441 533h-65l87 167h142z" />
    <glyph glyph-name="Scommaaccent" unicode="&#x218;" horiz-adv-x="514" 
d="M42 50l41 79q82 -59 174 -59q57 0 85.5 28t28.5 71q0 21 -12 50q-4 11 -34 37q-14 14 -51 31l-32 16l-33 17q-49 24 -93 61q-51 48 -51 126q0 73 58 122q59 51 153 51q90 0 166 -36l-42 -81q-56 33 -123 33q-54 0 -82.5 -25.5t-28.5 -61.5q0 -45 48 -81q22 -15 46 -28
q15 -8 53.5 -27t48.5 -25q56 -32 83 -74.5t27 -106.5q0 -83 -63 -132q-61 -49 -154 -49q-113 0 -213 64zM201 -35h109l-73 -252h-81z" />
    <glyph glyph-name="scommaaccent" unicode="&#x219;" horiz-adv-x="417" 
d="M361 418l-37 -76q-46 28 -94 28q-33 0 -52 -12t-19 -33t30 -44l34 -18l43 -20q109 -52 109 -138q0 -53 -52 -84q-52 -32 -121 -32q-82 0 -160 39l45 78q65 -39 113 -39q35 0 57.5 11.5t22.5 30.5q0 14 -13.5 29t-32.5 25q-23 13 -45 23q-16 8 -42 22q-47 27 -65.5 53
t-18.5 68q0 43 39 80q39 39 120 39q74 0 139 -30zM155 -27h109l-73 -252h-81z" />
    <glyph glyph-name="Tcommaaccent" unicode="&#x21a;" horiz-adv-x="503" 
d="M299 0h-95v582h-168v84h431v-84h-168v-582zM198 -21h109l-73 -252h-81z" />
    <glyph glyph-name="tcommaaccent" unicode="&#x21b;" horiz-adv-x="341" 
d="M215 0h-90v359h-89v78h89v157l90 44v-201h90v-78h-90v-359zM115 -19h109l-73 -252h-81z" />
    <glyph glyph-name="Ecedilla" unicode="&#x228;" horiz-adv-x="515" 
d="M148 402h314v-84h-314v-234h314v-84h-409v666h409v-83h-314v-181zM192 -207l5 60q2 -1 8.5 -1t8.5 -1q1 0 7 -0.5t8 -0.5q46 0 52 27q2 5 0 10q-6 15 -50 15l5 55q116 5 116 -47q0 -46 -29 -83q-29 -36 -94 -36q-21 0 -37 2z" />
    <glyph glyph-name="ecedilla" unicode="&#x229;" horiz-adv-x="549" 
d="M438 128l63 -49q-43 -51 -92.5 -70.5t-118.5 -19.5q-124 0 -186 68t-62 168t67 161q68 62 178 62q55 0 97 -17t65.5 -43t37.5 -60.5t18 -65t2 -60.5h-369q-1 -55 43 -95t110 -40q92 0 147 61zM149 280h250q-7 44 -39.5 69t-79.5 25q-49 0 -84.5 -25.5t-46.5 -68.5z
M196 -207l5 60q2 -1 8.5 -1t8.5 -1q1 0 7 -0.5t8 -0.5q46 0 52 27q2 5 0 10q-6 15 -50 15l5 55q116 5 116 -47q0 -46 -29 -83q-29 -36 -94 -36q-21 0 -37 2z" />
    <glyph glyph-name="afii57929" unicode="&#x2bc;" horiz-adv-x="350" 
d="M143 680h109l-73 -252h-81z" />
    <glyph glyph-name="circumflex" unicode="&#x2c6;" 
d="M80 540l-80 86l-80 -86h-69l104 160h87l107 -160h-69z" />
    <glyph glyph-name="caron" unicode="&#x2c7;" 
d="M-80 700l80 -86l80 86h69l-107 -160h-87l-104 160h69z" />
    <glyph glyph-name="breve" unicode="&#x2d8;" 
d="M98 680h81q-35 -92 -104 -117q-50 -16 -76 -16q-129 0 -179 133h81q14 -33 41 -53t57 -20t58.5 20.5t40.5 52.5z" />
    <glyph glyph-name="dotaccent" unicode="&#x2d9;" 
d="M-63 547v126h126v-126h-126z" />
    <glyph glyph-name="ring" unicode="&#x2da;" 
d="M-67 542q-27 28 -27 67t27 66q27 28 66 28t66 -28q28 -28 28 -66t-28 -66q-27 -28 -66 -28t-66 27zM-1 557q22 0 37 15t15 37t-15 37t-37 15q-21 0 -36 -15t-15 -37t15 -37t36 -15z" />
    <glyph glyph-name="ogonek" unicode="&#x2db;" horiz-adv-x="561" 
d="M323 -151l18 -53q-32 -13 -71 -13q-54 0 -81 26t-27 70q4 54 56 103l30 24q16 11 30 20l21 15l30 -45l-36 -24q-9 -7 -31 -25q-37 -34 -37 -64q0 -43 52 -43q27 0 46 9z" />
    <glyph glyph-name="tilde" unicode="&#x2dc;" 
d="M-117 553l-59 22q29 97 115 97q36 0 102 -26q23 -10 37 -10q32 0 41 42l56 -25q-7 -24 -29 -53q-27 -36 -77 -36q-22 0 -46 7q-3 1 -25.5 9.5t-38.5 13t-25 4.5q-38 0 -51 -45z" />
    <glyph glyph-name="hungarumlaut" unicode="&#x2dd;" horiz-adv-x="252" 
d="M70 700h-55l87 167h132zM230 700h-55l87 167h132z" />
    <glyph glyph-name="accent" unicode="&#x301;" horiz-adv-x="10" 
d="M-295 533h-65l87 167h143z" />
    <glyph glyph-name="accent" unicode="&#xf400;" horiz-adv-x="10" 
d="M-295 533h-65l87 167h143z" />
    <glyph glyph-name="uni0313" unicode="&#x313;" horiz-adv-x="350" 
d="M143 680h109l-73 -252h-81z" />
    <glyph glyph-name="uni0315" unicode="&#x315;" horiz-adv-x="350" 
d="M143 680h109l-73 -252h-81z" />
    <glyph glyph-name="uni0326" unicode="&#x326;" horiz-adv-x="350" 
d="M143 126h109l-73 -252h-81z" />
    <glyph glyph-name="anoteleia" unicode="&#x387;" horiz-adv-x="250" 
d="M62 299v126h126v-126h-126z" />
    <glyph glyph-name="increment" unicode="&#x394;" horiz-adv-x="600" 
d="M441 84l-141 354l-141 -354h282zM344 562l223 -562h-534l223 562h88z" />
    <glyph glyph-name="increment" unicode="&#x2206;" horiz-adv-x="600" 
d="M441 84l-141 354l-141 -354h282zM344 562l223 -562h-534l223 562h88z" />
    <glyph glyph-name="afii10023" unicode="&#x401;" horiz-adv-x="515" 
d="M148 402h314v-84h-314v-234h314v-84h-409v666h409v-83h-314v-181zM208 812v-98h-98v98h98zM404 812v-98h-98v98h98z" />
    <glyph glyph-name="afii10051" unicode="&#x402;" horiz-adv-x="674" 
d="M467 666v-84h-168v-197h71q72 0 127 -15q39 -10 68 -31q29 -20 48 -60.5t19 -92.5q0 -91 -49 -146q-49 -54 -127 -54q-39 0 -82 20l17 77q26 -8 37 -8q100 0 100 115q0 111 -164 111h-65v-301h-95v582h-168v84h431z" />
    <glyph glyph-name="afii10052" unicode="&#x403;" horiz-adv-x="471" 
d="M429 666v-84h-281v-582h-95v666h376zM228 695h-65l87 139h142z" />
    <glyph glyph-name="afii10053" unicode="&#x404;" horiz-adv-x="680" 
d="M573 133l65 -68q-112 -79 -237 -79q-73 0 -136 23.5t-104 62.5q-59 56 -89 129t-30 140q0 40 12.5 84.5t41 90t68.5 82t101.5 59.5t133.5 23q147 0 239 -75l-65 -70q-65 61 -173 61q-91 0 -165 -59t-92 -151h323v-84h-323q9 -106 85 -169t168 -63q102 0 177 63z" />
    <glyph glyph-name="afii10054" unicode="&#x405;" horiz-adv-x="514" 
d="M42 50l41 79q82 -59 174 -59q57 0 85.5 28t28.5 71q0 21 -12 50q-4 11 -34 37q-14 14 -51 31l-32 16l-33 17q-49 24 -93 61q-51 48 -51 126q0 73 58 122q59 51 153 51q90 0 166 -36l-42 -81q-56 33 -123 33q-54 0 -82.5 -25.5t-28.5 -61.5q0 -45 48 -81q22 -15 46 -28
q15 -8 53.5 -27t48.5 -25q56 -32 83 -74.5t27 -106.5q0 -83 -63 -132q-61 -49 -154 -49q-113 0 -213 64z" />
    <glyph glyph-name="afii10055" unicode="&#x406;" horiz-adv-x="201" 
d="M148 0h-95v666h95v-666z" />
    <glyph glyph-name="afii10056" unicode="&#x407;" horiz-adv-x="398" 
d="M151 812v-98h-98v98h98zM345 812v-98h-98v98h98zM247 0h-96v666h96v-666z" />
    <glyph glyph-name="afii10057" unicode="&#x408;" horiz-adv-x="333" 
d="M184 141v525h96v-548q0 -56 -21 -91q-26 -41 -117 -41q-53 0 -103 7v77q49 -11 84 -11q43 0 54 30q7 21 7 52z" />
    <glyph glyph-name="afii10058" unicode="&#x409;" horiz-adv-x="1020" 
d="M527 0v582h-234v-326q0 -169 -56 -222q-29 -27 -62.5 -37.5t-88.5 -10.5q-10 0 -47 5v90q11 -3 21 -3q85 0 110 40q27 40 27 140v408h425v-267h132q106 0 165 -56t59 -133q0 -72 -41 -136q-22 -34 -68 -54t-108 -20h-234zM622 315v-231h113q43 0 72 8q65 18 70 113
q0 110 -141 110h-114z" />
    <glyph glyph-name="afii10059" unicode="&#x40a;" horiz-adv-x="1011" 
d="M518 320h-370v-320h-95v666h95v-262h370v262h95v-262h131q108 0 166 -57q59 -57 59 -137q0 -72 -41 -136q-22 -34 -68 -54t-108 -20h-234v320zM613 320v-236h113q40 0 69 8q73 22 73 113q0 59 -33 87q-37 28 -109 28h-113z" />
    <glyph glyph-name="afii10060" unicode="&#x40b;" horiz-adv-x="733" 
d="M300 0h-95v582h-169v84h432v-84h-168v-211q94 20 188 20q127 0 163 -56q29 -42 29 -104v-231h-95v215v26q0 24 -11 35q-16 31 -112 31q-82 0 -162 -20v-287z" />
    <glyph glyph-name="afii10061" unicode="&#x40c;" horiz-adv-x="593" 
d="M148 0h-95v666h95v-284h93q67 0 90 66l38 108q29 80 56 101q29 23 81 23q23 0 45 -11v-84q-12 3 -24 3q-21 0 -37 -13q-20 -17 -33 -58l-28 -86q-18 -56 -79 -84q46 -19 66 -42.5t32 -65.5l28 -101q18 -62 57 -62q14 0 18 1v-90h-9q-4 0 -16 -0.5t-16 -0.5q-95 0 -119 91
l-32 118q-27 103 -117 103h-94v-298zM289 695h-65l87 139h142z" />
    <glyph glyph-name="afii10062" unicode="&#x40e;" horiz-adv-x="668" 
d="M147 666l224 -386l156 386h102l-155 -386l-14 -35q-11 -29 -26 -64q-4 -11 -25 -55q-17 -35 -29 -49q-43 -53 -76 -68q-56 -23 -118 -23q-48 0 -88 14v88q58 -18 113 -18q76 0 113 94l-285 502h108zM444 812h47q-14 -54 -55.5 -86t-100.5 -32q-58 0 -100.5 30.5
t-57.5 87.5h48q23 -59 110 -59q86 0 109 59z" />
    <glyph glyph-name="afii10145" unicode="&#x40f;" horiz-adv-x="642" 
d="M131 666v-582h374v582h95v-666h-240v-168h-84v168h-240v666h95z" />
    <glyph glyph-name="afii10017" unicode="&#x410;" horiz-adv-x="733" 
d="M505 179h-277l-86 -179h-103l327 680l328 -680h-103zM366 467l-105 -204h211z" />
    <glyph glyph-name="afii10018" unicode="&#x411;" horiz-adv-x="548" 
d="M423 666v-84h-275v-197h103q255 0 255 -192q0 -74 -45 -129q-53 -64 -189 -64h-219v666h370zM148 301v-217h100q59 0 100 16q54 20 54 93q0 59 -41 86q-17 12 -42 16q-30 5 -38 5q-7 1 -33 1h-100z" />
    <glyph glyph-name="afii10019" unicode="&#x412;" horiz-adv-x="543" 
d="M280 0h-227v666h188h30q9 0 38 -3t45 -9q57 -20 79 -48q35 -42 35 -109q0 -55 -23 -94t-67 -51q54 -13 88.5 -55t34.5 -101q0 -55 -18 -97q-41 -95 -203 -99zM148 582v-197h99q120 0 120 102q0 42 -29 68.5t-91 26.5h-99zM148 301v-217h118q67 0 100.5 25.5t33.5 85.5
q0 106 -133 106h-119z" />
    <glyph glyph-name="afii10020" unicode="&#x413;" horiz-adv-x="471" 
d="M429 666v-84h-281v-582h-95v666h376z" />
    <glyph glyph-name="afii10021" unicode="&#x414;" horiz-adv-x="699" 
d="M102 0v-143h-95v227h78q60 130 60 338v244h445v-582h95v-227h-95v143h-488zM495 84v498h-255v-155q0 -208 -56 -343h311z" />
    <glyph glyph-name="afii10022" unicode="&#x415;" horiz-adv-x="515" 
d="M148 402h314v-84h-314v-234h314v-84h-409v666h409v-83h-314v-181z" />
    <glyph glyph-name="afii10024" unicode="&#x416;" horiz-adv-x="969" 
d="M532 0h-95v298h-85q-91 0 -118 -103l-32 -118q-24 -91 -118 -91q-4 0 -17 0.5t-16 0.5h-9v90q4 -1 18 -1q39 0 57 62l28 101q7 23 15 39q24 46 83 69q-62 31 -79 84l-27 86q-5 15 -11 30q-5 14 -22 27.5t-38 13.5q-12 0 -24 -3v84q24 11 45 11q53 0 82 -24
q29 -23 56 -100l38 -108q23 -66 90 -66h84v284h95v-284h84q68 0 91 66l37 108q29 86 66 108q27 16 72 16q23 0 45 -11v-84q-66 19 -95 -68l-27 -86q-17 -53 -79 -84q33 -13 54 -33q31 -30 44 -75l28 -101q19 -73 75 -61v-90h-9h-16h-21q-25 0 -44 7q-29 13 -41 26
q-19 22 -29 57l-32 118q-27 103 -118 103h-85v-298z" />
    <glyph glyph-name="afii10025" unicode="&#x417;" horiz-adv-x="611" 
d="M131 523l-56 68q103 89 233 89q109 0 171 -50q61 -49 61 -114q0 -112 -122 -166q68 -14 109.5 -61.5t41.5 -109.5q0 -79 -63 -136t-186 -57q-175 0 -278 105l64 65q48 -51 98.5 -69t120.5 -18q69 0 106 31t37 80q0 43 -23 67.5t-63 40.5q-21 9 -52 12q-51 5 -95 5h-30v84
h62q172 0 172 118q0 37 -34 63t-91 26q-101 0 -183 -73z" />
    <glyph glyph-name="afii10026" unicode="&#x418;" horiz-adv-x="668" 
d="M520 0v469l-467 -483v680h95v-468l467 482v-680h-95z" />
    <glyph glyph-name="afii10027" unicode="&#x419;" horiz-adv-x="667" 
d="M519 0v469l-466 -483v680h95v-468l466 482v-680h-95zM450 812h81q-43 -118 -179 -118q-135 0 -180 118h81q29 -59 98 -59q31 0 59 15.5t40 43.5z" />
    <glyph glyph-name="afii10028" unicode="&#x41a;" horiz-adv-x="593" 
d="M148 0h-95v666h95v-284h93q67 0 90 66l38 108q29 80 56 101q29 23 81 23q23 0 45 -11v-84q-12 3 -24 3q-21 0 -37 -13q-20 -17 -33 -58l-28 -86q-18 -56 -79 -84q46 -19 66 -42.5t32 -65.5l28 -101q18 -62 57 -62q14 0 18 1v-90h-9q-4 0 -16 -0.5t-16 -0.5q-95 0 -119 91
l-32 118q-27 103 -117 103h-94v-298z" />
    <glyph glyph-name="afii10029" unicode="&#x41b;" horiz-adv-x="675" 
d="M527 0v582h-235v-382q0 -137 -72 -180q-55 -34 -134 -34q-10 0 -47 5v90q10 -3 20 -3q65 0 91 17q47 32 47 163v408h425v-666h-95z" />
    <glyph glyph-name="afii10030" unicode="&#x41c;" horiz-adv-x="906" 
d="M237 680l216 -483l216 483l198 -680h-95l-123 425l-196 -439l-196 439l-123 -425h-95z" />
    <glyph glyph-name="afii10031" unicode="&#x41d;" horiz-adv-x="666" 
d="M518 320h-370v-320h-95v666h95v-262h370v262h95v-666h-95v320z" />
    <glyph glyph-name="afii10032" unicode="&#x41e;" horiz-adv-x="801" 
d="M42 333q0 139 102 243q104 104 258 104q150 0 254 -104q103 -103 103 -243t-103 -243q-102 -104 -254 -104q-106 0 -190 51q-82 51 -126 129t-44 167zM401 70q113 0 185 75q72 77 72 187t-72 187t-185 77q-114 0 -186 -77t-72 -187t72 -186t186 -76z" />
    <glyph glyph-name="afii10033" unicode="&#x41f;" horiz-adv-x="670" 
d="M521 582h-373v-582h-95v666h564v-666h-96v582z" />
    <glyph glyph-name="afii10034" unicode="&#x420;" horiz-adv-x="526" 
d="M267 271h-119v-271h-95v666h209q111 0 165 -52q23 -21 36 -51q21 -44 21 -96q0 -46 -18 -89q-37 -103 -199 -107zM148 582v-227h103q132 0 132 116q0 71 -46 92q-35 19 -91 19h-98z" />
    <glyph glyph-name="afii10035" unicode="&#x421;" horiz-adv-x="680" 
d="M573 159l65 -53q-98 -120 -253 -120q-84 0 -153 32t-110 87q-80 111 -80 242q0 144 105 239q106 94 261 94q61 0 109 -21.5t100 -68.5l-65 -63q-61 69 -152 69q-106 0 -182 -70q-76 -69 -76 -182q0 -111 62 -193q62 -81 168 -81q124 0 201 89z" />
    <glyph glyph-name="afii10036" unicode="&#x422;" horiz-adv-x="503" 
d="M299 0h-95v582h-168v84h431v-84h-168v-582z" />
    <glyph glyph-name="afii10037" unicode="&#x423;" horiz-adv-x="668" 
d="M146 666l222 -391l158 391h103l-155 -386l-14 -35q-11 -29 -26 -64q-4 -11 -25 -55q-17 -35 -29 -49q-43 -53 -76 -68q-56 -23 -118 -23q-48 0 -88 14v88q58 -18 113 -18q76 0 113 94l-285 502h107z" />
    <glyph glyph-name="afii10038" unicode="&#x424;" horiz-adv-x="879" 
d="M392 548v132h95v-132q55 46 120 46q95 0 162 -73q68 -74 68 -198q0 -117 -66 -184q-66 -68 -147 -68q-78 0 -137 45v-130h-95v130q-58 -45 -137 -45q-81 0 -147 68q-66 67 -66 184q0 125 67 198t163 73q65 0 120 -46zM392 207v243q0 20 -36 39q-36 21 -76 21
q-62 0 -99.5 -50t-37.5 -140q0 -76 37 -120.5t103 -44.5q42 0 75 18q34 18 34 34zM487 450v-243q0 -16 33 -34q34 -18 76 -18q66 0 103 44.5t37 120.5q0 90 -37.5 140t-99.5 50q-40 0 -76 -21q-36 -19 -36 -39z" />
    <glyph glyph-name="afii10039" unicode="&#x425;" horiz-adv-x="638" 
d="M486 0l-167 273l-167 -273h-113l223 365l-183 301h113l126 -209l128 209h113l-184 -301l224 -365h-113z" />
    <glyph glyph-name="afii10040" unicode="&#x426;" horiz-adv-x="721" 
d="M612 666v-582h95v-227h-95v143h-559v666h95v-582h369v582h95z" />
    <glyph glyph-name="afii10041" unicode="&#x427;" horiz-adv-x="584" 
d="M436 380v286h95v-666h-95v296q-79 -19 -191 -19q-126 0 -164 52q-28 43 -28 107v230h95v-215v-27q0 -24 11 -35q23 -28 113 -28q98 0 164 19z" />
    <glyph glyph-name="afii10042" unicode="&#x428;" horiz-adv-x="983" 
d="M930 0h-877v666h95v-582h296v582h95v-582h296v582h95v-666z" />
    <glyph glyph-name="afii10043" unicode="&#x429;" horiz-adv-x="1039" 
d="M930 666v-582h95v-227h-95v143h-877v666h95v-582h296v582h95v-582h296v582h95z" />
    <glyph glyph-name="afii10044" unicode="&#x42a;" horiz-adv-x="677" 
d="M36 666h243v-267h131q106 0 165 -56q60 -55 60 -133q0 -72 -41 -136q-22 -34 -68.5 -54t-108.5 -20h-233v582h-148v84zM279 315v-231h113q41 0 70 8q68 19 72 113q0 110 -142 110h-113z" />
    <glyph glyph-name="afii10045" unicode="&#x42b;" horiz-adv-x="764" 
d="M711 0h-95v666h95v-666zM53 666h95v-267h132q106 0 165 -56t59 -133q0 -72 -41 -136q-22 -34 -68 -54t-108 -20h-234v666zM148 315v-231h113q43 0 72 8q65 18 70 113q0 110 -141 110h-114z" />
    <glyph glyph-name="afii10046" unicode="&#x42c;" horiz-adv-x="546" 
d="M53 666h96v-267h131q106 0 165 -56t59 -133q0 -72 -41 -136q-22 -34 -68 -54t-108 -20h-234v666zM149 315v-231h112q42 0 71 8q68 19 72 113q0 110 -142 110h-113z" />
    <glyph glyph-name="afii10047" unicode="&#x42d;" horiz-adv-x="680" 
d="M42 65l65 68q75 -63 177 -63q113 0 178 68q66 70 76 164h-324v84h324q-18 95 -89 152q-70 58 -169 58q-103 0 -173 -61l-65 70q97 75 239 75q153 0 254 -97q103 -97 103 -242q0 -144 -97 -250q-97 -105 -262 -105q-125 0 -237 79z" />
    <glyph glyph-name="afii10048" unicode="&#x42e;" horiz-adv-x="1081" 
d="M148 320v-320h-95v666h95v-262h182q25 117 122 197q95 79 230 79q150 0 254 -104q103 -103 103 -243t-103 -243q-102 -104 -254 -104q-145 0 -248 94q-104 94 -111 240h-175zM681 70q113 0 185 75q72 77 72 187t-72 187t-185 77q-114 0 -186 -77t-72 -187t72 -186
t186 -76z" />
    <glyph glyph-name="afii10049" unicode="&#x42f;" horiz-adv-x="591" 
d="M442 0v280h-42l-243 -280h-118l243 278q-23 3 -45 10t-48.5 22.5t-46.5 36.5t-33.5 55t-13.5 76q0 87 59 137q60 51 153 51h231v-666h-96zM442 364v218h-107q-139 0 -139 -105q0 -35 22 -70q29 -43 118 -43h106z" />
    <glyph glyph-name="afii10065" unicode="&#x430;" horiz-adv-x="496" 
d="M118 342l-18 76q84 30 166 30t129.5 -35t47.5 -99v-314h-90v26q-64 -37 -141 -37q-82 0 -126 44q-44 46 -44 101q0 50 46 93q47 44 142 44q65 0 123 -29v22q0 38 -12 65q-13 40 -85 40q-78 0 -138 -27zM137 133q0 -28 26 -47t75 -19q60 0 87.5 19t27.5 47
q0 25 -29.5 42.5t-80.5 17.5q-49 0 -77.5 -17t-28.5 -43z" />
    <glyph glyph-name="afii10066" unicode="&#x431;" horiz-adv-x="578" 
d="M415 710h86q-11 -61 -56 -96q-21 -16 -45 -25q-41 -15 -85 -22l-45 -8q-15 -3 -42 -15q-38 -15 -57.5 -47.5t-24.5 -94.5q64 46 142 46q118 0 182 -69q66 -67 66 -162q0 -94 -68 -162q-68 -66 -182 -66q-244 0 -244 303q0 191 76 281q41 48 99 70q39 14 99 21q40 4 63 13
q19 7 36 33zM138 218q0 -63 44 -107q46 -44 111 -44q63 0 105 44t42 107q0 58 -41 105t-107 47q-69 0 -112 -46q-42 -45 -42 -106z" />
    <glyph glyph-name="afii10067" unicode="&#x432;" horiz-adv-x="460" 
d="M53 0v437h178q160 0 160 -110q0 -58 -70 -86q43 -7 70 -36.5t27 -73.5q0 -131 -176 -131h-189zM143 359v-95h77q76 0 76 49q0 46 -75 46h-78zM143 186v-108h88q92 0 92 55q0 53 -90 53h-90z" />
    <glyph glyph-name="afii10068" unicode="&#x433;" horiz-adv-x="391" 
d="M53 437h302v-78h-212v-359h-90v437z" />
    <glyph glyph-name="afii10069" unicode="&#x434;" horiz-adv-x="549" 
d="M97 0v-132h-90v210h62q43 49 43 139v220h333v-359h90v-210h-90v132h-348zM165 78h190v281h-160v-137q0 -88 -30 -144z" />
    <glyph glyph-name="afii10070" unicode="&#x435;" horiz-adv-x="549" 
d="M438 128l63 -49q-43 -51 -92.5 -70.5t-118.5 -19.5q-124 0 -186 68t-62 168t67 161q68 62 178 62q55 0 97 -17t65.5 -43t37.5 -60.5t18 -65t2 -60.5h-369q-1 -55 43 -95t110 -40q92 0 147 61zM149 280h250q-7 44 -39.5 69t-79.5 25q-49 0 -84.5 -25.5t-46.5 -68.5z" />
    <glyph glyph-name="afii10072" unicode="&#x436;" horiz-adv-x="790" 
d="M440 0h-90v185h-40q-21 0 -37 -2q-31 -6 -53 -53q-4 -10 -17 -39.5t-17 -39.5q-31 -67 -86 -62q-22 0 -58 12v78q9 -3 19 -3q25 0 35.5 9.5t13.5 26t7 35t23.5 39.5t56.5 37q-23 13 -38 40l-10 27l-8 24q-16 45 -40 49q-11 3 -13 3q-27 0 -35 -1v76q20 7 55 7
q46 0 68 -22q25 -22 50 -93q11 -31 24 -48q16 -22 57 -22h43v174h90v-174h43q26 0 43 11q16 10 22.5 20.5t16.5 38.5q25 71 49 94q22 21 69 21q36 0 54 -7v-76q-4 1 -19 1q-21 0 -26 -1q-10 -1 -22.5 -14t-20.5 -37l-5 -16q-8 -26 -12 -33q-15 -27 -39 -42q37 -16 56.5 -37
t23.5 -39.5t7 -35t13.5 -26t35.5 -9.5q10 0 19 3v-78q-36 -12 -58 -12q-44 0 -68 31q-6 10 -18 31q-4 9 -16 39t-17 40q-17 35 -35 45t-56 10h-40v-185z" />
    <glyph glyph-name="afii10073" unicode="&#x437;" horiz-adv-x="487" 
d="M114 324l-49 53q77 71 185 71q79 0 126.5 -32.5t47.5 -79.5q0 -63 -95 -101q64 -16 95 -55q21 -25 21 -58q0 -52 -50 -93q-49 -40 -141 -40q-118 0 -212 67l48 59q88 -48 162 -48q98 0 98 65q0 28 -29 47.5t-92 19.5h-48v65h47q78 0 91 30q10 18 10 38q0 16 -20.5 27
t-56.5 11q-32 0 -73 -13t-65 -33z" />
    <glyph glyph-name="afii10074" unicode="&#x438;" horiz-adv-x="496" 
d="M353 0v273l-300 -284v448h90v-269l300 280v-448h-90z" />
    <glyph glyph-name="afii10075" unicode="&#x439;" horiz-adv-x="498" 
d="M353 0v273l-300 -284v448h90v-269l300 280v-448h-90zM364 680h81q-19 -52 -63 -93q-43 -40 -116 -40q-130 0 -180 133h81q14 -33 41 -53t57 -20q31 0 58.5 20t40.5 53z" />
    <glyph glyph-name="afii10076" unicode="&#x43a;" horiz-adv-x="493" 
d="M143 0h-90v437h90v-174h43q40 0 57 22q6 8 14 21q2 3 11 29l10 28q19 50 43.5 67.5t63.5 17.5q34 0 48 -7v-76q-1 0 -6 0.5t-6 0.5q-22 0 -27 -1q-9 -1 -21.5 -14t-20.5 -37q-1 -2 -6.5 -19t-7.5 -22q-15 -33 -42 -50q34 -16 51 -47q5 -8 15 -32q9 -20 12 -28
q10 -22 22.5 -31t35.5 -9q10 0 19 3v-78q-39 -12 -56 -12q-47 0 -73 36q-16 24 -32 65q-26 66 -46 80q-19 15 -62 15h-39v-185z" />
    <glyph glyph-name="afii10077" unicode="&#x43b;" horiz-adv-x="499" 
d="M356 0v359h-186v-247q0 -54 -19 -84q-23 -39 -123 -39q-2 0 -7 0.5t-7 0.5v77q5 -1 24 -1h6q15 0 21 1.5t10.5 12.5t4.5 36v321h366v-437h-90z" />
    <glyph glyph-name="afii10078" unicode="&#x43c;" horiz-adv-x="734" 
d="M526 244l-159 -255l-160 255l-70 -244h-95l135 448l190 -309l189 309l136 -448h-95z" />
    <glyph glyph-name="afii10079" unicode="&#x43d;" horiz-adv-x="504" 
d="M361 197h-218v-197h-90v437h90v-162h218v162h90v-437h-90v197z" />
    <glyph glyph-name="afii10080" unicode="&#x43e;" horiz-adv-x="578" 
d="M42 218q0 86 66 158q68 72 181 72q105 0 175 -66q72 -66 72 -164q0 -97 -72 -163q-70 -66 -175 -66q-113 0 -181 72q-66 72 -66 157zM138 218q0 -60 44 -106q44 -45 107 -45q62 0 106 44q45 45 45 107t-45 107q-43 45 -106 45t-107 -45q-44 -46 -44 -107z" />
    <glyph glyph-name="afii10081" unicode="&#x43f;" horiz-adv-x="505" 
d="M452 0h-90v359h-219v-359h-90v437h399v-437z" />
    <glyph glyph-name="afii10082" unicode="&#x440;" horiz-adv-x="588" 
d="M143 437v-67q71 78 177 78q95 0 160 -68q66 -68 66 -158q0 -92 -66 -163q-64 -70 -167 -70q-101 0 -170 78v-280h-90v650h90zM143 224q0 -59 41 -109q42 -48 109 -48q71 0 114 46q44 47 44 109q0 60 -48 104q-47 44 -114 44q-65 0 -106 -48q-40 -46 -40 -98z" />
    <glyph glyph-name="afii10083" unicode="&#x441;" horiz-adv-x="479" 
d="M437 376l-56 -54q-30 28 -51.5 38t-53.5 10q-64 0 -102 -47q-37 -46 -37 -109q0 -67 43 -107t108 -40q48 0 101 48l48 -62q-55 -64 -153 -64q-111 0 -177 67q-65 68 -65 159q0 99 67 166t162 67q99 0 166 -72z" />
    <glyph glyph-name="afii10084" unicode="&#x442;" horiz-adv-x="426" 
d="M258 0h-90v359h-132v78h354v-78h-132v-359z" />
    <glyph glyph-name="afii10085" unicode="&#x443;" horiz-adv-x="532" 
d="M126 437l141 -310l139 310h90l-291 -649h-90l108 242l-187 407h90z" />
    <glyph glyph-name="afii10086" unicode="&#x444;" horiz-adv-x="800" 
d="M361 384v257h78v-257q46 64 127 64q87 0 139.5 -60t52.5 -167q0 -113 -57 -173q-56 -59 -136 -59q-69 0 -126 62v-264h-78v264q-57 -62 -126 -62q-80 0 -137 59q-56 61 -56 173q0 107 52.5 167t139.5 60q81 0 127 -64zM137 216q0 -71 29.5 -110t77.5 -39q50 0 83.5 37.5
t33.5 111.5q0 84 -36 119q-35 35 -81 35q-39 0 -74 -35q-33 -35 -33 -119zM663 216q0 47 -11.5 80t-29.5 47.5t-34 20.5t-32 6q-45 0 -82 -35q-35 -35 -35 -119q0 -74 33.5 -111.5t83.5 -37.5q48 0 77.5 39t29.5 110z" />
    <glyph glyph-name="afii10087" unicode="&#x445;" horiz-adv-x="469" 
d="M339 0l-105 163l-104 -163h-94l151 235l-130 202h94l83 -129l84 129h94l-131 -202l152 -235h-94z" />
    <glyph glyph-name="afii10088" unicode="&#x446;" horiz-adv-x="562" 
d="M457 437v-359h91v-210h-89v132h-406v437h90v-359h224v359h90z" />
    <glyph glyph-name="afii10089" unicode="&#x447;" horiz-adv-x="482" 
d="M339 256v181h90v-437h-90v181q-49 -15 -108 -21q-22 -3 -46 -3q-132 0 -132 117v163h90v-141q0 -33 15.5 -47t63.5 -14q58 0 117 21z" />
    <glyph glyph-name="afii10090" unicode="&#x448;" horiz-adv-x="762" 
d="M709 0h-656v437h90v-359h193v359h90v-359h193v359h90v-437z" />
    <glyph glyph-name="afii10091" unicode="&#x449;" horiz-adv-x="814" 
d="M800 -132h-90v132h-657v437h90v-359h193v359h90v-359h193v359h90v-359h91v-210z" />
    <glyph glyph-name="afii10092" unicode="&#x44a;" horiz-adv-x="581" 
d="M36 437h219v-156h117q82 0 125 -41q42 -40 42 -95q0 -48 -32 -92q-38 -53 -146 -53h-196v359h-129v78zM255 203v-125h104q85 0 85 66q0 59 -85 59h-104z" />
    <glyph glyph-name="afii10093" unicode="&#x44b;" horiz-adv-x="667" 
d="M614 0h-90v437h90v-437zM53 437h90v-156h117q83 0 126 -41q42 -40 42 -95q0 -48 -32 -92q-38 -53 -147 -53h-196v437zM143 203v-125h105q85 0 85 66q0 59 -85 59h-105z" />
    <glyph glyph-name="afii10094" unicode="&#x44c;" horiz-adv-x="469" 
d="M53 437h90v-156h117q82 0 125 -41q42 -40 42 -95q0 -48 -32 -92q-38 -53 -146 -53h-196v437zM143 203v-125h104q85 0 85 66q0 59 -85 59h-104z" />
    <glyph glyph-name="afii10095" unicode="&#x44d;" horiz-adv-x="482" 
d="M345 187h-173v78h172q-6 50 -41.5 77.5t-93.5 27.5q-63 0 -106 -43l-35 65q68 56 154 56q100 0 159 -56.5t59 -159.5q0 -113 -58 -178q-57 -65 -153 -65q-117 0 -187 85l45 52q59 -59 123 -59q58 0 95.5 32.5t39.5 87.5z" />
    <glyph glyph-name="afii10096" unicode="&#x44e;" horiz-adv-x="795" 
d="M143 437v-162h125q24 81 92 127q67 46 147 46q102 0 173 -67q73 -67 73 -163q0 -95 -73 -162q-71 -67 -173 -67q-85 0 -158 54q-74 54 -87 154h-119v-197h-90v437h90zM507 370q-63 0 -107 -45q-44 -46 -44 -107q0 -60 44 -106q43 -45 107 -45q62 0 106 44q45 45 45 107
t-45 107q-43 45 -106 45z" />
    <glyph glyph-name="afii10097" unicode="&#x44f;" horiz-adv-x="453" 
d="M232 437h168v-437h-90v180h-42l-121 -180h-111l128 180q-47 10 -75 45t-28 79q0 54 40 93q40 40 131 40zM310 237v122h-79q-75 0 -75 -59q0 -28 15 -43q10 -10 21.5 -14.5t20 -5t26.5 -0.5h71z" />
    <glyph glyph-name="afii10071" unicode="&#x451;" horiz-adv-x="549" 
d="M414 666v-96h-96v96h96zM231 666v-96h-96v96h96zM438 128l63 -49q-43 -51 -92.5 -70.5t-117.5 -19.5q-125 0 -187 68t-62 168t67 161q68 62 178 62q68 0 115.5 -25t69 -65.5t30 -79t5.5 -76.5h-369q-2 -53 41 -94q44 -41 112 -41q98 0 147 61zM150 280h249
q-7 44 -39.5 69t-78.5 25q-50 0 -85.5 -25.5t-45.5 -68.5z" />
    <glyph glyph-name="afii10099" unicode="&#x452;" horiz-adv-x="534" 
d="M0 605h70v106h90v-106h205v-67h-205v-192q17 47 56.5 74.5t89.5 27.5q74 0 130 -69q56 -68 56 -196q0 -208 -164 -396l-53 40q56 75 92 176q35 100 35 179q0 83 -40 135q-39 52 -88 52q-44 0 -76 -35t-38 -95v-239h-90v538h-70v67z" />
    <glyph glyph-name="afii10100" unicode="&#x453;" horiz-adv-x="391" 
d="M53 437h302v-78h-212v-359h-90v437zM188 533h-65l87 167h142z" />
    <glyph glyph-name="afii10101" unicode="&#x454;" horiz-adv-x="482" 
d="M311 266v-79h-174q2 -55 39.5 -87.5t95.5 -32.5q64 0 123 59l45 -52q-70 -85 -187 -85q-107 0 -159 70t-52 173q0 93 58 154q59 62 160 62q86 0 154 -56l-34 -65q-52 43 -107 43q-57 0 -92.5 -27t-42.5 -77h173z" />
    <glyph glyph-name="afii10102" unicode="&#x455;" horiz-adv-x="417" 
d="M361 418l-37 -76q-46 28 -94 28q-33 0 -52 -12t-19 -33t30 -44l34 -18l43 -20q109 -52 109 -138q0 -53 -52 -84q-52 -32 -121 -32q-82 0 -160 39l45 78q65 -39 113 -39q35 0 57.5 11.5t22.5 30.5q0 14 -13.5 29t-32.5 25q-23 13 -45 23q-16 8 -42 22q-47 27 -65.5 53
t-18.5 68q0 43 39 80q39 39 120 39q74 0 139 -30z" />
    <glyph glyph-name="afii10103" unicode="&#x456;" horiz-adv-x="196" 
d="M143 0h-90v437h90v-437zM143 666v-96h-90v96h90z" />
    <glyph glyph-name="afii10104" unicode="&#x457;" horiz-adv-x="194" 
d="M142 0h-90v437h90v-437zM237 666v-96h-96v96h96zM53 666v-96h-96v96h96z" />
    <glyph glyph-name="afii10105" unicode="&#x458;" horiz-adv-x="204" 
d="M61 -64v501h90v-485q0 -165 -131 -165h-20v87q36 -2 48.5 12.5t12.5 49.5zM151 666v-96h-90v96h90z" />
    <glyph glyph-name="afii10106" unicode="&#x459;" horiz-adv-x="761" 
d="M345 0v359h-175v-247q0 -88 -41 -108q-4 -2 -9.5 -5t-8.5 -4t-8.5 -2.5t-12.5 -1.5q-20 -2 -21 -2q-5 -2 -22 0h-19h-14v78q42 -4 54 4q12 7 12 45v321h355v-156h117q80 0 123.5 -38.5t43.5 -97.5q0 -48 -32 -92q-38 -53 -146 -53h-196zM539 203h-104v-125h104
q44 0 64.5 18.5t20.5 47.5q0 59 -85 59z" />
    <glyph glyph-name="afii10107" unicode="&#x45a;" horiz-adv-x="768" 
d="M53 0v437h90v-161h208v161h90v-161h117q82 0 125 -41q43 -40 43 -95q0 -46 -32 -89q-38 -51 -146 -51h-197v198h-208v-198h-90zM441 198v-120h105q28 0 46.5 7t26 18t10 19.5t2.5 16.5q0 59 -85 59h-105z" />
    <glyph glyph-name="afii10108" unicode="&#x45b;" horiz-adv-x="521" 
d="M364 538h-204v-192q38 102 133 102q81 0 128 -43t47 -133v-272h-90v249q0 43 -12 75q-17 46 -81 46q-57 0 -90 -40q-32 -41 -35 -91v-239h-90v538h-70v67h70v106h90v-106h204v-67z" />
    <glyph glyph-name="afii10109" unicode="&#x45c;" horiz-adv-x="493" 
d="M143 0h-90v437h90v-174h43q40 0 57 22q6 8 14 21q2 3 11 29l10 28q19 50 43.5 67.5t63.5 17.5q34 0 48 -7v-76q-1 0 -6 0.5t-6 0.5q-22 0 -27 -1q-9 -1 -21.5 -14t-20.5 -37q-1 -2 -6.5 -19t-7.5 -22q-15 -33 -42 -50q34 -16 51 -47q5 -8 15 -32q9 -20 12 -28
q10 -22 22.5 -31t35.5 -9q10 0 19 3v-78q-39 -12 -56 -12q-47 0 -73 36q-16 24 -32 65q-26 66 -46 80q-19 15 -62 15h-39v-185zM239 533h-65l87 167h142z" />
    <glyph glyph-name="afii10110" unicode="&#x45e;" horiz-adv-x="537" 
d="M128 437l143 -299l137 299h90l-291 -650l-90 1l109 240l-187 409h89zM367 680h81q-20 -52 -63 -93q-43 -40 -116 -40q-130 0 -180 133h81q14 -33 41 -53t57 -20q31 0 58.5 20t40.5 53z" />
    <glyph glyph-name="afii10193" unicode="&#x45f;" horiz-adv-x="506" 
d="M143 437v-359h220v359h90v-437h-158v-123h-84v123h-158v437h90z" />
    <glyph glyph-name="afii10050" unicode="&#x490;" horiz-adv-x="471" 
d="M429 756v-174h-281v-582h-95v666h292v90h84z" />
    <glyph glyph-name="afii10098" unicode="&#x491;" horiz-adv-x="392" 
d="M53 437h219v123h84v-201h-213v-359h-90v437z" />
    <glyph glyph-name="cyrstraightU" unicode="&#x4ae;" horiz-adv-x="633" 
d="M269 0v218l-241 448h103l185 -346l186 346h103l-241 -448v-218h-95z" />
    <glyph glyph-name="cyrstraightu" unicode="&#x4af;" horiz-adv-x="532" 
d="M221 -213v251l-185 399h96l134 -300l134 300h96l-185 -399v-251h-90z" />
    <glyph glyph-name="cyrh" unicode="&#x4bb;" horiz-adv-x="504" 
d="M53 700h90v-354q37 102 133 102q27 0 36 -1q17 -2 43 -10q29 -9 48 -26q48 -46 48 -139v-272h-90v249q0 43 -12 75q-17 46 -81 46q-57 0 -90 -40q-32 -41 -35 -91v-239h-90v700z" />
    <glyph glyph-name="cyrAcyrbreve" unicode="&#x4d0;" horiz-adv-x="733" 
d="M505 179h-277l-86 -179h-103l327 680l328 -680h-103zM366 467l-105 -204h211zM458 820h74q-48 -120 -165 -120q-118 0 -166 120h74q15 -42 53.5 -58.5t77 0t52.5 58.5z" />
    <glyph glyph-name="cyracyrbreve" unicode="&#x4d1;" horiz-adv-x="496" 
d="M118 342l-18 76q84 30 166 30t129.5 -35t47.5 -99v-314h-90v26q-64 -37 -141 -37q-82 0 -126 44q-44 46 -44 101q0 50 46 93q47 44 142 44q65 0 123 -29v22q0 38 -12 65q-13 40 -85 40q-78 0 -138 -27zM137 133q0 -28 26 -47t75 -19q60 0 87.5 19t27.5 47
q0 25 -29.5 42.5t-80.5 17.5q-49 0 -77.5 -17t-28.5 -43zM346 680h81q-35 -92 -104 -117q-50 -16 -76 -16q-129 0 -179 133h81q14 -33 41 -53t57 -20t58.5 20.5t40.5 52.5z" />
    <glyph glyph-name="cyrAdieresis" unicode="&#x4d2;" horiz-adv-x="733" 
d="M505 179h-277l-86 -179h-103l327 680l328 -680h-103zM366 467l-105 -204h211zM506 806v-96h-96v96h96zM323 806v-96h-97v96h97z" />
    <glyph glyph-name="cyradieresis" unicode="&#x4d3;" horiz-adv-x="496" 
d="M118 342l-18 76q84 30 166 30t129.5 -35t47.5 -99v-314h-90v26q-64 -37 -141 -37q-82 0 -126 44q-44 46 -44 101q0 50 46 93q47 44 142 44q65 0 123 -29v22q0 34 -6 54q-14 48 -91 52q-75 0 -138 -28zM137 133q0 -28 26 -47t75 -19q60 0 87.5 19t27.5 47q0 25 -29.5 42.5
t-80.5 17.5q-49 0 -77.5 -17t-28.5 -43zM204 666v-96h-96v96h96zM387 666v-96h-96v96h96z" />
    <glyph glyph-name="cyrAE" unicode="&#x4d4;" horiz-adv-x="957" 
d="M149 0h-110l395 666h470v-83h-314v-181h314v-84h-314v-234h314v-84h-409v163h-249zM495 247v336l-200 -336h200z" />
    <glyph glyph-name="cyrae" unicode="&#x4d5;" horiz-adv-x="853" 
d="M118 342l-18 76q84 30 166 30q106 0 150 -62q60 62 175 62q55 0 97 -17t65.5 -43t37.5 -60t18 -64.5t2 -61.5h-369q-2 -54 40 -94q43 -41 113 -41q95 0 146 61l63 -49q-72 -90 -210 -90q-116 0 -180 61q-71 -61 -194 -61q-90 0 -134 43q-44 44 -44 102q0 50 46 93
q47 44 142 44q65 0 123 -29l-1 22q0 1 -0.5 12t-0.5 14q0 18 -11 40q-13 39 -84 39q-78 0 -138 -27zM137 133q0 -28 26 -47t75 -19q60 0 87.5 19t27.5 47q0 25 -29.5 42.5t-80.5 17.5q-49 0 -77.5 -17t-28.5 -43zM453 280h250q-7 44 -39.5 69t-79.5 25q-50 0 -85 -25.5
t-46 -68.5z" />
    <glyph glyph-name="cyrIecyrbreve" unicode="&#x4d6;" horiz-adv-x="515" 
d="M148 402h314v-84h-314v-234h314v-84h-409v666h409v-83h-314v-181zM349 820h74q-48 -120 -165 -120q-118 0 -166 120h74q15 -42 53.5 -58.5t77 0t52.5 58.5z" />
    <glyph glyph-name="cyriecyrbreve" unicode="&#x4d7;" horiz-adv-x="549" 
d="M438 128l63 -49q-43 -51 -92.5 -70.5t-118.5 -19.5q-124 0 -186 68t-62 168t67 161q68 62 178 62q55 0 97 -17t65.5 -43t37.5 -60.5t18 -65t2 -60.5h-369q-1 -55 43 -95t110 -40q92 0 147 61zM149 280h250q-7 44 -39.5 69t-79.5 25q-49 0 -84.5 -25.5t-46.5 -68.5z
M382 680h81q-35 -92 -104 -117q-50 -16 -76 -16q-129 0 -179 133h81q14 -33 41 -53t57 -20t58.5 20.5t40.5 52.5z" />
    <glyph glyph-name="cyrZhedieresis" unicode="&#x4dc;" horiz-adv-x="969" 
d="M532 0h-95v298h-85q-91 0 -118 -103l-32 -118q-24 -91 -118 -91q-4 0 -17 0.5t-16 0.5h-9v90q4 -1 18 -1q39 0 57 62l28 101q7 23 15 39q24 46 83 69q-62 31 -79 84l-27 86q-5 15 -11 30q-5 14 -22 27.5t-38 13.5q-12 0 -24 -3v84q24 11 45 11q53 0 82 -24
q29 -23 56 -100l38 -108q23 -66 90 -66h84v284h95v-284h84q68 0 91 66l37 108q29 86 66 108q27 16 72 16q23 0 45 -11v-84q-66 19 -95 -68l-27 -86q-17 -53 -79 -84q33 -13 54 -33q31 -30 44 -75l28 -101q19 -73 75 -61v-90h-9h-16h-21q-25 0 -44 7q-29 13 -41 26
q-19 22 -29 57l-32 118q-27 103 -118 103h-85v-298zM624 806v-96h-97v96h97zM440 806v-96h-96v96h96z" />
    <glyph glyph-name="cyrzhedieresis" unicode="&#x4dd;" horiz-adv-x="790" 
d="M440 0h-90v185h-40q-21 0 -37 -2q-31 -6 -53 -53q-4 -10 -17 -39.5t-17 -39.5q-31 -67 -86 -62q-22 0 -58 12v78q9 -3 19 -3q25 0 35.5 9.5t13.5 26t7 35t23.5 39.5t56.5 37q-23 13 -38 40l-10 27l-8 24q-16 45 -40 49q-11 3 -13 3q-27 0 -35 -1v76q20 7 55 7
q46 0 68 -22q25 -22 50 -93q11 -31 24 -48q16 -22 57 -22h43v174h90v-174h43q26 0 43 11q16 10 22.5 20.5t16.5 38.5q25 71 49 94q22 21 69 21q36 0 54 -7v-76q-4 1 -19 1q-21 0 -26 -1q-10 -1 -22.5 -14t-20.5 -37l-5 -16q-8 -26 -12 -33q-15 -27 -39 -42q37 -16 56.5 -37
t23.5 -39.5t7 -35t13.5 -26t35.5 -9.5q10 0 19 3v-78q-36 -12 -58 -12q-44 0 -68 31q-6 10 -18 31q-4 9 -16 39t-17 40q-17 35 -35 45t-56 10h-40v-185zM535 666v-96h-97v96h97zM351 666v-96h-96v96h96z" />
    <glyph glyph-name="cyrZedieresis" unicode="&#x4de;" horiz-adv-x="611" 
d="M131 523l-56 68q103 89 233 89q109 0 171 -50q61 -49 61 -114q0 -112 -122 -166q68 -14 109.5 -61.5t41.5 -109.5q0 -79 -63 -136t-186 -57q-175 0 -278 105l64 65q48 -51 98.5 -69t120.5 -18q69 0 106 31t37 80q0 43 -23 67.5t-63 40.5q-21 9 -52 12q-51 5 -95 5h-30v84
h62q172 0 172 118q0 37 -34 63t-91 26q-101 0 -183 -73zM445 806v-96h-97v96h97zM261 806v-96h-96v96h96z" />
    <glyph glyph-name="cyrzedieresis" unicode="&#x4df;" horiz-adv-x="487" 
d="M114 324l-49 53q77 71 185 71q79 0 126.5 -32.5t47.5 -79.5q0 -63 -95 -101q64 -16 95 -55q21 -25 21 -58q0 -52 -50 -93q-49 -40 -141 -40q-118 0 -212 67l48 59q88 -48 162 -48q98 0 98 65q0 28 -29 47.5t-92 19.5h-48v65h47q78 0 91 30q10 18 10 38q0 16 -20.5 27
t-56.5 11q-32 0 -73 -13t-65 -33zM383 666v-96h-97v96h97zM199 666v-96h-96v96h96z" />
    <glyph glyph-name="cyrImacron" unicode="&#x4e2;" horiz-adv-x="668" 
d="M520 0v469l-467 -483v680h95v-468l467 482v-680h-95zM486 739h-305v67h305v-67z" />
    <glyph glyph-name="cyrimacron" unicode="&#x4e3;" horiz-adv-x="496" 
d="M353 0v273l-300 -284v448h90v-269l300 280v-448h-90zM400 585h-305v67h305v-67z" />
    <glyph glyph-name="cyrIdieresis" unicode="&#x4e4;" horiz-adv-x="668" 
d="M520 0v469l-467 -483v680h95v-468l467 482v-680h-95zM491 806v-96h-97v96h97zM307 806v-96h-96v96h96z" />
    <glyph glyph-name="cyridieresis" unicode="&#x4e5;" horiz-adv-x="496" 
d="M353 0v273l-300 -284v448h90v-269l300 280v-448h-90zM388 666v-96h-97v96h97zM204 666v-96h-96v96h96z" />
    <glyph glyph-name="cyrOdieresis" unicode="&#x4e6;" horiz-adv-x="823" 
d="M53 333q0 139 102 243q104 104 258 104q150 0 254 -104q103 -103 103 -243t-103 -243q-102 -104 -254 -104q-106 0 -190 51q-82 51 -126 129t-44 167zM412 70q113 0 185 75q72 77 72 187t-72 187t-185 77q-114 0 -186 -77t-72 -187t72 -186t186 -76zM580 806v-96h-97v96
h97zM340 806v-96h-97v96h97z" />
    <glyph glyph-name="cyrodieresis" unicode="&#x4e7;" horiz-adv-x="578" 
d="M42 218q0 86 66 158q68 72 181 72q105 0 175 -66q72 -66 72 -164q0 -97 -72 -163q-70 -66 -175 -66q-113 0 -181 72q-66 72 -66 157zM138 218q0 -60 44 -106q44 -45 107 -45q62 0 106 44q45 45 45 107t-45 107q-43 45 -106 45t-107 -45q-44 -46 -44 -107zM428 666v-96
h-96v96h96zM245 666v-96h-96v96h96z" />
    <glyph glyph-name="cyrUmacron" unicode="&#x4ee;" horiz-adv-x="668" 
d="M146 666l222 -391l158 391h103l-155 -386l-14 -35q-11 -29 -26 -64q-4 -11 -25 -55q-17 -35 -29 -49q-43 -53 -76 -68q-56 -23 -118 -23q-48 0 -88 14v88q58 -18 113 -18q76 0 113 94l-285 502h107zM486 739h-305v67h305v-67z" />
    <glyph glyph-name="cyrumacron" unicode="&#x4ef;" horiz-adv-x="532" 
d="M126 437l141 -310l139 310h90l-291 -649h-90l108 242l-187 407h90zM423 585h-305v67h305v-67z" />
    <glyph glyph-name="cyrUdieresis" unicode="&#x4f0;" horiz-adv-x="668" 
d="M146 666l222 -391l158 391h103l-155 -386l-14 -35q-11 -29 -26 -64q-4 -11 -25 -55q-17 -35 -29 -49q-43 -53 -76 -68q-56 -23 -118 -23q-48 0 -88 14v88q58 -18 113 -18q76 0 113 94l-285 502h107zM484 806v-96h-97v96h97zM300 806v-96h-96v96h96z" />
    <glyph glyph-name="cyrudieresis" unicode="&#x4f1;" horiz-adv-x="532" 
d="M126 437l141 -310l139 310h90l-291 -649h-90l108 242l-187 407h90zM406 666v-96h-97v96h97zM222 666v-96h-96v96h96z" />
    <glyph glyph-name="cyrUdblacute" unicode="&#x4f2;" horiz-adv-x="668" 
d="M146 666l222 -391l158 391h103l-155 -386l-14 -35q-11 -29 -26 -64q-4 -11 -25 -55q-17 -35 -29 -49q-43 -53 -76 -68q-56 -23 -118 -23q-48 0 -88 14v88q58 -18 113 -18q76 0 113 94l-285 502h107zM274 700h-55l87 167h132zM434 700h-55l87 167h132z" />
    <glyph glyph-name="cyrudblacute" unicode="&#x4f3;" horiz-adv-x="532" 
d="M126 437l141 -310l139 310h90l-291 -649h-90l108 242l-187 407h90zM223 700h-55l87 167h132zM383 700h-55l87 167h132z" />
    <glyph glyph-name="cyrChedieresis" unicode="&#x4f4;" horiz-adv-x="584" 
d="M436 380v286h95v-666h-95v296q-79 -19 -191 -19q-126 0 -164 52q-28 43 -28 107v230h95v-215v-27q0 -24 11 -35q23 -28 113 -28q98 0 164 19zM432 806v-96h-97v96h97zM248 806v-96h-96v96h96z" />
    <glyph glyph-name="cyrchedieresis" unicode="&#x4f5;" horiz-adv-x="482" 
d="M339 256v181h90v-437h-90v181q-49 -15 -108 -21q-22 -3 -46 -3q-132 0 -132 117v163h90v-141q0 -33 15.5 -47t63.5 -14q58 0 117 21zM381 666v-96h-97v96h97zM197 666v-96h-96v96h96z" />
    <glyph glyph-name="cyrYerudieresis" unicode="&#x4f8;" horiz-adv-x="764" 
d="M711 0h-95v666h95v-666zM53 666h95v-267h132q106 0 165 -56t59 -133q0 -72 -41 -136q-22 -34 -68 -54t-108 -20h-234v666zM148 315v-231h113q43 0 72 8q65 18 70 113q0 110 -141 110h-114zM522 806v-96h-97v96h97zM338 806v-96h-96v96h96z" />
    <glyph glyph-name="cyryerudieresis" unicode="&#x4f9;" horiz-adv-x="667" 
d="M614 0h-90v437h90v-437zM53 437h90v-156h117q83 0 126 -41q42 -40 42 -95q0 -48 -32 -92q-38 -53 -147 -53h-196v437zM143 203v-125h105q85 0 85 66q0 59 -85 59h-105zM473 666v-96h-97v96h97zM289 666v-96h-96v96h96z" />
    <glyph glyph-name="endash" unicode="&#x2013;" horiz-adv-x="616" 
d="M574 238h-532v84h532v-84z" />
    <glyph glyph-name="emdash" unicode="&#x2014;" horiz-adv-x="1004" 
d="M962 179h-920v84h920v-84z" />
    <glyph glyph-name="quoteleft" unicode="&#x2018;" horiz-adv-x="350" 
d="M207 428h-109l73 252h81z" />
    <glyph glyph-name="quoteright" unicode="&#x2019;" horiz-adv-x="350" 
d="M143 680h109l-73 -252h-81z" />
    <glyph glyph-name="quotesinglbase" unicode="&#x201a;" horiz-adv-x="350" 
d="M143 126h109l-73 -252h-81z" />
    <glyph glyph-name="quotedblleft" unicode="&#x201c;" horiz-adv-x="467" 
d="M372 428h-109l73 252h81zM159 428h-109l73 252h81z" />
    <glyph glyph-name="quotedblright" unicode="&#x201d;" horiz-adv-x="467" 
d="M95 680h109l-73 -252h-81zM308 680h109l-73 -252h-81z" />
    <glyph glyph-name="quotedblbase" unicode="&#x201e;" horiz-adv-x="467" 
d="M95 126h109l-73 -252h-81zM308 126h109l-73 -252h-81z" />
    <glyph glyph-name="dagger" unicode="&#x2020;" horiz-adv-x="470" 
d="M280 -213h-90v588h-168v84h168v207h90v-207h168v-84h-168v-588z" />
    <glyph glyph-name="daggerdbl" unicode="&#x2021;" horiz-adv-x="470" 
d="M280 -213h-90v272h-168v84h168v232h-168v84h168v207h90v-207h168v-84h-168v-232h168v-84h-168v-272z" />
    <glyph glyph-name="bullet" unicode="&#x2022;" horiz-adv-x="742" 
d="M371 343q27 0 45 -19t18 -44q0 -24 -17.5 -43.5t-45.5 -19.5q-27 0 -45 18t-18 45t18 45t45 18z" />
    <glyph glyph-name="ellipsis" unicode="&#x2026;" horiz-adv-x="1050" 
d="M112 0v126h126v-126h-126zM462 0v126h126v-126h-126zM812 0v126h126v-126h-126z" />
    <glyph glyph-name="perthousand" unicode="&#x2030;" horiz-adv-x="1281" 
d="M56 504q0 77 47 127q48 49 120 49q73 0 119 -49q48 -49 48 -127q0 -76 -48 -126q-46 -49 -119 -49q-71 0 -119 49q-48 50 -48 126zM129 504q0 -49 25 -78.5t69 -29.5q45 0 69.5 29t24.5 79t-24.5 79.5t-69.5 29.5q-65 0 -83 -52q-11 -35 -11 -57zM705 670l-469 -715
l-59 38l466 718zM662 335q80 0 123 -54q44 -53 44 -122q0 -68 -44 -123q-44 -53 -123 -53t-123 53t-44 123t44 123t123 53zM568 158q0 -48 25 -78t69 -30q45 0 69.5 29.5t24.5 78.5t-24.5 79.5t-69.5 30.5q-43 0 -68.5 -30.5t-25.5 -79.5zM1058 335q80 0 123 -54
q44 -53 44 -122q0 -68 -44 -123q-44 -53 -123 -53t-123 53t-44 123t44 123t123 53zM964 158q0 -48 25 -78t69 -30q45 0 69.5 29.5t24.5 78.5t-24.5 79.5t-69.5 30.5q-43 0 -68.5 -30.5t-25.5 -79.5z" />
    <glyph glyph-name="guilsinglleft" unicode="&#x2039;" horiz-adv-x="352" 
d="M191 45l-127 173l127 174h97l-124 -174l124 -173h-97z" />
    <glyph glyph-name="guilsinglright" unicode="&#x203a;" horiz-adv-x="352" 
d="M162 392l126 -174l-126 -173h-98l125 173l-125 174h98z" />
    <glyph glyph-name="fraction" unicode="&#x2044;" horiz-adv-x="153" 
d="M396 615l-591 -615l-48 48l591 618z" />
    <glyph glyph-name="Euro" unicode="&#x20ac;" horiz-adv-x="526" 
d="M85 377h-73l10 46h65q9 130 59.5 193.5t156.5 63.5q143 0 187 -110l-85 -43q-3 9 -15 25q-3 10 -17 22q-30 22 -68 22q-57 0 -84.5 -42.5t-33.5 -130.5h195l-10 -46h-187v-33v-24h174l-10 -46h-164q4 -94 24 -143q26 -61 96 -61q41 0 66 21.5t41 67.5l84 -53
q-44 -120 -206 -120q-92 0 -141 59q-22 26 -35 65q-23 65 -28 164h-74l10 46h63v27v30z" />
    <glyph glyph-name="afii61352" unicode="&#x2116;" horiz-adv-x="1143" 
d="M865 516q88 0 147 -52q61 -52 61 -122t-61 -122q-59 -52 -147 -52q-89 0 -150 52q-60 53 -60 122t60 122q61 52 150 52zM865 252q46 0 76.5 27.5t30.5 62.5t-30.5 62.5t-76.5 27.5q-45 0 -77 -26t-32 -64t32 -64t77 -26zM674 0v84h383v-84h-383zM582 -14l-428 483v-469
h-84v680l428 -478v464h84v-680z" />
    <glyph glyph-name="trademark" unicode="&#x2122;" horiz-adv-x="641" 
d="M152 436h-47v188h-69v42h186v-42h-70v-188zM518 564l-84 -134l-84 134l-37 -128h-50l71 236l100 -163l99 163l72 -236h-50z" />
    <glyph glyph-name="minus" unicode="&#x2212;" horiz-adv-x="616" 
d="M574 238h-532v84h532v-84z" />
    <glyph glyph-name="division" unicode="&#x2215;" horiz-adv-x="709" 
d="M639 622l-504 -835l-65 42l502 837z" />
    <glyph glyph-name="radical" unicode="&#x221a;" horiz-adv-x="600" 
d="M176 312l75 -228l57 478h246v-84h-197l-62 -518h-88l-91 268h-69v84h129z" />
    <glyph glyph-name="infinity" unicode="&#x221e;" horiz-adv-x="600" 
d="M240 354l60 -56l60 56q42 39 97 39q69 0 106 -42q37 -41 37 -93q0 -53 -37 -94q-36 -41 -106 -41q-55 0 -97 39l-60 56l-60 -56q-42 -39 -97 -39q-69 0 -107 41q-36 42 -36 94t37 93q37 42 106 42q55 0 97 -39zM200 212l52 46l-52 46q-27 27 -58 27q-33 0 -53.5 -21
t-20.5 -52q0 -30 21 -52t53 -22q16 0 25 4q15 7 33 24zM400 304l-52 -46l52 -46q28 -28 58 -28q32 0 53 22t21 52q0 31 -20.5 52t-53.5 21q-31 0 -58 -27z" />
    <glyph glyph-name="approxequal" unicode="&#x2248;" horiz-adv-x="672" 
d="M94 376l-5 -9l-19 8q29 71 65.5 105t72.5 34q22 0 53 -12q28 -10 42 -18l49 -23q108 -50 126 -50q28 0 51 24q11 11 19 21q4 4 20 28l15 22l19 -9l-20 -41q-7 -13 -22 -37t-27 -36q-34 -32 -68 -32q-51 0 -159 54q-91 47 -127 47q-26 0 -43.5 -17.5t-41.5 -58.5zM89 159
l-19 9q27 66 64 102.5t74 36.5q22 0 53 -12q28 -10 42 -18l49 -23q108 -50 126 -50q35 4 60 32l15 19q4 5 16 23t14 20l19 -8l-20 -41q-7 -13 -22 -37t-27 -36q-34 -32 -68 -32q-51 0 -159 54q-91 47 -127 47q-43 0 -90 -86z" />
    <glyph glyph-name="notequal" unicode="&#x2260;" horiz-adv-x="672" 
d="M324 385h-254v70h295l94 164l48 -28l-78 -136h173v-70h-213l-41 -70h254v-70h-294l-95 -164l-48 28l78 136h-173v70h214z" />
    <glyph glyph-name="lessequal" unicode="&#x2264;" horiz-adv-x="672" 
d="M557 125l-465 225l465 225l24 -56l-357 -169l357 -169zM556 -7l-465 225l24 55l466 -225z" />
    <glyph glyph-name="greaterequal" unicode="&#x2265;" horiz-adv-x="672" 
d="M114 575l465 -225l-465 -225l-23 56l357 169l-357 169zM556 273l25 -55l-465 -225l-25 55z" />
    <glyph glyph-name="openbullet" unicode="&#x25e6;" horiz-adv-x="348" 
d="M104 554q0 -31 21.5 -50.5t48.5 -19.5q28 0 49 21t21 49q0 27 -19.5 48.5t-50.5 21.5q-29 0 -49.5 -20.5t-20.5 -49.5zM95 475q-33 33 -33 79t33 79t79 33t79 -33t33 -79t-33 -79t-79 -33t-79 33z" />
    <glyph glyph-name="Accent" unicode="&#xf401;" horiz-adv-x="10" 
d="M-335 695h-65l87 139h143z" />
    <glyph glyph-name="accentbefore" unicode="&#xf402;" horiz-adv-x="2" 
d="M295 533h-65l87 167h143z" />
    <glyph glyph-name="Accentbefore" unicode="&#xf403;" horiz-adv-x="2" 
d="M365 695h-65l87 139h143z" />
    <glyph glyph-name="Breve" unicode="&#xf406;" 
d="M91 820h74q-48 -120 -165 -120q-118 0 -166 120h74q15 -42 53.5 -58.5t77 0t52.5 58.5z" />
    <glyph glyph-name="Cedilla" unicode="&#xf407;" 
d="M-51 -207l5 60q2 -1 8.5 -1t8.5 -1q2 0 8 -0.5t7 -0.5q46 0 52 27q2 5 0 10q-6 15 -50 15l5 55q116 5 116 -47q0 -46 -29 -83q-28 -36 -94 -36q-21 0 -37 2z" />
    <glyph glyph-name="Circumflex" unicode="&#xf408;" 
d="M80 688l-80 86l-80 -86h-69l104 160h87l107 -160h-69z" />
    <glyph glyph-name="Commaaccent" unicode="&#xf409;" horiz-adv-x="350" 
d="M143 126h109l-73 -252h-81z" />
    <glyph glyph-name="Apostrophe" unicode="&#xf40a;" horiz-adv-x="350" 
d="M143 680h109l-73 -252h-81z" />
    <glyph glyph-name="Dotaccent" unicode="&#xf40b;" 
d="M-63 694v126h126v-126h-126z" />
    <glyph glyph-name="Ring" unicode="&#xf40c;" 
d="M-67 668q-27 28 -27 67t27 66q27 28 66 28t66 -28q28 -28 28 -66t-28 -66q-27 -28 -66 -28t-66 27zM-1 683q22 0 37 15t15 37t-15 37t-37 15q-21 0 -36 -15t-15 -37t15 -37t36 -15z" />
    <glyph glyph-name="Tilde" unicode="&#xf40d;" 
d="M-118 695l-54 21q6 44 36 74t74 30q22 0 49 -7q21 -6 52 -18q32 -12 46 -12q13 0 20 8t13 28l53 -24q-7 -40 -35 -67t-68 -27q-15 -1 -38.5 5t-48 14.5t-30.5 9.5q-12 3 -24 3q-32 0 -45 -38z" />
    <glyph glyph-name="Udotaccent" unicode="&#xf47e;" horiz-adv-x="660" 
d="M512 666h95v-396q0 -78 -24 -137q-17 -44 -44 -73q-29 -32 -84 -53t-124 -21q-155 0 -224 96q-35 49 -47 109q-7 41 -7 79v396h95v-399q0 -197 182 -197q93 0 137 46q17 17 29 49q16 42 16 102v399zM267 694v126h126v-126h-126z" />
    <glyph glyph-name="Zring" unicode="&#xf483;" horiz-adv-x="598" 
d="M237 717q-27 28 -27 67t27 66q27 28 66 28t66 -28q28 -28 28 -66t-28 -66q-27 -28 -66 -28t-66 27zM303 732q22 0 37 15t15 37t-15 37t-37 15q-21 0 -36 -15t-15 -37t15 -37t36 -15zM534 0h-506l369 582h-345l25 84h486l-369 -582h369z" />
    <glyph glyph-name="zring" unicode="&#xf484;" horiz-adv-x="467" 
d="M188 542q-27 28 -27 67t27 66q27 28 66 28t66 -28q28 -28 28 -66t-28 -66q-27 -28 -66 -28t-66 27zM254 557q22 0 37 15t15 37t-15 37t-37 15q-21 0 -36 -15t-15 -37t15 -37t36 -15zM431 437l-237 -359h237l-34 -78h-361l238 359h-214l32 78h339z" />
    <glyph glyph-name="cyrEscedilla" unicode="&#xf4c8;" horiz-adv-x="680" 
d="M573 159l65 -53q-98 -120 -253 -120q-84 0 -153 32t-110 87q-80 111 -80 242q0 144 105 239q106 94 261 94q61 0 109 -21.5t100 -68.5l-65 -63q-61 69 -152 69q-106 0 -182 -70q-76 -69 -76 -182q0 -111 62 -193q62 -81 168 -81q124 0 201 89zM289 -207l5 60q2 -1 8.5 -1
t8.5 -1q2 0 8 -0.5t7 -0.5q46 0 52 27q2 5 0 10q-6 15 -50 15l5 55q116 5 116 -47q0 -46 -29 -83q-28 -36 -94 -36q-21 0 -37 2z" />
    <glyph glyph-name="cyrescedilla" unicode="&#xf4c9;" horiz-adv-x="479" 
d="M437 376l-56 -54q-30 28 -51.5 38t-53.5 10q-64 0 -102 -47q-37 -46 -37 -109q0 -67 43 -107t108 -40q48 0 101 48l48 -62q-55 -64 -153 -64q-111 0 -177 67q-65 68 -65 159q0 99 67 166t162 67q99 0 166 -72zM206 -166l5 48q8 0 17 -1l8 -1q16 0 26.5 5t13 9.5t2.5 7.5
q0 20 -35 20h-6l4 44h21q72 -4 72 -38q0 -28 -15 -57q-18 -38 -83 -38q-23 0 -30 1z" />
    <glyph glyph-name="cyrUacute" unicode="&#xf4cc;" horiz-adv-x="668" 
d="M146 666l222 -391l158 391h103l-155 -386l-14 -35q-11 -29 -26 -64q-4 -11 -25 -55q-17 -35 -29 -49q-43 -53 -76 -68q-56 -23 -118 -23q-48 0 -88 14v88q58 -18 113 -18q76 0 113 94l-285 502h107zM339 695h-65l87 139h142z" />
    <glyph glyph-name="cyruacute" unicode="&#xf4cd;" horiz-adv-x="532" 
d="M126 437l141 -310l139 310h90l-291 -649h-90l108 242l-187 407h90zM288 533h-65l87 167h142z" />
    <glyph glyph-name="uniF639" unicode="&#xf639;" horiz-adv-x="508" 
d="M33 333q0 171 43 254q19 37 49 58q49 35 129 35t128 -35q45 -30 68 -104t25 -208q0 -158 -39 -244q-44 -103 -182 -103q-136 0 -183 103q-38 89 -38 244zM134 345v-12q0 -125 14 -175q25 -88 107 -88q71 0 97 66q15 41 19 91q2 42 2 47q1 11 1 49v10q0 129 -15 178
q-28 84 -104 85q-76 6 -106 -85q-8 -21 -11 -55l-4 -55v-56z" />
    <glyph glyph-name="uniF63A" unicode="&#xf63a;" horiz-adv-x="492" 
d="M201 84h261l-42 -84h-398q70 90 142 174l112 133q86 101 86 175q0 50 -28.5 82t-78.5 32q-71 0 -123 -55l-43 80q80 59 177 59q92 0 145 -54q52 -53 52 -126q0 -85 -65 -182q-67 -99 -197 -234z" />
    <glyph glyph-name="uniF63B" unicode="&#xf63b;" horiz-adv-x="469" 
d="M70 561l-35 72q83 47 166 47q90 0 146 -38q57 -38 57 -90q0 -126 -95 -176q70 -23 102 -68t32 -101q0 -93 -70 -157t-189 -64q-72 0 -143 25v94q78 -35 143 -35q78 0 121.5 36.5t43.5 93.5q0 62 -54 98.5t-149 28.5v84q7 -1 29 -1q136 0 136 122q0 21 -28 42.5t-87 21.5
q-54 0 -126 -35z" />
    <glyph glyph-name="uniF63C" unicode="&#xf63c;" horiz-adv-x="479" 
d="M397 192h55l-28 -84h-27v-108h-96v108h-297v55l332 503h61v-474zM114 192h187v284z" />
    <glyph glyph-name="uniF63D" unicode="&#xf63d;" horiz-adv-x="461" 
d="M408 582h-213l-45 -138q84 -1 143.5 -26t88 -64t40 -76t11.5 -76q0 -38 -15 -74.5t-44.5 -69t-82 -52.5t-119.5 -20q-79 0 -145 29v89q53 -34 127 -34q92 0 135 43t43 93q0 66 -52 114t-140 48h-92l96 298h289z" />
    <glyph glyph-name="uniF63E" unicode="&#xf63e;" horiz-adv-x="488" 
d="M141 486l140 180h119l-225 -285q40 15 80 15q88 0 148 -57q61 -55 61 -140t-61 -149q-60 -64 -158 -64q-97 0 -161 58t-64 143q0 145 121 299zM121 192q0 -51 35 -86.5t86 -35.5q50 0 85 35q36 36 36 87q0 50 -36 85q-35 36 -85 36q-52 0 -86 -36q-35 -35 -35 -85z" />
    <glyph glyph-name="uniF63F" unicode="&#xf63f;" horiz-adv-x="475" 
d="M326 582h-298l42 84h401l-338 -666h-101z" />
    <glyph glyph-name="uniF640" unicode="&#xf640;" horiz-adv-x="495" 
d="M154 357q-98 55 -98 137q0 74 53 130q54 56 138 56q85 0 138 -56q54 -56 54 -130q0 -81 -98 -137q57 -24 91.5 -68t34.5 -94q0 -81 -61 -145t-159 -64q-97 0 -158 64q-62 65 -62 145q0 49 36 94.5t91 67.5zM246 70q53 0 87 37q35 38 35 86q0 50 -34 85q-34 37 -87 37
t-87 -37q-33 -36 -33 -85q0 -48 35 -86q34 -37 84 -37zM247 399q40 0 65 31q26 32 26 66q0 36 -23 68t-68 32q-44 0 -67 -32t-23 -68q0 -38 26 -67.5t64 -29.5z" />
    <glyph glyph-name="uniF641" unicode="&#xf641;" horiz-adv-x="488" 
d="M348 181l-141 -181h-119l225 286q-42 -17 -73 -17q-90 0 -154 59q-62 60 -62 140q0 82 60 147q62 65 159 65q96 0 160 -58q65 -59 65 -142q0 -144 -120 -299zM367 475q0 51 -36 86q-35 35 -85 35q-52 0 -86 -36q-35 -35 -35 -85q0 -49 35 -86q35 -36 86 -36q50 0 85 36
q36 36 36 86z" />
    <glyph glyph-name="commaaccent" unicode="&#xf6c3;" horiz-adv-x="350" 
d="M143 126h109l-73 -252h-81z" />
    <glyph glyph-name="Acute" unicode="&#xf6c9;" 
d="M-8 695h-65l87 139h142z" />
    <glyph glyph-name="Caron" unicode="&#xf6ca;" 
d="M-80 848l80 -86l80 86h69l-107 -160h-87l-104 160h69z" />
    <glyph glyph-name="Dieresis" unicode="&#xf6cb;" 
d="M140 806v-96h-97v96h97zM-44 806v-96h-96v96h96z" />
    <glyph glyph-name="Grave" unicode="&#xf6ce;" 
d="M-14 834l86 -139h-64l-165 139h143z" />
    <glyph glyph-name="Hungarumlaut" unicode="&#xf6cf;" 
d="M-18 695h-55l87 139h132zM142 695h-55l87 139h132z" />
    <glyph glyph-name="Macron" unicode="&#xf6d0;" 
d="M152 739h-305v67h305v-67z" />
    <glyph glyph-name="uniF6DC" unicode="&#xf6dc;" horiz-adv-x="236" 
d="M5 437v102q34 25 66 61t47 66h74v-666h-95v527q-37 -49 -92 -90z" />
    <glyph glyph-name="NULL" 
 />
    <glyph glyph-name="CR" horiz-adv-x="333" 
 />
    <glyph glyph-name="hyphenminus" horiz-adv-x="350" 
d="M322 182h-294v84h294v-84z" />
    <glyph glyph-name="mu1" horiz-adv-x="504" 
d="M361 198v239h90v-437h-90v67q-10 -36 -41 -58.5t-71 -22.5q-42 0 -70.5 22t-36.5 59v-280h-89v650h90v-239q0 -66 31.5 -98.5t80.5 -32.5q43 0 75 39q32 40 31 92z" />
    <glyph glyph-name="dotlessi1" horiz-adv-x="195" 
d="M142 0h-89v437h89v-437z" />
    <glyph glyph-name="acutecomb" horiz-adv-x="10" 
d="M-295 533h-65l87 167h143z" />
  </font>
</defs>
</svg>
