<svg xmlns="http://www.w3.org/2000/svg" viewBox="0 0 149 46.85"><path d="M45.51 40.05a1.15 1.15 0 01-1-.57L27.64 10.25 10.76 39.48a1.15 1.15 0 11-2-1.15l17.87-31a1.15 1.15 0 011.57-.43 1.11 1.11 0 01.43.43l17.87 31a1.15 1.15 0 01-.42 1.57 1.19 1.19 0 01-.58.15m20.89 0a1.15 1.15 0 01-1-.58l-8.54-14.94a1.16 1.16 0 01.43-1.53 1.13 1.13 0 01.57-.15 6.86 6.86 0 000-13.71H47.5v7.13a1.15 1.15 0 11-2.3 0V7.94a1.14 1.14 0 011.15-1.15h11.5a9.16 9.16 0 011.87 18.13l7.67 13.41A1.16 1.16 0 0167 39.9a1.13 1.13 0 01-.57.15M90.24 40H78.92a1.16 1.16 0 010-2.31h11.32a6.57 6.57 0 100-13.14 1.15 1.15 0 110-2.3 6.57 6.57 0 100-13.14H80.3V30a1.15 1.15 0 11-2.3 0V8a1.14 1.14 0 011.15-1.15h11.09A8.87 8.87 0 0196.52 22a9.56 9.56 0 01-1.9 1.45A8.88 8.88 0 0190.24 40m33.23 0a16.64 16.64 0 1111.73-4.88A16.61 16.61 0 01123.47 40m0-30.89a14.29 14.29 0 1014.29 14.29 14.31 14.31 0 00-14.29-14.3" fill="#fff"/><path d="M147.84 46.85H1.15A1.16 1.16 0 010 45.69V1.15A1.14 1.14 0 011.15 0h146.69A1.14 1.14 0 01149 1.14v44.55a1.16 1.16 0 01-1.15 1.16M2.3 44.54h144.38V2.3H2.3z" fill="#fff"/></svg>