<svg width="121" height="100" viewBox="0 0 121 100" fill="none" xmlns="http://www.w3.org/2000/svg"><g clip-path="url(#clip0)" fill="#3895B5"><path d="M48.987 58.27a23.17 23.17 0 01-5.12-2.254c.417-.712 1.013-2.194.536-4.329-.416-1.779-2.44-3.854-2.44-3.854s-.774 2.787-.298 5.159c.178.89.536 1.6.833 2.134-1.964-1.304-3.69-2.905-5.179-4.684.595-.415 1.846-1.66 2.262-3.914.298-1.838-.833-4.506-.833-4.506s-1.726 2.312-2.203 4.684a5.8 5.8 0 00.06 2.728 21.324 21.324 0 01-3.334-6.167c.774-.178 2.381-.712 3.631-2.55 1.072-1.542 1.191-4.447 1.191-4.447s-2.56 1.364-3.989 3.32c-.714 1.008-1.011 1.898-1.13 2.61-.655-2.076-1.072-4.27-1.132-6.583.715.06 2.5 0 4.287-1.482 1.428-1.186 2.321-3.973 2.321-3.973s-2.857.652-4.762 2.135a6.007 6.007 0 00-1.846 2.312c0-2.312.358-4.625 1.012-6.76.715.238 2.382.653 4.406-.237 1.666-.711 3.333-3.142 3.333-3.142h-.774c-1.012 0-2.857.118-4.345.711a6.452 6.452 0 00-2.262 1.483 24.434 24.434 0 012.678-5.456c.655.415 2.203 1.127 4.406.652 1.786-.355 3.929-2.371 3.929-2.371s-1.727-.475-3.632-.475c-.536 0-1.012.06-1.548.119a7.412 7.412 0 00-2.143.77 24.61 24.61 0 013.155-3.439s0-.059.06-.059c1.072.178 2.798.237 4.763-.77 1.964-1.009 3.75-4.033 3.75-4.033-.12 0-3.572 0-6.132 1.245-1.905.89-2.798 2.194-3.155 2.847-.357.296-.655.592-.952.889.119-.237.178-.534.238-.83.536-2.372-.179-5.159-.179-5.159s-2.083 2.016-2.56 3.795c-.535 2.194.12 3.795.477 4.447a27.495 27.495 0 00-2.68 4.151c0-.178.06-.356.06-.593 0-2.431-1.31-5.04-1.31-5.04s-1.607 2.431-1.666 4.27c-.06 2.49 1.19 3.972 1.607 4.328a24.548 24.548 0 00-1.19 4.566v-.06c-.596-2.312-2.56-4.506-2.56-4.506s-.953 2.728-.536 4.566c.595 2.609 2.381 3.676 2.738 3.854v.297c0 1.423.12 2.787.358 4.15 0-.059-.06-.059-.06-.118-1.429-1.957-3.989-3.32-3.989-3.32s.12 2.905 1.191 4.447c1.37 1.956 3.155 2.43 3.81 2.609a25.318 25.318 0 002.024 4.684c-.06-.06-.119-.118-.179-.118-2.024-1.364-4.881-1.78-4.881-1.78s1.072 2.728 2.56 3.796a6.31 6.31 0 004.465 1.186c1.13 1.482 2.38 2.846 3.81 4.032l-.715-.178c-.417-.06-.833-.06-1.19-.06-2.024 0-3.989.594-3.989.594s2.143 1.956 3.988 2.253c2.203.415 3.75-.415 4.406-.77a28.207 28.207 0 006.608 3.142h.178c.238 0 .477-.178.536-.356-.357-.178-.476-.474-.774-.593zm40.362-19.332c-.06.06-.06.06-.06.119.239-1.364.358-2.787.358-4.151v-.297c.357-.178 2.143-1.245 2.738-3.854.417-1.779-.536-4.566-.536-4.566s-1.905 2.194-2.56 4.507v.059a24.546 24.546 0 00-1.19-4.566c.416-.415 1.667-1.838 1.607-4.329-.06-1.838-1.667-4.269-1.667-4.269s-1.31 2.609-1.31 5.04c0 .178 0 .415.06.593-.774-1.423-1.667-2.846-2.679-4.15.357-.653 1.072-2.254.476-4.448-.476-1.779-2.56-3.795-2.56-3.795s-.654 2.846-.178 5.159c.06.296.179.593.238.83-.297-.296-.655-.593-.952-.89-.358-.652-1.31-1.956-3.156-2.846-2.619-1.245-6.072-1.245-6.131-1.245 0 0 1.786 3.024 3.75 4.032 1.965 1.008 3.691.95 4.763.771 0 0 0 .06.06.06a24.609 24.609 0 013.154 3.439c-.535-.297-1.25-.652-2.143-.771a12.617 12.617 0 00-1.547-.119c-1.906 0-3.632.475-3.632.475s2.084 2.016 3.93 2.372c2.142.474 3.75-.238 4.404-.653a24.429 24.429 0 012.68 5.456 6.452 6.452 0 00-2.263-1.483c-1.548-.593-3.334-.711-4.346-.711h-.773s1.666 2.371 3.333 3.142c2.024.89 3.691.475 4.406.238.654 2.194.952 4.447 1.011 6.76a6.005 6.005 0 00-1.845-2.313c-1.905-1.483-4.762-2.135-4.762-2.135s.893 2.787 2.321 3.973c1.786 1.483 3.572 1.542 4.287 1.483-.06 2.253-.477 4.506-1.132 6.582-.119-.712-.416-1.601-1.13-2.61-1.43-1.956-3.99-3.32-3.99-3.32s.12 2.905 1.191 4.447c1.25 1.838 2.858 2.372 3.632 2.55a26.87 26.87 0 01-3.334 6.167 5.8 5.8 0 00.06-2.728c-.477-2.372-2.203-4.684-2.203-4.684s-1.131 2.668-.834 4.506c.358 2.254 1.667 3.44 2.263 3.914-1.489 1.779-3.215 3.38-5.18 4.684.358-.533.655-1.245.834-2.134.476-2.372-.298-5.16-.298-5.16s-2.083 2.076-2.44 3.855a6.285 6.285 0 00.535 4.329c-1.607.89-3.274 1.66-5.12 2.253-.297.119-.476.415-.357.712.06.237.298.355.536.355h.179c2.381-.77 4.643-1.779 6.608-3.142.655.415 2.202 1.186 4.405.77 1.846-.296 3.989-2.253 3.989-2.253s-1.905-.593-3.989-.593c-.417 0-.833 0-1.19.06-.239.059-.536.118-.715.178 1.429-1.187 2.679-2.55 3.81-4.033.595.119 2.5.237 4.465-1.186 1.488-1.067 2.56-3.735 2.56-3.795 0 0-2.917.415-4.882 1.78-.06.058-.119.118-.178.118a25.309 25.309 0 002.024-4.685c.654-.118 2.44-.593 3.81-2.609 1.071-1.541 1.19-4.388 1.19-4.447-.417-.119-2.976 1.245-4.405 3.202zM59.94 6.265h3.394l1.548-2.846h-.06c-2.262.474-4.524-1.067-4.881-3.38-.357 2.313-2.56 3.795-4.882 3.38H55l1.549 2.846h3.393zm6.37 46.964c-.416 0-.833.118-1.25.355-.178.12-.297.238-.416.356a2.073 2.073 0 00-1.19-.593c-.596-.118-1.132 0-1.668.356-.476.356-.833.83-.893 1.423-.119.593 0 1.127.358 1.66.238.356.654.653 1.071.83l-2.381 1.602-2.381-1.601c.416-.178.833-.415 1.071-.83.357-.475.476-1.068.357-1.66a2.275 2.275 0 00-.893-1.424c-.476-.356-1.071-.474-1.666-.356-.477.06-.834.297-1.191.593-.12-.118-.238-.296-.417-.355-.357-.238-.833-.356-1.25-.356a2.18 2.18 0 00-1.786.949c-.357.474-.476 1.067-.357 1.66s.417 1.067.893 1.423c.178.119.298.178.476.237-.178.415-.238.83-.178 1.305.119.593.416 1.067.892 1.423.358.237.834.356 1.25.356a2.18 2.18 0 001.787-.95c.297-.414.416-.83.357-1.304l2.083 1.423-6.072 4.151c-.178.119-.238.415-.119.653.06.118.238.177.357.177.12 0 .179 0 .238-.059l.774-.534 1.31 1.898 1.072-.77-.834-1.187 1.31-.89.833 1.187 1.072-.771-1.31-1.898 2.024-1.364 2.024 1.364-1.31 1.898 1.072.77.834-1.185 1.31.89-.834 1.185 1.071.771 1.31-1.898.774.534c.06.06.178.06.238.06.12 0 .298-.06.357-.178a.481.481 0 00-.119-.653l-6.072-4.15 2.084-1.424c0 .475.119.89.357 1.305.417.593 1.13.949 1.786.949.416 0 .833-.119 1.25-.356.476-.356.833-.83.893-1.423.06-.475 0-.89-.179-1.305.179-.06.357-.178.476-.237.477-.356.834-.83.893-1.423.12-.593 0-1.127-.357-1.66.179-.593-.476-.95-1.19-.95zm-13.93 2.194c0-.297.06-.534.239-.771.06-.06.119-.119.119-.178l.06-.06.118-.118c.06-.06.12-.06.179-.118h.06c.178-.12.416-.178.595-.178.714 0 1.31.593 1.31 1.304a1.32 1.32 0 01-1.31 1.305c-.774.178-1.37-.415-1.37-1.186zm2.56 4.27a1.32 1.32 0 01-1.31-1.305c0-.534.298-.95.715-1.186l.119-.06c.179-.059.298-.118.476-.118.715 0 1.31.593 1.31 1.304 0 .712-.595 1.364-1.31 1.364zm1.905-2.788a1.32 1.32 0 01-1.31-1.304v-.06c.06-.711.596-1.245 1.31-1.245.12 0 .179 0 .298.06.06 0 .119.059.178.059.06.059.18.059.239.118.297.178.476.475.535.83v.297c.12.652-.476 1.245-1.25 1.245zm6.31 0a1.32 1.32 0 01-1.31-1.304v-.297c.06-.356.239-.652.537-.83a.452.452 0 01.238-.119c.06 0 .119-.059.178-.059.12 0 .179-.06.298-.06.714 0 1.25.535 1.31 1.246v.06a1.25 1.25 0 01-1.25 1.363zm1.906 2.787c-.715 0-1.31-.593-1.31-1.304 0-.712.595-1.305 1.31-1.305.178 0 .357.06.476.119l.119.059c.416.237.714.652.714 1.186 0 .652-.595 1.245-1.31 1.245zm1.19-2.905c-.714 0-1.31-.593-1.31-1.305s.596-1.304 1.31-1.304c.238 0 .417.059.595.177h.06c.06.06.119.06.178.119l.12.119.06.059c.059.06.118.118.118.178.179.237.238.474.238.711 0 .653-.595 1.246-1.369 1.246z"/><path d="M73.93 40.599c-.952-.356-2.024-.534-3.214-.534-4.167 0-10.001 2.016-17.68 4.27-9.883 2.905-11.669-3.025-11.669-3.025s.12 6.404 9.823 5.337c9.644-1.067 13.99-4.981 19.764-5.218 5.774-.237 7.084 4.21 7.084 4.21s.06-3.32-4.108-5.04z"/><path d="M72.025 42.437c-.416-.06-.773-.06-1.13-.06-4.108 0-6.787 1.957-6.787 1.957s2.679-1.363 6.905-.77c4.346.593 5.656 2.965 5.656 2.965s.06-3.677-4.644-4.092zm-23.99 1.423c4.703.415 11.37-1.957 11.37-1.957s-6.072 1.423-10.299.83c-4.346-.592-5.655-2.964-5.655-2.964s-.12 3.676 4.584 4.091z"/><path d="M50.594 42.022c2.084.118 4.703-.237 7.442-.652.833-1.66 1.428-4.033 1.607-7.294.357-7.65.178-19.331-.06-21.584 0 0-3.274 12.808-5.953 20.695-1.726 5.099-4.048 7.412-5.893 8.42.476.118.952.237 1.548.296.416.06.893.06 1.31.119zm10.478-7.946c-.12 3.024-.715 5.277-1.489 6.997 4.763-.83 9.466-1.898 11.668-1.838.298 0 .536.06.834.06.298-1.187.417-2.61.357-4.211-.476-11.089-12.025-22.118-12.025-22.118s1.072 12.749.655 21.11z"/></g><g clip-path="url(#clip1)" fill="#fff"><path d="M1.875 79.422h2.167c1.348 0 2.11.617 2.11 1.603 0 1.049-.762 1.604-1.992 1.604H1.933v-3.207h-.058zm0-4.688h1.992c1.171 0 1.816.555 1.816 1.542 0 1.049-.762 1.604-1.933 1.604H1.875v-3.146zM.117 73.069v11.287h3.925c2.285 0 3.809-1.11 3.809-3.146 0-1.48-.88-2.282-2.051-2.713.82-.432 1.582-1.11 1.582-2.53 0-1.85-1.406-2.898-3.457-2.898H.117zm12.596 0v11.287h6.855V82.63H14.47v-3.146h4.452v-1.665H14.47v-3.084h4.98V73.07h-6.738zm13.533 1.665h1.992c1.29 0 2.11.617 2.11 1.912s-.82 2.035-2.051 2.035h-1.992v-3.947h-.059zm-1.757-1.665v11.287h1.757v-4.01h1.817l2.284 4.01h2.05l-2.518-4.38c1.289-.493 2.226-1.603 2.226-3.33 0-2.282-1.465-3.577-3.75-3.577H24.49zm32.046 0V80.1c0 1.789-.878 2.714-2.226 2.714-1.347 0-2.226-.925-2.226-2.776v-6.97h-1.758v6.97c0 2.961 1.582 4.441 3.984 4.441s3.984-1.48 3.984-4.502v-6.97l-1.758.061zm13.768 2.961c0 1.85 1.055 2.59 3.046 3.453 1.7.74 2.05 1.172 2.05 1.912 0 .864-.644 1.357-1.64 1.357-1.113 0-1.991-.431-2.87-1.233l-.82 1.48c1.054.925 2.343 1.419 3.69 1.419 1.992 0 3.398-1.234 3.398-3.208 0-1.727-.937-2.529-2.929-3.454-1.699-.74-2.109-1.11-2.109-1.974 0-.74.586-1.295 1.523-1.295.88 0 1.64.37 2.52.987l.703-1.542c-.88-.74-1.934-1.11-3.223-1.11-1.933.061-3.34 1.357-3.34 3.207zm17.693-2.961l-4.16 5.49v-5.49H82.08v11.287h1.757v-3.269l1.348-1.665 2.987 4.934h2.11l-3.867-6.476 3.69-4.811h-2.108zm10.487 2.405l1.523 4.564H96.96l1.523-4.564zm-.82-2.467l-3.926 11.349h1.758l.879-2.652h4.159l.879 2.652h1.816l-3.925-11.35h-1.64zm8.494.062v1.727h2.813v9.56h1.757v-9.56h2.812v-1.727h-7.382zm14.002 0h-1.757v11.287h1.757V73.07zm-78.797 4.996v1.665h2.285v2.467a3.313 3.313 0 01-1.934.617c-.879 0-1.64-.37-2.168-.987l-.937 1.604a4.764 4.764 0 003.047 1.11c1.523 0 2.753-.617 3.632-1.357v-5.058l-3.925-.061z"/><path d="M37.436 81.889l-1.464 2.405h2.05l.528-.925.937-1.603c-.41-.494-.703-1.172-.879-1.974l-1.172 2.097z"/><path d="M36.733 78.62v.123c0 .864.118 1.665.352 2.344l1.465-2.467v-.062c0-2.344 1.288-3.948 3.046-3.948 1.113 0 1.816.37 2.52.987l.82-1.542c-.88-.74-1.817-1.172-3.34-1.172-2.812 0-4.863 2.468-4.863 5.737z"/></g><g clip-path="url(#clip2)" fill="#3895B5"><path d="M19.855 93.237h-.059v5.922h3.355v-.864h-2.472v-5.058h-.824zm8.24.988L28.977 97h-1.765l.883-2.775zm-.412-1.049l-2.06 5.983h.883l.47-1.357h2.296l.47 1.357h.942l-2.06-5.983h-.941zm8.945.062L34.45 96.26v-3.022h-.942v5.921h.942v-1.727l.707-.987 1.589 2.714h1.059l-2.001-3.454 1.883-2.467h-1.06zm4.119 0h-.059v5.921h3.59v-.802h-2.707V96.57h2.354v-.802h-2.354V94.04h2.648v-.802h-3.472zm6.356 1.542c0 .987.47 1.295 1.589 1.789.883.37 1.118.617 1.118 1.048 0 .494-.353.74-.941.74-.471 0-1-.185-1.472-.555l-.412.74c.53.432 1.236.679 1.884.679 1.118 0 1.824-.679 1.824-1.665 0-.926-.47-1.296-1.53-1.79-.824-.37-1.177-.554-1.177-1.048 0-.431.353-.74.883-.74.412 0 .824.124 1.294.432l.353-.74c-.47-.309-1-.494-1.647-.494-1.06-.061-1.766.617-1.766 1.604zm6.65-1.542v5.921h.883v-5.921h-.883zm5.12.802h.883c1.06 0 1.706.801 1.706 2.097v.061c0 1.296-.647 2.098-1.706 2.098h-.883V94.04zm-.883-.802l-.059 5.983h1.766c1.648 0 2.707-1.172 2.707-2.96v-.063c0-1.727-1.06-2.96-2.707-2.96H57.99zm7.533 0h-.059v5.921h3.59v-.802h-2.707V96.57h2.354v-.802h-2.354V94.04h2.648v-.802h-3.472zm10.24 2.899v.061c0 1.79 1 3.023 2.53 3.023.707 0 1.237-.185 1.766-.679l-.412-.678c-.353.308-.706.493-1.236.493-1 0-1.647-.863-1.647-2.159v-.061c0-1.296.647-2.16 1.647-2.16.412 0 .824.124 1.236.494l.412-.74c-.353-.308-.824-.555-1.648-.555-1.588-.062-2.648 1.172-2.648 2.96zm7.297-2.899h-.058v5.921h3.354v-.863h-2.413v-5.058h-.882zm9.299 0V97c0 .925-.47 1.48-1.236 1.48-.765 0-1.236-.555-1.236-1.48v-3.7h-.883V97c0 1.542.765 2.344 2.119 2.344s2.119-.863 2.119-2.405v-3.64h-.883v-.061zm4.943 3.331h1.236c.706 0 1.118.308 1.118.925 0 .555-.412.925-1.06.925h-1.294v-1.85zm0-2.53h1.06c.647 0 1 .309 1 .864 0 .555-.412.864-1.06.864h-1V94.04zm-.824-.801l-.059 5.983h2.119c1.295 0 2.001-.555 2.001-1.604 0-.678-.294-1.049-1-1.357l-.354-.123.295-.185c.47-.247.706-.679.706-1.234 0-.925-.706-1.48-1.825-1.48h-1.883z"/></g><defs><clipPath id="clip0"><path fill="#fff" transform="translate(27.14 .04)" d="M0 0h66.615v65.998H0z"/></clipPath><clipPath id="clip1"><path fill="#fff" transform="translate(0 72.822)" d="M0 0h120.277v11.719H0z"/></clipPath><clipPath id="clip2"><path fill="#fff" transform="translate(19.738 93.176)" d="M0 0h80.801v6.168H0z"/></clipPath></defs></svg>