<svg xmlns="http://www.w3.org/2000/svg" viewBox="0 0 261.36 34.23"><title>agrosyn-logo</title><path d="M16.15.65,20.4,33.58H12.77l-.88-8.09H7.73L6.48,33.58H0L5.6.65ZM11.33,20.49,10,5.83H9.9L8.56,20.49Z" fill="#262424"/><path d="M33.51,12.44V7.86c0-1.34-.41-2.59-2-2.59s-2,1.25-2,2.59V26.37c0,1.34.37,2.59,2,2.59s2-1.25,2-2.59V22H30.6V17H41.19v16.6H36.71l-.42-1.66c-1.67,1.9-4.53,2.31-6.66,2.31-5,0-7.87-2.08-7.87-9.62v-15C21.76,2.08,26.39,0,31.48,0c6.2,0,9.71,2.45,9.71,9v3.47Z" fill="#262424"/><path d="M202.43,12.44V7.86c0-1.34-.42-2.59-2-2.59s-2,1.25-2,2.59V26.37c0,1.34.37,2.59,2,2.59s2-1.25,2-2.59V22h-2.92V17h10.6v16.6h-4.49l-.42-1.66c-1.66,1.9-4.53,2.31-6.66,2.31-5,0-7.86-2.08-7.86-9.62v-15c0-7.54,4.62-9.62,9.71-9.62,6.2,0,9.72,2.45,9.72,9v3.47Z" fill="#262424"/><path d="M85.15,9.62v15c0,7.54-4.63,9.62-9.72,9.62s-9.71-2.08-9.71-9.62v-15C65.72,2.08,70.34,0,75.43,0s9.72,2.08,9.72,9.62M73.4,7.86V26.37c0,1.34.41,2.59,2,2.59s2-1.25,2-2.59V7.86c0-1.34-.42-2.59-2-2.59s-2,1.25-2,2.59" fill="#262424"/><path d="M57.64,15.91v-.09c4.16-.69,5.87-3.38,5.87-7.49,0-6.94-4.35-7.68-11.66-7.68H44.13V33.58h7.68v-15h1.25c1.38,0,2.77,1.16,2.77,3.47V33.58h7.68V22.11c0-4.72-2.31-6.2-5.87-6.2m-5.83-2.08V5.37c3.51,0,4,1.15,4,4.21s-.55,4.25-4,4.25" fill="#262424"/><polygon points="165.87 0.65 165.87 5.64 157.63 5.64 157.63 12.86 165.59 12.86 165.59 17.86 157.63 17.86 157.63 28.59 165.87 28.59 165.87 33.59 149.95 33.59 149.95 0.65 165.87 0.65" fill="#262424"/><path d="M182.18,15.91v-.09c4.16-.69,5.87-3.38,5.87-7.49,0-6.94-4.34-7.68-11.65-7.68h-7.73V33.58h7.68v-15h1.25c1.39,0,2.77,1.16,2.77,3.47V33.58h7.68V22.11c0-4.72-2.31-6.2-5.87-6.2m-5.83-2.08V5.37c3.52,0,4,1.15,4,4.21s-.55,4.25-4,4.25" fill="#262424"/><path d="M91.92,32.61a12,12,0,0,0,5.71,1.26A12.32,12.32,0,0,0,103,32.78,6.25,6.25,0,0,0,106,30.09a12,12,0,0,0,.79-5c0-3.13-.48-5.43-1.43-6.83s-3.33-3.23-7.05-5.44a6.26,6.26,0,0,1-2.45-2.06,5.39,5.39,0,0,1-.46-2.52,3.67,3.67,0,0,1,.42-2,1.44,1.44,0,0,1,1.29-.7,1.25,1.25,0,0,1,1.14.54,4.77,4.77,0,0,1,.33,2.24v2.24h7.51V9.42A14.33,14.33,0,0,0,105.4,4a5.8,5.8,0,0,0-3-2.59,13.23,13.23,0,0,0-5.54-1,12.13,12.13,0,0,0-5.07,1,6.24,6.24,0,0,0-3,2.62,11.68,11.68,0,0,0-.94,5.38,11.5,11.5,0,0,0,.66,4.19,7.05,7.05,0,0,0,1.66,2.55,38.66,38.66,0,0,0,4.15,3,24.14,24.14,0,0,1,4,3c.56.63.83,1.89.83,3.86A4,4,0,0,1,98.7,28a1.53,1.53,0,0,1-1.39.74,1.42,1.42,0,0,1-1.31-.6,5.26,5.26,0,0,1-.36-2.44V21.89H88.13v2a16.6,16.6,0,0,0,.73,5.58,6.17,6.17,0,0,0,3.06,3.18" fill="#262424"/><path d="M118.91,1c-1.08,5-1.86,9.23-2.32,12.66l-.21,1.59-.12-1.6c-.16-2.19-.84-6.44-2-12.65h-7.4l5.88,20.56V33.19h7.49V21.55L126.32,1Z" fill="#262424"/><polygon points="146.46 33.19 146.46 1.04 139.73 1.04 139.73 16.55 134.7 1.04 127.93 1.04 127.93 33.19 134.66 33.19 134.66 17.45 139.34 33.19 146.46 33.19" fill="#262424"/><rect x="213.33" y="1.04" width="8.11" height="32.15" fill="#262424"/><polygon points="239.13 19.55 239.13 13.7 233.86 13.7 233.86 7.21 239.5 7.21 239.5 1.04 225.74 1.04 225.74 33.19 240.06 33.19 240.06 27.02 233.86 27.02 233.86 19.55 239.13 19.55" fill="#262424"/><path d="M246.45,32.61a12,12,0,0,0,5.71,1.26,12.27,12.27,0,0,0,5.34-1.09,6.25,6.25,0,0,0,3.06-2.69,12,12,0,0,0,.8-5c0-3.13-.48-5.43-1.43-6.83s-3.34-3.23-7.06-5.44a6.42,6.42,0,0,1-2.45-2.06A5.58,5.58,0,0,1,250,8.2a3.79,3.79,0,0,1,.42-2,1.45,1.45,0,0,1,1.3-.7,1.27,1.27,0,0,1,1.14.54,4.81,4.81,0,0,1,.32,2.24v2.24h7.52V9.42A14.08,14.08,0,0,0,259.92,4a5.76,5.76,0,0,0-3-2.59,13.2,13.2,0,0,0-5.54-1,12.09,12.09,0,0,0-5.06,1,6.31,6.31,0,0,0-3,2.62,11.71,11.71,0,0,0-.93,5.38,11.29,11.29,0,0,0,.66,4.19,6.84,6.84,0,0,0,1.66,2.55,37.62,37.62,0,0,0,4.15,3,24.61,24.61,0,0,1,4,3c.56.63.83,1.89.83,3.86a3.92,3.92,0,0,1-.44,2.06,1.53,1.53,0,0,1-1.39.74,1.44,1.44,0,0,1-1.32-.6,5.3,5.3,0,0,1-.35-2.44V21.89h-7.52v2a16.86,16.86,0,0,0,.73,5.58,6.15,6.15,0,0,0,3.07,3.18" fill="#262424"/></svg>