<svg xmlns="http://www.w3.org/2000/svg" viewBox="0 0 31.33 17.63"><defs><style>.cls-1,.cls-3{fill:none;stroke:#040706;stroke-linejoin:round;}.cls-1{stroke-linecap:round;}.cls-2{fill:#040706;}</style></defs><title>icon_2</title><g id="Слой_2" data-name="Слой 2"><g id="Layer_1" data-name="Layer 1"><polygon class="cls-1" points="27.9 12.24 19.58 12.24 11.26 12.24 11.26 2.46 27.9 2.46 27.9 12.24"/><path class="cls-1" d="M9.31,14.2V2A1.46,1.46,0,0,1,10.77.5H28.39A1.46,1.46,0,0,1,29.85,2V14.2"/><path class="cls-1" d="M22,14.2v1h-4.9v-1H8.33v2a1,1,0,0,0,1,1H29.85a1,1,0,0,0,1-1v-2Z"/><rect class="cls-1" x="0.5" y="6.37" width="5.87" height="10.76" rx="1.23"/><line class="cls-1" x1="0.5" y1="7.84" x2="6.37" y2="7.84"/><line class="cls-1" x1="0.5" y1="14.2" x2="6.37" y2="14.2"/><path class="cls-2" d="M3.44,15.18a.49.49,0,1,0,0,1,.49.49,0,0,0,0-1Z"/><polygon class="cls-3" points="19.58 4.91 20.38 6.52 22.16 6.77 20.87 8.02 21.17 9.79 19.58 8.95 17.99 9.79 18.29 8.02 17 6.77 18.79 6.52 19.58 4.91"/><polygon class="cls-3" points="3.44 10.22 3.65 10.66 4.14 10.73 3.79 11.07 3.87 11.55 3.44 11.32 3 11.55 3.08 11.07 2.73 10.73 3.22 10.66 3.44 10.22"/></g></g></svg>