<svg xmlns="http://www.w3.org/2000/svg" viewBox="0 0 30.29 30.42"><defs><style>.cls-1,.cls-2,.cls-3{fill:none;stroke:#040706;stroke-linejoin:round;}.cls-1,.cls-2{stroke-linecap:round;}.cls-2{stroke-width:0.75px;stroke-dasharray:1 2;}</style></defs><title>icon_1_1</title><g id="Слой_2" data-name="Слой 2"><g id="Layer_1" data-name="Layer 1"><polyline class="cls-1" points="16.5 25.42 12 21.92 7.5 25.42 9 19.92 5 16.42 10 16.42 12 11.42"/><polyline class="cls-2" points="12.32 11.42 14.32 16.42 19.32 16.42 15.32 19.92 16.82 25.42"/><path class="cls-1" d="M23.5,10.92v15a4,4,0,0,1-4,4H4.5a4,4,0,0,1-4-4v-15a4,4,0,0,1,4-4h15"/><circle class="cls-3" cx="22.18" cy="7.95" r="1.32"/><line class="cls-3" x1="21.36" y1="6.78" x2="17.76" y2="3.19"/><line class="cls-3" x1="27.04" y1="12.46" x2="23.44" y2="8.87"/><circle class="cls-3" cx="16.72" cy="2.15" r="1.65"/><circle class="cls-3" cx="28.14" cy="13.57" r="1.65"/></g></g></svg>