<svg xmlns="http://www.w3.org/2000/svg" viewBox="0 0 22 24"><defs><style>.cls-1,.cls-2{fill:none;stroke:#000;stroke-linejoin:round;}.cls-1{opacity:0.3;}</style></defs><title>icon_4</title><g id="Слой_2" data-name="Слой 2"><g id="Outline_Old_Icons" data-name="Outline Old Icons"><path class="cls-1" d="M2.5,11v-.5a1,1,0,0,1,1-1h1a1,1,0,0,1,1,1V11"/><path class="cls-2" d="M21.5,22A1.5,1.5,0,0,1,20,23.5H2A1.5,1.5,0,0,1,.5,22V13A1.5,1.5,0,0,1,2,11.5H8l2-2h6l2,2h2A1.5,1.5,0,0,1,21.5,13Z"/><path class="cls-2" d="M2.5,11.5v-1a1,1,0,0,1,1-1h1a1,1,0,0,1,1,1v1"/><circle class="cls-2" cx="4" cy="15" r="1.5"/><circle class="cls-2" cx="13.5" cy="17" r="2.5"/><circle class="cls-2" cx="13.5" cy="17" r="4.5"/><rect class="cls-2" x="7.5" y="0.5" width="11" height="6"/><rect class="cls-2" x="9.5" y="2.5" width="7" height="2"/><line class="cls-2" x1="9" y1="6.5" x2="10" y2="9.5"/><line class="cls-2" x1="17" y1="6.5" x2="16" y2="9.5"/></g></g></svg>