<svg xmlns="http://www.w3.org/2000/svg" viewBox="0 0 3385.42 866.26"><title>arbo-logo</title><path d="M961,866.25a30,30,0,0,1-26-15L495.49,90,56,851.25a30,30,0,0,1-52-30L469.51,15a30,30,0,0,1,52,0L987,821.25a30,30,0,0,1-26,45Z" fill="#262424"/><path d="M1440.64,866.25a30,30,0,0,1-26.08-15.11L1192.13,461.93a30,30,0,0,1,26-44.89c98.44,0,178.52-80.08,178.52-178.52S1316.62,60,1218.18,60H918.75a30,30,0,0,1,0-60h299.43a238.52,238.52,0,0,1,168.66,407.18A236.92,236.92,0,0,1,1267,472.07l199.63,349.29a30,30,0,0,1-26,44.89Z" fill="#262424"/><path d="M2079.84,864.48H1796.48a30,30,0,0,1,0-60h283.36c94.36,0,171.12-76.76,171.12-171.12s-76.76-171.12-171.12-171.12a30,30,0,0,1,0-60c94.36,0,171.12-76.76,171.12-171.12S2174.2,60,2079.84,60H1821V662.39a30,30,0,0,1-60,0V30a30,30,0,0,1,30-30h288.8a231.12,231.12,0,0,1,163.43,394.55,232.23,232.23,0,0,1-49.35,37.69,232,232,0,0,1,49.35,37.7,231.12,231.12,0,0,1-163.43,394.54Z" fill="#262424"/><path d="M2953.18,864.48A432.35,432.35,0,0,1,2784.92,34,432.35,432.35,0,0,1,3121.44,830.5,429.53,429.53,0,0,1,2953.18,864.48Zm0-804.48c-205.26,0-372.24,167-372.24,372.24s167,372.24,372.24,372.24,372.24-167,372.24-372.24S3158.43,60,2953.18,60Z" fill="#262424"/></svg>