<svg xmlns="http://www.w3.org/2000/svg" viewBox="0 0 13.25 13.25"><title>behance-round</title><path d="M5.38,9.15H2.77v-5H5.39l.47.07a1.28,1.28,0,0,1,.46.21.89.89,0,0,1,.37.52,1.38,1.38,0,0,1,0,.78,1.11,1.11,0,0,1-.58.69l-.06,0,.06,0a1.14,1.14,0,0,1,.77.71A1.58,1.58,0,0,1,7,7.82a1.26,1.26,0,0,1-.52,1,1.87,1.87,0,0,1-.88.34ZM3.88,6.9V8.28h1.2a2.2,2.2,0,0,0,.36,0,.55.55,0,0,0,.42-.42.77.77,0,0,0,0-.37.52.52,0,0,0-.23-.4.93.93,0,0,0-.56-.15H3.88ZM3.88,5V6.14H5.15A.59.59,0,0,0,5.44,6a.49.49,0,0,0,.24-.45A.51.51,0,0,0,5.29,5a1.64,1.64,0,0,0-.38,0h-1Z"/><path d="M9.13,9.15H8.81l-.28,0a1.62,1.62,0,0,1-1.17-.89,2.11,2.11,0,0,1-.14-1.56A1.71,1.71,0,0,1,8.37,5.41a1.88,1.88,0,0,1,.91-.09,1.6,1.6,0,0,1,1,.52,2,2,0,0,1,.47,1.06l0,.2v.38H8.14a2.54,2.54,0,0,0,0,.29.67.67,0,0,0,.31.48,1,1,0,0,0,1,0A.65.65,0,0,0,9.81,8s0,0,.07,0h.83a1.92,1.92,0,0,1-.37.69,1.53,1.53,0,0,1-1,.5Zm-1-2.32H9.77a1.26,1.26,0,0,0-.18-.49.59.59,0,0,0-.39-.26,1.71,1.71,0,0,0-.32,0A.75.75,0,0,0,8.15,6.83Z"/><path d="M2.77,9.14h0Z"/><path d="M5.25,4.1h0Z"/><path d="M8,4.92V4.36h2v.56Z"/><path d="M6.63,13.25a6.63,6.63,0,1,1,6.62-6.62A6.63,6.63,0,0,1,6.63,13.25ZM6.63,1a5.63,5.63,0,1,0,5.62,5.63A5.63,5.63,0,0,0,6.63,1Z"/></svg>