<svg xmlns="http://www.w3.org/2000/svg" viewBox="0 0 47.2 29.74"><title>behance</title><g id="Слой_2" data-name="Слой 2"><g id="Layer_1" data-name="Layer 1"><path d="M15.4,29.74h-.53a3.18,3.18,0,0,0-.43-.06H0V.06H14.24A2.63,2.63,0,0,0,14.63,0h.59a1.66,1.66,0,0,0,.21.06c.92.14,1.85.24,2.76.42a7.16,7.16,0,0,1,2.74,1.2,5.63,5.63,0,0,1,2.19,3.09,8.75,8.75,0,0,1,.11,4.57,6.28,6.28,0,0,1-3.45,4.06l-.34.18.35.11a6.82,6.82,0,0,1,4.53,4.19,9.28,9.28,0,0,1,.53,4.05,7.47,7.47,0,0,1-3,5.63,11.07,11.07,0,0,1-5.19,2ZM6.56,16.49v8.15h.21c2.27,0,4.54,0,6.81,0a9.48,9.48,0,0,0,2.12-.28,3.25,3.25,0,0,0,2.52-2.43,5.36,5.36,0,0,0,.05-2.22,3.23,3.23,0,0,0-1.39-2.36,5.73,5.73,0,0,0-3.25-.86H6.56Zm0-11.41v7H13A7,7,0,0,0,14,12a4.23,4.23,0,0,0,1.72-.58,3.09,3.09,0,0,0,1.39-2.7,3,3,0,0,0-2.32-3.32,9.69,9.69,0,0,0-2.21-.27c-1.91,0-3.82,0-5.72,0Z"/><path d="M37.47,29.74H35.7l-.12-.06c-.55-.08-1.12-.12-1.66-.24A9.55,9.55,0,0,1,27,24.22,12.7,12.7,0,0,1,26.19,15,10.28,10.28,0,0,1,33,7.68a11.41,11.41,0,0,1,5.38-.48,9.24,9.24,0,0,1,5.87,3.07A11.52,11.52,0,0,1,47,16.47l.18,1.17v2.24H31.9l-.29,0c.09.6.14,1.17.27,1.73a4,4,0,0,0,1.79,2.83,5.94,5.94,0,0,0,6.09.1,3.63,3.63,0,0,0,1.73-1.79.35.35,0,0,1,.37-.25h4.66l.26,0a11.5,11.5,0,0,1-2.2,4.09,9.18,9.18,0,0,1-5.7,2.92C38.41,29.64,37.94,29.68,37.47,29.74ZM31.67,16.1h9.58a7.78,7.78,0,0,0-1.08-2.89,3.27,3.27,0,0,0-2.31-1.52A9.74,9.74,0,0,0,36,11.57,4.51,4.51,0,0,0,31.67,16.1Z"/><path d="M0,29.68H14.44a3.18,3.18,0,0,1,.43.06H.26A1.38,1.38,0,0,1,0,29.68Z"/><path d="M14.63,0a2.63,2.63,0,0,1-.39.06H0A1.31,1.31,0,0,1,.27,0Z"/><path d="M30.65,4.83V1.54h12V4.83Z"/></g></g></svg>