<svg xmlns="http://www.w3.org/2000/svg" viewBox="0 0 3637.98 2613.83"><title>bg-grid</title><path d="M1840,0h242l359.43,383.35L2191,393.16Z" fill="#f9d568"/><path d="M1927.28,403.48,2191,393.16l406.28,455.15-273.53,24.08Z" fill="#f9d568"/><path d="M1319.59,0h266.57l341.12,403.48-277.91,10.88Z" fill="#f9d568"/><path d="M1356.06,425.84l293.31-11.48,384.82,483.52-306.94,27Z" fill="#f9d568"/><path d="M744.29,0h295l316.73,425.84L1046,438Z" fill="#f9d568"/><path d="M717.82,450.83,1046,438,1401.26,953.6,1054.4,984.13Z" fill="#f9d568"/><path d="M105,0H433.29L717.82,450.83,369.76,464.46Z" fill="#f9d568"/><path d="M0,478.93l369.76-14.47,314.82,552.23-395.12,34.78Z" fill="#f9d568"/><path d="M2597.24,848.31l258.84-22.78,483.5,515.66-266.51,40.19Z" fill="#f9d568"/><path d="M2790.1,1424.05l283-42.67L3638,2014.25l-291.22,68.24Z" fill="#f9d568"/><path d="M2034.19,897.88l289.52-25.49,466.39,551.66-301,45.4Z" fill="#f9d568"/><path d="M2168.26,1517.83l320.83-48.38,546,686.07-334.29,78.34Z" fill="#f9d568"/><path d="M1401.26,953.6l326-28.7,441,592.93-342.67,51.67Z" fill="#f9d568"/><path d="M1458.75,1624.82l366.84-55.32,515.74,748.6L1953.64,2409Z" fill="#f9d568"/><path d="M684.58,1016.69l369.82-32.56,404.35,640.69-393.63,59.36Z" fill="#f9d568"/><path d="M641.63,1748l423.49-63.86,469.21,823-455,106.61Z" fill="#f9d568"/></svg>