<svg xmlns="http://www.w3.org/2000/svg" viewBox="0 0 31.33 17.63"><title>case-devices</title><path d="M27.9,12.74H11.26a.5.5,0,0,1-.5-.5V2.46a.5.5,0,0,1,.5-.5H27.9a.5.5,0,0,1,.5.5v9.78A.5.5,0,0,1,27.9,12.74Zm-16.14-1H27.4V3H11.76Z" fill="#040706"/><path d="M29.85,14.7a.5.5,0,0,1-.5-.5V2a1,1,0,0,0-1-1H10.77a1,1,0,0,0-1,1V14.2a.5.5,0,0,1-.5.5.5.5,0,0,1-.5-.5V2a2,2,0,0,1,2-2H28.39a2,2,0,0,1,2,2V14.2A.5.5,0,0,1,29.85,14.7Z" fill="#040706"/><path d="M29.85,17.63H9.31a1.47,1.47,0,0,1-1.48-1.47v-2a.5.5,0,0,1,.5-.5h8.8a.5.5,0,0,1,.5.5v.48h3.9V14.2a.5.5,0,0,1,.5-.5h8.8a.5.5,0,0,1,.5.5v2A1.47,1.47,0,0,1,29.85,17.63Zm-21-2.93v1.46a.47.47,0,0,0,.48.47H29.85a.47.47,0,0,0,.48-.47V14.7h-7.8v.48a.51.51,0,0,1-.5.5h-4.9a.51.51,0,0,1-.5-.5V14.7Z" fill="#040706"/><path d="M5.14,17.63H1.73A1.73,1.73,0,0,1,0,15.91V7.6A1.74,1.74,0,0,1,1.73,5.87H5.14A1.73,1.73,0,0,1,6.87,7.6v8.31A1.72,1.72,0,0,1,5.14,17.63ZM1.73,6.87A.73.73,0,0,0,1,7.6v8.31a.73.73,0,0,0,.73.72H5.14a.73.73,0,0,0,.73-.72V7.6a.73.73,0,0,0-.73-.73Z" fill="#040706"/><path d="M6.37,8.34H.5a.5.5,0,0,1-.5-.5.5.5,0,0,1,.5-.5H6.37a.5.5,0,0,1,.5.5A.5.5,0,0,1,6.37,8.34Z" fill="#040706"/><path d="M6.37,14.7H.5a.5.5,0,0,1,0-1H6.37a.5.5,0,1,1,0,1Z" fill="#040706"/><path d="M3.44,15.18a.49.49,0,1,0,0,1,.49.49,0,0,0,0-1Z" fill="#040706"/><path d="M21.17,10.28a.46.46,0,0,1-.23,0l-1.36-.71-1.36.71a.53.53,0,0,1-.53,0,.49.49,0,0,1-.19-.49l.25-1.5L16.66,7.13a.49.49,0,0,1-.13-.51.5.5,0,0,1,.4-.34l1.52-.22.68-1.37a.52.52,0,0,1,.9,0l.68,1.37,1.52.22a.5.5,0,0,1,.4.34.49.49,0,0,1-.13.51L21.41,8.2l.26,1.5a.51.51,0,0,1-.2.49A.53.53,0,0,1,21.17,10.28ZM19.58,8.45a.46.46,0,0,1,.23.06l.7.36-.13-.76a.5.5,0,0,1,.14-.45l.56-.54L20.31,7a.47.47,0,0,1-.38-.27L19.58,6l-.35.7a.47.47,0,0,1-.37.27l-.78.11.56.54a.53.53,0,0,1,.15.45l-.14.76.7-.36A.46.46,0,0,1,19.58,8.45Z" fill="#040706"/><path d="M3,12.05a.45.45,0,0,1-.29-.1.49.49,0,0,1-.2-.49l0-.21-.16-.16a.5.5,0,0,1,.27-.85l.23,0L3,10a.49.49,0,0,1,.45-.27h0a.48.48,0,0,1,.44.27l.1.2.23,0a.5.5,0,0,1,.27.85l-.16.16,0,.21a.49.49,0,0,1-.2.49.47.47,0,0,1-.52,0l-.2-.1-.21.1A.46.46,0,0,1,3,12.05Z" fill="#040706"/></svg>