<svg xmlns="http://www.w3.org/2000/svg" viewBox="0 0 27.92 23.82"><title>case-lego</title><path d="M13.37,23.82a.35.35,0,0,1-.2-.05L.29,17.92A.48.48,0,0,1,0,17.47V8.11a.5.5,0,0,1,.23-.42.48.48,0,0,1,.48,0L13.58,13.5a.5.5,0,0,1,.29.46v9.36a.48.48,0,0,1-.23.42A.5.5,0,0,1,13.37,23.82ZM1,17.15l11.87,5.39V14.28L1,8.88Z" fill="#040706"/><path d="M13.37,23.82a.53.53,0,0,1-.27-.08.52.52,0,0,1-.23-.42V14a.49.49,0,0,1,.31-.46l14-5.85a.49.49,0,0,1,.47,0,.5.5,0,0,1,.23.42v9.36a.5.5,0,0,1-.31.46l-14,5.85A.48.48,0,0,1,13.37,23.82Zm.5-9.53v8.28l13.05-5.43V8.86Z" fill="#040706"/><path d="M14,11c-2.29,0-4-1-4-2.26s1.72-2.25,4-2.25,4,1,4,2.25S16.24,11,14,11Zm0-3.51c-1.87,0-3,.73-3,1.25S12.09,10,14,10s3-.75,3-1.26S15.8,7.44,14,7.44Z" fill="#040706"/><path d="M14,4.51c-2.29,0-4-1-4-2.25S11.67,0,14,0s4,1,4,2.26S16.24,4.51,14,4.51ZM14,1c-1.87,0-3,.73-3,1.26s1.14,1.25,3,1.25,3-.74,3-1.25S15.8,1,14,1Z" fill="#040706"/><path d="M22.15,8c-2.29,0-4-1-4-2.25s1.72-2.26,4-2.26,4,1,4,2.26S24.44,8,22.15,8Zm0-3.51c-1.87,0-3,.73-3,1.26S20.28,7,22.15,7s3-.73,3-1.25S24,4.51,22.15,4.51Z" fill="#040706"/><path d="M6.35,8c-2.28,0-4-1-4-2.25s1.73-2.26,4-2.26,4,1,4,2.26S8.64,8,6.35,8Zm0-3.51c-1.86,0-3,.73-3,1.26S4.49,7,6.35,7s3-.74,3-1.25S8.19,4.51,6.35,4.51Z" fill="#040706"/><path d="M.5,8.61A.52.52,0,0,1,0,8.31.5.5,0,0,1,.3,7.65l3-1.31A.5.5,0,0,1,4,6.6a.51.51,0,0,1-.26.66l-3,1.3A.49.49,0,0,1,.5,8.61Z" fill="#040706"/><path d="M8.79,5a.5.5,0,0,1-.46-.3A.51.51,0,0,1,8.59,4L11.11,3a.5.5,0,0,1,.66.26.51.51,0,0,1-.26.66L9,5A.51.51,0,0,1,8.79,5Z" fill="#040706"/><path d="M19.45,5.14a.48.48,0,0,1-.2,0L16.4,3.86A.5.5,0,1,1,16.8,3l2.85,1.23a.51.51,0,0,1,.26.66A.5.5,0,0,1,19.45,5.14Z" fill="#040706"/><path d="M27.42,8.61a.46.46,0,0,1-.2,0L24.53,7.4a.5.5,0,0,1-.26-.66.49.49,0,0,1,.65-.26l2.7,1.17a.51.51,0,0,1,.26.66A.53.53,0,0,1,27.42,8.61Z" fill="#040706"/></svg>