<svg xmlns="http://www.w3.org/2000/svg" viewBox="0 0 24 24"><title>case-facade</title><path d="M23.5,24H.5a.5.5,0,0,1,0-1h23a.5.5,0,0,1,0,1Z"/><path d="M19.5,24H4.5a.5.5,0,0,1-.5-.5V4.5A.5.5,0,0,1,4.5,4h15a.5.5,0,0,1,.5.5v19A.5.5,0,0,1,19.5,24ZM5,23H19V5H5Z"/><path d="M20.5,5H3.5A.5.5,0,0,1,3,4.5v-1A.5.5,0,0,1,3.33,3l8.5-3a.5.5,0,0,1,.34,0l8.5,3A.5.5,0,0,1,21,3.5v1A.5.5,0,0,1,20.5,5ZM4,4H20V3.85L12,1,4,3.85Z"/><path d="M13.5,24h-3a.5.5,0,0,1-.5-.5v-5a.5.5,0,0,1,.5-.5h3a.5.5,0,0,1,.5.5v5A.5.5,0,0,1,13.5,24ZM11,23h2V19H11Z"/><path d="M8.5,9h-2A.5.5,0,0,1,6,8.5v-2A.5.5,0,0,1,6.5,6h2a.5.5,0,0,1,.5.5v2A.5.5,0,0,1,8.5,9ZM7,8H8V7H7Z"/><path d="M13.5,9h-3a.5.5,0,0,1-.5-.5v-2a.5.5,0,0,1,.5-.5h3a.5.5,0,0,1,.5.5v2A.5.5,0,0,1,13.5,9ZM11,8h2V7H11Z"/><path d="M17.5,9h-2a.5.5,0,0,1-.5-.5v-2a.5.5,0,0,1,.5-.5h2a.5.5,0,0,1,.5.5v2A.5.5,0,0,1,17.5,9ZM16,8h1V7H16Z"/><path d="M8.5,13h-2a.5.5,0,0,1-.5-.5v-2a.5.5,0,0,1,.5-.5h2a.5.5,0,0,1,.5.5v2A.5.5,0,0,1,8.5,13ZM7,12H8V11H7Z"/><path d="M13.5,13h-3a.5.5,0,0,1-.5-.5v-2a.5.5,0,0,1,.5-.5h3a.5.5,0,0,1,.5.5v2A.5.5,0,0,1,13.5,13ZM11,12h2V11H11Z"/><path d="M17.5,13h-2a.5.5,0,0,1-.5-.5v-2a.5.5,0,0,1,.5-.5h2a.5.5,0,0,1,.5.5v2A.5.5,0,0,1,17.5,13ZM16,12h1V11H16Z"/><path d="M8.5,17h-2a.5.5,0,0,1-.5-.5v-2a.5.5,0,0,1,.5-.5h2a.5.5,0,0,1,.5.5v2A.5.5,0,0,1,8.5,17ZM7,16H8V15H7Z"/><path d="M13.5,17h-3a.5.5,0,0,1-.5-.5v-2a.5.5,0,0,1,.5-.5h3a.5.5,0,0,1,.5.5v2A.5.5,0,0,1,13.5,17ZM11,16h2V15H11Z"/><path d="M17.5,17h-2a.5.5,0,0,1-.5-.5v-2a.5.5,0,0,1,.5-.5h2a.5.5,0,0,1,.5.5v2A.5.5,0,0,1,17.5,17ZM16,16h1V15H16Z"/><path d="M8.5,21h-2a.5.5,0,0,1-.5-.5v-2a.5.5,0,0,1,.5-.5h2a.5.5,0,0,1,.5.5v2A.5.5,0,0,1,8.5,21ZM7,20H8V19H7Z"/><path d="M17.5,21h-2a.5.5,0,0,1-.5-.5v-2a.5.5,0,0,1,.5-.5h2a.5.5,0,0,1,.5.5v2A.5.5,0,0,1,17.5,21ZM16,20h1V19H16Z"/></svg>