<svg xmlns="http://www.w3.org/2000/svg" viewBox="0 0 24 23.5"><title>case-paint</title><path d="M17.68,5.38l-5-4.22L7.83,5.38l-.66-.76L12.33.12a.5.5,0,0,1,.65,0l5.34,4.5Z"/><path d="M23.5,23.5H.5A.5.5,0,0,1,0,23V5a.5.5,0,0,1,.5-.5h23A.5.5,0,0,1,24,5V23A.5.5,0,0,1,23.5,23.5ZM1,22.5H23V5.5H1Z"/><rect x="6.24" y="17.5" width="5.52" height="1"/><path d="M21.5,21.5H2.5A.5.5,0,0,1,2,21V7a.5.5,0,0,1,.5-.5h19A.5.5,0,0,1,22,7V21A.5.5,0,0,1,21.5,21.5ZM3,20.5H21V7.5H3Z"/><path d="M13.46,21.32A25.37,25.37,0,0,1,9,13.07a25.37,25.37,0,0,1-4.46,8.25l-.77-.64c0-.06,4.73-5.72,4.73-11a.5.5,0,0,1,1,0c0,5.25,4.68,10.91,4.73,11Z"/><path d="M19,21H18V17.5H17V21H16V17a.5.5,0,0,1,.5-.5h2a.5.5,0,0,1,.5.5Z"/><path d="M19,17.5H18V14a.5.5,0,0,1,.5-.5h3v1H19Z"/></svg>