<svg xmlns="http://www.w3.org/2000/svg" viewBox="0 0 30.29 30.42"><title>case-logo</title><path d="M16.5,25.92a.51.51,0,0,1-.31-.11L12,22.55,7.81,25.81a.51.51,0,0,1-.59,0,.48.48,0,0,1-.2-.54l1.42-5.2-3.77-3.3a.49.49,0,0,1-.14-.55A.5.5,0,0,1,5,15.92H9.66l1.88-4.69a.5.5,0,1,1,.92.37l-2,5a.5.5,0,0,1-.46.32H6.33l3,2.62a.51.51,0,0,1,.15.51L8.38,24.1l3.31-2.58a.51.51,0,0,1,.62,0l4.5,3.5a.5.5,0,0,1,.08.7A.47.47,0,0,1,16.5,25.92Z" fill="#040706"/><path d="M16.82,25.79a.37.37,0,0,1-.36-.27l-.11-.39a.38.38,0,0,1,.26-.46.38.38,0,0,1,.47.26l.1.39a.38.38,0,0,1-.26.46Zm-.63-2.31a.36.36,0,0,1-.36-.28l-.27-1a.38.38,0,0,1,.73-.19l.26,1a.37.37,0,0,1-.26.46Zm-.79-2.9A.36.36,0,0,1,15,20.3L15,20a.38.38,0,0,1,.11-.39l.53-.46a.38.38,0,1,1,.49.57l-.35.3,0,.07a.38.38,0,0,1-.26.46Zm2-2.07a.37.37,0,0,1-.25-.65l.76-.66a.37.37,0,1,1,.49.56l-.75.66A.38.38,0,0,1,17.35,18.51Zm1.58-1.72h-1a.38.38,0,0,1,0-.75h1a.38.38,0,1,1,0,.75Zm-3,0h-1a.38.38,0,0,1,0-.75h1a.38.38,0,1,1,0,.75ZM13.8,15.51a.36.36,0,0,1-.34-.24l-.38-.93a.39.39,0,0,1,.21-.49.38.38,0,0,1,.49.21l.37.93a.37.37,0,0,1-.21.49A.32.32,0,0,1,13.8,15.51Zm-1.11-2.79a.38.38,0,0,1-.35-.24L12,11.56a.38.38,0,0,1,.21-.49.37.37,0,0,1,.49.21l.37.93a.37.37,0,0,1-.21.48A.35.35,0,0,1,12.69,12.72Z" fill="#040706"/><path d="M19.5,30.42H4.5A4.51,4.51,0,0,1,0,25.92v-15a4.51,4.51,0,0,1,4.5-4.5h15a.5.5,0,0,1,.5.5.5.5,0,0,1-.5.5H4.5A3.5,3.5,0,0,0,1,10.92v15a3.5,3.5,0,0,0,3.5,3.5h15a3.5,3.5,0,0,0,3.5-3.5v-15a.5.5,0,0,1,1,0v15A4.51,4.51,0,0,1,19.5,30.42Z" fill="#040706"/><path d="M22.18,9.77A1.83,1.83,0,1,1,24,8,1.82,1.82,0,0,1,22.18,9.77Zm0-2.65A.83.83,0,1,0,23,8,.83.83,0,0,0,22.18,7.12Z" fill="#040706"/><rect x="19.06" y="2.45" width="1" height="5.08" transform="translate(2.2 15.29) rotate(-45)" fill="#040706"/><rect x="24.74" y="8.13" width="1" height="5.08" transform="translate(-0.15 20.97) rotate(-45)" fill="#040706"/><path d="M16.72,4.3a2.15,2.15,0,1,1,2.15-2.15A2.16,2.16,0,0,1,16.72,4.3Zm0-3.3a1.15,1.15,0,1,0,1.15,1.15A1.16,1.16,0,0,0,16.72,1Z" fill="#040706"/><path d="M28.14,15.72a2.15,2.15,0,1,1,2.15-2.15A2.14,2.14,0,0,1,28.14,15.72Zm0-3.3a1.15,1.15,0,1,0,1.15,1.15A1.15,1.15,0,0,0,28.14,12.42Z" fill="#040706"/></svg>