<svg xmlns="http://www.w3.org/2000/svg" viewBox="0 0 22.92 22.92"><title>case-rocket</title><path d="M9,18a.51.51,0,0,1-.36-.15L5.11,14.3a.5.5,0,0,1,0-.7L16.76,1.91C17.9.77,21.89.08,22.34,0a.46.46,0,0,1,.43.14.46.46,0,0,1,.14.43C22.84,1,22.15,5,21,6.16L9.34,17.82A.5.5,0,0,1,9,18ZM6.17,14,9,16.76,20.3,5.45c.6-.6,1.18-2.74,1.5-4.33-1.59.32-3.73.91-4.33,1.5Z"/><path d="M10.4,16.56a.47.47,0,0,1-.35-.15L6.52,12.88a.5.5,0,0,1,.71-.71l3.52,3.53a.5.5,0,0,1,0,.71A.47.47,0,0,1,10.4,16.56Z"/><path d="M9,22.92a.54.54,0,0,1-.22-.05.5.5,0,0,1-.28-.51l.65-5.6a.5.5,0,0,1,1,.11l-.49,4.18,2.52-2.52a6.55,6.55,0,0,0,1.29-1.92,17,17,0,0,0,.33-4.44.5.5,0,0,1,.5-.5.5.5,0,0,1,.5.5,18.66,18.66,0,0,1-.38,4.75,7.28,7.28,0,0,1-1.54,2.32L9.34,22.77A.49.49,0,0,1,9,22.92Z"/><path d="M.5,14.44a.49.49,0,0,1-.45-.29.5.5,0,0,1,.1-.57l3.53-3.53A7.26,7.26,0,0,1,6,8.48a21,21,0,0,1,4.63-.35h.15a.5.5,0,0,1,.5.5.5.5,0,0,1-.5.5h-.16a20.15,20.15,0,0,0-4.3.3,6.47,6.47,0,0,0-1.9,1.32L1.88,13.26l4.2-.51a.5.5,0,1,1,.12,1l-5.64.69Z"/><path d="M.85,22.58a.5.5,0,0,1-.35-.14A.53.53,0,0,1,.37,22c.12-.49,1.21-4.86,2.25-5.9a2.86,2.86,0,0,1,1.53-.87,1.78,1.78,0,0,1,1.65.51.5.5,0,0,1,0,.71.48.48,0,0,1-.7,0c-.68-.67-1.6.18-1.77.35-.55.55-1.31,2.86-1.78,4.62,1.75-.48,4.06-1.24,4.61-1.79.17-.17,1-1.09.35-1.77a.5.5,0,0,1,0-.7.5.5,0,0,1,.71,0c.84.84.7,2.12-.36,3.18S1.47,22.44,1,22.57Z"/></svg>