<svg xmlns="http://www.w3.org/2000/svg" viewBox="0 0 24 24"><title>communication</title><path d="M17,24H7a.52.52,0,0,1-.43-.24.51.51,0,0,1,0-.48l5-10a.52.52,0,0,1,.9,0l5,10a.51.51,0,0,1,0,.48A.52.52,0,0,1,17,24ZM7.81,23h8.38L12,14.62Z"/><path d="M20.31,20.45a.52.52,0,0,1-.35-.14.5.5,0,0,1,0-.71,11,11,0,1,0-15.9,0,.5.5,0,0,1,0,.71.5.5,0,0,1-.71,0A12,12,0,1,1,24,12a11.92,11.92,0,0,1-3.33,8.29A.48.48,0,0,1,20.31,20.45Z"/><path d="M18.09,16.86a.52.52,0,0,1-.29-.09.5.5,0,0,1-.11-.7A6.93,6.93,0,0,0,19,12,7,7,0,0,0,5,12a6.93,6.93,0,0,0,1.31,4.07.5.5,0,1,1-.81.58A7.91,7.91,0,0,1,4,12a8,8,0,0,1,16,0,7.91,7.91,0,0,1-1.5,4.65A.49.49,0,0,1,18.09,16.86Z"/><path d="M15.49,12.62h0a.47.47,0,0,1-.48-.49L15.5,12H15a3,3,0,0,0-6,0,.57.57,0,0,1-.49.58.44.44,0,0,1-.5-.41l.5,0-.5,0A.62.62,0,0,1,8,12a4,4,0,0,1,8,0,.62.62,0,0,1,0,.13A.52.52,0,0,1,15.49,12.62Z"/><path d="M12,14a.5.5,0,0,1-.5-.5v-2a.5.5,0,0,1,1,0v2A.5.5,0,0,1,12,14Z"/><rect x="6.26" y="20.5" width="9" height="1" transform="translate(-9.86 9.52) rotate(-33.77)"/><rect x="12.75" y="16.49" width="1" height="9.01" transform="translate(-11.57 20.38) rotate(-56.31)"/><rect x="10.27" y="16.5" width="3.46" height="1"/></svg>