<svg xmlns="http://www.w3.org/2000/svg" viewBox="0 0 24 24"><title>commerce</title><path d="M23.5,24H.5a.5.5,0,0,1-.5-.5v-5A.5.5,0,0,1,.5,18h23a.5.5,0,0,1,.5.5v5A.5.5,0,0,1,23.5,24ZM1,23H23V19H1Z"/><path d="M23.5,19H.5a.52.52,0,0,1-.43-.24.51.51,0,0,1,0-.48l3-6A.51.51,0,0,1,3.5,12h17a.51.51,0,0,1,.45.28l3,6a.51.51,0,0,1,0,.48A.52.52,0,0,1,23.5,19ZM1.31,18H22.69l-2.5-5H3.81Z"/><path d="M14.5,22a.5.5,0,0,1-.5-.5V21H9v.5a.5.5,0,0,1-1,0v-1a.5.5,0,0,1,.5-.5h6a.5.5,0,0,1,.5.5v1A.5.5,0,0,1,14.5,22Z"/><polygon points="6.5 16 5.5 16 5.5 17 6.5 17 6.5 16 6.5 16"/><polygon points="9.5 16 8.5 16 8.5 17 9.5 17 9.5 16 9.5 16"/><polygon points="12.5 16 11.5 16 11.5 17 12.5 17 12.5 16 12.5 16"/><polygon points="15.5 16 14.5 16 14.5 17 15.5 17 15.5 16 15.5 16"/><polygon points="18.5 16 17.5 16 17.5 17 18.5 17 18.5 16 18.5 16"/><polygon points="17 14.5 16 14.5 16 15.5 17 15.5 17 14.5 17 14.5"/><polygon points="14 14.5 13 14.5 13 15.5 14 15.5 14 14.5 14 14.5"/><polygon points="11 14.5 10 14.5 10 15.5 11 15.5 11 14.5 11 14.5"/><polygon points="8 14.5 7 14.5 7 15.5 8 15.5 8 14.5 8 14.5"/><path d="M20.5,13H3.5a.5.5,0,0,1-.5-.5v-6A.5.5,0,0,1,3.5,6h17a.5.5,0,0,1,.5.5v6A.5.5,0,0,1,20.5,13ZM4,12H20V7H4Z"/><path d="M11,11H5.5a.5.5,0,0,1-.5-.5v-2A.5.5,0,0,1,5.5,8H11a.5.5,0,0,1,.5.5v2A.5.5,0,0,1,11,11ZM6,10h4.5V9H6Z"/><path d="M18.5,10H14a.5.5,0,0,1,0-1h4.5a.5.5,0,0,1,0,1Z"/><path d="M9.5,7h-4A.5.5,0,0,1,5,6.5v-3A.49.49,0,0,1,5.38,3l4-1a.48.48,0,0,1,.43.09A.49.49,0,0,1,10,2.5v4A.5.5,0,0,1,9.5,7ZM6,6H9V3.14L6,3.89Z"/><path d="M19.5,4h-4A1.5,1.5,0,0,1,14,2.5v-1A1.5,1.5,0,0,1,15.5,0h4A1.5,1.5,0,0,1,21,1.5v1A1.5,1.5,0,0,1,19.5,4Zm-4-3a.51.51,0,0,0-.5.5v1a.5.5,0,0,0,.5.5h4a.5.5,0,0,0,.5-.5v-1a.5.5,0,0,0-.5-.5Z"/><path d="M17.5,7a.5.5,0,0,1-.5-.5v-3a.5.5,0,0,1,1,0v3A.5.5,0,0,1,17.5,7Z"/></svg>