<svg xmlns="http://www.w3.org/2000/svg" viewBox="0 0 9 9"><title>facebook</title><g id="Слой_2" data-name="Слой 2"><g id="Layer_1" data-name="Layer 1"><path d="M9,1.69V7.31A1.58,1.58,0,0,1,8.5,8.5,1.62,1.62,0,0,1,7.31,9H1.69A1.62,1.62,0,0,1,.5,8.5,1.62,1.62,0,0,1,0,7.31V1.69A1.62,1.62,0,0,1,.5.5,1.58,1.58,0,0,1,1.69,0H7.31A1.58,1.58,0,0,1,8.5.5,1.58,1.58,0,0,1,9,1.69ZM7.66,4.63l.13-1.28H6.63V2.71a.65.65,0,0,1,.09-.4q.09-.12.42-.12h.65V.91h-1a1.68,1.68,0,0,0-1.28.42A1.83,1.83,0,0,0,5.1,2.58v.77H4.33V4.63H5.1V8.35H6.63V4.63Z"/></g></g></svg>