<svg xmlns="http://www.w3.org/2000/svg" viewBox="0 0 8.71 8.71"><defs><style>.cls-1{fill:none;stroke:#000;stroke-miterlimit:10;}</style></defs><title>instagram</title><g id="Слой_2" data-name="Слой 2"><g id="Layer_1" data-name="Layer 1"><rect class="cls-1" x="0.5" y="0.5" width="7.71" height="7.71" rx="1.98"/><path class="cls-1" d="M4.36,6h0A1.63,1.63,0,0,1,2.73,4.36h0A1.63,1.63,0,0,1,4.36,2.73h0A1.63,1.63,0,0,1,6,4.36H6A1.63,1.63,0,0,1,4.36,6Z"/><path class="cls-1" d="M6.71,2.12a.07.07,0,0,1-.07.07.07.07,0,0,1-.08-.07A.07.07,0,0,1,6.64,2,.07.07,0,0,1,6.71,2.12Z"/></g></g></svg>