<svg xmlns="http://www.w3.org/2000/svg" viewBox="0 0 8.71 8.71"><title>instagram</title><path d="M6.23,8.71H2.48A2.48,2.48,0,0,1,0,6.23V2.48A2.48,2.48,0,0,1,2.48,0H6.23A2.48,2.48,0,0,1,8.71,2.48V6.23A2.48,2.48,0,0,1,6.23,8.71ZM2.48,1A1.48,1.48,0,0,0,1,2.48V6.23A1.48,1.48,0,0,0,2.48,7.71H6.23A1.48,1.48,0,0,0,7.71,6.23V2.48A1.48,1.48,0,0,0,6.23,1Z"/><path d="M4.36,6.48A2.13,2.13,0,1,1,6.48,4.35,2.14,2.14,0,0,1,4.36,6.48Zm0-3.25A1.13,1.13,0,1,0,5.48,4.35,1.13,1.13,0,0,0,4.36,3.23Z"/><path d="M6.64,2.69a.58.58,0,1,1,.57-.57A.58.58,0,0,1,6.64,2.69Z"/></svg>