<svg xmlns="http://www.w3.org/2000/svg" viewBox="0 0 23.52 23.49"><title>leaf</title><path d="M.5,23.49a.47.47,0,0,1-.35-.15.48.48,0,0,1,0-.7L22.64.15a.5.5,0,0,1,.71,0,.5.5,0,0,1,0,.7L.85,23.34A.47.47,0,0,1,.5,23.49Z"/><path d="M8.63,19a4,4,0,0,1-2.94-1.12A5.37,5.37,0,0,1,4.63,13a13.38,13.38,0,0,1,4-6.84,12,12,0,0,1,3.64-2.6.46.46,0,0,1,.48,0A.5.5,0,0,1,13,4v1.6A4.9,4.9,0,0,0,14,3a.51.51,0,0,1,.3-.46A38.29,38.29,0,0,1,22.94,0a.52.52,0,0,1,.44.16.49.49,0,0,1,.12.45c-.08.37-2.11,9.26-6.85,14C13.55,17.72,10.75,19,8.63,19ZM12,4.83a11.59,11.59,0,0,0-2.64,2,12.46,12.46,0,0,0-3.75,6.33,4.4,4.4,0,0,0,.79,3.93C8,18.7,11.54,18.31,16,13.91c3.76-3.76,5.8-10.54,6.39-12.77A38,38,0,0,0,15,3.34a7.68,7.68,0,0,1-2.14,4,.47.47,0,0,1-.54.11A.5.5,0,0,1,12,7Z"/><path d="M15.57,15.49a.5.5,0,0,1-.35-.15L13.1,13.22a.5.5,0,0,1,0-.71.51.51,0,0,1,.71,0l2.12,2.12a.51.51,0,0,1,0,.71A.51.51,0,0,1,15.57,15.49Z"/><path d="M17,14.07a.51.51,0,0,1-.36-.15L14.51,11.8a.5.5,0,0,1,0-.7.5.5,0,0,1,.71,0l2.12,2.12a.5.5,0,0,1-.35.85Z"/></svg>