<svg xmlns="http://www.w3.org/2000/svg" viewBox="0 0 1517.2 255.16"><title>redstone-logo</title><path d="M14.38,33.6H0V.75H12.78a18.5,18.5,0,0,1,5.76.8,8.2,8.2,0,0,1,3.64,2.16,8.48,8.48,0,0,1,2.21,5.74,6.71,6.71,0,0,1-2.49,5.73,8.53,8.53,0,0,1-1.17.82c-.22.11-.61.29-1.18.54a8.66,8.66,0,0,1,4.87,2.75,7.71,7.71,0,0,1,1.81,5.2,8.86,8.86,0,0,1-2.35,6.06Q21.15,33.61,14.38,33.6Zm-7-19.55h3.48a12,12,0,0,0,4.54-.65,2.79,2.79,0,0,0,1.48-2.85,2.94,2.94,0,0,0-1.37-2.89,10.8,10.8,0,0,0-4.6-.7H7.33Zm0,13.35h5a11.22,11.22,0,0,0,4.72-.77,3.08,3.08,0,0,0,1.58-3.06,3,3,0,0,0-1.67-3,14.39,14.39,0,0,0-5.33-.73H7.33Z" fill="#222835"/><path d="M72.24,29.07A16.89,16.89,0,0,1,60,33.93a16.87,16.87,0,0,1-12.26-4.86,16.2,16.2,0,0,1-5-12.1,16.22,16.22,0,0,1,5-12.11A16.87,16.87,0,0,1,60,0,16.89,16.89,0,0,1,72.24,4.86a16.25,16.25,0,0,1,5,12.11A16.23,16.23,0,0,1,72.24,29.07ZM69.75,17a10.76,10.76,0,0,0-2.82-7.5,9.31,9.31,0,0,0-13.87,0A10.76,10.76,0,0,0,50.24,17a10.65,10.65,0,0,0,2.82,7.47,9.35,9.35,0,0,0,13.87,0A10.65,10.65,0,0,0,69.75,17Z" fill="#222835"/><path d="M104.34,25.12a6.46,6.46,0,0,0,9.85,0A9.79,9.79,0,0,0,116,18.89V.75h7.33V19.13q0,7.14-4,11a15.24,15.24,0,0,1-20.23,0q-4-3.85-4-10.95V.75h7.34V18.89A9.67,9.67,0,0,0,104.34,25.12Z" fill="#222835"/><path d="M157.07,7.1V33.6h-7.33V7.1h-9.31V.75h25.95V7.1Z" fill="#222835"/><path d="M184,.75h7.33V33.6H184Z" fill="#222835"/><path d="M244.21,17a16.77,16.77,0,0,1-2.61,9.21,16.16,16.16,0,0,1-7,6.11,3.44,3.44,0,0,0,1.34,1.2,4,4,0,0,0,1.91.49,6.22,6.22,0,0,0,1.92-.3,5.45,5.45,0,0,0,1.51-.73A7,7,0,0,0,243,31l3.8,4.56a13.32,13.32,0,0,1-10.1,4.28,11.16,11.16,0,0,1-5.55-1.55A10.51,10.51,0,0,1,227,33.93a16.89,16.89,0,0,1-12.27-4.86,16.23,16.23,0,0,1-5-12.1,16.25,16.25,0,0,1,5-12.11,17.92,17.92,0,0,1,24.54,0A16.25,16.25,0,0,1,244.21,17Zm-7.47,0a10.76,10.76,0,0,0-2.82-7.5,9.31,9.31,0,0,0-13.87,0,10.76,10.76,0,0,0-2.82,7.5,10.65,10.65,0,0,0,2.82,7.47,9.35,9.35,0,0,0,13.87,0A10.65,10.65,0,0,0,236.74,17Z" fill="#222835"/><path d="M271.37,25.12a6,6,0,0,0,4.94,2.28,5.94,5.94,0,0,0,4.91-2.28A9.73,9.73,0,0,0,283,18.89V.75h7.33V19.13q0,7.14-3.95,11a15.24,15.24,0,0,1-20.23,0q-4-3.85-4-10.95V.75h7.33V18.89A9.67,9.67,0,0,0,271.37,25.12Z" fill="#222835"/><path d="M333.88.75V7.29H317.53v6.76h14.71V20.3H317.53v6.82H334.4V33.6H310.2V.75Z" fill="#222835"/><path d="M398.18.75h7.33V33.6h-7.33V20.68H385.11V33.6h-7.33V.75h7.33V14.48h13.07Z" fill="#222835"/><path d="M453.45,29.07a17.91,17.91,0,0,1-24.53,0,16.23,16.23,0,0,1-5-12.1,16.25,16.25,0,0,1,5-12.11,17.91,17.91,0,0,1,24.53,0,16.25,16.25,0,0,1,5,12.11A16.23,16.23,0,0,1,453.45,29.07ZM451,17a10.76,10.76,0,0,0-2.82-7.5,9.3,9.3,0,0,0-13.86,0,10.76,10.76,0,0,0-2.82,7.5,10.65,10.65,0,0,0,2.82,7.47,9.34,9.34,0,0,0,13.86,0A10.65,10.65,0,0,0,451,17Z" fill="#222835"/><path d="M489.88,7.1V33.6h-7.34V7.1h-9.3V.75h25.94V7.1Z" fill="#222835"/><path d="M540.45.75V7.29H524.09v6.76H538.8V20.3H524.09v6.82H541V33.6h-24.2V.75Z" fill="#222835"/><path d="M559.72,33.6V.75h7.33V27.07h14V33.6Z" fill="#222835"/><path d="M121,149.89q0,37.55-32.75,47.29l39.7,55.1H95.45l-36.23-51H25.6v51H0V100.65H56.4q34.71,0,49.68,11.72T121,149.89ZM87,171.37q7.8-6.72,7.81-21.58t-8-20.4q-8-5.52-28.63-5.53H25.6v54.23H57.48Q79.17,178.09,87,171.37Z" fill="#222835"/><path d="M324.33,100.65v24.08H243.41v40.13h72.67v22.78H243.41V228.2h83.52v24.08H217.82V100.65Z" fill="#222835"/><path d="M528.17,120.5q21.92,19.84,21.91,55.21t-21.26,56q-21.26,20.63-65.07,20.61H413.42V100.65h52.06Q506.27,100.65,528.17,120.5Zm-3.9,55.86q0-52.07-59.66-52.06H439V228.2h28.41q27.56,0,42.2-13.12T524.27,176.36Z" fill="#222835"/><path d="M678.7,120.61q-11.18,0-18.33,4.56t-7.16,13.77q0,9.23,7.16,14.1t30.47,10.52Q714.17,169.2,726,179.4t11.82,30q0,19.84-15,32.21T683.58,254q-35.58,0-63.13-24.51l16.06-19.31q23,20,47.72,20,12.36,0,19.63-5.32a16.64,16.64,0,0,0,7.27-14.1,15.84,15.84,0,0,0-6.84-13.67q-6.82-4.87-23.53-8.89a210.62,210.62,0,0,1-25.38-7.37A57,57,0,0,1,640,172q-13.46-10.2-13.45-31.24t15.29-32.43Q657.12,97,679.67,97a90.74,90.74,0,0,1,28.85,4.78,75.23,75.23,0,0,1,24.73,13.45l-13.66,19.3q-6.74-6.06-18.22-10A70.34,70.34,0,0,0,678.7,120.61Z" fill="#222835"/><path d="M880.31,124.08v128.2h-25.6V124.08h-46V100.65H926.3v23.43Z" fill="#222835"/><path d="M1113.72,232.7q-23,22.45-56.83,22.46t-56.84-22.46q-23-22.44-23-56t23-56q23-22.45,56.84-22.45t56.83,22.45q23,22.46,23,56T1113.72,232.7ZM1095,137.8q-15.51-16.05-38.07-16.05t-38.07,16.05q-15.51,16-15.51,38.94t15.51,38.94q15.5,16,38.07,16t38.07-16q15.51-16.05,15.51-38.94T1095,137.8Z" fill="#222835"/><path d="M1514.6,100.65v24.08h-80.92v40.13h72.67v22.78h-72.67V228.2h83.52v24.08H1408.09V100.65Z" fill="#222835"/><polygon points="1260.68 150.36 1222.23 100.92 1196.63 100.92 1196.63 252.55 1222.23 252.55 1222.23 141.92 1228.78 150.36 1260.68 150.36" fill="#222835"/><polygon points="1271.86 203.12 1310.3 252.55 1335.9 252.55 1335.9 100.92 1310.3 100.92 1310.3 211.56 1303.75 203.12 1271.86 203.12" fill="#222835"/></svg>