<svg xmlns="http://www.w3.org/2000/svg" viewBox="0 0 156.21 53.73"><title>splace-logo</title><path d="M0,17.31l2.1-2.5a9.12,9.12,0,0,0,6.27,2.58c2.16,0,3.52-1,3.52-2.55s-.8-2.19-4.49-3.07C3.18,10.78.79,9.53.79,5.82.79,2.41,3.63.06,7.58.06a11,11,0,0,1,7.2,2.49L12.91,5.19a9.06,9.06,0,0,0-5.39-2c-2,0-3.24,1.05-3.24,2.41,0,1.53.91,2.21,4.71,3.12,4.2,1,6.39,2.53,6.39,5.87,0,3.72-2.92,5.93-7.1,5.93A12.26,12.26,0,0,1,0,17.31Z" fill="#4a4d55"/><path d="M28,.34H42.73V3.46H31.49V8.62h10v3.13h-10v5.33H42.87V20.2H28Z" fill="#4a4d55"/><path d="M54.64,10.27A10,10,0,0,1,64.88,0a10.39,10.39,0,0,1,7.78,3.09L70.42,5.67a7.91,7.91,0,0,0-5.56-2.46c-3.81,0-6.56,3.12-6.56,7.06s2.75,7.07,6.56,7.07c2.44,0,4-1,5.7-2.59L72.8,17a10.24,10.24,0,0,1-8.06,3.52A10,10,0,0,1,54.64,10.27Z" fill="#4a4d55"/><path d="M114,.34h14.73V3.46H117.48V8.62h10v3.13h-10v5.33h11.38V20.2H114Z" fill="#4a4d55"/><path d="M146.39,3.57h-6.3V.34h16.12V3.57h-6.3V20.2h-3.52Z" fill="#4a4d55"/><path d="M14.77,33.19H22.6c4.62,0,7.54,2.64,7.54,6.69,0,4.46-3.57,6.79-7.94,6.79H18.26v6.38H14.77Zm7.54,10.33c2.64,0,4.29-1.48,4.29-3.61,0-2.32-1.68-3.54-4.29-3.54h-4v7.15Z" fill="#4a4d55"/><path d="M42.23,33.19h3.49V49.87H56.16v3.18H42.23Z" fill="#4a4d55"/><path d="M97.13,43.12a10,10,0,0,1,10.24-10.27,10.36,10.36,0,0,1,7.77,3.09l-2.24,2.58a7.92,7.92,0,0,0-5.56-2.47c-3.8,0-6.55,3.13-6.55,7.07s2.75,7.06,6.55,7.06c2.44,0,4-1,5.7-2.58l2.25,2.27a10.27,10.27,0,0,1-8.06,3.52A10,10,0,0,1,97.13,43.12Z" fill="#4a4d55"/><path d="M127.46,33.19h14.72v3.12H131v5.16h10v3.12H131v5.34h11.37v3.12H127.46Z" fill="#4a4d55"/><path d="M97.36,14.14a15.09,15.09,0,0,0-1-1.43l.07,0a6,6,0,0,0,4.74-6c0-3.83-2.72-6.33-7.38-6.33H85V20.2h3.49V13.28h3c1.72,0,2.21,1.19,3.11,2.62,1.16,1.82,2.73,4.31,7,4.31V16.92C99.13,16.92,98.43,15.81,97.36,14.14ZM88.46,3.52h5.08c2.58,0,4.11,1.16,4.11,3.29s-1.59,3.38-4.08,3.38H88.46Z" fill="#4a4d55"/><path d="M79.11,33.73H75.77l-8.6,20h3.58l1.45-4H82.65l1.37,4H87.7Zm-4.39,13L77,41.48a2,2,0,0,1-1.39-1.92,1.9,1.9,0,0,1,1.88-1.9,1.87,1.87,0,0,1,1.88,1.87,2.06,2.06,0,0,1-1.4,2l2.24,5.24Z" fill="#4a4d55"/></svg>