<svg xmlns="http://www.w3.org/2000/svg" viewBox="0 0 19 24"><title>spray</title><path d="M7.5,24H.5a.5.5,0,0,1-.5-.5v-13A.5.5,0,0,1,.5,10h7a.5.5,0,0,1,.5.5v13A.5.5,0,0,1,7.5,24ZM1,23H7V11H1Z"/><path d="M5.5,7h-3A.5.5,0,0,1,2,6.5v-2A.5.5,0,0,1,2.5,4h3a.5.5,0,0,1,.5.5v2A.5.5,0,0,1,5.5,7ZM3,6H5V5H3Z"/><path d="M6.5,11h-5a.52.52,0,0,1-.43-.24.51.51,0,0,1,0-.48l1-2A.51.51,0,0,1,2.5,8h3A.51.51,0,0,1,6,8.28l1,2a.51.51,0,0,1,0,.48A.52.52,0,0,1,6.5,11ZM2.31,10H5.69l-.5-1H2.81Z"/><path d="M4,9a.5.5,0,0,1-.5-.5v-2a.5.5,0,0,1,1,0v2A.5.5,0,0,1,4,9Z"/><path d="M12.5,6h-3a.5.5,0,0,1,0-1h3a.5.5,0,0,1,0,1Z"/><path d="M12,9a.45.45,0,0,1-.16,0l-3-1A.5.5,0,0,1,9.16,7l3,1A.5.5,0,0,1,12,9Z"/><path d="M9,4a.5.5,0,0,1-.16-1l3-1a.5.5,0,1,1,.32.94l-3,1A.45.45,0,0,1,9,4Z"/><path d="M14.5,11a.5.5,0,0,1,0-1A1.79,1.79,0,0,0,16,9.28a1.1,1.1,0,0,0,0-1.07.46.46,0,0,1,0-.44.48.48,0,0,1,.36-.26A1.88,1.88,0,0,0,18,5.5a2,2,0,0,0-1.6-2,.52.52,0,0,1-.33-.23.51.51,0,0,1-.05-.4,1.4,1.4,0,0,0-.22-1.22A1.63,1.63,0,0,0,14.5,1,.5.5,0,0,1,14,.5a.5.5,0,0,1,.5-.5,2.65,2.65,0,0,1,2.1,1,2.38,2.38,0,0,1,.47,1.6A3,3,0,0,1,19,5.5a2.92,2.92,0,0,1-1.86,2.85,2,2,0,0,1-.29,1.47A2.75,2.75,0,0,1,14.5,11Z"/></svg>