<svg xmlns="http://www.w3.org/2000/svg" viewBox="0 0 24 24"><title>support</title><path d="M15.5,24H3.5a.5.5,0,0,1-.5-.5V6.5A.5.5,0,0,1,3.5,6h12a.5.5,0,0,1,.5.5v17A.5.5,0,0,1,15.5,24ZM4,23H15V7H4Z"/><path d="M3.5,17H.5a.5.5,0,0,1-.5-.5V3.5A3.5,3.5,0,1,1,3.5,7,.5.5,0,0,1,3,6.5v-2A.5.5,0,0,1,3.5,4H6a2.73,2.73,0,0,0,0-.5,2.5,2.5,0,0,0-5,0V16H3.5a.5.5,0,0,1,0,1ZM4,5V6A2.48,2.48,0,0,0,5.5,5Z"/><path d="M15.5,7a.5.5,0,0,1,0-1,2.5,2.5,0,0,0,0-5H3.5A.5.5,0,0,1,3,.5.5.5,0,0,1,3.5,0h12a3.5,3.5,0,0,1,0,7Z"/><path d="M13.5,11h-4a.5.5,0,0,1,0-1h4a.5.5,0,0,1,0,1Z"/><path d="M13.5,15h-4a.5.5,0,0,1,0-1h4a.5.5,0,0,1,0,1Z"/><path d="M13.5,19h-4a.5.5,0,0,1,0-1h4a.5.5,0,0,1,0,1Z"/><path d="M6,11a.47.47,0,0,1-.35-.15l-.5-.5a.49.49,0,0,1,.7-.7L6,9.79,7.65,8.15a.49.49,0,0,1,.7.7l-2,2A.47.47,0,0,1,6,11Z"/><path d="M6,15a.47.47,0,0,1-.35-.15l-.5-.5a.49.49,0,0,1,.7-.7l.15.14,1.65-1.64a.49.49,0,0,1,.7.7l-2,2A.47.47,0,0,1,6,15Z"/><path d="M22,24a2,2,0,0,1-2-2V7.5a2,2,0,0,1,4,0V22A2,2,0,0,1,22,24ZM22,6.5a1,1,0,0,0-1,1V22a1,1,0,0,0,2,0V7.5A1,1,0,0,0,22,6.5Z"/><path d="M23.5,22h-3a.5.5,0,0,1,0-1h3a.5.5,0,0,1,0,1Z"/><path d="M23.5,15h-3a.5.5,0,0,1,0-1h3a.5.5,0,0,1,0,1Z"/><path d="M18.5,16.5A.5.5,0,0,1,18,16V8.5a2,2,0,0,1,2-2h.5a.5.5,0,0,1,0,1H20a1,1,0,0,0-1,1V16A.5.5,0,0,1,18.5,16.5Z"/></svg>