<svg xmlns="http://www.w3.org/2000/svg" viewBox="0 0 24 21"><title>tresure-map</title><path d="M17.5,21l-.13,0L12,19.52,6.63,21a.43.43,0,0,1-.25,0l-6-1.5A.52.52,0,0,1,0,19L1,.47A.49.49,0,0,1,1.21.09.52.52,0,0,1,1.63,0L7,1.48,11.86,0a.45.45,0,0,1,.28,0L17,1.48,22.37,0a.51.51,0,0,1,.42.07A.52.52,0,0,1,23,.47L24,19a.52.52,0,0,1-.38.52l-6,1.5ZM12,18.5l.13,0L17.51,20,23,18.62,22,1.15l-4.9,1.33a.42.42,0,0,1-.27,0L12,1,7.14,2.48a.42.42,0,0,1-.27,0L2,1.15,1,18.62,6.49,20l5.38-1.46Z"/><path d="M19,8a.47.47,0,0,1-.35-.15l-2-2a.49.49,0,0,1,.7-.7l2,2a.48.48,0,0,1,0,.7A.47.47,0,0,1,19,8Z"/><path d="M17,8a.47.47,0,0,1-.35-.15.48.48,0,0,1,0-.7l2-2a.49.49,0,1,1,.7.7l-2,2A.47.47,0,0,1,17,8Z"/><path d="M4.5,15a.47.47,0,0,1-.35-.15.48.48,0,0,1,0-.7l.5-.5a.49.49,0,0,1,.7.7l-.5.5A.47.47,0,0,1,4.5,15Z"/><path d="M7.5,12a.47.47,0,0,1-.35-.15.48.48,0,0,1,0-.7l.5-.5a.49.49,0,0,1,.7.7l-.5.5A.47.47,0,0,1,7.5,12Z"/><path d="M18.5,10.5A.5.5,0,0,1,18,10V9a.5.5,0,0,1,1,0v1A.5.5,0,0,1,18.5,10.5Z"/><path d="M14.5,12.5a.47.47,0,0,1-.35-.15l-.5-.5a.49.49,0,0,1,.7-.7l.5.5a.48.48,0,0,1,0,.7A.47.47,0,0,1,14.5,12.5Z"/><path d="M12,10H11a.5.5,0,0,1,0-1h1a.5.5,0,0,1,0,1Z"/><path d="M17.5,13.5a.47.47,0,0,1-.35-.15.48.48,0,0,1,0-.7l.5-.5a.49.49,0,1,1,.7.7l-.5.5A.47.47,0,0,1,17.5,13.5Z"/></svg>