<svg xmlns="http://www.w3.org/2000/svg" viewBox="0 0 156.75 111.07"><title>venezia-logo</title><path d="M156.73,77.86c-.21-.94-2.6-1.82-3-1.87s-1-1-1.87-1.77-5.46-1.66-7.17-1.66c-7.85-2.4-12.59-6.45-14.82-9.36S117,45.89,113.42,42a15.25,15.25,0,0,0-9.1-4.58c-.47,0-.67-.52-3.48-1.61C91.27,32.52,89.09,35,87.06,36a13.41,13.41,0,0,1-5.72,1c-.93,0-.15-.63,0-1.15s.73-2,1.72-2.18.68-2.76,1.4-2.81.83-.78,1.09-2.08c7.86-.2,14.87-5.72,14.87-5.72l.89-1c.47-.52,1.56-1.88,1.66-2s.16-1.14.68-1.66a6.21,6.21,0,0,0,1.4-2.55,14.09,14.09,0,0,1,1.2-3c.72-1.71,0-3.27-.37-3.32s-.26-.16-1.19-.83-2.24.1-4.21,1.76a12,12,0,0,1-4,2.07A2.38,2.38,0,0,1,96,14.3c-.78.94-1.35,1.43-1.37,1.8s-1.09,2.34-5,3.84C92,18.62,94,17.19,94.13,16.15s.08-1,.31-1.3a5.78,5.78,0,0,0,1.25-2.11c0-.15,0-.55-.15-1.69,2.75-2.49,1-3.79,1.4-5.2s-1.09-2.44-1.09-2.44A4,4,0,0,0,95,.71C94-.12,94,.4,93.61.24s-1.4-.78-2.91.93c-2.81,3.44-9.67,5.52-12.63,6s-8.89,0-14.87,2.23-5.62,7.33-5.3,7.75.15.62.41,1.19,3.69,2.24,4.32,6.24a10.06,10.06,0,0,1-.58,5l.05.14s-1.35,3.43-3.47,4.87a17.57,17.57,0,0,0,1.87-2.9,19.76,19.76,0,0,1-2.08-1.94,25.55,25.55,0,0,1-1.56-2.6c-.42-.73-.94-.94-1-1.4A7.9,7.9,0,0,0,54.21,23c-.42-.21-.58-1.25-1-2.34s-1.46-1.35-1.72-2.23A2.48,2.48,0,0,0,50,16.77c-.62-.26-.88-1.61-1.45-2.7a4.54,4.54,0,0,0-2.7-1.93c-.94-.31-1.72.11-2.29-.26a3.94,3.94,0,0,0-2.71-.41c-1.35.15-1.45.52-2,1.66-.68,0-.94.78-1.82,1.87a1.51,1.51,0,0,0-1.51.94.82.82,0,0,1-1,.52c-.52-.16-.47.42-.62,1a1.69,1.69,0,0,0,.26,1.25c.1.26-1,.67-1.87,1s-1.56,1.51-1.77,1.77.15.94,0,1.4,0,.21.21.94a2.19,2.19,0,0,0,.83,1.14,6.27,6.27,0,0,1,.52,1.15c0,.31,0,.31-.11.83s.06.36.42.83,1.46.57,1.72.78A12.66,12.66,0,0,0,36,30.29c.67.36.52,1,.36,1.51a15.43,15.43,0,0,0-.1,2.6c0,.36.05.78.05,1.24a8.49,8.49,0,0,1-1.09,2.14c-.31.57,0,.62.31.93a1.47,1.47,0,0,1-.26,1.72,1.51,1.51,0,0,0-.52,1.3,6.46,6.46,0,0,1,0,1.55,9.12,9.12,0,0,0,.42,2.55,2.62,2.62,0,0,1,.31,1.72c-.05,1.4.94,3.64,3.9,7.07-.21.42-3.69,5.63-4.37,6.1s-4.38,5.86-4.54,5.86-.52.36-1.25,1.24-1.92.84-3.32.52a2.59,2.59,0,0,0-2.6.94c-.63.52-1.77,1.2-2.08,2a.9.9,0,0,0,.15.88H15.77l5.4,4.58h89.11l5.51-4.58h-8.24c.17-.4.36-.8.52-1.09A3.85,3.85,0,0,0,108,68a10.83,10.83,0,0,1-.73-3.9,22.62,22.62,0,0,1,.89-6.24c.36-1.45-2.6-5.72-2.81-6s1.09-1.76,1.46-4.73a6,6,0,0,0-1-4.52,12.36,12.36,0,0,1,2.29.67c4.21,2.59,9,7.91,16.42,17.63A40.87,40.87,0,0,0,141.23,74c.73.42,2,.57,3,1.67,5.56,4.21,7,2.75,9.36,2.49s2.08,1.66,2.08,1.66S156.94,78.79,156.73,77.86ZM32.49,25.78s-.07-.56.25-.76a5.23,5.23,0,0,1,.89-.32,2,2,0,0,1,1.06.08,2.29,2.29,0,0,1,.36.58A4.52,4.52,0,0,1,32.49,25.78ZM99.94,65.9c.16-.24.29-.42.4-.56a34,34,0,0,0-.83-5.9,32,32,0,0,1,1.4,5.63,1.31,1.31,0,0,1,.5,1.63,8.14,8.14,0,0,1-.59,1.82,2.3,2.3,0,0,1-.59.52A10,10,0,0,1,98,68.92c-.59-.06-.72-.28-.73-.44S99.51,66.54,99.94,65.9Zm-61.5,6.29c.1-.26.52-.36.78-.47a5.49,5.49,0,0,0,.88-.62,5,5,0,0,0,.83-.31,5.09,5.09,0,0,1,1.51-.89c.57-.1.73-.52.88-.88s.31,0,.83-.16a1.9,1.9,0,0,0,.89-.72,3,3,0,0,1,.86-.32c.26,0,1.2-.78,1.56-.93s2.5-3.81,3.18-3.81,2.58-1.34,4-3.78c14.66.1,35.56-4.94,36-4.94s1,.68,1.56,1.35,2.34,2,3,2.81.36,1.56-.42,2.65a53.38,53.38,0,0,1-4.83,6,23.42,23.42,0,0,0-3.1,3c-1,1.15-.7-.76-3,1.09a1.52,1.52,0,0,0-.53.92Z" fill="#fff"/><path d="M4.82,103.71c-.33-.14-.66-.3-1-.48a4.8,4.8,0,0,1-1.18-1,8.08,8.08,0,0,1-1.26-1.88A13.55,13.55,0,0,1,0,94.07a11.57,11.57,0,0,1,2-6.73,7.08,7.08,0,0,1,2.85-2.53,4.16,4.16,0,0,1,1.66-.35,3.47,3.47,0,0,1,1.52.32,3.71,3.71,0,0,1,1.08.76,3.06,3.06,0,0,1,.62.89,2.16,2.16,0,0,1-.13,2,5.15,5.15,0,0,1-.8,1.07,11.36,11.36,0,0,1-1,.93,8.34,8.34,0,0,0-1,.9,9,9,0,0,0-1,3.93,4.11,4.11,0,0,0,1,3,2,2,0,0,0,.73.48Q9.2,98.3,12.15,95c1.46-1.75,2.5-3,3.11-3.85L16.79,89a11.58,11.58,0,0,1,4.47-4.18A3.87,3.87,0,0,1,23,84.42a4,4,0,0,1,1.29.2,2.29,2.29,0,0,1,.79.48,1.87,1.87,0,0,1,.6,1.36A3.71,3.71,0,0,1,24.68,89q-2.85,3.12-4.34,4.64l-2.82,2.75L14.94,98.7q-6,5.22-8.27,5.22A5.44,5.44,0,0,1,4.82,103.71Z" fill="#fff"/><path d="M41,92.91c.43,0,.65.24.65.73a3.14,3.14,0,0,1-.33,1.23,5,5,0,0,1-1,1.38c-.42.43-.89.88-1.43,1.34S37.74,98.53,37,99s-1.51,1-2.37,1.5a21.51,21.51,0,0,1-2.77,1.34,16.47,16.47,0,0,1-6.28,1.34A6.92,6.92,0,0,1,21.55,102a3.67,3.67,0,0,1-1.82-3.07q0-2.84,3.05-5.38a19.06,19.06,0,0,1,6.2-3.4,11.82,11.82,0,0,1,3.67-.74,3.46,3.46,0,0,1,2.06.6,2.05,2.05,0,0,1,.9,1.75q0,1.73-2.73,3.81-.43.35-.78.57l-.49.33a24,24,0,0,1-4.12,2.12,3.41,3.41,0,0,0,1.59.45,4.93,4.93,0,0,0,1.33-.17,11.71,11.71,0,0,0,1.33-.51c.5-.21,1-.47,1.6-.78s1.13-.63,1.71-1a25,25,0,0,0,3.36-2.47,5.41,5.41,0,0,1,1.9-1.1A2.32,2.32,0,0,1,41,92.91ZM26,96.72l.75-.38.65-.35a28.91,28.91,0,0,0,3.12-1.94c.25-.25.38-.42.38-.51a.78.78,0,0,0-.09-.33,1.08,1.08,0,0,0-.21-.34.94.94,0,0,0-.69-.38,2.73,2.73,0,0,0-.81.13,5.17,5.17,0,0,0-.89.38,5.34,5.34,0,0,0-.86.57,4.41,4.41,0,0,0-.72.71,2.48,2.48,0,0,0-.72,1.48A4,4,0,0,0,26,96.72Z" fill="#fff"/><path d="M53.45,95.59c0,.83.24,1.24.72,1.24,1.18,0,2.7-.8,4.58-2.39l.37-.31a3.52,3.52,0,0,1,1.78-.73c.46,0,.75.06.87.2a1,1,0,0,1,.18.65,3.31,3.31,0,0,1-1,2.13,17,17,0,0,1-4.17,3.5,10.63,10.63,0,0,1-5.49,1.92,2.07,2.07,0,0,1-2.13-1.88A6.94,6.94,0,0,1,49,99a2.76,2.76,0,0,0-.29-1.2c-.1-.08-.29-.08-.59,0a5.89,5.89,0,0,0-1,.47c-.4.22-.85.49-1.34.81q-3.87,2.58-4.46,2.94a4.91,4.91,0,0,1-1.88.87,2.46,2.46,0,0,1-1-.2,3.27,3.27,0,0,1-.82-.52,2,2,0,0,1-.73-1.41,14.1,14.1,0,0,1,1.79-7.19,6.61,6.61,0,0,1,2.93-2.87,4.36,4.36,0,0,1,1.9-.42c1.23,0,1.85.41,1.85,1.22a6.3,6.3,0,0,1-.88,2.44l-.4.8a4.41,4.41,0,0,0-.43.94c.06.27.18.4.37.4a1.78,1.78,0,0,0,.92-.46l2.5-1.86,1.25-.86a7,7,0,0,1,3.17-1.41,1.39,1.39,0,0,1,1,.43,2.13,2.13,0,0,1,.83,1.37,4.53,4.53,0,0,1,0,.46c0,.18,0,.37-.07.58l-.06.64C53.47,95.19,53.45,95.4,53.45,95.59Z" fill="#fff"/><path d="M77.87,92.91c.43,0,.65.24.65.73a3.14,3.14,0,0,1-.33,1.23,4.78,4.78,0,0,1-1,1.38,19.08,19.08,0,0,1-1.43,1.34c-.53.46-1.16.94-1.88,1.45s-1.51,1-2.38,1.5a21.51,21.51,0,0,1-2.77,1.34,16.43,16.43,0,0,1-6.27,1.34A7,7,0,0,1,58.44,102a3.67,3.67,0,0,1-1.82-3.07q0-2.84,3.06-5.38a19,19,0,0,1,6.19-3.4,11.87,11.87,0,0,1,3.68-.74,3.46,3.46,0,0,1,2.06.6,2.07,2.07,0,0,1,.89,1.75q0,1.73-2.72,3.81a8.85,8.85,0,0,1-.79.57l-.49.33a23.66,23.66,0,0,1-4.12,2.12,3.44,3.44,0,0,0,1.59.45,4.88,4.88,0,0,0,1.33-.17,11.79,11.79,0,0,0,1.34-.51c.49-.21,1-.47,1.59-.78s1.14-.63,1.72-1a25.69,25.69,0,0,0,3.36-2.47,5.41,5.41,0,0,1,1.9-1.1A2.2,2.2,0,0,1,77.87,92.91Zm-15,3.81.74-.38.65-.35a26.75,26.75,0,0,0,3.12-1.94c.25-.25.38-.42.38-.51a.93.93,0,0,0-.08-.33,1.11,1.11,0,0,0-.22-.34.92.92,0,0,0-.69-.38,2.83,2.83,0,0,0-.81.13,4.78,4.78,0,0,0-.88.38,5.91,5.91,0,0,0-.87.57,5.38,5.38,0,0,0-.72.71,2.48,2.48,0,0,0-.72,1.48A3.47,3.47,0,0,0,62.92,96.72Zm1-10.25c-.31,0-.47-.19-.47-.56a2.2,2.2,0,0,1,.3-1.07,3,3,0,0,1,.58-.77,3.92,3.92,0,0,1,.58-.39,2.61,2.61,0,0,1,1.2-.36H74a.58.58,0,0,1,.4.16.51.51,0,0,1,.19.43,2.23,2.23,0,0,1-.36,1.14,4.05,4.05,0,0,1-.85,1,1.6,1.6,0,0,1-1,.41Z" fill="#fff"/><path d="M94.55,94.13c0,.43-.56,1.25-1.67,2.47a21.53,21.53,0,0,1-3.35,3,18.48,18.48,0,0,1-7,3.23,12.7,12.7,0,0,1-2.78.34,8.79,8.79,0,0,1-2.17-.23,7.15,7.15,0,0,1-1.54-.59,5.5,5.5,0,0,1-2-1.9,3.72,3.72,0,0,1-.66-2A5.72,5.72,0,0,1,73.51,97a6.11,6.11,0,0,1,.55-1.29c.82-1.48,2.48-2.79,5-3.93A21,21,0,0,1,84.64,90a13.57,13.57,0,0,1,1.64-.17,2.78,2.78,0,0,1,.82.1,1.9,1.9,0,0,1,.57.28,1.24,1.24,0,0,1,.55,1.07,2.46,2.46,0,0,1-.36,1.28,3.33,3.33,0,0,1-.89,1,3.9,3.9,0,0,1-2.36.79,7.92,7.92,0,0,1-2.93-.47,2.84,2.84,0,0,0-1.35,1A2,2,0,0,0,79.86,96a2.19,2.19,0,0,0,.23,1,2.65,2.65,0,0,0,.63.83,3.1,3.1,0,0,0,2.15.79c2,0,4.23-1,6.83-3.11l1.23-1A6,6,0,0,1,93.72,93C94.27,93,94.55,93.4,94.55,94.13Z" fill="#fff"/><path d="M99.76,102.12a14.11,14.11,0,0,1-2,.86,6.21,6.21,0,0,1-1.92.31,4.76,4.76,0,0,1-2-.45,6.47,6.47,0,0,1-1.8-1.21,5.18,5.18,0,0,1-1.75-3.77A7.68,7.68,0,0,1,91.47,94a10,10,0,0,1,2.66-3,5.07,5.07,0,0,1,3-1.21c1.32,0,2,.37,2.12,1.11a6.21,6.21,0,0,1,0,.79,3,3,0,0,1-.21,1,7,7,0,0,1-.54,1.15c-.22.39-.47.76-.73,1.13s-.52.7-.77,1a13.28,13.28,0,0,1-1.12,1.23c0,.31.23.63.69,1a2,2,0,0,0,1.1.46,3.14,3.14,0,0,0,1.07-.22,7.5,7.5,0,0,0,1.28-.58,14.59,14.59,0,0,0,1.34-.84c.46-.32.91-.64,1.35-1l2.48-1.94a4.61,4.61,0,0,1,2.4-1.07.65.65,0,0,1,.56.27,1,1,0,0,1,.2.62,2.28,2.28,0,0,1-.35,1,10.75,10.75,0,0,1-1,1.36c-.41.5-.9,1-1.45,1.56s-1.14,1.07-1.78,1.6-1.31,1-2,1.5A19.74,19.74,0,0,1,99.76,102.12Zm3.41-14.93a3.35,3.35,0,0,1-.85.55,2.46,2.46,0,0,1-1,.21,3.39,3.39,0,0,1-1.1-.19,3.08,3.08,0,0,1-.92-.53,2.36,2.36,0,0,1-.86-1.87c0-1.17,1-2,2.93-2.61a5.91,5.91,0,0,1,1.63-.3,2.4,2.4,0,0,1,1,.15,1.53,1.53,0,0,1,.52.37,1.43,1.43,0,0,1,.41.94,3.07,3.07,0,0,1-.12.88,5.31,5.31,0,0,1-.33.81,6.49,6.49,0,0,1-.53.84A4.6,4.6,0,0,1,103.17,87.19Z" fill="#fff"/><path d="M104,101.64a24.57,24.57,0,0,0,1.49-3.29l.87-2.34a2.88,2.88,0,0,0,.16-.82,1.15,1.15,0,0,0-.08-.48l-.19-.4a2.83,2.83,0,0,1-.26-1.16,1.91,1.91,0,0,1,.28-1,3.12,3.12,0,0,1,.73-.77,4.51,4.51,0,0,1,1-.58,7,7,0,0,1,1.17-.4,7.82,7.82,0,0,1,1.8-.31,2.17,2.17,0,0,1,.91.14,1.48,1.48,0,0,1,.44.34,1.31,1.31,0,0,1,.38.88,5.68,5.68,0,0,1-.16,1.16c-.1.46-.25,1-.43,1.53s-.41,1.15-.66,1.8l-.8,2c-.17.39-.37.83-.6,1.31l2.29-1.79L116,94.69c.42-.3.7-.5.82-.6a1.65,1.65,0,0,1,1-.38q.93,0,1.14.66c.16.57-.23,1.46-1.18,2.67a7.68,7.68,0,0,1-.89,1c-.29.26-.61.51-.94.77q-7.62,5.52-8.25,6c-.42.33-.75.59-1,.79a20.5,20.5,0,0,1-1.58,2.32,8.72,8.72,0,0,1-2.61,2.51,4.24,4.24,0,0,1-2.17.67,2.35,2.35,0,0,1-1.62-.52,1.73,1.73,0,0,1-.58-1.37,4.61,4.61,0,0,1,.29-1.62,7.45,7.45,0,0,1,.77-1.48,11,11,0,0,1,1.1-1.37c.4-.43.82-.83,1.25-1.21s.85-.72,1.27-1Zm10.45-14.47a3.93,3.93,0,0,1-.89.57,2.12,2.12,0,0,1-.94.22,2.81,2.81,0,0,1-1-.19,3.35,3.35,0,0,1-.94-.53,2.32,2.32,0,0,1-1-1.87q0-1.89,3.18-2.73a7.89,7.89,0,0,1,1.81-.31,2.09,2.09,0,0,1,.9.14,1.57,1.57,0,0,1,.46.34,1.19,1.19,0,0,1,.36.8,3.16,3.16,0,0,1-.14.88,5.13,5.13,0,0,1-.42.94,11,11,0,0,1-.63.94A6,6,0,0,1,114.41,87.17Z" fill="#fff"/><path d="M140.31,92.69c.29,0,.44.25.44.73,0,.85-.59,1.93-1.77,3.27l-.77.79a19.6,19.6,0,0,1-6.62,4.68c-1.28.48-2.2.45-2.76-.07a4.65,4.65,0,0,1-1.1-2.14l-.32-1.18-2.89,1.77-1.67.95a10.72,10.72,0,0,1-4.48,1.63,4,4,0,0,1-3.18-1.48A4.74,4.74,0,0,1,114,98.4a4.42,4.42,0,0,1,1.45-3.24A18.89,18.89,0,0,1,122,91.43a20.62,20.62,0,0,1,6.83-1.59.77.77,0,0,1,.88.87,1.42,1.42,0,0,1-.23.9,2.45,2.45,0,0,1-.95.61l-1.71.73a18,18,0,0,0-5.55,3.29,1.33,1.33,0,0,0-.51.93c0,.3.24.44.72.44a9.86,9.86,0,0,0,3.28-1.51l1.13-.67a9,9,0,0,1,4.38-1.57,1.93,1.93,0,0,1,2,1.31c.08.24.16.48.23.72s.14.45.22.64c.16.44.31.66.44.66a1.3,1.3,0,0,0,.56-.19,8.51,8.51,0,0,0,.81-.51c.29-.2.59-.42.91-.67L137,94.51C138.49,93.3,139.58,92.69,140.31,92.69Z" fill="#fff"/></svg>