<svg width="1182" height="192" viewBox="0 0 1182 192" fill="none" xmlns="http://www.w3.org/2000/svg"><path d="M91.249 188.607l15.869-47.788h29.188l7.085-22.904h-28.622l15.586-46.94h28.338l6.802-22.621h-27.488L154.443 0h-26.922l-15.869 48.353H85.014L100.884 0H74.246l-15.87 48.353h-28.62l-7.084 22.622h27.77l-15.302 46.94H7.368L0 140.819h27.205l-16.153 47.788H37.69l16.152-47.788h26.922l-16.436 47.788h26.92zm-3.117-70.692H61.776l15.303-46.94h26.637l-15.585 46.94zM251.689 192c45.341 0 72.545-32.801 72.545-71.823 0-38.74-27.204-71.54-72.545-71.54-45.058 0-72.262 32.8-72.262 71.54 0 39.022 27.204 71.823 72.262 71.823zm0-31.953c-22.387 0-34.856-18.38-34.856-39.87 0-21.208 12.469-39.588 34.856-39.588s35.139 18.38 35.139 39.588c0 21.49-12.752 39.87-35.139 39.87zm227.617 28.56V92.183c0-26.58-14.453-43.547-44.491-43.547-22.387 0-39.107 10.745-47.891 21.208V52.03h-35.99v136.577h35.99v-91.9c5.951-8.2 17.002-16.118 31.171-16.118 15.303 0 25.221 6.504 25.221 25.449v82.569h35.99zM579.368 192c21.254 0 42.791-6.504 56.393-18.946l-15.869-23.187c-8.785 8.484-24.938 13.573-36.557 13.573-23.237 0-37.123-14.421-39.39-31.67h101.734v-7.917c0-44.678-27.771-75.217-68.578-75.217-41.657 0-70.845 31.953-70.845 71.541 0 43.829 31.455 71.823 73.112 71.823zm31.455-84.548h-67.444c1.7-13.573 11.335-30.256 33.722-30.256 23.804 0 32.872 17.249 33.722 30.256zm96.841 81.155V0h-35.989v188.607h35.989zM806.828 192c45.341 0 72.545-32.801 72.545-71.823 0-38.74-27.204-71.54-72.545-71.54-45.058 0-72.262 32.8-72.262 71.54 0 39.022 27.204 71.823 72.262 71.823zm0-31.953c-22.387 0-34.856-18.38-34.856-39.87 0-21.208 12.469-39.588 34.856-39.588s35.139 18.38 35.139 39.588c0 21.49-12.752 39.87-35.139 39.87zm173.491 28.56L1035.3 52.03h-38.828l-35.706 95.01-35.706-95.01h-38.54l54.976 136.577h38.823zM1115.69 192c21.25 0 42.79-6.504 56.39-18.946l-15.87-23.187c-8.78 8.484-24.94 13.573-36.55 13.573-23.24 0-37.13-14.421-39.39-31.67H1182v-7.917c0-44.678-27.77-75.217-68.58-75.217-41.66 0-70.84 31.953-70.84 71.541 0 43.829 31.45 71.823 73.11 71.823zm31.45-84.548h-67.44c1.7-13.573 11.33-30.256 33.72-30.256 23.81 0 32.87 17.249 33.72 30.256z" fill="#fff"/></svg>