<svg xmlns="http://www.w3.org/2000/svg" xmlns:xlink="http://www.w3.org/1999/xlink" viewBox="0 0 1465.31 1428.34"><defs><mask id="a" x="0" y="0" width="1465.31" height="1262.46" maskUnits="userSpaceOnUse"><polygon points="988.6 0 1315.9 886.02 259.7 1262.46 34.69 546.25 988.6 0" fill="#fff"/></mask></defs><title>logo-nla</title><path d="M130.25,1352.13v75.25H114.41l-41.53-48.21v48.21H54.14v-75.25H71.33l40.17,46v-46Z" fill="#fff"/><path d="M206.57,1413.59v13.79H151.09v-75.25h54.73v13.79h-36v15.78h34.31v13.79H169.84v18.1Z" fill="#fff"/><path d="M305.71,1352.13l-29.43,36.25,32.66,39H284.63l-20.4-24.85-20,24.85H220.24l31.95-39L222,1352.13h24.32l17.92,22.21,17.65-22.21Z" fill="#fff"/><path d="M388.93,1352.13v13.79H361.67v61.46H342.93v-61.46H315.68v-13.79Z" fill="#fff"/><path d="M501.78,1413.59v13.79H444.41v-75.25h18.75v61.46Z" fill="#fff"/><path d="M572.89,1413.59v13.79H517.41v-75.25h54.73v13.79h-36v15.78h34.31v13.79H536.16v18.1Z" fill="#fff"/><path d="M663.68,1352.13l-34.78,76.21h-8.13l-36.45-76.21h20.41l19.91,43,18.85-43Z" fill="#fff"/><path d="M732.68,1413.59v13.79H677.2v-75.25h54.72v13.79H696v15.78h34.3v13.79H696v18.1Z" fill="#fff"/><path d="M808.09,1413.59v13.79H750.73v-75.25h18.74v61.46Z" fill="#fff"/><path d="M903.51,1352.13l33.42,75.25H916.78l-6.2-14.87h-33.7l-5.62,14.87H851.4l30.39-75.25Zm1.59,47.24-12.2-29.25-11,29.25Z" fill="#fff"/><path d="M1018.5,1357.36v16.42q-14.38-6.94-28.12-6.94-13.25,0-20.41,6.67a22.25,22.25,0,0,0-7.16,17,20.1,20.1,0,0,0,7.16,16q7.15,6.15,18.85,6.14a31.11,31.11,0,0,0,12.44-2.69v-8.78H990.38v-13.79h29.68v30.76q-4.47,4.47-13.6,7.3a61,61,0,0,1-18.07,2.82q-19.67,0-32.29-10.85a34.78,34.78,0,0,1-12.63-27.6q0-17.13,12.63-27.93t32.72-10.8Q1005.41,1351.16,1018.5,1357.36Z" fill="#fff"/><path d="M1098.18,1413.59v13.79h-55.47v-75.25h54.72v13.79h-36v15.78h34.31v13.79h-34.31v18.1Z" fill="#fff"/><path d="M1193.64,1352.13v75.25h-15.83l-41.53-48.21v48.21h-18.74v-75.25h17.19l40.17,46v-46Z" fill="#fff"/><path d="M1283.21,1404.43v16.43a62.28,62.28,0,0,1-29.57,7.48q-20,0-31.91-11.06a35.83,35.83,0,0,1-11.88-27.28q0-16.21,12.52-27.53t32.72-11.31q16.11,0,27.26,6.63v16.75q-13.69-7.71-25.91-7.7-12,0-19.63,6.43a20.52,20.52,0,0,0-7.62,16.4,20.94,20.94,0,0,0,7.51,16.54q7.52,6.51,19.25,6.51a40.84,40.84,0,0,0,11.21-1.53Q1272.55,1409.66,1283.21,1404.43Z" fill="#fff"/><path d="M1324.92,1427.38v-35.12l-29.68-40.13H1318l16.33,23.65,16.39-23.65h22.66l-29.68,40.16v35.09Z" fill="#fff"/><polygon points="988.6 0 1315.9 886.02 259.7 1262.46 34.69 546.25 988.6 0" fill="#a82438"/><g mask="url(#a)"><path d="M591.51,888.27a34.61,34.61,0,0,1-29.4-16.36L379,576.6V853.68a34.59,34.59,0,0,1-34.59,34.59H34.59a34.59,34.59,0,1,1,0-69.18H309.84V455.16a34.59,34.59,0,0,1,64-18.22L556.92,732.25V504.38c0-43.75,19.43-68.15,35.74-80.91,23.31-18.24,49.55-20.21,59.75-20.21a99,99,0,0,1,61.82,21.9c21,17.23,32.57,42.42,32.57,70.94V818.26H855.64L981.11,440.63a34.59,34.59,0,0,1,65.19-1.29l142.26,377.55h242.16a34.59,34.59,0,0,1,0,69.18h-266.1a34.58,34.58,0,0,1-32.36-22.39L1016,555.07,913.42,863.75a34.59,34.59,0,0,1-32.82,23.69H712.21a34.59,34.59,0,0,1-34.59-34.59V496.1c0-7.85-2.31-13.39-7.28-17.47a29.49,29.49,0,0,0-17.93-6.2c-4.65,0-11.91,1.45-17.12,5.52-9.2,7.2-9.2,21.67-9.2,26.43v349.3a34.57,34.57,0,0,1-34.58,34.59Z" fill="#fff"/></g></svg>