<svg xmlns="http://www.w3.org/2000/svg"><symbol id="icon_agrosyn-logo" viewBox="0 0 261.36 34.23"><path d="M16.15.65l4.25 32.93h-7.63l-.88-8.09H7.73l-1.25 8.09H0L5.6.65zm-4.82 19.84L10 5.83h-.1L8.56 20.49zm22.18-8.05V7.86c0-1.34-.41-2.59-2-2.59s-2 1.25-2 2.59v18.51c0 1.34.37 2.59 2 2.59s2-1.25 2-2.59V22H30.6v-5h10.59v16.6h-4.48l-.42-1.66c-1.67 1.9-4.53 2.31-6.66 2.31-5 0-7.87-2.08-7.87-9.62v-15c0-7.55 4.63-9.63 9.72-9.63 6.2 0 9.71 2.45 9.71 9v3.47zm168.92 0V7.86c0-1.34-.42-2.59-2-2.59s-2 1.25-2 2.59v18.51c0 1.34.37 2.59 2 2.59s2-1.25 2-2.59V22h-2.92v-5h10.6v16.6h-4.49l-.42-1.66c-1.66 1.9-4.53 2.31-6.66 2.31-5 0-7.86-2.08-7.86-9.62v-15c0-7.54 4.62-9.62 9.71-9.62 6.2 0 9.72 2.45 9.72 9v3.47zM85.15 9.62v15c0 7.54-4.63 9.62-9.72 9.62s-9.71-2.08-9.71-9.62v-15c0-7.54 4.62-9.62 9.71-9.62s9.72 2.08 9.72 9.62M73.4 7.86v18.51c0 1.34.41 2.59 2 2.59s2-1.25 2-2.59V7.86c0-1.34-.42-2.59-2-2.59s-2 1.25-2 2.59m-15.76 8.05v-.09c4.16-.69 5.87-3.38 5.87-7.49 0-6.94-4.35-7.68-11.66-7.68h-7.72v32.93h7.68v-15h1.25c1.38 0 2.77 1.16 2.77 3.47v11.53h7.68V22.11c0-4.72-2.31-6.2-5.87-6.2m-5.83-2.08V5.37c3.51 0 4 1.15 4 4.21s-.55 4.25-4 4.25M165.87.65v4.99h-8.24v7.22h7.96v5h-7.96v10.73h8.24v5h-15.92V.65h15.92zm16.31 15.26v-.09c4.16-.69 5.87-3.38 5.87-7.49 0-6.94-4.34-7.68-11.65-7.68h-7.73v32.93h7.68v-15h1.25c1.39 0 2.77 1.16 2.77 3.47v11.53h7.68V22.11c0-4.72-2.31-6.2-5.87-6.2m-5.83-2.08V5.37c3.52 0 4 1.15 4 4.21s-.55 4.25-4 4.25M91.92 32.61a12 12 0 005.71 1.26 12.32 12.32 0 005.37-1.09 6.25 6.25 0 003-2.69 12 12 0 00.79-5c0-3.13-.48-5.43-1.43-6.83s-3.33-3.23-7.05-5.44a6.26 6.26 0 01-2.45-2.06 5.39 5.39 0 01-.46-2.52 3.67 3.67 0 01.42-2 1.44 1.44 0 011.29-.7 1.25 1.25 0 011.14.54 4.77 4.77 0 01.33 2.24v2.24h7.51V9.42A14.33 14.33 0 00105.4 4a5.8 5.8 0 00-3-2.59 13.23 13.23 0 00-5.54-1 12.13 12.13 0 00-5.07 1 6.24 6.24 0 00-3 2.62 11.68 11.68 0 00-.94 5.38 11.5 11.5 0 00.66 4.19 7.05 7.05 0 001.66 2.55 38.66 38.66 0 004.15 3 24.14 24.14 0 014 3c.56.63.83 1.89.83 3.86A4 4 0 0198.7 28a1.53 1.53 0 01-1.39.74 1.42 1.42 0 01-1.31-.6 5.26 5.26 0 01-.36-2.44v-3.81h-7.51v2a16.6 16.6 0 00.73 5.58 6.17 6.17 0 003.06 3.18M118.91 1c-1.08 5-1.86 9.23-2.32 12.66l-.21 1.59-.12-1.6c-.16-2.19-.84-6.44-2-12.65h-7.4l5.88 20.56v11.63h7.49V21.55L126.32 1zm27.55 32.19V1.04h-6.73v15.51L134.7 1.04h-6.77v32.15h6.73V17.45l4.68 15.74h7.12zm66.87-32.15h8.11v32.15h-8.11zm25.8 18.51V13.7h-5.27V7.21h5.64V1.04h-13.76v32.15h14.32v-6.17h-6.2v-7.47h5.27zm7.32 13.06a12 12 0 005.71 1.26 12.27 12.27 0 005.34-1.09 6.25 6.25 0 003.06-2.69 12 12 0 00.8-5c0-3.13-.48-5.43-1.43-6.83s-3.34-3.23-7.06-5.44a6.42 6.42 0 01-2.45-2.06A5.58 5.58 0 01250 8.2a3.79 3.79 0 01.42-2 1.45 1.45 0 011.3-.7 1.27 1.27 0 011.14.54 4.81 4.81 0 01.32 2.24v2.24h7.52v-1.1a14.08 14.08 0 00-.78-5.42 5.76 5.76 0 00-3-2.59 13.2 13.2 0 00-5.54-1 12.09 12.09 0 00-5.06 1 6.31 6.31 0 00-3 2.62 11.71 11.71 0 00-.93 5.38 11.29 11.29 0 00.66 4.19 6.84 6.84 0 001.66 2.55 37.62 37.62 0 004.15 3 24.61 24.61 0 014 3c.56.63.83 1.89.83 3.86a3.92 3.92 0 01-.44 2.06 1.53 1.53 0 01-1.39.74 1.44 1.44 0 01-1.32-.6 5.3 5.3 0 01-.35-2.44v-3.88h-7.52v2a16.86 16.86 0 00.73 5.58 6.15 6.15 0 003.07 3.18"/></symbol><symbol id="icon_aizkulises_icon_1" viewBox="0 0 30.29 30.42"><g id="Слой_2"><g id="Layer_1"><path class="cls-1" d="M16.5 25.42l-4.5-3.5-4.5 3.5 1.5-5.5-4-3.5h5l2-5"/><path class="cls-2" d="M12.32 11.42l2 5h5l-4 3.5 1.5 5.5"/><path class="cls-1" d="M23.5 10.92v15a4 4 0 01-4 4h-15a4 4 0 01-4-4v-15a4 4 0 014-4h15"/><circle class="cls-3" cx="22.18" cy="7.95" r="1.32"/><path class="cls-3" d="M21.36 6.78l-3.6-3.59m9.28 9.27l-3.6-3.59"/><circle class="cls-3" cx="16.72" cy="2.15" r="1.65"/><circle class="cls-3" cx="28.14" cy="13.57" r="1.65"/></g></g></symbol><symbol id="icon_aizkulises_icon_2" viewBox="0 0 31.33 17.63"><g id="Слой_2"><g id="Layer_1"><path class="cls-1" d="M27.9 12.24H11.26V2.46H27.9v9.78z"/><path class="cls-1" d="M9.31 14.2V2A1.46 1.46 0 0110.77.5h17.62A1.46 1.46 0 0129.85 2v12.2m-7.85 0v1h-4.9v-1H8.33v2a1 1 0 001 1h20.52a1 1 0 001-1v-2z"/><rect class="cls-1" x=".5" y="6.37" width="5.87" height="10.76" rx="1.23"/><path class="cls-1" d="M.5 7.84h5.87M.5 14.2h5.87"/><path class="cls-2" d="M3.44 15.18a.49.49 0 100 1 .49.49 0 000-1z"/><path class="cls-3" d="M19.58 4.91l.8 1.61 1.78.25-1.29 1.25.3 1.77-1.59-.84-1.59.84.3-1.77L17 6.77l1.79-.25.79-1.61zM3.44 10.22l.21.44.49.07-.35.34.08.48-.43-.23-.44.23.08-.48-.35-.34.49-.07.22-.44z"/></g></g></symbol><symbol id="icon_aizkulises_icon_3" viewBox="0 0 24 24"><g id="Слой_2"><g id="Outline_Old_Icons"><path class="cls-1" d="M19.5 11v12.5H.5v-21h16"/><path class="cls-1" d="M13.65 11.77l-2.83 1.41 1.41-2.83L21.78.81a1 1 0 011.41 1.41zm6.72-9.55l1.41 1.42M3.42 6.29h4.91m-4.91 3h2.91m-2.91 7.75h10.83M2.92 19.46h2.5m2.25 0h1.16"/></g></g></symbol><symbol id="icon_aizkulises_icon_4" viewBox="0 0 22 24"><g id="Слой_2"><g id="Outline_Old_Icons"><path class="cls-1" d="M2.5 11v-.5a1 1 0 011-1h1a1 1 0 011 1v.5"/><path class="cls-2" d="M21.5 22a1.5 1.5 0 01-1.5 1.5H2A1.5 1.5 0 01.5 22v-9A1.5 1.5 0 012 11.5h6l2-2h6l2 2h2a1.5 1.5 0 011.5 1.5z"/><path class="cls-2" d="M2.5 11.5v-1a1 1 0 011-1h1a1 1 0 011 1v1"/><circle class="cls-2" cx="4" cy="15" r="1.5"/><circle class="cls-2" cx="13.5" cy="17" r="2.5"/><circle class="cls-2" cx="13.5" cy="17" r="4.5"/><path class="cls-2" d="M7.5.5h11v6h-11z"/><path class="cls-2" d="M9.5 2.5h7v2h-7zm-.5 4l1 3m7-3l-1 3"/></g></g></symbol><symbol id="icon_arbo-logo" viewBox="0 0 3385.42 866.26"><path d="M961 866.25a30 30 0 01-26-15L495.49 90 56 851.25a30 30 0 01-52-30L469.51 15a30 30 0 0152 0L987 821.25a30 30 0 01-26 45zm479.64 0a30 30 0 01-26.08-15.11l-222.43-389.21a30 30 0 0126-44.89c98.44 0 178.52-80.08 178.52-178.52S1316.62 60 1218.18 60H918.75a30 30 0 010-60h299.43a238.52 238.52 0 01168.66 407.18A236.92 236.92 0 011267 472.07l199.63 349.29a30 30 0 01-26 44.89zm639.2-1.77h-283.36a30 30 0 010-60h283.36c94.36 0 171.12-76.76 171.12-171.12s-76.76-171.12-171.12-171.12a30 30 0 010-60c94.36 0 171.12-76.76 171.12-171.12S2174.2 60 2079.84 60H1821v602.39a30 30 0 01-60 0V30a30 30 0 0130-30h288.8a231.12 231.12 0 01163.43 394.55 232.23 232.23 0 01-49.35 37.69 232 232 0 0149.35 37.7 231.12 231.12 0 01-163.43 394.54zm873.34 0A432.35 432.35 0 012784.92 34a432.35 432.35 0 01336.52 796.5 429.53 429.53 0 01-168.26 33.98zm0-804.48c-205.26 0-372.24 167-372.24 372.24s167 372.24 372.24 372.24 372.24-167 372.24-372.24S3158.43 60 2953.18 60z"/></symbol><symbol id="icon_arrow-long" viewBox="0 0 18.8 12.1"><path d="M12.7 12.1a.52.52 0 01-.35-.14.5.5 0 010-.71L17.4 6.1 12.15.85a.48.48 0 010-.7.48.48 0 01.7 0l6 5.95-5.79 5.9a.51.51 0 01-.36.1z"/><path d="M18.1 6.6H.5a.5.5 0 010-1h17.6a.5.5 0 010 1z"/></symbol><symbol id="icon_arrow-long2" viewBox="0 0 46.57 12.1"><path d="M40.38 12.1A.51.51 0 0140 12a.5.5 0 010-.7l5.14-5.14L39.9.85a.48.48 0 010-.7.5.5 0 01.71 0l6 6L40.73 12a.49.49 0 01-.35.1z"/><path d="M45.86 6.61H.5a.5.5 0 01-.5-.5.5.5 0 01.5-.5h45.36a.5.5 0 01.5.5.5.5 0 01-.5.5z"/></symbol><symbol id="icon_arrow" viewBox="0 0 12.1 14.65"><path d="M6 14.65L.15 8.81a.5.5 0 010-.71.5.5 0 01.7 0L6 13.24 11.25 8A.48.48 0 0112 8a.5.5 0 010 .71z"/><path d="M6 14.45a.5.5 0 01-.5-.5V.5A.5.5 0 016 0a.5.5 0 01.5.5V14a.51.51 0 01-.5.45z"/></symbol><symbol id="icon_behance-round" viewBox="0 0 13.25 13.25"><path d="M5.38 9.15H2.77v-5h2.62l.47.07a1.28 1.28 0 01.46.21.89.89 0 01.37.52 1.38 1.38 0 010 .78 1.11 1.11 0 01-.58.69h-.06.06a1.14 1.14 0 01.77.71 1.58 1.58 0 01.12.69 1.26 1.26 0 01-.52 1 1.87 1.87 0 01-.88.34zM3.88 6.9v1.38h1.2a2.2 2.2 0 00.36 0 .55.55 0 00.42-.42.77.77 0 000-.37.52.52 0 00-.23-.4.93.93 0 00-.56-.15H3.88zm0-1.9v1.14h1.27A.59.59 0 005.44 6a.49.49 0 00.24-.45.51.51 0 00-.39-.55 1.64 1.64 0 00-.38 0h-1zm5.25 4.15h-.6a1.62 1.62 0 01-1.17-.89 2.11 2.11 0 01-.14-1.56 1.71 1.71 0 011.15-1.29 1.88 1.88 0 01.91-.09 1.6 1.6 0 011 .52 2 2 0 01.47 1.06v.58H8.14a2.54 2.54 0 000 .29.67.67 0 00.31.48 1 1 0 001 0A.65.65 0 009.81 8h.9a1.92 1.92 0 01-.37.69 1.53 1.53 0 01-1 .5zm-1-2.32h1.64a1.26 1.26 0 00-.18-.49.59.59 0 00-.39-.26 1.71 1.71 0 00-.32 0 .75.75 0 00-.73.75zM2.77 9.14zM5.25 4.1zM8 4.92v-.56h2v.56z"/><path d="M6.63 13.25a6.63 6.63 0 116.62-6.62 6.63 6.63 0 01-6.62 6.62zM6.63 1a5.63 5.63 0 105.62 5.63A5.63 5.63 0 006.63 1z"/></symbol><symbol id="icon_behance" viewBox="0 0 47.2 29.74"><g id="Слой_2"><g id="Layer_1"><path d="M15.4 29.74h-.53a3.18 3.18 0 00-.43-.06H0V.06h14.24a2.63 2.63 0 00.39-.06h.59a1.66 1.66 0 00.21.06c.92.14 1.85.24 2.76.42a7.16 7.16 0 012.74 1.2 5.63 5.63 0 012.19 3.09 8.75 8.75 0 01.11 4.57 6.28 6.28 0 01-3.45 4.06l-.34.18.35.11a6.82 6.82 0 014.53 4.19 9.28 9.28 0 01.53 4.05 7.47 7.47 0 01-3 5.63 11.07 11.07 0 01-5.19 2zM6.56 16.49v8.15h7.02a9.48 9.48 0 002.12-.28 3.25 3.25 0 002.52-2.43 5.36 5.36 0 00.05-2.22 3.23 3.23 0 00-1.39-2.36 5.73 5.73 0 00-3.25-.86H6.56zm0-11.41v7H13a7 7 0 001-.08 4.23 4.23 0 001.72-.58 3.09 3.09 0 001.39-2.7 3 3 0 00-2.32-3.32 9.69 9.69 0 00-2.21-.27H6.86zm30.91 24.66H35.7l-.12-.06c-.55-.08-1.12-.12-1.66-.24A9.55 9.55 0 0127 24.22a12.7 12.7 0 01-.81-9.22A10.28 10.28 0 0133 7.68a11.41 11.41 0 015.38-.48 9.24 9.24 0 015.87 3.07 11.52 11.52 0 012.75 6.2l.18 1.17v2.24H31.61c.09.6.14 1.17.27 1.73a4 4 0 001.79 2.83 5.94 5.94 0 006.09.1 3.63 3.63 0 001.73-1.79.35.35 0 01.37-.25h4.92a11.5 11.5 0 01-2.2 4.09 9.18 9.18 0 01-5.7 2.92c-.47.13-.94.17-1.41.23zm-5.8-13.64h9.58a7.78 7.78 0 00-1.08-2.89 3.27 3.27 0 00-2.31-1.52 9.74 9.74 0 00-1.86-.12 4.51 4.51 0 00-4.33 4.53z"/><path d="M0 29.68h14.44a3.18 3.18 0 01.43.06H.26a1.38 1.38 0 01-.26-.06zM14.63 0a2.63 2.63 0 01-.39.06H0A1.31 1.31 0 01.27 0zm16.02 4.83V1.54h12v3.29z"/></g></g></symbol><symbol id="icon_bg-grid" viewBox="0 0 3637.98 2613.83"><path d="M1840 0h242l359.43 383.35-250.43 9.81zm87.28 403.48L2191 393.16l406.28 455.15-273.53 24.08zM1319.59 0h266.57l341.12 403.48-277.91 10.88z"/><path d="M1356.06 425.84l293.31-11.48 384.82 483.52-306.94 27zM744.29 0h295l316.73 425.84L1046 438zm-26.47 450.83L1046 438l355.26 515.6-346.86 30.53zM105 0h328.29l284.53 450.83-348.06 13.63zM0 478.93l369.76-14.47 314.82 552.23-395.12 34.78zm2597.24 369.38l258.84-22.78 483.5 515.66-266.51 40.19zm192.86 575.74l283-42.67 564.9 632.87-291.22 68.24zm-755.91-526.17l289.52-25.49 466.39 551.66-301 45.4zm134.07 619.95l320.83-48.38 546 686.07-334.29 78.34zm-767-564.23l326-28.7 441 592.93-342.67 51.67zm57.49 671.22l366.84-55.32 515.74 748.6-387.69 90.9zm-774.17-608.13l369.82-32.56 404.35 640.69-393.63 59.36z"/><path d="M641.63 1748l423.49-63.86 469.21 823-455 106.61z"/></symbol><symbol id="icon_case-devices" viewBox="0 0 31.33 17.63"><path d="M27.9 12.74H11.26a.5.5 0 01-.5-.5V2.46a.5.5 0 01.5-.5H27.9a.5.5 0 01.5.5v9.78a.5.5 0 01-.5.5zm-16.14-1H27.4V3H11.76z"/><path d="M29.85 14.7a.5.5 0 01-.5-.5V2a1 1 0 00-1-1H10.77a1 1 0 00-1 1v12.2a.5.5 0 01-.5.5.5.5 0 01-.5-.5V2a2 2 0 012-2h17.62a2 2 0 012 2v12.2a.5.5 0 01-.54.5z"/><path d="M29.85 17.63H9.31a1.47 1.47 0 01-1.48-1.47v-2a.5.5 0 01.5-.5h8.8a.5.5 0 01.5.5v.48h3.9v-.44a.5.5 0 01.5-.5h8.8a.5.5 0 01.5.5v2a1.47 1.47 0 01-1.48 1.43zm-21-2.93v1.46a.47.47 0 00.48.47h20.52a.47.47 0 00.48-.47V14.7h-7.8v.48a.51.51 0 01-.5.5h-4.9a.51.51 0 01-.5-.5v-.48zm-3.71 2.93H1.73A1.73 1.73 0 010 15.91V7.6a1.74 1.74 0 011.73-1.73h3.41A1.73 1.73 0 016.87 7.6v8.31a1.72 1.72 0 01-1.73 1.72zM1.73 6.87A.73.73 0 001 7.6v8.31a.73.73 0 00.73.72h3.41a.73.73 0 00.73-.72V7.6a.73.73 0 00-.73-.73z"/><path d="M6.37 8.34H.5a.5.5 0 01-.5-.5.5.5 0 01.5-.5h5.87a.5.5 0 01.5.5.5.5 0 01-.5.5zm0 6.36H.5a.5.5 0 010-1h5.87a.5.5 0 110 1zm-2.93.48a.49.49 0 100 1 .49.49 0 000-1zm17.73-4.9a.46.46 0 01-.23 0l-1.36-.71-1.36.71a.53.53 0 01-.53 0 .49.49 0 01-.19-.49l.25-1.5-1.09-1.16a.49.49 0 01-.13-.51.5.5 0 01.4-.34l1.52-.22.68-1.37a.52.52 0 01.9 0l.68 1.37 1.52.22a.5.5 0 01.4.34.49.49 0 01-.13.51L21.41 8.2l.26 1.5a.51.51 0 01-.2.49.53.53 0 01-.3.09zm-1.59-1.83a.46.46 0 01.23.06l.7.36-.13-.76a.5.5 0 01.14-.45l.56-.54-.77-.12a.47.47 0 01-.38-.27L19.58 6l-.35.7a.47.47 0 01-.37.27l-.78.11.56.54a.53.53 0 01.15.45l-.14.76.7-.36a.46.46 0 01.23-.02zM3 12.05a.45.45 0 01-.29-.1.49.49 0 01-.2-.49v-.21l-.16-.16a.5.5 0 01.27-.85h.23L3 10a.49.49 0 01.45-.27.48.48 0 01.44.27l.1.2h.23a.5.5 0 01.27.85l-.16.16v.21a.49.49 0 01-.2.49.47.47 0 01-.52 0l-.2-.1-.21.1a.46.46 0 01-.2.14z"/></symbol><symbol id="icon_case-facade" viewBox="0 0 24 24"><path d="M23.5 24H.5a.5.5 0 010-1h23a.5.5 0 010 1z"/><path d="M19.5 24h-15a.5.5 0 01-.5-.5v-19a.5.5 0 01.5-.5h15a.5.5 0 01.5.5v19a.5.5 0 01-.5.5zM5 23h14V5H5z"/><path d="M20.5 5h-17a.5.5 0 01-.5-.5v-1a.5.5 0 01.33-.5l8.5-3a.5.5 0 01.34 0l8.5 3a.5.5 0 01.33.5v1a.5.5 0 01-.5.5zM4 4h16v-.15L12 1 4 3.85zm9.5 20h-3a.5.5 0 01-.5-.5v-5a.5.5 0 01.5-.5h3a.5.5 0 01.5.5v5a.5.5 0 01-.5.5zM11 23h2v-4h-2zM8.5 9h-2a.5.5 0 01-.5-.5v-2a.5.5 0 01.5-.5h2a.5.5 0 01.5.5v2a.5.5 0 01-.5.5zM7 8h1V7H7zm6.5 1h-3a.5.5 0 01-.5-.5v-2a.5.5 0 01.5-.5h3a.5.5 0 01.5.5v2a.5.5 0 01-.5.5zM11 8h2V7h-2zm6.5 1h-2a.5.5 0 01-.5-.5v-2a.5.5 0 01.5-.5h2a.5.5 0 01.5.5v2a.5.5 0 01-.5.5zM16 8h1V7h-1zm-7.5 5h-2a.5.5 0 01-.5-.5v-2a.5.5 0 01.5-.5h2a.5.5 0 01.5.5v2a.5.5 0 01-.5.5zM7 12h1v-1H7zm6.5 1h-3a.5.5 0 01-.5-.5v-2a.5.5 0 01.5-.5h3a.5.5 0 01.5.5v2a.5.5 0 01-.5.5zM11 12h2v-1h-2zm6.5 1h-2a.5.5 0 01-.5-.5v-2a.5.5 0 01.5-.5h2a.5.5 0 01.5.5v2a.5.5 0 01-.5.5zM16 12h1v-1h-1zm-7.5 5h-2a.5.5 0 01-.5-.5v-2a.5.5 0 01.5-.5h2a.5.5 0 01.5.5v2a.5.5 0 01-.5.5zM7 16h1v-1H7zm6.5 1h-3a.5.5 0 01-.5-.5v-2a.5.5 0 01.5-.5h3a.5.5 0 01.5.5v2a.5.5 0 01-.5.5zM11 16h2v-1h-2zm6.5 1h-2a.5.5 0 01-.5-.5v-2a.5.5 0 01.5-.5h2a.5.5 0 01.5.5v2a.5.5 0 01-.5.5zM16 16h1v-1h-1zm-7.5 5h-2a.5.5 0 01-.5-.5v-2a.5.5 0 01.5-.5h2a.5.5 0 01.5.5v2a.5.5 0 01-.5.5zM7 20h1v-1H7zm10.5 1h-2a.5.5 0 01-.5-.5v-2a.5.5 0 01.5-.5h2a.5.5 0 01.5.5v2a.5.5 0 01-.5.5zM16 20h1v-1h-1z"/></symbol><symbol id="icon_case-lego" viewBox="0 0 27.92 23.82"><path d="M13.37 23.82a.35.35 0 01-.2-.05L.29 17.92a.48.48 0 01-.29-.45V8.11a.5.5 0 01.23-.42.48.48 0 01.48 0l12.87 5.81a.5.5 0 01.29.46v9.36a.48.48 0 01-.23.42.5.5 0 01-.27.08zM1 17.15l11.87 5.39v-8.26L1 8.88z"/><path d="M13.37 23.82a.53.53 0 01-.27-.08.52.52 0 01-.23-.42V14a.49.49 0 01.31-.46l14-5.85a.49.49 0 01.47 0 .5.5 0 01.23.42v9.36a.5.5 0 01-.31.46l-14 5.85a.48.48 0 01-.2.04zm.5-9.53v8.28l13.05-5.43V8.86zM14 11c-2.29 0-4-1-4-2.26s1.72-2.25 4-2.25 4 1 4 2.25S16.24 11 14 11zm0-3.51c-1.87 0-3 .73-3 1.25S12.09 10 14 10s3-.75 3-1.26-1.2-1.3-3-1.3zm0-2.98c-2.29 0-4-1-4-2.25S11.67 0 14 0s4 1 4 2.26-1.76 2.25-4 2.25zM14 1c-1.87 0-3 .73-3 1.26s1.14 1.25 3 1.25 3-.74 3-1.25S15.8 1 14 1zm8.15 7c-2.29 0-4-1-4-2.25s1.72-2.26 4-2.26 4 1 4 2.26S24.44 8 22.15 8zm0-3.51c-1.87 0-3 .73-3 1.26S20.28 7 22.15 7s3-.73 3-1.25-1.15-1.24-3-1.24zM6.35 8c-2.28 0-4-1-4-2.25s1.73-2.26 4-2.26 4 1 4 2.26S8.64 8 6.35 8zm0-3.51c-1.86 0-3 .73-3 1.26S4.49 7 6.35 7s3-.74 3-1.25-1.16-1.24-3-1.24z"/><path d="M.5 8.61a.52.52 0 01-.5-.3.5.5 0 01.3-.66l3-1.31a.5.5 0 01.7.26.51.51 0 01-.26.66l-3 1.3a.49.49 0 01-.24.05zM8.79 5a.5.5 0 01-.46-.3.51.51 0 01.26-.7l2.52-1a.5.5 0 01.66.26.51.51 0 01-.26.66L9 5a.51.51 0 01-.21 0zm10.66.14a.48.48 0 01-.2 0L16.4 3.86a.5.5 0 11.4-.86l2.85 1.23a.51.51 0 01.26.66.5.5 0 01-.46.25zm7.97 3.47a.46.46 0 01-.2 0L24.53 7.4a.5.5 0 01-.26-.66.49.49 0 01.65-.26l2.7 1.17a.51.51 0 01.26.66.53.53 0 01-.46.3z"/></symbol><symbol id="icon_case-map" viewBox="0 0 24 21"><path d="M17.5 21h-.13L12 19.52 6.63 21a.43.43 0 01-.25 0l-6-1.5A.52.52 0 010 19L1 .47a.49.49 0 01.21-.38.52.52 0 01.42-.09L7 1.48 11.86 0a.45.45 0 01.28 0L17 1.48 22.37 0a.51.51 0 01.42.07.52.52 0 01.21.4L24 19a.52.52 0 01-.38.52l-6 1.5zM12 18.5h.13l5.38 1.5L23 18.62 22 1.15l-4.9 1.33a.42.42 0 01-.27 0L12 1 7.14 2.48a.42.42 0 01-.27 0L2 1.15 1 18.62 6.49 20l5.38-1.46z"/><path d="M19 8a.47.47 0 01-.35-.15l-2-2a.49.49 0 01.7-.7l2 2a.48.48 0 010 .7A.47.47 0 0119 8z"/><path d="M17 8a.47.47 0 01-.35-.15.48.48 0 010-.7l2-2a.49.49 0 11.7.7l-2 2A.47.47 0 0117 8zM4.5 15a.47.47 0 01-.35-.15.48.48 0 010-.7l.5-.5a.49.49 0 01.7.7l-.5.5a.47.47 0 01-.35.15zm3-3a.47.47 0 01-.35-.15.48.48 0 010-.7l.5-.5a.49.49 0 01.7.7l-.5.5a.47.47 0 01-.35.15zm11-1.5a.5.5 0 01-.5-.5V9a.5.5 0 011 0v1a.5.5 0 01-.5.5zm-4 2a.47.47 0 01-.35-.15l-.5-.5a.49.49 0 01.7-.7l.5.5a.48.48 0 010 .7.47.47 0 01-.35.15zM12 10h-1a.5.5 0 010-1h1a.5.5 0 010 1zm5.5 3.5a.47.47 0 01-.35-.15.48.48 0 010-.7l.5-.5a.49.49 0 11.7.7l-.5.5a.47.47 0 01-.35.15z"/></symbol><symbol id="icon_case-paint" viewBox="0 0 24 23.5"><path d="M17.68 5.38l-5-4.22-4.85 4.22-.66-.76 5.16-4.5a.5.5 0 01.65 0l5.34 4.5z"/><path d="M23.5 23.5H.5A.5.5 0 010 23V5a.5.5 0 01.5-.5h23a.5.5 0 01.5.5v18a.5.5 0 01-.5.5zM1 22.5h22v-17H1z"/><path d="M6.24 17.5h5.52v1H6.24z"/><path d="M21.5 21.5h-19A.5.5 0 012 21V7a.5.5 0 01.5-.5h19a.5.5 0 01.5.5v14a.5.5 0 01-.5.5zM3 20.5h18v-13H3z"/><path d="M13.46 21.32A25.37 25.37 0 019 13.07a25.37 25.37 0 01-4.46 8.25l-.77-.64c0-.06 4.73-5.72 4.73-11a.5.5 0 011 0c0 5.25 4.68 10.91 4.73 11zM19 21h-1v-3.5h-1V21h-1v-4a.5.5 0 01.5-.5h2a.5.5 0 01.5.5z"/><path d="M19 17.5h-1V14a.5.5 0 01.5-.5h3v1H19z"/></symbol><symbol id="icon_case-rocket" viewBox="0 0 22.92 22.92"><path d="M9 18a.51.51 0 01-.36-.15L5.11 14.3a.5.5 0 010-.7L16.76 1.91C17.9.77 21.89.08 22.34 0a.46.46 0 01.43.14.46.46 0 01.14.43C22.84 1 22.15 5 21 6.16L9.34 17.82A.5.5 0 019 18zm-2.83-4L9 16.76 20.3 5.45c.6-.6 1.18-2.74 1.5-4.33-1.59.32-3.73.91-4.33 1.5z"/><path d="M10.4 16.56a.47.47 0 01-.35-.15l-3.53-3.53a.5.5 0 01.71-.71l3.52 3.53a.5.5 0 010 .71.47.47 0 01-.35.15z"/><path d="M9 22.92a.54.54 0 01-.22-.05.5.5 0 01-.28-.51l.65-5.6a.5.5 0 011 .11l-.49 4.18 2.52-2.52a6.55 6.55 0 001.29-1.92 17 17 0 00.33-4.44.5.5 0 01.5-.5.5.5 0 01.5.5 18.66 18.66 0 01-.38 4.75 7.28 7.28 0 01-1.54 2.32l-3.54 3.53a.49.49 0 01-.34.15zM.5 14.44a.49.49 0 01-.45-.29.5.5 0 01.1-.57l3.53-3.53A7.26 7.26 0 016 8.48a21 21 0 014.63-.35h.15a.5.5 0 01.5.5.5.5 0 01-.5.5h-.16a20.15 20.15 0 00-4.3.3 6.47 6.47 0 00-1.9 1.32l-2.54 2.51 4.2-.51a.5.5 0 11.12 1l-5.64.69zm.35 8.14a.5.5 0 01-.35-.14.53.53 0 01-.13-.44c.12-.49 1.21-4.86 2.25-5.9a2.86 2.86 0 011.53-.87 1.78 1.78 0 011.65.51.5.5 0 010 .71.48.48 0 01-.7 0c-.68-.67-1.6.18-1.77.35-.55.55-1.31 2.86-1.78 4.62 1.75-.48 4.06-1.24 4.61-1.79.17-.17 1-1.09.35-1.77a.5.5 0 010-.7.5.5 0 01.71 0c.84.84.7 2.12-.36 3.18S1.47 22.44 1 22.57z"/></symbol><symbol id="icon_case-star" viewBox="0 0 30.29 30.42"><path d="M16.5 25.92a.51.51 0 01-.31-.11L12 22.55l-4.19 3.26a.51.51 0 01-.59 0 .48.48 0 01-.2-.54l1.42-5.2-3.77-3.3a.49.49 0 01-.14-.55.5.5 0 01.47-.3h4.66l1.88-4.69a.5.5 0 11.92.37l-2 5a.5.5 0 01-.46.32H6.33l3 2.62a.51.51 0 01.15.51l-1.1 4.05 3.31-2.58a.51.51 0 01.62 0l4.5 3.5a.5.5 0 01.08.7.47.47 0 01-.39.2z"/><path d="M16.82 25.79a.37.37 0 01-.36-.27l-.11-.39a.38.38 0 01.26-.46.38.38 0 01.47.26l.1.39a.38.38 0 01-.26.46zm-.63-2.31a.36.36 0 01-.36-.28l-.27-1a.38.38 0 01.73-.19l.26 1a.37.37 0 01-.26.46zm-.79-2.9a.36.36 0 01-.4-.28V20a.38.38 0 01.11-.39l.53-.46a.38.38 0 11.49.57l-.35.3v.07a.38.38 0 01-.26.46zm2-2.07a.37.37 0 01-.25-.65l.76-.66a.37.37 0 11.49.56l-.75.66a.38.38 0 01-.3.09zm1.58-1.72h-1a.38.38 0 010-.75h1a.38.38 0 110 .75zm-3 0h-1a.38.38 0 010-.75h1a.38.38 0 110 .75zm-2.18-1.28a.36.36 0 01-.34-.24l-.38-.93a.39.39 0 01.21-.49.38.38 0 01.49.21l.37.93a.37.37 0 01-.21.49.32.32 0 01-.14.03zm-1.11-2.79a.38.38 0 01-.35-.24l-.34-.92a.38.38 0 01.21-.49.37.37 0 01.49.21l.37.93a.37.37 0 01-.21.48.35.35 0 01-.17.03z"/><path d="M19.5 30.42h-15a4.51 4.51 0 01-4.5-4.5v-15a4.51 4.51 0 014.5-4.5h15a.5.5 0 01.5.5.5.5 0 01-.5.5h-15a3.5 3.5 0 00-3.5 3.5v15a3.5 3.5 0 003.5 3.5h15a3.5 3.5 0 003.5-3.5v-15a.5.5 0 011 0v15a4.51 4.51 0 01-4.5 4.5z"/><path d="M22.18 9.77A1.83 1.83 0 1124 8a1.82 1.82 0 01-1.82 1.77zm0-2.65A.83.83 0 1023 8a.83.83 0 00-.82-.88z"/><path transform="rotate(-45 19.557 4.99)" d="M19.06 2.45h1v5.08h-1z"/><path transform="rotate(-45 25.238 10.666)" d="M24.74 8.13h1v5.08h-1z"/><path d="M16.72 4.3a2.15 2.15 0 112.15-2.15 2.16 2.16 0 01-2.15 2.15zm0-3.3a1.15 1.15 0 101.15 1.15A1.16 1.16 0 0016.72 1zm11.42 14.72a2.15 2.15 0 112.15-2.15 2.14 2.14 0 01-2.15 2.15zm0-3.3a1.15 1.15 0 101.15 1.15 1.15 1.15 0 00-1.15-1.15z"/></symbol><symbol id="icon_circle-stroke" viewBox="-2 -2 174 174"><path d="M85 0A85 85 0 110 85 85 85 0 0185 0z"/></symbol><symbol id="icon_circle" viewBox="0 0 63 63"><path d="M31.5 63A31.5 31.5 0 1163 31.5 31.53 31.53 0 0131.5 63zm0-61A29.5 29.5 0 1061 31.5 29.53 29.53 0 0031.5 2z"/></symbol><symbol id="icon_commerce" viewBox="0 0 24 24"><path d="M23.5 24H.5a.5.5 0 01-.5-.5v-5a.5.5 0 01.5-.5h23a.5.5 0 01.5.5v5a.5.5 0 01-.5.5zM1 23h22v-4H1z"/><path d="M23.5 19H.5a.52.52 0 01-.43-.24.51.51 0 010-.48l3-6A.51.51 0 013.5 12h17a.51.51 0 01.45.28l3 6a.51.51 0 010 .48.52.52 0 01-.45.24zM1.31 18h21.38l-2.5-5H3.81zm13.19 4a.5.5 0 01-.5-.5V21H9v.5a.5.5 0 01-1 0v-1a.5.5 0 01.5-.5h6a.5.5 0 01.5.5v1a.5.5 0 01-.5.5z"/><path d="M6.5 16h-1v1h1v-1zm3 0h-1v1h1v-1zm3 0h-1v1h1v-1zm3 0h-1v1h1v-1zm3 0h-1v1h1v-1zM17 14.5h-1v1h1v-1zm-3 0h-1v1h1v-1zm-3 0h-1v1h1v-1zm-3 0H7v1h1v-1zM20.5 13h-17a.5.5 0 01-.5-.5v-6a.5.5 0 01.5-.5h17a.5.5 0 01.5.5v6a.5.5 0 01-.5.5zM4 12h16V7H4z"/><path d="M11 11H5.5a.5.5 0 01-.5-.5v-2a.5.5 0 01.5-.5H11a.5.5 0 01.5.5v2a.5.5 0 01-.5.5zm-5-1h4.5V9H6zm12.5 0H14a.5.5 0 010-1h4.5a.5.5 0 010 1zm-9-3h-4a.5.5 0 01-.5-.5v-3a.49.49 0 01.38-.5l4-1a.48.48 0 01.43.09.49.49 0 01.19.41v4a.5.5 0 01-.5.5zM6 6h3V3.14l-3 .75zm13.5-2h-4A1.5 1.5 0 0114 2.5v-1A1.5 1.5 0 0115.5 0h4A1.5 1.5 0 0121 1.5v1A1.5 1.5 0 0119.5 4zm-4-3a.51.51 0 00-.5.5v1a.5.5 0 00.5.5h4a.5.5 0 00.5-.5v-1a.5.5 0 00-.5-.5z"/><path d="M17.5 7a.5.5 0 01-.5-.5v-3a.5.5 0 011 0v3a.5.5 0 01-.5.5z"/></symbol><symbol id="icon_communication" viewBox="0 0 24 24"><path d="M17 24H7a.52.52 0 01-.43-.24.51.51 0 010-.48l5-10a.52.52 0 01.9 0l5 10a.51.51 0 010 .48.52.52 0 01-.47.24zm-9.19-1h8.38L12 14.62z"/><path d="M20.31 20.45a.52.52 0 01-.35-.14.5.5 0 010-.71 11 11 0 10-15.9 0 .5.5 0 010 .71.5.5 0 01-.71 0A12 12 0 1124 12a11.92 11.92 0 01-3.33 8.29.48.48 0 01-.36.16z"/><path d="M18.09 16.86a.52.52 0 01-.29-.09.5.5 0 01-.11-.7A6.93 6.93 0 0019 12a7 7 0 00-14 0 6.93 6.93 0 001.31 4.07.5.5 0 11-.81.58A7.91 7.91 0 014 12a8 8 0 0116 0 7.91 7.91 0 01-1.5 4.65.49.49 0 01-.41.21z"/><path d="M15.49 12.62a.47.47 0 01-.48-.49l.49-.13H15a3 3 0 00-6 0 .57.57 0 01-.49.58.44.44 0 01-.5-.41h.5-.5A.62.62 0 018 12a4 4 0 018 0 .62.62 0 010 .13.52.52 0 01-.51.49z"/><path d="M12 14a.5.5 0 01-.5-.5v-2a.5.5 0 011 0v2a.5.5 0 01-.5.5z"/><path transform="rotate(-33.77 10.752 21.002)" d="M6.26 20.5h9v1h-9z"/><path transform="rotate(-56.31 13.255 21)" d="M12.75 16.49h1v9.01h-1z"/><path d="M10.27 16.5h3.46v1h-3.46z"/></symbol><symbol id="icon_facebook-round" viewBox="0 0 13.25 13.25"><path d="M7.11 5.27h1.23l-.15 1.36H7.11v3.93H5.48V6.63h-.82V5.27h.82v-.82a1.87 1.87 0 01.41-1.32 1.74 1.74 0 011.35-.44h1.09V4h-.68a1.15 1.15 0 00-.3 0 .23.23 0 00-.16.12.37.37 0 00-.07.16 1.63 1.63 0 000 .24z"/><path d="M6.63 13.25a6.63 6.63 0 116.62-6.62 6.63 6.63 0 01-6.62 6.62zM6.63 1a5.63 5.63 0 105.62 5.63A5.63 5.63 0 006.63 1z"/></symbol><symbol id="icon_facebook" viewBox="0 0 9 9"><g id="Слой_2"><path d="M9 1.69v5.62a1.58 1.58 0 01-.5 1.19 1.62 1.62 0 01-1.19.5H1.69A1.62 1.62 0 01.5 8.5 1.62 1.62 0 010 7.31V1.69A1.62 1.62 0 01.5.5 1.58 1.58 0 011.69 0h5.62A1.58 1.58 0 018.5.5 1.58 1.58 0 019 1.69zM7.66 4.63l.13-1.28H6.63v-.64a.65.65 0 01.09-.4q.09-.12.42-.12h.65V.91h-1a1.68 1.68 0 00-1.28.42 1.83 1.83 0 00-.41 1.25v.77h-.77v1.28h.77v3.72h1.53V4.63z" id="Layer_1"/></g></symbol><symbol id="icon_instagram" viewBox="0 0 8.71 8.71"><path d="M6.23 8.71H2.48A2.48 2.48 0 010 6.23V2.48A2.48 2.48 0 012.48 0h3.75a2.48 2.48 0 012.48 2.48v3.75a2.48 2.48 0 01-2.48 2.48zM2.48 1A1.48 1.48 0 001 2.48v3.75a1.48 1.48 0 001.48 1.48h3.75a1.48 1.48 0 001.48-1.48V2.48A1.48 1.48 0 006.23 1z"/><path d="M4.36 6.48a2.13 2.13 0 112.12-2.13 2.14 2.14 0 01-2.12 2.13zm0-3.25a1.13 1.13 0 101.12 1.12 1.13 1.13 0 00-1.12-1.12zm2.28-.54a.58.58 0 11.57-.57.58.58 0 01-.57.57z"/></symbol><symbol id="icon_instagramm-round" viewBox="0 0 13.25 13.25"><path d="M6.63 13.25a6.63 6.63 0 116.62-6.62 6.63 6.63 0 01-6.62 6.62zM6.63 1a5.63 5.63 0 105.62 5.63A5.63 5.63 0 006.63 1z"/><path d="M6.75 9.48a2.83 2.83 0 112.82-2.83 2.83 2.83 0 01-2.82 2.83zm0-4.66a1.83 1.83 0 101.82 1.83 1.83 1.83 0 00-1.82-1.83zm2.9-.71a.63.63 0 11.63-.63.63.63 0 01-.63.63zm0-1a.38.38 0 000 .75.38.38 0 100-.75z"/></symbol><symbol id="icon_leaf" viewBox="0 0 23.52 23.49"><path d="M.5 23.49a.47.47 0 01-.35-.15.48.48 0 010-.7L22.64.15a.5.5 0 01.71 0 .5.5 0 010 .7L.85 23.34a.47.47 0 01-.35.15z"/><path d="M8.63 19a4 4 0 01-2.94-1.12A5.37 5.37 0 014.63 13a13.38 13.38 0 014-6.84 12 12 0 013.64-2.6.46.46 0 01.48 0A.5.5 0 0113 4v1.6A4.9 4.9 0 0014 3a.51.51 0 01.3-.46A38.29 38.29 0 0122.94 0a.52.52 0 01.44.16.49.49 0 01.12.45c-.08.37-2.11 9.26-6.85 14-3.1 3.11-5.9 4.39-8.02 4.39zM12 4.83a11.59 11.59 0 00-2.64 2 12.46 12.46 0 00-3.75 6.33 4.4 4.4 0 00.79 3.93c1.6 1.61 5.14 1.22 9.6-3.18 3.76-3.76 5.8-10.54 6.39-12.77A38 38 0 0015 3.34a7.68 7.68 0 01-2.14 4 .47.47 0 01-.54.11A.5.5 0 0112 7z"/><path d="M15.57 15.49a.5.5 0 01-.35-.15l-2.12-2.12a.5.5 0 010-.71.51.51 0 01.71 0l2.12 2.12a.51.51 0 010 .71.51.51 0 01-.36.15zM17 14.07a.51.51 0 01-.36-.15l-2.13-2.12a.5.5 0 010-.7.5.5 0 01.71 0l2.12 2.12a.5.5 0 01-.35.85z"/></symbol><symbol id="icon_location" viewBox="0 0 10.27 18.32"><path d="M5.13 0A5.13 5.13 0 000 5.13C0 8 2.46 12.74 5.13 18.32 7.79 12.71 10.27 8 10.27 5.13A5.14 5.14 0 005.13 0zm0 6.32A1.63 1.63 0 116.76 4.7a1.63 1.63 0 01-1.63 1.62z"/></symbol><symbol id="icon_logo" viewBox="0 0 27.17 34.03"><path d="M18.39 14.31C9.85 12.78 7.7 12.55 7.6 9.17V6.43h3.65a11.13 11.13 0 014.75.73 1.69 1.69 0 01.36.23 2 2 0 01.3.28 3.64 3.64 0 01.74 2.47 5.44 5.44 0 01-.07 1.09.29.29 0 00.24.36 21.71 21.71 0 016.22 1.75.31.31 0 00.39-.09A7 7 0 0025.27 9 8.78 8.78 0 0023 3.07a4.45 4.45 0 00-.49-.48l-.36-.3-.41-.29-.38-.23-.1-.05c-.12-.07-.24-.14-.37-.2l-.16-.08-.34-.16-.27-.11-.33-.17a5.71 5.71 0 00-.58-.21l-.64-.15-.4-.1-.25-.07-.55-.11h-.14l-.67-.14A23.56 23.56 0 0013.38 0H.62A.62.62 0 000 .62v9.85c.47 7.25 9.61 9 12.3 9.47A29.46 29.46 0 0117.6 21a3 3 0 011.72 2.88 3.08 3.08 0 01-1.62 2.92 11.43 11.43 0 01-4.89.81H7.6v-5.49a.31.31 0 00-.25-.29A11.79 11.79 0 01.55 18a.31.31 0 00-.55.19V34h14.9q7 0 9.83-3.16a9.13 9.13 0 002.44-6.28c.01-3.49-.7-8.81-8.78-10.25z"/></symbol><symbol id="icon_map" viewBox="0 0 16 14"><path d="M0 0v12l5 2V2L0 0zm11 0v12l5 2V2l-5-2zm-1 0v12l-4 2V2l4-2z"/></symbol><symbol id="icon_redstone-logo" viewBox="0 0 1517.2 255.16"><path d="M14.38 33.6H0V.75h12.78a18.5 18.5 0 015.76.8 8.2 8.2 0 013.64 2.16 8.48 8.48 0 012.21 5.74 6.71 6.71 0 01-2.49 5.73 8.53 8.53 0 01-1.17.82c-.22.11-.61.29-1.18.54a8.66 8.66 0 014.87 2.75 7.71 7.71 0 011.81 5.2 8.86 8.86 0 01-2.35 6.06q-2.73 3.06-9.5 3.05zm-7-19.55h3.48a12 12 0 004.54-.65 2.79 2.79 0 001.48-2.85 2.94 2.94 0 00-1.37-2.89 10.8 10.8 0 00-4.6-.7H7.33zm0 13.35h5a11.22 11.22 0 004.72-.77 3.08 3.08 0 001.58-3.06 3 3 0 00-1.67-3 14.39 14.39 0 00-5.33-.73H7.33zm64.86 1.67A16.89 16.89 0 0160 33.93a16.87 16.87 0 01-12.26-4.86 16.2 16.2 0 01-5-12.1 16.22 16.22 0 015-12.11A16.87 16.87 0 0160 0a16.89 16.89 0 0112.24 4.86 16.25 16.25 0 015 12.11 16.23 16.23 0 01-5 12.1zM69.75 17a10.76 10.76 0 00-2.82-7.5 9.31 9.31 0 00-13.87 0 10.76 10.76 0 00-2.82 7.5 10.65 10.65 0 002.82 7.47 9.35 9.35 0 0013.87 0A10.65 10.65 0 0069.75 17zm34.59 8.12a6.46 6.46 0 009.85 0 9.79 9.79 0 001.81-6.23V.75h7.33v18.38q0 7.14-4 11a15.24 15.24 0 01-20.23 0q-4-3.85-4-10.95V.75h7.34v18.14a9.67 9.67 0 001.9 6.23zM157.07 7.1v26.5h-7.33V7.1h-9.31V.75h25.95V7.1zM184 .75h7.33V33.6H184zM244.21 17a16.77 16.77 0 01-2.61 9.21 16.16 16.16 0 01-7 6.11 3.44 3.44 0 001.34 1.2 4 4 0 001.91.49 6.22 6.22 0 001.92-.3 5.45 5.45 0 001.51-.73A7 7 0 00243 31l3.8 4.56a13.32 13.32 0 01-10.1 4.28 11.16 11.16 0 01-5.55-1.55 10.51 10.51 0 01-4.15-4.36 16.89 16.89 0 01-12.27-4.86 16.23 16.23 0 01-5-12.1 16.25 16.25 0 015-12.11 17.92 17.92 0 0124.54 0A16.25 16.25 0 01244.21 17zm-7.47 0a10.76 10.76 0 00-2.82-7.5 9.31 9.31 0 00-13.87 0 10.76 10.76 0 00-2.82 7.5 10.65 10.65 0 002.82 7.47 9.35 9.35 0 0013.87 0 10.65 10.65 0 002.82-7.47zm34.63 8.12a6 6 0 004.94 2.28 5.94 5.94 0 004.91-2.28 9.73 9.73 0 001.78-6.23V.75h7.33v18.38q0 7.14-3.95 11a15.24 15.24 0 01-20.23 0q-4-3.85-4-10.95V.75h7.33v18.14a9.67 9.67 0 001.89 6.23zM333.88.75v6.54h-16.35v6.76h14.71v6.25h-14.71v6.82h16.87v6.48h-24.2V.75zm64.3 0h7.33V33.6h-7.33V20.68h-13.07V33.6h-7.33V.75h7.33v13.73h13.07zm55.27 28.32a17.91 17.91 0 01-24.53 0 16.23 16.23 0 01-5-12.1 16.25 16.25 0 015-12.11 17.91 17.91 0 0124.53 0 16.25 16.25 0 015 12.11 16.23 16.23 0 01-5 12.1zM451 17a10.76 10.76 0 00-2.82-7.5 9.3 9.3 0 00-13.86 0 10.76 10.76 0 00-2.82 7.5 10.65 10.65 0 002.82 7.47 9.34 9.34 0 0013.86 0A10.65 10.65 0 00451 17zm38.88-9.9v26.5h-7.34V7.1h-9.3V.75h25.94V7.1zM540.45.75v6.54h-16.36v6.76h14.71v6.25h-14.71v6.82H541v6.48h-24.2V.75zm19.27 32.85V.75h7.33v26.32h14v6.53zM121 149.89q0 37.55-32.75 47.29l39.7 55.1h-32.5l-36.23-51H25.6v51H0V100.65h56.4q34.71 0 49.68 11.72T121 149.89zm-34 21.48q7.8-6.72 7.81-21.58t-8-20.4q-8-5.52-28.63-5.53H25.6v54.23h31.88q21.69 0 29.52-6.72zm237.33-70.72v24.08h-80.92v40.13h72.67v22.78h-72.67v40.56h83.52v24.08H217.82V100.65zm203.84 19.85q21.92 19.84 21.91 55.21t-21.26 56q-21.26 20.63-65.07 20.61h-50.33V100.65h52.06q40.79 0 62.69 19.85zm-3.9 55.86q0-52.07-59.66-52.06H439v103.9h28.41q27.56 0 42.2-13.12t14.66-38.72zm154.43-55.75q-11.18 0-18.33 4.56t-7.16 13.77q0 9.23 7.16 14.1t30.47 10.52q23.33 5.64 35.16 15.84t11.82 30q0 19.84-15 32.21T683.58 254q-35.58 0-63.13-24.51l16.06-19.31q23 20 47.72 20 12.36 0 19.63-5.32a16.64 16.64 0 007.27-14.1 15.84 15.84 0 00-6.84-13.67q-6.82-4.87-23.53-8.89a210.62 210.62 0 01-25.38-7.37A57 57 0 01640 172q-13.46-10.2-13.45-31.24t15.29-32.43Q657.12 97 679.67 97a90.74 90.74 0 0128.85 4.78 75.23 75.23 0 0124.73 13.45l-13.66 19.3q-6.74-6.06-18.22-10a70.34 70.34 0 00-22.67-3.92zm201.61 3.47v128.2h-25.6v-128.2h-46v-23.43H926.3v23.43zm233.41 108.62q-23 22.45-56.83 22.46t-56.84-22.46q-23-22.44-23-56t23-56q23-22.45 56.84-22.45t56.83 22.45q23 22.46 23 56t-23 56zM1095 137.8q-15.51-16.05-38.07-16.05t-38.07 16.05q-15.51 16-15.51 38.94t15.51 38.94q15.5 16 38.07 16t38.07-16q15.51-16.05 15.51-38.94T1095 137.8zm419.6-37.15v24.08h-80.92v40.13h72.67v22.78h-72.67v40.56h83.52v24.08h-109.11V100.65zm-253.92 49.71l-38.45-49.44h-25.6v151.63h25.6V141.92l6.55 8.44h31.9zm11.18 52.76l38.44 49.43h25.6V100.92h-25.6v110.64l-6.55-8.44h-31.89z"/></symbol><symbol id="icon_redstone-n" viewBox="0 0 139.27 151.63"><path d="M64.04 49.43L25.6 0H0v151.63h25.6V41l6.55 8.43h31.89zm11.18 52.77l38.45 49.43h25.6V0h-25.6v110.63l-6.55-8.43h-31.9z"/></symbol><symbol id="icon_refresh" viewBox="0 0 612.035 612.035"><path d="M323.128 56.236l5.646-9.57 40.17-40.169C271.247-13.921 165.482 13.786 89.65 89.646-16.421 195.717-28.355 360.261 53.875 479.49L10.98 522.386l137.7 19.667-19.667-137.7-34.968 34.967c-60.978-96.724-49.322-226.078 34.94-310.34 53.244-53.243 124.486-77.501 194.143-72.744zm258.264 13.743l-137.7-19.667 19.668 137.7 38.25-38.25c78.726 98.31 72.521 242.186-18.583 333.317-61.116 61.117-145.989 84.039-224.882 68.739l-45.65 45.649c105.654 33.799 226.05 8.791 309.895-75.054 112.858-112.858 119.146-291.979 18.805-412.209l40.197-40.225z"/></symbol><symbol id="icon_splace-logo" viewBox="0 0 156.21 53.73"><path d="M0 17.31l2.1-2.5a9.12 9.12 0 006.27 2.58c2.16 0 3.52-1 3.52-2.55s-.8-2.19-4.49-3.07C3.18 10.78.79 9.53.79 5.82.79 2.41 3.63.06 7.58.06a11 11 0 017.2 2.49l-1.87 2.64a9.06 9.06 0 00-5.39-2c-2 0-3.24 1.05-3.24 2.41 0 1.53.91 2.21 4.71 3.12 4.2 1 6.39 2.53 6.39 5.87 0 3.72-2.92 5.93-7.1 5.93A12.26 12.26 0 010 17.31zM28 .34h14.73v3.12H31.49v5.16h10v3.13h-10v5.33h11.38v3.12H28zm26.64 9.93A10 10 0 0164.88 0a10.39 10.39 0 017.78 3.09l-2.24 2.58a7.91 7.91 0 00-5.56-2.46c-3.81 0-6.56 3.12-6.56 7.06s2.75 7.07 6.56 7.07c2.44 0 4-1 5.7-2.59L72.8 17a10.24 10.24 0 01-8.06 3.52 10 10 0 01-10.1-10.25zM114 .34h14.73v3.12h-11.25v5.16h10v3.13h-10v5.33h11.38v3.12H114zm32.39 3.23h-6.3V.34h16.12v3.23h-6.3V20.2h-3.52zM14.77 33.19h7.83c4.62 0 7.54 2.64 7.54 6.69 0 4.46-3.57 6.79-7.94 6.79h-3.94v6.38h-3.49zm7.54 10.33c2.64 0 4.29-1.48 4.29-3.61 0-2.32-1.68-3.54-4.29-3.54h-4v7.15zm19.92-10.33h3.49v16.68h10.44v3.18H42.23zm54.9 9.93a10 10 0 0110.24-10.27 10.36 10.36 0 017.77 3.09l-2.24 2.58a7.92 7.92 0 00-5.56-2.47c-3.8 0-6.55 3.13-6.55 7.07s2.75 7.06 6.55 7.06c2.44 0 4-1 5.7-2.58l2.25 2.27a10.27 10.27 0 01-8.06 3.52 10 10 0 01-10.1-10.27zm30.33-9.93h14.72v3.12H131v5.16h10v3.12h-10v5.34h11.37v3.12h-14.91zm-30.1-19.05a15.09 15.09 0 00-1-1.43h.07a6 6 0 004.74-6c0-3.83-2.72-6.33-7.38-6.33H85V20.2h3.49v-6.92h3c1.72 0 2.21 1.19 3.11 2.62 1.16 1.82 2.73 4.31 7 4.31v-3.29c-2.47 0-3.17-1.11-4.24-2.78zm-8.9-10.62h5.08c2.58 0 4.11 1.16 4.11 3.29s-1.59 3.38-4.08 3.38h-5.11zm-9.35 30.21h-3.34l-8.6 20h3.58l1.45-4h10.45l1.37 4h3.68zm-4.39 13L77 41.48a2 2 0 01-1.39-1.92 1.9 1.9 0 011.88-1.9 1.87 1.87 0 011.88 1.87 2.06 2.06 0 01-1.4 2l2.24 5.24z"/></symbol><symbol id="icon_spray" viewBox="0 0 19 24"><path d="M7.5 24h-7a.5.5 0 01-.5-.5v-13a.5.5 0 01.5-.5h7a.5.5 0 01.5.5v13a.5.5 0 01-.5.5zM1 23h6V11H1zM5.5 7h-3a.5.5 0 01-.5-.5v-2a.5.5 0 01.5-.5h3a.5.5 0 01.5.5v2a.5.5 0 01-.5.5zM3 6h2V5H3z"/><path d="M6.5 11h-5a.52.52 0 01-.43-.24.51.51 0 010-.48l1-2A.51.51 0 012.5 8h3a.51.51 0 01.5.28l1 2a.51.51 0 010 .48.52.52 0 01-.5.24zm-4.19-1h3.38l-.5-1H2.81z"/><path d="M4 9a.5.5 0 01-.5-.5v-2a.5.5 0 011 0v2A.5.5 0 014 9zm8.5-3h-3a.5.5 0 010-1h3a.5.5 0 010 1zM12 9a.45.45 0 01-.16 0l-3-1a.5.5 0 01.32-1l3 1A.5.5 0 0112 9zM9 4a.5.5 0 01-.16-1l3-1a.5.5 0 11.32.94l-3 1A.45.45 0 019 4zm5.5 7a.5.5 0 010-1 1.79 1.79 0 001.5-.72 1.1 1.1 0 000-1.07.46.46 0 010-.44.48.48 0 01.36-.26A1.88 1.88 0 0018 5.5a2 2 0 00-1.6-2 .52.52 0 01-.33-.23.51.51 0 01-.05-.4 1.4 1.4 0 00-.22-1.22A1.63 1.63 0 0014.5 1a.5.5 0 01-.5-.5.5.5 0 01.5-.5 2.65 2.65 0 012.1 1 2.38 2.38 0 01.47 1.6A3 3 0 0119 5.5a2.92 2.92 0 01-1.86 2.85 2 2 0 01-.29 1.47A2.75 2.75 0 0114.5 11z"/></symbol><symbol id="icon_star" viewBox="0 0 39 37"><path fill-rule="evenodd" d="M19.5 2.501l5.603 10.056 11.395 2.166-7.933 8.382 1.44 11.394L19.5 29.623 8.995 34.499l1.439-11.394-7.932-8.382 11.395-2.166L19.5 2.501"/></symbol><symbol id="icon_support" viewBox="0 0 24 24"><path d="M15.5 24h-12a.5.5 0 01-.5-.5v-17a.5.5 0 01.5-.5h12a.5.5 0 01.5.5v17a.5.5 0 01-.5.5zM4 23h11V7H4z"/><path d="M3.5 17h-3a.5.5 0 01-.5-.5v-13A3.5 3.5 0 113.5 7a.5.5 0 01-.5-.5v-2a.5.5 0 01.5-.5H6a2.73 2.73 0 000-.5 2.5 2.5 0 00-5 0V16h2.5a.5.5 0 010 1zM4 5v1a2.48 2.48 0 001.5-1z"/><path d="M15.5 7a.5.5 0 010-1 2.5 2.5 0 000-5h-12A.5.5 0 013 .5a.5.5 0 01.5-.5h12a3.5 3.5 0 010 7zm-2 4h-4a.5.5 0 010-1h4a.5.5 0 010 1zm0 4h-4a.5.5 0 010-1h4a.5.5 0 010 1zm0 4h-4a.5.5 0 010-1h4a.5.5 0 010 1zM6 11a.47.47 0 01-.35-.15l-.5-.5a.49.49 0 01.7-.7l.15.14 1.65-1.64a.49.49 0 01.7.7l-2 2A.47.47 0 016 11zm0 4a.47.47 0 01-.35-.15l-.5-.5a.49.49 0 01.7-.7l.15.14 1.65-1.64a.49.49 0 01.7.7l-2 2A.47.47 0 016 15zm16 9a2 2 0 01-2-2V7.5a2 2 0 014 0V22a2 2 0 01-2 2zm0-17.5a1 1 0 00-1 1V22a1 1 0 002 0V7.5a1 1 0 00-1-1z"/><path d="M23.5 22h-3a.5.5 0 010-1h3a.5.5 0 010 1zm0-7h-3a.5.5 0 010-1h3a.5.5 0 010 1zm-5 1.5a.5.5 0 01-.5-.5V8.5a2 2 0 012-2h.5a.5.5 0 010 1H20a1 1 0 00-1 1V16a.5.5 0 01-.5.5z"/></symbol><symbol id="icon_tresure-map" viewBox="0 0 24 21"><path d="M17.5 21h-.13L12 19.52 6.63 21a.43.43 0 01-.25 0l-6-1.5A.52.52 0 010 19L1 .47a.49.49 0 01.21-.38.52.52 0 01.42-.09L7 1.48 11.86 0a.45.45 0 01.28 0L17 1.48 22.37 0a.51.51 0 01.42.07.52.52 0 01.21.4L24 19a.52.52 0 01-.38.52l-6 1.5zM12 18.5h.13l5.38 1.5L23 18.62 22 1.15l-4.9 1.33a.42.42 0 01-.27 0L12 1 7.14 2.48a.42.42 0 01-.27 0L2 1.15 1 18.62 6.49 20l5.38-1.46z"/><path d="M19 8a.47.47 0 01-.35-.15l-2-2a.49.49 0 01.7-.7l2 2a.48.48 0 010 .7A.47.47 0 0119 8z"/><path d="M17 8a.47.47 0 01-.35-.15.48.48 0 010-.7l2-2a.49.49 0 11.7.7l-2 2A.47.47 0 0117 8zM4.5 15a.47.47 0 01-.35-.15.48.48 0 010-.7l.5-.5a.49.49 0 01.7.7l-.5.5a.47.47 0 01-.35.15zm3-3a.47.47 0 01-.35-.15.48.48 0 010-.7l.5-.5a.49.49 0 01.7.7l-.5.5a.47.47 0 01-.35.15zm11-1.5a.5.5 0 01-.5-.5V9a.5.5 0 011 0v1a.5.5 0 01-.5.5zm-4 2a.47.47 0 01-.35-.15l-.5-.5a.49.49 0 01.7-.7l.5.5a.48.48 0 010 .7.47.47 0 01-.35.15zM12 10h-1a.5.5 0 010-1h1a.5.5 0 010 1zm5.5 3.5a.47.47 0 01-.35-.15.48.48 0 010-.7l.5-.5a.49.49 0 11.7.7l-.5.5a.47.47 0 01-.35.15z"/></symbol><symbol id="icon_update" viewBox="0 0 54.05 48.5"><path d="M24.25 48.5A24.25 24.25 0 1148.5 24.25v.57a.49.49 0 01-.51.49.51.51 0 01-.49-.51v-.55a23.25 23.25 0 10-3.5 12.3.51.51 0 01.69-.16.49.49 0 01.16.69 24.14 24.14 0 01-20.6 11.42z"/><path d="M47.94 26.3l-5.84-5.84a.49.49 0 01.7-.7l5.14 5.13 5.26-5.26a.5.5 0 01.7 0 .5.5 0 010 .71z"/></symbol><symbol id="icon_venezia-logo" viewBox="0 0 156.75 111.07"><path d="M156.73 77.86c-.21-.94-2.6-1.82-3-1.87s-1-1-1.87-1.77-5.46-1.66-7.17-1.66c-7.85-2.4-12.59-6.45-14.82-9.36S117 45.89 113.42 42a15.25 15.25 0 00-9.1-4.58c-.47 0-.67-.52-3.48-1.61-9.57-3.29-11.75-.81-13.78.19a13.41 13.41 0 01-5.72 1c-.93 0-.15-.63 0-1.15s.73-2 1.72-2.18.68-2.76 1.4-2.81.83-.78 1.09-2.08c7.86-.2 14.87-5.72 14.87-5.72l.89-1c.47-.52 1.56-1.88 1.66-2s.16-1.14.68-1.66a6.21 6.21 0 001.4-2.55 14.09 14.09 0 011.2-3c.72-1.71 0-3.27-.37-3.32s-.26-.16-1.19-.83-2.24.1-4.21 1.76a12 12 0 01-4 2.07A2.38 2.38 0 0196 14.3c-.78.94-1.35 1.43-1.37 1.8s-1.09 2.34-5 3.84c2.37-1.32 4.37-2.75 4.5-3.79s.08-1 .31-1.3a5.78 5.78 0 001.25-2.11c0-.15 0-.55-.15-1.69 2.75-2.49 1-3.79 1.4-5.2s-1.09-2.44-1.09-2.44A4 4 0 0095 .71c-1-.83-1-.31-1.39-.47s-1.4-.78-2.91.93c-2.81 3.44-9.67 5.52-12.63 6s-8.89 0-14.87 2.23-5.62 7.33-5.3 7.75.15.62.41 1.19 3.69 2.24 4.32 6.24a10.06 10.06 0 01-.58 5l.05.14s-1.35 3.43-3.47 4.87a17.57 17.57 0 001.87-2.9 19.76 19.76 0 01-2.08-1.94 25.55 25.55 0 01-1.56-2.6c-.42-.73-.94-.94-1-1.4A7.9 7.9 0 0054.21 23c-.42-.21-.58-1.25-1-2.34s-1.46-1.35-1.72-2.23A2.48 2.48 0 0050 16.77c-.62-.26-.88-1.61-1.45-2.7a4.54 4.54 0 00-2.7-1.93c-.94-.31-1.72.11-2.29-.26a3.94 3.94 0 00-2.71-.41c-1.35.15-1.45.52-2 1.66-.68 0-.94.78-1.82 1.87a1.51 1.51 0 00-1.51.94.82.82 0 01-1 .52c-.52-.16-.47.42-.62 1a1.69 1.69 0 00.26 1.25c.1.26-1 .67-1.87 1s-1.56 1.51-1.77 1.77.15.94 0 1.4 0 .21.21.94a2.19 2.19 0 00.83 1.14 6.27 6.27 0 01.52 1.15c0 .31 0 .31-.11.83s.06.36.42.83 1.46.57 1.72.78A12.66 12.66 0 0036 30.29c.67.36.52 1 .36 1.51a15.43 15.43 0 00-.1 2.6c0 .36.05.78.05 1.24a8.49 8.49 0 01-1.09 2.14c-.31.57 0 .62.31.93a1.47 1.47 0 01-.26 1.72 1.51 1.51 0 00-.52 1.3 6.46 6.46 0 010 1.55 9.12 9.12 0 00.42 2.55 2.62 2.62 0 01.31 1.72c-.05 1.4.94 3.64 3.9 7.07-.21.42-3.69 5.63-4.37 6.1s-4.38 5.86-4.54 5.86-.52.36-1.25 1.24-1.92.84-3.32.52a2.59 2.59 0 00-2.6.94c-.63.52-1.77 1.2-2.08 2a.9.9 0 00.15.88h-5.6l5.4 4.58h89.11l5.51-4.58h-8.24c.17-.4.36-.8.52-1.09A3.85 3.85 0 00108 68a10.83 10.83 0 01-.73-3.9 22.62 22.62 0 01.89-6.24c.36-1.45-2.6-5.72-2.81-6s1.09-1.76 1.46-4.73a6 6 0 00-1-4.52 12.36 12.36 0 012.29.67c4.21 2.59 9 7.91 16.42 17.63A40.87 40.87 0 00141.23 74c.73.42 2 .57 3 1.67 5.56 4.21 7 2.75 9.36 2.49s2.08 1.66 2.08 1.66 1.27-1.03 1.06-1.96zM32.49 25.78s-.07-.56.25-.76a5.23 5.23 0 01.89-.32 2 2 0 011.06.08 2.29 2.29 0 01.36.58 4.52 4.52 0 01-2.56.42zM99.94 65.9c.16-.24.29-.42.4-.56a34 34 0 00-.83-5.9 32 32 0 011.4 5.63 1.31 1.31 0 01.5 1.63 8.14 8.14 0 01-.59 1.82 2.3 2.3 0 01-.59.52 10 10 0 01-2.23-.12c-.59-.06-.72-.28-.73-.44s2.24-1.94 2.67-2.58zm-61.5 6.29c.1-.26.52-.36.78-.47a5.49 5.49 0 00.88-.62 5 5 0 00.83-.31 5.09 5.09 0 011.51-.89c.57-.1.73-.52.88-.88s.31 0 .83-.16a1.9 1.9 0 00.89-.72 3 3 0 01.86-.32c.26 0 1.2-.78 1.56-.93s2.5-3.81 3.18-3.81 2.58-1.34 4-3.78c14.66.1 35.56-4.94 36-4.94s1 .68 1.56 1.35 2.34 2 3 2.81.36 1.56-.42 2.65a53.38 53.38 0 01-4.83 6 23.42 23.42 0 00-3.1 3c-1 1.15-.7-.76-3 1.09a1.52 1.52 0 00-.53.92zM4.82 103.71c-.33-.14-.66-.3-1-.48a4.8 4.8 0 01-1.18-1 8.08 8.08 0 01-1.26-1.88A13.55 13.55 0 010 94.07a11.57 11.57 0 012-6.73 7.08 7.08 0 012.85-2.53 4.16 4.16 0 011.66-.35 3.47 3.47 0 011.52.32 3.71 3.71 0 011.08.76 3.06 3.06 0 01.62.89 2.16 2.16 0 01-.13 2 5.15 5.15 0 01-.8 1.07 11.36 11.36 0 01-1 .93 8.34 8.34 0 00-1 .9 9 9 0 00-1 3.93 4.11 4.11 0 001 3 2 2 0 00.73.48Q9.2 98.3 12.15 95c1.46-1.75 2.5-3 3.11-3.85L16.79 89a11.58 11.58 0 014.47-4.18 3.87 3.87 0 011.74-.4 4 4 0 011.29.2 2.29 2.29 0 01.79.48 1.87 1.87 0 01.6 1.36 3.71 3.71 0 01-1 2.54q-2.85 3.12-4.34 4.64l-2.82 2.75-2.58 2.31q-6 5.22-8.27 5.22a5.44 5.44 0 01-1.85-.21zM41 92.91c.43 0 .65.24.65.73a3.14 3.14 0 01-.33 1.23 5 5 0 01-1 1.38c-.42.43-.89.88-1.43 1.34S37.74 98.53 37 99s-1.51 1-2.37 1.5a21.51 21.51 0 01-2.77 1.34 16.47 16.47 0 01-6.28 1.34 6.92 6.92 0 01-4.03-1.18 3.67 3.67 0 01-1.82-3.07q0-2.84 3.05-5.38a19.06 19.06 0 016.2-3.4 11.82 11.82 0 013.67-.74 3.46 3.46 0 012.06.6 2.05 2.05 0 01.9 1.75q0 1.73-2.73 3.81-.43.35-.78.57l-.49.33a24 24 0 01-4.12 2.12 3.41 3.41 0 001.59.45 4.93 4.93 0 001.33-.17 11.71 11.71 0 001.33-.51c.5-.21 1-.47 1.6-.78s1.13-.63 1.71-1a25 25 0 003.36-2.47 5.41 5.41 0 011.9-1.1 2.32 2.32 0 01.69-.1zm-15 3.81l.75-.38.65-.35a28.91 28.91 0 003.12-1.94c.25-.25.38-.42.38-.51a.78.78 0 00-.09-.33 1.08 1.08 0 00-.21-.34.94.94 0 00-.69-.38 2.73 2.73 0 00-.81.13 5.17 5.17 0 00-.89.38 5.34 5.34 0 00-.86.57 4.41 4.41 0 00-.72.71 2.48 2.48 0 00-.72 1.48 4 4 0 00.09.96z"/><path d="M53.45 95.59c0 .83.24 1.24.72 1.24 1.18 0 2.7-.8 4.58-2.39l.37-.31a3.52 3.52 0 011.78-.73c.46 0 .75.06.87.2a1 1 0 01.18.65 3.31 3.31 0 01-1 2.13 17 17 0 01-4.17 3.5 10.63 10.63 0 01-5.49 1.92 2.07 2.07 0 01-2.13-1.88A6.94 6.94 0 0149 99a2.76 2.76 0 00-.29-1.2c-.1-.08-.29-.08-.59 0a5.89 5.89 0 00-1 .47c-.4.22-.85.49-1.34.81q-3.87 2.58-4.46 2.94a4.91 4.91 0 01-1.88.87 2.46 2.46 0 01-1-.2 3.27 3.27 0 01-.82-.52 2 2 0 01-.73-1.41 14.1 14.1 0 011.79-7.19 6.61 6.61 0 012.93-2.87 4.36 4.36 0 011.9-.42c1.23 0 1.85.41 1.85 1.22a6.3 6.3 0 01-.88 2.44l-.4.8a4.41 4.41 0 00-.43.94c.06.27.18.4.37.4a1.78 1.78 0 00.92-.46l2.5-1.86 1.25-.86a7 7 0 013.17-1.41 1.39 1.39 0 011 .43 2.13 2.13 0 01.83 1.37 4.53 4.53 0 010 .46c0 .18 0 .37-.07.58l-.06.64c-.09.22-.11.43-.11.62z"/><path d="M77.87 92.91c.43 0 .65.24.65.73a3.14 3.14 0 01-.33 1.23 4.78 4.78 0 01-1 1.38 19.08 19.08 0 01-1.43 1.34c-.53.46-1.16.94-1.88 1.45s-1.51 1-2.38 1.5a21.51 21.51 0 01-2.77 1.34 16.43 16.43 0 01-6.27 1.34 7 7 0 01-4.02-1.22 3.67 3.67 0 01-1.82-3.07q0-2.84 3.06-5.38a19 19 0 016.19-3.4 11.87 11.87 0 013.68-.74 3.46 3.46 0 012.06.6 2.07 2.07 0 01.89 1.75q0 1.73-2.72 3.81a8.85 8.85 0 01-.79.57l-.49.33a23.66 23.66 0 01-4.12 2.12 3.44 3.44 0 001.59.45 4.88 4.88 0 001.33-.17 11.79 11.79 0 001.34-.51c.49-.21 1-.47 1.59-.78s1.14-.63 1.72-1a25.69 25.69 0 003.36-2.47 5.41 5.41 0 011.9-1.1 2.2 2.2 0 01.66-.1zm-15 3.81l.74-.38.65-.35a26.75 26.75 0 003.12-1.94c.25-.25.38-.42.38-.51a.93.93 0 00-.08-.33 1.11 1.11 0 00-.22-.34.92.92 0 00-.69-.38 2.83 2.83 0 00-.81.13 4.78 4.78 0 00-.88.38 5.91 5.91 0 00-.87.57 5.38 5.38 0 00-.72.71 2.48 2.48 0 00-.72 1.48 3.47 3.47 0 00.15.96zm1-10.25c-.31 0-.47-.19-.47-.56a2.2 2.2 0 01.3-1.07 3 3 0 01.58-.77 3.92 3.92 0 01.58-.39 2.61 2.61 0 011.2-.36H74a.58.58 0 01.4.16.51.51 0 01.19.43 2.23 2.23 0 01-.36 1.14 4.05 4.05 0 01-.85 1 1.6 1.6 0 01-1 .41z"/><path d="M94.55 94.13c0 .43-.56 1.25-1.67 2.47a21.53 21.53 0 01-3.35 3 18.48 18.48 0 01-7 3.23 12.7 12.7 0 01-2.78.34 8.79 8.79 0 01-2.17-.23 7.15 7.15 0 01-1.54-.59 5.5 5.5 0 01-2-1.9 3.72 3.72 0 01-.66-2 5.72 5.72 0 01.13-1.45 6.11 6.11 0 01.55-1.29c.82-1.48 2.48-2.79 5-3.93A21 21 0 0184.64 90a13.57 13.57 0 011.64-.17 2.78 2.78 0 01.82.1 1.9 1.9 0 01.57.28 1.24 1.24 0 01.55 1.07 2.46 2.46 0 01-.36 1.28 3.33 3.33 0 01-.89 1 3.9 3.9 0 01-2.36.79 7.92 7.92 0 01-2.93-.47 2.84 2.84 0 00-1.35 1 2 2 0 00-.47 1.12 2.19 2.19 0 00.23 1 2.65 2.65 0 00.63.83 3.1 3.1 0 002.15.79c2 0 4.23-1 6.83-3.11l1.23-1A6 6 0 0193.72 93c.55 0 .83.4.83 1.13z"/><path d="M99.76 102.12a14.11 14.11 0 01-2 .86 6.21 6.21 0 01-1.92.31 4.76 4.76 0 01-2-.45 6.47 6.47 0 01-1.8-1.21 5.18 5.18 0 01-1.75-3.77A7.68 7.68 0 0191.47 94a10 10 0 012.66-3 5.07 5.07 0 013-1.21c1.32 0 2 .37 2.12 1.11a6.21 6.21 0 010 .79 3 3 0 01-.21 1 7 7 0 01-.54 1.15c-.22.39-.47.76-.73 1.13s-.52.7-.77 1a13.28 13.28 0 01-1.12 1.23c0 .31.23.63.69 1a2 2 0 001.1.46 3.14 3.14 0 001.07-.22 7.5 7.5 0 001.28-.58 14.59 14.59 0 001.34-.84c.46-.32.91-.64 1.35-1l2.48-1.94a4.61 4.61 0 012.4-1.07.65.65 0 01.56.27 1 1 0 01.2.62 2.28 2.28 0 01-.35 1 10.75 10.75 0 01-1 1.36c-.41.5-.9 1-1.45 1.56s-1.14 1.07-1.78 1.6-1.31 1-2 1.5a19.74 19.74 0 01-2.01 1.2zm3.41-14.93a3.35 3.35 0 01-.85.55 2.46 2.46 0 01-1 .21 3.39 3.39 0 01-1.1-.19 3.08 3.08 0 01-.92-.53 2.36 2.36 0 01-.86-1.87c0-1.17 1-2 2.93-2.61a5.91 5.91 0 011.63-.3 2.4 2.4 0 011 .15 1.53 1.53 0 01.52.37 1.43 1.43 0 01.41.94 3.07 3.07 0 01-.12.88 5.31 5.31 0 01-.33.81 6.49 6.49 0 01-.53.84 4.6 4.6 0 01-.78.75z"/><path d="M104 101.64a24.57 24.57 0 001.49-3.29l.87-2.34a2.88 2.88 0 00.16-.82 1.15 1.15 0 00-.08-.48l-.19-.4a2.83 2.83 0 01-.26-1.16 1.91 1.91 0 01.28-1 3.12 3.12 0 01.73-.77 4.51 4.51 0 011-.58 7 7 0 011.17-.4 7.82 7.82 0 011.8-.31 2.17 2.17 0 01.91.14 1.48 1.48 0 01.44.34 1.31 1.31 0 01.38.88 5.68 5.68 0 01-.16 1.16c-.1.46-.25 1-.43 1.53s-.41 1.15-.66 1.8l-.8 2c-.17.39-.37.83-.6 1.31l2.29-1.79 3.66-2.77c.42-.3.7-.5.82-.6a1.65 1.65 0 011-.38q.93 0 1.14.66c.16.57-.23 1.46-1.18 2.67a7.68 7.68 0 01-.89 1c-.29.26-.61.51-.94.77q-7.62 5.52-8.25 6c-.42.33-.75.59-1 .79a20.5 20.5 0 01-1.58 2.32 8.72 8.72 0 01-2.61 2.51 4.24 4.24 0 01-2.17.67 2.35 2.35 0 01-1.62-.52 1.73 1.73 0 01-.58-1.37 4.61 4.61 0 01.29-1.62 7.45 7.45 0 01.77-1.48 11 11 0 011.1-1.37c.4-.43.82-.83 1.25-1.21s.85-.72 1.27-1zm10.45-14.47a3.93 3.93 0 01-.89.57 2.12 2.12 0 01-.94.22 2.81 2.81 0 01-1-.19 3.35 3.35 0 01-.94-.53 2.32 2.32 0 01-1-1.87q0-1.89 3.18-2.73a7.89 7.89 0 011.81-.31 2.09 2.09 0 01.9.14 1.57 1.57 0 01.46.34 1.19 1.19 0 01.36.8 3.16 3.16 0 01-.14.88 5.13 5.13 0 01-.42.94 11 11 0 01-.63.94 6 6 0 01-.79.8z"/><path d="M140.31 92.69c.29 0 .44.25.44.73 0 .85-.59 1.93-1.77 3.27l-.77.79a19.6 19.6 0 01-6.62 4.68c-1.28.48-2.2.45-2.76-.07a4.65 4.65 0 01-1.1-2.14l-.32-1.18-2.89 1.77-1.67.95a10.72 10.72 0 01-4.48 1.63 4 4 0 01-3.18-1.48A4.74 4.74 0 01114 98.4a4.42 4.42 0 011.45-3.24 18.89 18.89 0 016.55-3.73 20.62 20.62 0 016.83-1.59.77.77 0 01.88.87 1.42 1.42 0 01-.23.9 2.45 2.45 0 01-.95.61l-1.71.73a18 18 0 00-5.55 3.29 1.33 1.33 0 00-.51.93c0 .3.24.44.72.44a9.86 9.86 0 003.28-1.51l1.13-.67a9 9 0 014.38-1.57 1.93 1.93 0 012 1.31c.08.24.16.48.23.72s.14.45.22.64c.16.44.31.66.44.66a1.3 1.3 0 00.56-.19 8.51 8.51 0 00.81-.51c.29-.2.59-.42.91-.67l1.56-1.31c1.49-1.21 2.58-1.82 3.31-1.82z"/></symbol></svg>