<svg xmlns="http://www.w3.org/2000/svg"><symbol id="icon_aizkulises_icon_1" viewBox="0 0 30.29 30.42"><g id="Слой_2"><g id="Layer_1"><path class="cls-1" d="M16.5 25.42l-4.5-3.5-4.5 3.5 1.5-5.5-4-3.5h5l2-5"/><path class="cls-2" d="M12.32 11.42l2 5h5l-4 3.5 1.5 5.5"/><path class="cls-1" d="M23.5 10.92v15a4 4 0 0 1-4 4h-15a4 4 0 0 1-4-4v-15a4 4 0 0 1 4-4h15"/><circle class="cls-3" cx="22.18" cy="7.95" r="1.32"/><path class="cls-3" d="M21.36 6.78l-3.6-3.59m9.28 9.27l-3.6-3.59"/><circle class="cls-3" cx="16.72" cy="2.15" r="1.65"/><circle class="cls-3" cx="28.14" cy="13.57" r="1.65"/></g></g></symbol><symbol id="icon_aizkulises_icon_2" viewBox="0 0 31.33 17.63"><g id="Слой_2"><g id="Layer_1"><path class="cls-1" d="M27.9 12.24H11.26V2.46H27.9v9.78z"/><path class="cls-1" d="M9.31 14.2V2A1.46 1.46 0 0 1 10.77.5h17.62A1.46 1.46 0 0 1 29.85 2v12.2m-7.85 0v1h-4.9v-1H8.33v2a1 1 0 0 0 1 1h20.52a1 1 0 0 0 1-1v-2z"/><rect class="cls-1" x=".5" y="6.37" width="5.87" height="10.76" rx="1.23"/><path class="cls-1" d="M.5 7.84h5.87M.5 14.2h5.87"/><path class="cls-2" d="M3.44 15.18a.49.49 0 1 0 0 1 .49.49 0 0 0 0-1z"/><path class="cls-3" d="M19.58 4.91l.8 1.61 1.78.25-1.29 1.25.3 1.77-1.59-.84-1.59.84.3-1.77L17 6.77l1.79-.25.79-1.61zM3.44 10.22l.21.44.49.07-.35.34.08.48-.43-.23-.44.23.08-.48-.35-.34.49-.07.22-.44z"/></g></g></symbol><symbol id="icon_aizkulises_icon_3" viewBox="0 0 24 24"><g id="Слой_2"><g id="Outline_Old_Icons"><path class="cls-1" d="M19.5 11v12.5H.5v-21h16"/><path class="cls-1" d="M13.65 11.77l-2.83 1.41 1.41-2.83L21.78.81a1 1 0 0 1 1.41 1.41zm6.72-9.55l1.41 1.42M3.42 6.29h4.91m-4.91 3h2.91m-2.91 7.75h10.83M2.92 19.46h2.5m2.25 0h1.16"/></g></g></symbol><symbol id="icon_aizkulises_icon_4" viewBox="0 0 22 24"><g id="Слой_2"><g id="Outline_Old_Icons"><path class="cls-1" d="M2.5 11v-.5a1 1 0 0 1 1-1h1a1 1 0 0 1 1 1v.5"/><path class="cls-2" d="M21.5 22a1.5 1.5 0 0 1-1.5 1.5H2A1.5 1.5 0 0 1 .5 22v-9A1.5 1.5 0 0 1 2 11.5h6l2-2h6l2 2h2a1.5 1.5 0 0 1 1.5 1.5z"/><path class="cls-2" d="M2.5 11.5v-1a1 1 0 0 1 1-1h1a1 1 0 0 1 1 1v1"/><circle class="cls-2" cx="4" cy="15" r="1.5"/><circle class="cls-2" cx="13.5" cy="17" r="2.5"/><circle class="cls-2" cx="13.5" cy="17" r="4.5"/><path class="cls-2" d="M7.5.5h11v6h-11z"/><path class="cls-2" d="M9.5 2.5h7v2h-7zm-.5 4l1 3m7-3l-1 3"/></g></g></symbol><symbol id="icon_behance" viewBox="0 0 47.2 29.74"><g id="Слой_2"><g id="Layer_1"><path d="M15.4 29.74h-.53a3.18 3.18 0 0 0-.43-.06H0V.06h14.24a2.63 2.63 0 0 0 .39-.06h.59a1.66 1.66 0 0 0 .21.06c.92.14 1.85.24 2.76.42a7.16 7.16 0 0 1 2.74 1.2 5.63 5.63 0 0 1 2.19 3.09 8.75 8.75 0 0 1 .11 4.57 6.28 6.28 0 0 1-3.45 4.06l-.34.18.35.11a6.82 6.82 0 0 1 4.53 4.19 9.28 9.28 0 0 1 .53 4.05 7.47 7.47 0 0 1-3 5.63 11.07 11.07 0 0 1-5.19 2zM6.56 16.49v8.15h7.02a9.48 9.48 0 0 0 2.12-.28 3.25 3.25 0 0 0 2.52-2.43 5.36 5.36 0 0 0 .05-2.22 3.23 3.23 0 0 0-1.39-2.36 5.73 5.73 0 0 0-3.25-.86H6.56zm0-11.41v7H13a7 7 0 0 0 1-.08 4.23 4.23 0 0 0 1.72-.58 3.09 3.09 0 0 0 1.39-2.7 3 3 0 0 0-2.32-3.32 9.69 9.69 0 0 0-2.21-.27H6.86zm30.91 24.66H35.7l-.12-.06c-.55-.08-1.12-.12-1.66-.24A9.55 9.55 0 0 1 27 24.22a12.7 12.7 0 0 1-.81-9.22A10.28 10.28 0 0 1 33 7.68a11.41 11.41 0 0 1 5.38-.48 9.24 9.24 0 0 1 5.87 3.07 11.52 11.52 0 0 1 2.75 6.2l.18 1.17v2.24H31.61c.09.6.14 1.17.27 1.73a4 4 0 0 0 1.79 2.83 5.94 5.94 0 0 0 6.09.1 3.63 3.63 0 0 0 1.73-1.79.35.35 0 0 1 .37-.25h4.92a11.5 11.5 0 0 1-2.2 4.09 9.18 9.18 0 0 1-5.7 2.92c-.47.13-.94.17-1.41.23zm-5.8-13.64h9.58a7.78 7.78 0 0 0-1.08-2.89 3.27 3.27 0 0 0-2.31-1.52 9.74 9.74 0 0 0-1.86-.12 4.51 4.51 0 0 0-4.33 4.53z"/><path d="M0 29.68h14.44a3.18 3.18 0 0 1 .43.06H.26a1.38 1.38 0 0 1-.26-.06zM14.63 0a2.63 2.63 0 0 1-.39.06H0A1.31 1.31 0 0 1 .27 0zm16.02 4.83V1.54h12v3.29z"/></g></g></symbol><symbol id="icon_bg-grid" viewBox="0 0 3637.98 2613.83"><path d="M1840 0h242l359.43 383.35-250.43 9.81zm87.28 403.48L2191 393.16l406.28 455.15-273.53 24.08zM1319.59 0h266.57l341.12 403.48-277.91 10.88z"/><path d="M1356.06 425.84l293.31-11.48 384.82 483.52-306.94 27zM744.29 0h295l316.73 425.84L1046 438zm-26.47 450.83L1046 438l355.26 515.6-346.86 30.53zM105 0h328.29l284.53 450.83-348.06 13.63zM0 478.93l369.76-14.47 314.82 552.23-395.12 34.78zm2597.24 369.38l258.84-22.78 483.5 515.66-266.51 40.19zm192.86 575.74l283-42.67 564.9 632.87-291.22 68.24zm-755.91-526.17l289.52-25.49 466.39 551.66-301 45.4zm134.07 619.95l320.83-48.38 546 686.07-334.29 78.34zm-767-564.23l326-28.7 441 592.93-342.67 51.67zm57.49 671.22l366.84-55.32 515.74 748.6-387.69 90.9zm-774.17-608.13l369.82-32.56 404.35 640.69-393.63 59.36z"/><path d="M641.63 1748l423.49-63.86 469.21 823-455 106.61z"/></symbol><symbol id="icon_case-facade" viewBox="0 0 24 24"><path d="M23.5 24H.5a.5.5 0 0 1 0-1h23a.5.5 0 0 1 0 1z"/><path d="M19.5 24h-15a.5.5 0 0 1-.5-.5v-19a.5.5 0 0 1 .5-.5h15a.5.5 0 0 1 .5.5v19a.5.5 0 0 1-.5.5zM5 23h14V5H5z"/><path d="M20.5 5h-17a.5.5 0 0 1-.5-.5v-1a.5.5 0 0 1 .33-.5l8.5-3a.5.5 0 0 1 .34 0l8.5 3a.5.5 0 0 1 .33.5v1a.5.5 0 0 1-.5.5zM4 4h16v-.15L12 1 4 3.85zm9.5 20h-3a.5.5 0 0 1-.5-.5v-5a.5.5 0 0 1 .5-.5h3a.5.5 0 0 1 .5.5v5a.5.5 0 0 1-.5.5zM11 23h2v-4h-2zM8.5 9h-2a.5.5 0 0 1-.5-.5v-2a.5.5 0 0 1 .5-.5h2a.5.5 0 0 1 .5.5v2a.5.5 0 0 1-.5.5zM7 8h1V7H7zm6.5 1h-3a.5.5 0 0 1-.5-.5v-2a.5.5 0 0 1 .5-.5h3a.5.5 0 0 1 .5.5v2a.5.5 0 0 1-.5.5zM11 8h2V7h-2zm6.5 1h-2a.5.5 0 0 1-.5-.5v-2a.5.5 0 0 1 .5-.5h2a.5.5 0 0 1 .5.5v2a.5.5 0 0 1-.5.5zM16 8h1V7h-1zm-7.5 5h-2a.5.5 0 0 1-.5-.5v-2a.5.5 0 0 1 .5-.5h2a.5.5 0 0 1 .5.5v2a.5.5 0 0 1-.5.5zM7 12h1v-1H7zm6.5 1h-3a.5.5 0 0 1-.5-.5v-2a.5.5 0 0 1 .5-.5h3a.5.5 0 0 1 .5.5v2a.5.5 0 0 1-.5.5zM11 12h2v-1h-2zm6.5 1h-2a.5.5 0 0 1-.5-.5v-2a.5.5 0 0 1 .5-.5h2a.5.5 0 0 1 .5.5v2a.5.5 0 0 1-.5.5zM16 12h1v-1h-1zm-7.5 5h-2a.5.5 0 0 1-.5-.5v-2a.5.5 0 0 1 .5-.5h2a.5.5 0 0 1 .5.5v2a.5.5 0 0 1-.5.5zM7 16h1v-1H7zm6.5 1h-3a.5.5 0 0 1-.5-.5v-2a.5.5 0 0 1 .5-.5h3a.5.5 0 0 1 .5.5v2a.5.5 0 0 1-.5.5zM11 16h2v-1h-2zm6.5 1h-2a.5.5 0 0 1-.5-.5v-2a.5.5 0 0 1 .5-.5h2a.5.5 0 0 1 .5.5v2a.5.5 0 0 1-.5.5zM16 16h1v-1h-1zm-7.5 5h-2a.5.5 0 0 1-.5-.5v-2a.5.5 0 0 1 .5-.5h2a.5.5 0 0 1 .5.5v2a.5.5 0 0 1-.5.5zM7 20h1v-1H7zm10.5 1h-2a.5.5 0 0 1-.5-.5v-2a.5.5 0 0 1 .5-.5h2a.5.5 0 0 1 .5.5v2a.5.5 0 0 1-.5.5zM16 20h1v-1h-1z"/></symbol><symbol id="icon_case-lego" viewBox="0 0 27.92 23.82"><path d="M13.37 23.82a.35.35 0 0 1-.2-.05L.29 17.92a.48.48 0 0 1-.29-.45V8.11a.5.5 0 0 1 .23-.42.48.48 0 0 1 .48 0l12.87 5.81a.5.5 0 0 1 .29.46v9.36a.48.48 0 0 1-.23.42.5.5 0 0 1-.27.08zM1 17.15l11.87 5.39v-8.26L1 8.88z"/><path d="M13.37 23.82a.53.53 0 0 1-.27-.08.52.52 0 0 1-.23-.42V14a.49.49 0 0 1 .31-.46l14-5.85a.49.49 0 0 1 .47 0 .5.5 0 0 1 .23.42v9.36a.5.5 0 0 1-.31.46l-14 5.85a.48.48 0 0 1-.2.04zm.5-9.53v8.28l13.05-5.43V8.86zM14 11c-2.29 0-4-1-4-2.26s1.72-2.25 4-2.25 4 1 4 2.25S16.24 11 14 11zm0-3.51c-1.87 0-3 .73-3 1.25S12.09 10 14 10s3-.75 3-1.26-1.2-1.3-3-1.3zm0-2.98c-2.29 0-4-1-4-2.25S11.67 0 14 0s4 1 4 2.26-1.76 2.25-4 2.25zM14 1c-1.87 0-3 .73-3 1.26s1.14 1.25 3 1.25 3-.74 3-1.25S15.8 1 14 1zm8.15 7c-2.29 0-4-1-4-2.25s1.72-2.26 4-2.26 4 1 4 2.26S24.44 8 22.15 8zm0-3.51c-1.87 0-3 .73-3 1.26S20.28 7 22.15 7s3-.73 3-1.25-1.15-1.24-3-1.24zM6.35 8c-2.28 0-4-1-4-2.25s1.73-2.26 4-2.26 4 1 4 2.26S8.64 8 6.35 8zm0-3.51c-1.86 0-3 .73-3 1.26S4.49 7 6.35 7s3-.74 3-1.25-1.16-1.24-3-1.24z"/><path d="M.5 8.61a.52.52 0 0 1-.5-.3.5.5 0 0 1 .3-.66l3-1.31a.5.5 0 0 1 .7.26.51.51 0 0 1-.26.66l-3 1.3a.49.49 0 0 1-.24.05zM8.79 5a.5.5 0 0 1-.46-.3.51.51 0 0 1 .26-.7l2.52-1a.5.5 0 0 1 .66.26.51.51 0 0 1-.26.66L9 5a.51.51 0 0 1-.21 0zm10.66.14a.48.48 0 0 1-.2 0L16.4 3.86a.5.5 0 1 1 .4-.86l2.85 1.23a.51.51 0 0 1 .26.66.5.5 0 0 1-.46.25zm7.97 3.47a.46.46 0 0 1-.2 0L24.53 7.4a.5.5 0 0 1-.26-.66.49.49 0 0 1 .65-.26l2.7 1.17a.51.51 0 0 1 .26.66.53.53 0 0 1-.46.3z"/></symbol><symbol id="icon_case-star" viewBox="0 0 30.29 30.42"><path d="M16.5 25.92a.51.51 0 0 1-.31-.11L12 22.55l-4.19 3.26a.51.51 0 0 1-.59 0 .48.48 0 0 1-.2-.54l1.42-5.2-3.77-3.3a.49.49 0 0 1-.14-.55.5.5 0 0 1 .47-.3h4.66l1.88-4.69a.5.5 0 1 1 .92.37l-2 5a.5.5 0 0 1-.46.32H6.33l3 2.62a.51.51 0 0 1 .15.51l-1.1 4.05 3.31-2.58a.51.51 0 0 1 .62 0l4.5 3.5a.5.5 0 0 1 .08.7.47.47 0 0 1-.39.2z"/><path d="M16.82 25.79a.37.37 0 0 1-.36-.27l-.11-.39a.38.38 0 0 1 .26-.46.38.38 0 0 1 .47.26l.1.39a.38.38 0 0 1-.26.46zm-.63-2.31a.36.36 0 0 1-.36-.28l-.27-1a.38.38 0 0 1 .73-.19l.26 1a.37.37 0 0 1-.26.46zm-.79-2.9a.36.36 0 0 1-.4-.28V20a.38.38 0 0 1 .11-.39l.53-.46a.38.38 0 1 1 .49.57l-.35.3v.07a.38.38 0 0 1-.26.46zm2-2.07a.37.37 0 0 1-.25-.65l.76-.66a.37.37 0 1 1 .49.56l-.75.66a.38.38 0 0 1-.3.09zm1.58-1.72h-1a.38.38 0 0 1 0-.75h1a.38.38 0 1 1 0 .75zm-3 0h-1a.38.38 0 0 1 0-.75h1a.38.38 0 1 1 0 .75zm-2.18-1.28a.36.36 0 0 1-.34-.24l-.38-.93a.39.39 0 0 1 .21-.49.38.38 0 0 1 .49.21l.37.93a.37.37 0 0 1-.21.49.32.32 0 0 1-.14.03zm-1.11-2.79a.38.38 0 0 1-.35-.24l-.34-.92a.38.38 0 0 1 .21-.49.37.37 0 0 1 .49.21l.37.93a.37.37 0 0 1-.21.48.35.35 0 0 1-.17.03z"/><path d="M19.5 30.42h-15a4.51 4.51 0 0 1-4.5-4.5v-15a4.51 4.51 0 0 1 4.5-4.5h15a.5.5 0 0 1 .5.5.5.5 0 0 1-.5.5h-15a3.5 3.5 0 0 0-3.5 3.5v15a3.5 3.5 0 0 0 3.5 3.5h15a3.5 3.5 0 0 0 3.5-3.5v-15a.5.5 0 0 1 1 0v15a4.51 4.51 0 0 1-4.5 4.5z"/><path d="M22.18 9.77A1.83 1.83 0 1 1 24 8a1.82 1.82 0 0 1-1.82 1.77zm0-2.65A.83.83 0 1 0 23 8a.83.83 0 0 0-.82-.88z"/><path transform="rotate(-45 19.557 4.99)" d="M19.06 2.45h1v5.08h-1z"/><path transform="rotate(-45 25.238 10.666)" d="M24.74 8.13h1v5.08h-1z"/><path d="M16.72 4.3a2.15 2.15 0 1 1 2.15-2.15 2.16 2.16 0 0 1-2.15 2.15zm0-3.3a1.15 1.15 0 1 0 1.15 1.15A1.16 1.16 0 0 0 16.72 1zm11.42 14.72a2.15 2.15 0 1 1 2.15-2.15 2.14 2.14 0 0 1-2.15 2.15zm0-3.3a1.15 1.15 0 1 0 1.15 1.15 1.15 1.15 0 0 0-1.15-1.15z"/></symbol><symbol id="icon_facebook" viewBox="0 0 9 9"><g id="Слой_2"><path d="M9 1.69v5.62a1.58 1.58 0 0 1-.5 1.19 1.62 1.62 0 0 1-1.19.5H1.69A1.62 1.62 0 0 1 .5 8.5 1.62 1.62 0 0 1 0 7.31V1.69A1.62 1.62 0 0 1 .5.5 1.58 1.58 0 0 1 1.69 0h5.62A1.58 1.58 0 0 1 8.5.5 1.58 1.58 0 0 1 9 1.69zM7.66 4.63l.13-1.28H6.63v-.64a.65.65 0 0 1 .09-.4q.09-.12.42-.12h.65V.91h-1a1.68 1.68 0 0 0-1.28.42 1.83 1.83 0 0 0-.41 1.25v.77h-.77v1.28h.77v3.72h1.53V4.63z" id="Layer_1"/></g></symbol><symbol id="icon_instagram" viewBox="0 0 8.71 8.71"><g id="Слой_2"><g id="Layer_1"><rect class="cls-1" x=".5" y=".5" width="7.71" height="7.71" rx="1.98"/><path class="cls-1" d="M4.36 6a1.63 1.63 0 0 1-1.63-1.64 1.63 1.63 0 0 1 1.63-1.63A1.63 1.63 0 0 1 6 4.36 1.63 1.63 0 0 1 4.36 6zm2.35-3.88a.07.07 0 0 1-.07.07.07.07 0 0 1-.08-.07.07.07 0 0 1 .08-.12.07.07 0 0 1 .07.12z"/></g></g></symbol><symbol id="icon_logo" viewBox="0 0 27.17 34.03"><g id="Слой_2"><path class="cls-1" d="M18.39 14.31C9.85 12.78 7.7 12.55 7.6 9.17V6.43h3.65a11.13 11.13 0 0 1 4.75.73 1.69 1.69 0 0 1 .36.23 2 2 0 0 1 .3.28 3.64 3.64 0 0 1 .74 2.47 5.44 5.44 0 0 1-.07 1.09.29.29 0 0 0 .24.36 21.71 21.71 0 0 1 6.22 1.75.31.31 0 0 0 .39-.09A7 7 0 0 0 25.27 9 8.78 8.78 0 0 0 23 3.07a4.45 4.45 0 0 0-.49-.48l-.36-.3-.41-.29-.38-.23-.1-.05c-.12-.07-.24-.14-.37-.2l-.16-.08-.34-.16-.27-.11-.33-.17a5.71 5.71 0 0 0-.58-.21l-.64-.15-.4-.1-.25-.07-.55-.11h-.14l-.67-.14A23.56 23.56 0 0 0 13.38 0H.62A.62.62 0 0 0 0 .62v9.85c.47 7.25 9.61 9 12.3 9.47A29.46 29.46 0 0 1 17.6 21a3 3 0 0 1 1.72 2.88 3.08 3.08 0 0 1-1.62 2.92 11.43 11.43 0 0 1-4.89.81H7.6v-5.49a.31.31 0 0 0-.25-.29A11.79 11.79 0 0 1 .55 18a.31.31 0 0 0-.55.19V34h14.9q7 0 9.83-3.16a9.13 9.13 0 0 0 2.44-6.28c.01-3.49-.7-8.81-8.78-10.25z" id="Layer_1"/></g></symbol><symbol id="icon_redstone-logo" viewBox="0 0 1517.2 255.16"><path d="M14.38 33.6H0V.75h12.78a18.5 18.5 0 0 1 5.76.8 8.2 8.2 0 0 1 3.64 2.16 8.48 8.48 0 0 1 2.21 5.74 6.71 6.71 0 0 1-2.49 5.73 8.53 8.53 0 0 1-1.17.82c-.22.11-.61.29-1.18.54a8.66 8.66 0 0 1 4.87 2.75 7.71 7.71 0 0 1 1.81 5.2 8.86 8.86 0 0 1-2.35 6.06q-2.73 3.06-9.5 3.05zm-7-19.55h3.48a12 12 0 0 0 4.54-.65 2.79 2.79 0 0 0 1.48-2.85 2.94 2.94 0 0 0-1.37-2.89 10.8 10.8 0 0 0-4.6-.7H7.33zm0 13.35h5a11.22 11.22 0 0 0 4.72-.77 3.08 3.08 0 0 0 1.58-3.06 3 3 0 0 0-1.67-3 14.39 14.39 0 0 0-5.33-.73H7.33zm64.86 1.67A16.89 16.89 0 0 1 60 33.93a16.87 16.87 0 0 1-12.26-4.86 16.2 16.2 0 0 1-5-12.1 16.22 16.22 0 0 1 5-12.11A16.87 16.87 0 0 1 60 0a16.89 16.89 0 0 1 12.24 4.86 16.25 16.25 0 0 1 5 12.11 16.23 16.23 0 0 1-5 12.1zM69.75 17a10.76 10.76 0 0 0-2.82-7.5 9.31 9.31 0 0 0-13.87 0 10.76 10.76 0 0 0-2.82 7.5 10.65 10.65 0 0 0 2.82 7.47 9.35 9.35 0 0 0 13.87 0A10.65 10.65 0 0 0 69.75 17zm34.59 8.12a6.46 6.46 0 0 0 9.85 0 9.79 9.79 0 0 0 1.81-6.23V.75h7.33v18.38q0 7.14-4 11a15.24 15.24 0 0 1-20.23 0q-4-3.85-4-10.95V.75h7.34v18.14a9.67 9.67 0 0 0 1.9 6.23zM157.07 7.1v26.5h-7.33V7.1h-9.31V.75h25.95V7.1zM184 .75h7.33V33.6H184zM244.21 17a16.77 16.77 0 0 1-2.61 9.21 16.16 16.16 0 0 1-7 6.11 3.44 3.44 0 0 0 1.34 1.2 4 4 0 0 0 1.91.49 6.22 6.22 0 0 0 1.92-.3 5.45 5.45 0 0 0 1.51-.73A7 7 0 0 0 243 31l3.8 4.56a13.32 13.32 0 0 1-10.1 4.28 11.16 11.16 0 0 1-5.55-1.55 10.51 10.51 0 0 1-4.15-4.36 16.89 16.89 0 0 1-12.27-4.86 16.23 16.23 0 0 1-5-12.1 16.25 16.25 0 0 1 5-12.11 17.92 17.92 0 0 1 24.54 0A16.25 16.25 0 0 1 244.21 17zm-7.47 0a10.76 10.76 0 0 0-2.82-7.5 9.31 9.31 0 0 0-13.87 0 10.76 10.76 0 0 0-2.82 7.5 10.65 10.65 0 0 0 2.82 7.47 9.35 9.35 0 0 0 13.87 0 10.65 10.65 0 0 0 2.82-7.47zm34.63 8.12a6 6 0 0 0 4.94 2.28 5.94 5.94 0 0 0 4.91-2.28 9.73 9.73 0 0 0 1.78-6.23V.75h7.33v18.38q0 7.14-3.95 11a15.24 15.24 0 0 1-20.23 0q-4-3.85-4-10.95V.75h7.33v18.14a9.67 9.67 0 0 0 1.89 6.23zM333.88.75v6.54h-16.35v6.76h14.71v6.25h-14.71v6.82h16.87v6.48h-24.2V.75zm64.3 0h7.33V33.6h-7.33V20.68h-13.07V33.6h-7.33V.75h7.33v13.73h13.07zm55.27 28.32a17.91 17.91 0 0 1-24.53 0 16.23 16.23 0 0 1-5-12.1 16.25 16.25 0 0 1 5-12.11 17.91 17.91 0 0 1 24.53 0 16.25 16.25 0 0 1 5 12.11 16.23 16.23 0 0 1-5 12.1zM451 17a10.76 10.76 0 0 0-2.82-7.5 9.3 9.3 0 0 0-13.86 0 10.76 10.76 0 0 0-2.82 7.5 10.65 10.65 0 0 0 2.82 7.47 9.34 9.34 0 0 0 13.86 0A10.65 10.65 0 0 0 451 17zm38.88-9.9v26.5h-7.34V7.1h-9.3V.75h25.94V7.1zM540.45.75v6.54h-16.36v6.76h14.71v6.25h-14.71v6.82H541v6.48h-24.2V.75zm19.27 32.85V.75h7.33v26.32h14v6.53zM121 149.89q0 37.55-32.75 47.29l39.7 55.1h-32.5l-36.23-51H25.6v51H0V100.65h56.4q34.71 0 49.68 11.72T121 149.89zm-34 21.48q7.8-6.72 7.81-21.58t-8-20.4q-8-5.52-28.63-5.53H25.6v54.23h31.88q21.69 0 29.52-6.72zm237.33-70.72v24.08h-80.92v40.13h72.67v22.78h-72.67v40.56h83.52v24.08H217.82V100.65zm203.84 19.85q21.92 19.84 21.91 55.21t-21.26 56q-21.26 20.63-65.07 20.61h-50.33V100.65h52.06q40.79 0 62.69 19.85zm-3.9 55.86q0-52.07-59.66-52.06H439v103.9h28.41q27.56 0 42.2-13.12t14.66-38.72zm154.43-55.75q-11.18 0-18.33 4.56t-7.16 13.77q0 9.23 7.16 14.1t30.47 10.52q23.33 5.64 35.16 15.84t11.82 30q0 19.84-15 32.21T683.58 254q-35.58 0-63.13-24.51l16.06-19.31q23 20 47.72 20 12.36 0 19.63-5.32a16.64 16.64 0 0 0 7.27-14.1 15.84 15.84 0 0 0-6.84-13.67q-6.82-4.87-23.53-8.89a210.62 210.62 0 0 1-25.38-7.37A57 57 0 0 1 640 172q-13.46-10.2-13.45-31.24t15.29-32.43Q657.12 97 679.67 97a90.74 90.74 0 0 1 28.85 4.78 75.23 75.23 0 0 1 24.73 13.45l-13.66 19.3q-6.74-6.06-18.22-10a70.34 70.34 0 0 0-22.67-3.92zm201.61 3.47v128.2h-25.6v-128.2h-46v-23.43H926.3v23.43zm233.41 108.62q-23 22.45-56.83 22.46t-56.84-22.46q-23-22.44-23-56t23-56q23-22.45 56.84-22.45t56.83 22.45q23 22.46 23 56t-23 56zM1095 137.8q-15.51-16.05-38.07-16.05t-38.07 16.05q-15.51 16-15.51 38.94t15.51 38.94q15.5 16 38.07 16t38.07-16q15.51-16.05 15.51-38.94T1095 137.8zm419.6-37.15v24.08h-80.92v40.13h72.67v22.78h-72.67v40.56h83.52v24.08h-109.11V100.65zm-253.92 49.71l-38.45-49.44h-25.6v151.63h25.6V141.92l6.55 8.44h31.9zm11.18 52.76l38.44 49.43h25.6V100.92h-25.6v110.64l-6.55-8.44h-31.89z"/></symbol><symbol id="icon_redstone-n" viewBox="0 0 139.27 151.63"><path d="M64.04 49.43L25.6 0H0v151.63h25.6V41l6.55 8.43h31.89zm11.18 52.77l38.45 49.43h25.6V0h-25.6v110.63l-6.55-8.43h-31.9z"/></symbol><symbol id="icon_refresh" viewBox="0 0 612.035 612.035"><path d="M323.128 56.236l5.646-9.57 40.17-40.169C271.247-13.921 165.482 13.786 89.65 89.646-16.421 195.717-28.355 360.261 53.875 479.49L10.98 522.386l137.7 19.667-19.667-137.7-34.968 34.967c-60.978-96.724-49.322-226.078 34.94-310.34 53.244-53.243 124.486-77.501 194.143-72.744zm258.264 13.743l-137.7-19.667 19.668 137.7 38.25-38.25c78.726 98.31 72.521 242.186-18.583 333.317-61.116 61.117-145.989 84.039-224.882 68.739l-45.65 45.649c105.654 33.799 226.05 8.791 309.895-75.054 112.858-112.858 119.146-291.979 18.805-412.209l40.197-40.225z"/></symbol><symbol id="icon_star" viewBox="0 0 39 37"><path fill-rule="evenodd" d="M19.5 2.501l5.603 10.056 11.395 2.166-7.933 8.382 1.44 11.394L19.5 29.623 8.995 34.499l1.439-11.394-7.932-8.382 11.395-2.166L19.5 2.501"/></symbol></svg>