<svg xmlns="http://www.w3.org/2000/svg"><symbol id="icon_aizkulises_icon_1" viewBox="0 0 30.29 30.42"><g id="Слой_2"><g id="Layer_1"><path class="cls-1" d="M16.5 25.42l-4.5-3.5-4.5 3.5 1.5-5.5-4-3.5h5l2-5"/><path class="cls-2" d="M12.32 11.42l2 5h5l-4 3.5 1.5 5.5"/><path class="cls-1" d="M23.5 10.92v15a4 4 0 0 1-4 4h-15a4 4 0 0 1-4-4v-15a4 4 0 0 1 4-4h15"/><circle class="cls-3" cx="22.18" cy="7.95" r="1.32"/><path class="cls-3" d="M21.36 6.78l-3.6-3.59m9.28 9.27l-3.6-3.59"/><circle class="cls-3" cx="16.72" cy="2.15" r="1.65"/><circle class="cls-3" cx="28.14" cy="13.57" r="1.65"/></g></g></symbol><symbol id="icon_aizkulises_icon_2" viewBox="0 0 31.33 17.63"><g id="Слой_2"><g id="Layer_1"><path class="cls-1" d="M27.9 12.24H11.26V2.46H27.9v9.78z"/><path class="cls-1" d="M9.31 14.2V2A1.46 1.46 0 0 1 10.77.5h17.62A1.46 1.46 0 0 1 29.85 2v12.2m-7.85 0v1h-4.9v-1H8.33v2a1 1 0 0 0 1 1h20.52a1 1 0 0 0 1-1v-2z"/><rect class="cls-1" x=".5" y="6.37" width="5.87" height="10.76" rx="1.23"/><path class="cls-1" d="M.5 7.84h5.87M.5 14.2h5.87"/><path class="cls-2" d="M3.44 15.18a.49.49 0 1 0 0 1 .49.49 0 0 0 0-1z"/><path class="cls-3" d="M19.58 4.91l.8 1.61 1.78.25-1.29 1.25.3 1.77-1.59-.84-1.59.84.3-1.77L17 6.77l1.79-.25.79-1.61zM3.44 10.22l.21.44.49.07-.35.34.08.48-.43-.23-.44.23.08-.48-.35-.34.49-.07.22-.44z"/></g></g></symbol><symbol id="icon_aizkulises_icon_3" viewBox="0 0 24 24"><g id="Слой_2"><g id="Outline_Old_Icons"><path class="cls-1" d="M19.5 11v12.5H.5v-21h16"/><path class="cls-1" d="M13.65 11.77l-2.83 1.41 1.41-2.83L21.78.81a1 1 0 0 1 1.41 1.41zm6.72-9.55l1.41 1.42M3.42 6.29h4.91m-4.91 3h2.91m-2.91 7.75h10.83M2.92 19.46h2.5m2.25 0h1.16"/></g></g></symbol><symbol id="icon_aizkulises_icon_4" viewBox="0 0 22 24"><g id="Слой_2"><g id="Outline_Old_Icons"><path class="cls-1" d="M2.5 11v-.5a1 1 0 0 1 1-1h1a1 1 0 0 1 1 1v.5"/><path class="cls-2" d="M21.5 22a1.5 1.5 0 0 1-1.5 1.5H2A1.5 1.5 0 0 1 .5 22v-9A1.5 1.5 0 0 1 2 11.5h6l2-2h6l2 2h2a1.5 1.5 0 0 1 1.5 1.5z"/><path class="cls-2" d="M2.5 11.5v-1a1 1 0 0 1 1-1h1a1 1 0 0 1 1 1v1"/><circle class="cls-2" cx="4" cy="15" r="1.5"/><circle class="cls-2" cx="13.5" cy="17" r="2.5"/><circle class="cls-2" cx="13.5" cy="17" r="4.5"/><path class="cls-2" d="M7.5.5h11v6h-11z"/><path class="cls-2" d="M9.5 2.5h7v2h-7zm-.5 4l1 3m7-3l-1 3"/></g></g></symbol><symbol id="icon_logo" viewBox="0 0 27.17 34.03"><g id="Слой_2"><path class="cls-1" d="M18.39 14.31C9.85 12.78 7.7 12.55 7.6 9.17V6.43h3.65a11.13 11.13 0 0 1 4.75.73 1.69 1.69 0 0 1 .36.23 2 2 0 0 1 .3.28 3.64 3.64 0 0 1 .74 2.47 5.44 5.44 0 0 1-.07 1.09.29.29 0 0 0 .24.36 21.71 21.71 0 0 1 6.22 1.75.31.31 0 0 0 .39-.09A7 7 0 0 0 25.27 9 8.78 8.78 0 0 0 23 3.07a4.45 4.45 0 0 0-.49-.48l-.36-.3-.41-.29-.38-.23-.1-.05c-.12-.07-.24-.14-.37-.2l-.16-.08-.34-.16-.27-.11-.33-.17a5.71 5.71 0 0 0-.58-.21l-.64-.15-.4-.1-.25-.07-.55-.11h-.14l-.67-.14A23.56 23.56 0 0 0 13.38 0H.62A.62.62 0 0 0 0 .62v9.85c.47 7.25 9.61 9 12.3 9.47A29.46 29.46 0 0 1 17.6 21a3 3 0 0 1 1.72 2.88 3.08 3.08 0 0 1-1.62 2.92 11.43 11.43 0 0 1-4.89.81H7.6v-5.49a.31.31 0 0 0-.25-.29A11.79 11.79 0 0 1 .55 18a.31.31 0 0 0-.55.19V34h14.9q7 0 9.83-3.16a9.13 9.13 0 0 0 2.44-6.28c.01-3.49-.7-8.81-8.78-10.25z" id="Layer_1"/></g></symbol><symbol id="icon_refresh" viewBox="0 0 612.035 612.035"><path d="M323.128 56.236l5.646-9.57 40.17-40.169C271.247-13.921 165.482 13.786 89.65 89.646-16.421 195.717-28.355 360.261 53.875 479.49L10.98 522.386l137.7 19.667-19.667-137.7-34.968 34.967c-60.978-96.724-49.322-226.078 34.94-310.34 53.244-53.243 124.486-77.501 194.143-72.744zm258.264 13.743l-137.7-19.667 19.668 137.7 38.25-38.25c78.726 98.31 72.521 242.186-18.583 333.317-61.116 61.117-145.989 84.039-224.882 68.739l-45.65 45.649c105.654 33.799 226.05 8.791 309.895-75.054 112.858-112.858 119.146-291.979 18.805-412.209l40.197-40.225z"/></symbol><symbol id="icon_star" viewBox="0 0 39 37"><path fill-rule="evenodd" d="M19.5 2.501l5.603 10.056 11.395 2.166-7.933 8.382 1.44 11.394L19.5 29.623 8.995 34.499l1.439-11.394-7.932-8.382 11.395-2.166L19.5 2.501"/></symbol></svg>