<svg xmlns="http://www.w3.org/2000/svg" viewBox="0 0 1465.31 1428.34"><defs><mask id="a" x="0" y="0" width="1465.31" height="1262.46" maskUnits="userSpaceOnUse"><path fill="#fff" d="M988.6 0l327.3 886.02-1056.2 376.44L34.69 546.25 988.6 0z"/></mask></defs><title>logo-nla</title><path d="M130.25 1352.13v75.25h-15.84l-41.53-48.21v48.21H54.14v-75.25h17.19l40.17 46v-46zm76.32 61.46v13.79h-55.48v-75.25h54.73v13.79h-36v15.78h34.31v13.79h-34.29v18.1zm99.14-61.46l-29.43 36.25 32.66 39h-24.31l-20.4-24.85-20 24.85h-23.99l31.95-39-30.19-36.25h24.32l17.92 22.21 17.65-22.21zm83.22 0v13.79h-27.26v61.46h-18.74v-61.46h-27.25v-13.79zm112.85 61.46v13.79h-57.37v-75.25h18.75v61.46zm71.11 0v13.79h-55.48v-75.25h54.73v13.79h-36v15.78h34.31v13.79h-34.29v18.1zm90.79-61.46l-34.78 76.21h-8.13l-36.45-76.21h20.41l19.91 43 18.85-43zm69 61.46v13.79H677.2v-75.25h54.72v13.79H696v15.78h34.3v13.79H696v18.1zm75.41 0v13.79h-57.36v-75.25h18.74v61.46zm95.42-61.46l33.42 75.25h-20.15l-6.2-14.87h-33.7l-5.62 14.87H851.4l30.39-75.25zm1.59 47.24l-12.2-29.25-11 29.25zm113.4-42.01v16.42q-14.38-6.94-28.12-6.94-13.25 0-20.41 6.67a22.25 22.25 0 0 0-7.16 17 20.1 20.1 0 0 0 7.16 16q7.15 6.15 18.85 6.14a31.11 31.11 0 0 0 12.44-2.69v-8.78h-10.88v-13.79h29.68v30.76q-4.47 4.47-13.6 7.3a61 61 0 0 1-18.07 2.82q-19.67 0-32.29-10.85a34.78 34.78 0 0 1-12.63-27.6q0-17.13 12.63-27.93t32.72-10.8q16.59.07 29.68 6.27zm79.68 56.23v13.79h-55.47v-75.25h54.72v13.79h-36v15.78h34.31v13.79h-34.31v18.1zm95.46-61.46v75.25h-15.83l-41.53-48.21v48.21h-18.74v-75.25h17.19l40.17 46v-46zm89.57 52.3v16.43a62.28 62.28 0 0 1-29.57 7.48q-20 0-31.91-11.06a35.83 35.83 0 0 1-11.88-27.28q0-16.21 12.52-27.53t32.72-11.31q16.11 0 27.26 6.63v16.75q-13.69-7.71-25.91-7.7-12 0-19.63 6.43a20.52 20.52 0 0 0-7.62 16.4 20.94 20.94 0 0 0 7.51 16.54q7.52 6.51 19.25 6.51a40.84 40.84 0 0 0 11.21-1.53q5.39-1.53 16.05-6.76zm41.71 22.95v-35.12l-29.68-40.13H1318l16.33 23.65 16.39-23.65h22.66l-29.68 40.16v35.09z" fill="#fff"/><path fill="#a82438" d="M988.6 0l327.3 886.02-1056.2 376.44L34.69 546.25 988.6 0z"/><g mask="url(#a)"><path d="M591.51 888.27a34.61 34.61 0 0 1-29.4-16.36L379 576.6v277.08a34.59 34.59 0 0 1-34.59 34.59H34.59a34.59 34.59 0 1 1 0-69.18h275.25V455.16a34.59 34.59 0 0 1 64-18.22l183.08 295.31V504.38c0-43.75 19.43-68.15 35.74-80.91 23.31-18.24 49.55-20.21 59.75-20.21a99 99 0 0 1 61.82 21.9c21 17.23 32.57 42.42 32.57 70.94v322.16h108.84l125.47-377.63a34.59 34.59 0 0 1 65.19-1.29l142.26 377.55h242.16a34.59 34.59 0 0 1 0 69.18h-266.1a34.58 34.58 0 0 1-32.36-22.39L1016 555.07 913.42 863.75a34.59 34.59 0 0 1-32.82 23.69H712.21a34.59 34.59 0 0 1-34.59-34.59V496.1c0-7.85-2.31-13.39-7.28-17.47a29.49 29.49 0 0 0-17.93-6.2c-4.65 0-11.91 1.45-17.12 5.52-9.2 7.2-9.2 21.67-9.2 26.43v349.3a34.57 34.57 0 0 1-34.58 34.59z" fill="#fff"/></g></svg>