<svg xmlns="http://www.w3.org/2000/svg" viewBox="0 0 149 46.85"><title>arbo-border-logo</title><path d="M45.51,40.05a1.15,1.15,0,0,1-1-.57L27.64,10.25,10.76,39.48a1.15,1.15,0,1,1-2-1.15h0l17.87-31A1.15,1.15,0,0,1,28.2,6.9a1.11,1.11,0,0,1,.43.43l17.87,31a1.15,1.15,0,0,1-.42,1.57,1.19,1.19,0,0,1-.58.15" fill="#fff"/><path d="M66.39,40.05a1.15,1.15,0,0,1-1-.58L56.85,24.53A1.16,1.16,0,0,1,57.28,23a1.13,1.13,0,0,1,.57-.15,6.86,6.86,0,0,0,0-13.71H47.5v7.13a1.15,1.15,0,1,1-2.3,0h0V7.94a1.14,1.14,0,0,1,1.15-1.15h11.5a9.16,9.16,0,0,1,1.87,18.13l7.67,13.41A1.16,1.16,0,0,1,67,39.9a1.13,1.13,0,0,1-.57.15" fill="#fff"/><path d="M90.24,40H78.92a1.16,1.16,0,0,1,0-2.31H90.24a6.57,6.57,0,1,0,0-13.14h0a1.15,1.15,0,1,1,0-2.3h0a6.57,6.57,0,1,0,0-13.14H80.3V30A1.15,1.15,0,1,1,78,30V8a1.14,1.14,0,0,1,1.15-1.15H90.24A8.87,8.87,0,0,1,96.52,22a9.56,9.56,0,0,1-1.9,1.45A8.88,8.88,0,0,1,90.24,40" fill="#fff"/><path d="M123.47,40a16.64,16.64,0,1,1,11.73-4.88A16.61,16.61,0,0,1,123.47,40m0-30.89A14.29,14.29,0,1,0,137.76,23.4h0A14.31,14.31,0,0,0,123.47,9.1" fill="#fff"/><path d="M147.84,46.85H1.15A1.16,1.16,0,0,1,0,45.69V1.15A1.14,1.14,0,0,1,1.15,0H147.84A1.14,1.14,0,0,1,149,1.14h0V45.69a1.16,1.16,0,0,1-1.15,1.16M2.3,44.54H146.68V2.3H2.3Z" fill="#fff"/></svg>