<svg width="376" height="193" viewBox="0 0 376 193" fill="none" xmlns="http://www.w3.org/2000/svg"><path d="M62.143 173.309c1.389-1.685 2.222-3.766 2.222-6.027 0-5.562-4.98-10.086-11.102-10.086H39.778a.407.407 0 00-.408.406v3.052c0 .224.182.406.408.406h1.665v28.068h-1.677a.396.396 0 00-.396.397v3.078c0 .22.177.397.396.397h14.218c6.71 0 12.169-5.076 12.169-11.317 0-3.32-1.554-6.301-4.01-8.374zm-4.797-6.027c0 1.67-1.87 3.081-4.085 3.081h-3.875a.929.929 0 01-.93-.929v-4.305a.93.93 0 01.93-.928h3.874c2.216 0 4.087 1.411 4.087 3.081zm-3.365 18.713h-4.593a.929.929 0 01-.929-.928v-6.768a.93.93 0 01.93-.929h4.594c2.793 0 5.153 1.975 5.153 4.313 0 2.337-2.36 4.312-5.155 4.312zm47.043 3.079h-1.522l-11.358-31.876h-5.21L71.58 189.074h-1.672a.426.426 0 00-.425.424v3.014c0 .234.189.424.425.424h9.222c.233 0 .425-.19.425-.424v-3.014a.424.424 0 00-.425-.424h-.104l.932-2.618h11.167l.931 2.618h-.253a.426.426 0 00-.425.424v3.014c0 .234.19.424.425.424h9.222c.233 0 .425-.19.425-.424v-3.014a.427.427 0 00-.425-.424zm-18.576-9.61l2.736-9.596a.378.378 0 01.71 0l2.737 9.596h-6.183zm111.204 9.6h-1.588l-11.358-31.959h-5.21l-11.356 31.959h-1.588a.434.434 0 00-.432.434v3.004c0 .239.194.434.432.434h9.207a.434.434 0 00.433-.434v-3.004a.434.434 0 00-.433-.434h-.169l6.222-17.509a.312.312 0 01.588 0l6.222 17.509h-.17a.434.434 0 00-.432.434v3.004c0 .239.194.434.432.434h9.207a.434.434 0 00.433-.434v-3.004a.443.443 0 00-.44-.434zm36.641-.012h-1.649l-11.312-31.92h-5.209l-11.312 31.92h-1.649a.417.417 0 00-.418.419v3.044c0 .231.186.418.418.418h9.236a.418.418 0 00.418-.418v-3.044a.418.418 0 00-.418-.419h-.138l.888-2.503h11.166l.888 2.503h-.14a.418.418 0 00-.418.419v3.044c0 .231.187.418.418.418h9.236a.418.418 0 00.418-.418v-3.044a.427.427 0 00-.423-.419zm-18.66-9.532l2.737-9.647a.376.376 0 01.71 0l2.736 9.647h-6.183zm86.664 9.581h-1.369c-1.291-6.352-5.426-11.975-8.819-15.686a.4.4 0 01.064-.594c3.538-2.613 6.412-6.409 7.361-11.756h1.404a.406.406 0 00.405-.406v-3.084a.406.406 0 00-.405-.406h-9.261a.406.406 0 00-.406.406v3.084c0 .224.182.406.406.406h.619c-1.713 5.712-7.095 8.103-10.962 9.089a.406.406 0 01-.499-.399v-8.69h.949a.406.406 0 00.405-.406v-3.084a.406.406 0 00-.405-.406h-9.261a.406.406 0 00-.406.406v3.084c0 .224.182.406.406.406h1.295v28.036h-1.295a.406.406 0 00-.406.406v3.084c0 .224.182.407.406.407h9.261a.407.407 0 00.405-.407v-3.084a.406.406 0 00-.405-.406h-.949v-11.253a.4.4 0 01.327-.397 29.987 29.987 0 003.159-.773 1.565 1.565 0 011.588.399c2.874 2.943 6.392 7.389 7.793 12.027h-.663a.406.406 0 00-.406.406v3.084c0 .224.182.406.406.406h9.261a.406.406 0 00.405-.406v-3.084a.41.41 0 00-.408-.409zM32.032 160.602v-3.098a.403.403 0 00-.401-.404h-9.269c-.22 0-.4.18-.4.404v3.098c0 .222.18.404.4.404h.79c.22 0 .4.18.4.404v5.731a.398.398 0 01-.024.141c-2.975 8.64-9.82 12.443-14.395 14.061a.4.4 0 01-.526-.384V161.41c0-.222.18-.404.4-.404h.665c.22 0 .4-.18.4-.404v-3.098a.403.403 0 00-.4-.404H.4a.402.402 0 00-.401.404v3.098c0 .222.18.404.4.404h.79c.221 0 .4.18.4.404v27.28a.403.403 0 01-.4.404H.4c-.22 0-.4.18-.4.404v3.098c0 .222.18.404.4.404h8.207v-3.244c0-.512.33-.96.819-1.098 3.533-1.01 8.845-3.155 13.448-7.559a.399.399 0 01.678.286v7.307c0 .222-.18.404-.4.404h-.79c-.22 0-.4.18-.4.404v3.098c0 .222.18.404.4.404h9.271a.401.401 0 00.401-.404V189.5a.403.403 0 00-.4-.404h-.665c-.22 0-.4-.18-.4-.404V161.41c0-.222.18-.404.4-.404h.664a.401.401 0 00.399-.404zm106.855.412a.45.45 0 00.45-.451v-2.98a.45.45 0 00-.45-.451h-9.173a.45.45 0 00-.45.451v2.98a.45.45 0 00.45.451h1.077v11.351h-14.945v-11.351h1.077a.45.45 0 00.45-.451v-2.98a.45.45 0 00-.45-.451h-9.17a.45.45 0 00-.45.451v2.98a.45.45 0 00.45.451h1.077v28.038h-1.077a.45.45 0 00-.45.451v2.98c0 .249.201.45.45.45h9.17a.45.45 0 00.45-.45v-2.98a.45.45 0 00-.45-.451h-1.077v-9.657h14.945v9.657h-1.077a.45.45 0 00-.45.451v2.98c0 .249.202.45.45.45h9.17a.45.45 0 00.45-.45v-2.98a.45.45 0 00-.45-.451h-1.076v-28.038h1.079zm119.418 12.213c1.389-1.684 2.223-3.768 2.223-6.031 0-5.567-4.981-10.096-11.103-10.096H235.94a.407.407 0 00-.408.409v3.054a.41.41 0 00.408.409h1.665v28.092h-1.677a.396.396 0 00-.396.397v3.078c0 .22.177.397.396.397h14.217c6.712 0 12.17-5.081 12.17-11.327-.003-3.325-1.556-6.308-4.01-8.382zm-4.796-6.031c0 1.672-1.871 3.083-4.086 3.083h-3.875a.928.928 0 01-.929-.928v-4.308a.93.93 0 01.929-.929h3.875c2.215-.005 4.086 1.409 4.086 3.082zm-3.366 18.725h-4.592a.93.93 0 01-.93-.928v-6.776a.93.93 0 01.93-.928h4.594c2.793 0 5.153 1.978 5.153 4.317-.002 2.34-2.362 4.315-5.155 4.315zm86.875-25.304v-3.091a.4.4 0 00-.4-.401h-9.271a.4.4 0 00-.401.401v3.091a.4.4 0 00.401.401h.789c.221 0 .401.18.401.402v5.716a.403.403 0 01-.025.141c-2.975 8.62-9.819 12.413-14.394 14.026a.4.4 0 01-.527-.384v-19.497c0-.221.18-.401.401-.401h.664c.221 0 .401-.18.401-.402v-3.091a.402.402 0 00-.401-.401h-9.271a.402.402 0 00-.401.401v3.091c0 .222.18.402.401.402h.789c.222 0 .401.18.401.401v27.214a.401.401 0 01-.401.401h-.789a.402.402 0 00-.401.402v3.091c0 .221.18.401.401.401h8.209v-3.236c0-.51.329-.958.819-1.096 3.532-1.008 8.845-3.148 13.447-7.539.256-.244.679-.072.679.283v7.29a.401.401 0 01-.401.402h-.789a.401.401 0 00-.401.401v3.091c0 .222.18.402.401.402h9.271c.221 0 .401-.18.401-.402v-3.091a.401.401 0 00-.401-.401h-.664c-.221 0-.4-.18-.4-.402v-27.211a.4.4 0 01.4-.401h.664a.404.404 0 00.398-.404zm38.532.397a.45.45 0 00.45-.451v-2.98a.45.45 0 00-.45-.451h-9.17a.45.45 0 00-.45.451v2.98a.45.45 0 00.45.451h1.077v11.351h-14.945v-11.351h1.076a.45.45 0 00.45-.451v-2.98a.45.45 0 00-.45-.451h-9.17a.45.45 0 00-.45.451v2.98a.45.45 0 00.45.451h1.077v28.038h-1.077a.45.45 0 00-.45.451v2.98c0 .249.202.45.45.45h9.17a.45.45 0 00.45-.45v-2.98a.45.45 0 00-.45-.451h-1.076v-9.657h14.945v9.672h-1.077a.45.45 0 00-.45.45v2.981c0 .248.202.45.45.45h9.17a.45.45 0 00.45-.45v-2.981a.45.45 0 00-.45-.45h-1.077v-28.053h1.077zM162.828 91.32a34.5 34.5 0 00-15.275 7.174l15.275-7.175zm32.181-28.756l5.369 1.074h5.507l-.838-2.15h-9.057l-.981 1.076z" fill="#fff"/><path d="M208.983 48.715l-.742-.934h-1.702l1.81 2.212h-.135a2.47 2.47 0 01-1.923-.919c-.993-1.231-2.689-3.357-3.297-4.191-.868-1.215-.489-4.459 2.606-4.459h3.673c-1.293-9.886-6.158-14.235-12.002-11.144-4.332 2.293-15.855 8.273-21.878 11.408h-.01c-1.529.798-2.714 1.404-3.319 1.722-.297.155-.462.236-.462.236s-.298.217-.814.508l.081.226s2.171 5.03 4.278 9.93c.243.545.479 1.097.706 1.631.523 1.232 1.04 2.411 1.492 3.46a226.398 226.398 0 011.664 3.951c.797 1.985 6.503 3.281 10.402-2.492 3.899-5.77 8.258-9.569 8.258-9.569v1.872c0 .852.691 1.544 1.542 1.544h9.421l-2.597 2.192s4.524.054 5.591 3.67c-.084-8.315-.799-10.854-2.643-10.854zm-9.111-5.14l-4.524 5.605s-2.928-2.396-7.55-1.684c-.516.078-.762-.604-.314-.875 3.818-2.307 8.486-3.672 8.486-3.672l-8.228.192a3.356 3.356 0 01-2.456-.985l11.174-1.911a2.921 2.921 0 013.41 2.884v.446h.002z" fill="#fff"/><path d="M193.908 46.094c.339.087 1.018-1.473 1.018-1.473l-3.846 1.33c0 .003 2.488.06 2.828.143zm11.98-1.968l-.824.759h3.454l-2.119-.813a.569.569 0 00-.511.054zm-6.527 14.512l-3.312-4.322-3.825 5.228h6.458l.679-.906zm8.383 6.505a.264.264 0 00-.263-.264h-7.407l-7.118-1.712h-1.202a.265.265 0 00-.27.264v1.377c0 10.347 11.368 9.024 11.368 9.024v-2.347c0-.325-.155-.643-.416-.852l-3.129-2.493a.473.473 0 01.297-.842h4.912a.95.95 0 01.949.95v5.582h3.816l-1.537-1.813v-6.874z" fill="#fff"/><path d="M218.052 25.753a1.382 1.382 0 01-.626-1.05c-.094-1-.2-3.293-.713-5.425a.19.19 0 01-.01-.04v-.007c-.517-2.12-1.436-4.076-3.147-4.44-3.223-.686-9.195 2.726-10.554 3.423l.002-.008c-.13.07-.26.138-.391.202a.402.402 0 01-.565-.259c-.435-1.497-1.269-3.233-2.235-4.948-.007-.012-.01-.024-.015-.037-3.284-5.948-6.997-9.753-12.735-11.952-6.023-2.31-12.25-1.17-14.31 2.123-1.087 1.736-2.1 2.556-6.833 3.633-4.732 1.076-8.022 3.847-9.62 6.063-1.401 1.946-1.526 5.761-1.421 9.205a98.015 98.015 0 00.057 1.416c.128 1.463.398 3.642.374 3.99-.032.488-.261.569-.438.65-.179.081-.942.286-2.835 1.911-11.682 10.12-19.092 25.063-19.092 41.713 0 31.89 27.159 57.547 59.52 54.976 26.945-2.141 48.555-24.009 50.445-51.023 1.468-20.915-8.801-39.594-24.858-50.116zm17.63 27.277c.28.71.548 1.424.799 2.145a65.462 65.462 0 00-24.855 8.741v1.941a63.899 63.899 0 0125.376-9.09c.212.684.406 1.376.59 2.073-9.302 1.167-18.141 4.396-25.964 9.502v2.099a59.767 59.767 0 0126.377-9.902c.15.666.288 1.338.411 2.013-9.502 1.152-18.33 4.608-25.9 9.802.73-.005 1.876-.005 3.307.018a56.248 56.248 0 0122.893-8.027c.096.645.179 1.293.251 1.946-6.867.81-13.473 2.889-19.516 6.174 1.225.044 2.533.106 3.89.192a52.151 52.151 0 0115.798-4.472c.044.613.079 1.231.101 1.85a50.378 50.378 0 00-11.885 2.943c1.571.152 3.142.34 4.659.57a48.337 48.337 0 017.26-1.49 52.34 52.34 0 01-.034 1.777 47.234 47.234 0 00-3.118.502c1.107.266 2.124.569 3.044.909-.057.892-.14 1.776-.243 2.653a69.458 69.458 0 00-20.374-3.047 70.75 70.75 0 00-6.923.342v1.57a68.422 68.422 0 016.923-.35 67.9 67.9 0 0120.167 3.058 54.862 54.862 0 01-.376 2.215 66.082 66.082 0 00-19.196-3.037c-2.53-.018-5.037.12-7.516.379v1.643a65.544 65.544 0 016.906-.377l.595.002a64.397 64.397 0 0118.872 3.01c-.16.7-.33 1.394-.517 2.084a62.299 62.299 0 00-17.743-2.943 62.451 62.451 0 00-7.864.367c.14.576.344 1.13.597 1.662a60.95 60.95 0 017.235-.29A60.108 60.108 0 01237 87.08a49.302 49.302 0 01-.637 1.919 58.559 58.559 0 00-16.024-2.749 59.28 59.28 0 00-6.567.178 8.35 8.35 0 002.014 1.675l.014.01a55.716 55.716 0 014.485-.043 56.741 56.741 0 0115.441 2.636c-.24.613-.491 1.224-.754 1.825a54.445 54.445 0 00-14.033-2.483c-.637-.03-1.269-.03-1.903-.037l3.508 2.06a52.526 52.526 0 0111.621 2.204 50.803 50.803 0 01-1.974 3.694l-15.296-5.406c-.278-.099-.458.29-.202.438l13.6 7.87c.02.012.042.004.064.009-9.359 13.709-25.177 22.642-43.063 22.399-17.504-.239-33.027-9.453-42.116-23.248l-.656-1.062c5.389-5.1 12.327-8.569 20.029-9.613v-1.579a37.72 37.72 0 00-20.875 9.828l-.147-.24c-.236-.408-.463-.82-.686-1.236 5.893-5.379 13.403-9 21.708-10.031v-1.574c-8.568 1.022-16.327 4.697-22.451 10.177a51.342 51.342 0 01-.747-1.57c6.362-5.563 14.375-9.27 23.198-10.28v-1.57c-9.045 1-17.273 4.735-23.85 10.363a52.586 52.586 0 01-.649-1.625c6.795-5.675 15.238-9.426 24.499-10.411v-1.57c-9.443.971-18.072 4.717-25.062 10.417a51.864 51.864 0 01-.548-1.695c7.189-5.707 15.995-9.438 25.612-10.391V74.8c-9.757.939-18.711 4.653-26.072 10.35a59.413 59.413 0 01-.44-1.752c7.533-5.667 16.624-9.347 26.512-10.268v-1.569a53.585 53.585 0 00-26.871 10.155 49.982 49.982 0 01-.359-2.084c.369-.266.785-.559 1.249-.876-.467-.099-.934-.19-1.406-.279a55.22 55.22 0 01-.165-1.428c1.067.192 2.127.404 3.172.652a60.57 60.57 0 012.198-1.33 59.589 59.589 0 00-5.525-1.206c-.029-.48-.061-.959-.078-1.441v-.057c2.53.416 5.013.978 7.432 1.692.71-.377 1.455-.753 2.23-1.123a62.595 62.595 0 00-9.675-2.32c0-.532.003-1.064.018-1.594a64.125 64.125 0 0111.741 2.97 55.028 55.028 0 012.27-.906 65.931 65.931 0 00-13.933-3.719c.035-.559.084-1.113.136-1.665a67.61 67.61 0 0116.203 4.56 46.226 46.226 0 012.363-.67 69.036 69.036 0 00-18.407-5.441c1.525-12.108 7.263-22.896 15.693-30.871.015-.02.022-.042.039-.06.13-.122.295-.273.47-.43.044-.04.083-.084.128-.123.014-.013.029-.02.044-.032.703-.621 1.568-1.335 1.809-1.468.325-.18.846-.082 1.023 1.042.177 1.123.13 4.199.098 4.866-.019.38.022.564-.059.747.008.03.02.056.027.086-.073.059-.164.128-.245.19-.069.063-.15.13-.259.214l-.007-.008c-1.409 1.047-3.698 2.392-6.409 2.643-4.389.407-3.255 23.556 16.619 23.044h2.164v19.728c0 3.125 1.086 12.152 10.588 12.716-.002.003-1.981 2.557-3.562 5.209-1.583 2.665.28 7.195 5.082 7.195 4.811 0 8.882 3.625 8.882 3.625s1.918-9.623 8.022-9.623V92.07h.005v-2.798a22.148 22.148 0 01-3.304.252c-1.434 0-2.832-.143-4.187-.404v.002c-8.76-.899-15.737-7.105-17.876-9.371.2-1.737 0-13.443 0-13.443l.008.002a42.008 42.008 0 01-.086-2.613c0-.118-.005-.227-.01-.325-.047-1.628-1.052-2.303-2.196-2.542v-7.214c0-.234-.007-.46-.024-.687v-.007c-.071-1.22-.344-2.274-.897-3.07-.015-.024-.04-.053-.062-.085a4.075 4.075 0 00-1.418-1.101c-.5-.212-1.092-.32-1.785-.32-.539 0-1.07.054-1.559.18a4.23 4.23 0 00-2.564 2.869 3.495 3.495 0 011.652-1.362c.403-.106.841-.15 1.283-.15.571 0 1.06.09 1.47.27.455.217.853.54 1.168.929.02.027.039.051.052.071.455.67.681 1.56.737 2.586v.028l-.931.467a.105.105 0 00-.072.183l.027.024a.815.815 0 01.317.195l1.212 1.214-1.216 1.22a.86.86 0 01-1.21 0 .863.863 0 01-.002-1.215l.004-.005a.85.85 0 01-.25-.606c0-.007.005-.015.005-.024h-.013v-3.293a.754.754 0 00-.282-.606.73.73 0 00-.964.069l-1.768 1.852a.256.256 0 00.18.43l1.381.025v2.535c0 1.074.667 2.005 1.699 2.367.31.108.63.162.947.162.322 0 .641-.074.954-.177v2.38l-2.085.191-.008-.014c-16.469 1.226-17.479-16.803-13.735-17.11a13.81 13.81 0 005.192-1.476v.005l.226-.118.022-.013c1.008-.53 4.846-2.561 5.984-3.342 1.045-.717-2.579.921-4.42 1.685a.578.578 0 01.032-.111c2.879-7.409-5.91-22.22 1.819-28.196 5.264-4.069 9.633-3.768 12.435-5.485 1.171-.717 1.148-1.522 2.761-2.589 1.608-1.061 11.218-4.004 18.994 6.22 2.056 2.701 4.647 6.245 5.291 7.768a.847.847 0 01-.393 1.08l-28.147 14.823c2.37-1.042 28.046-12.35 31.82-14.182 1.927-.933 5.187-2.8 7.429-2.8 1.32 0 2.451.345 3.113 1.241.216.29.381.636.489 1.042.543 1.566.383 5.118.157 8.473a51.58 51.58 0 0120.383 23.474 69.244 69.244 0 00-23.441 7.992v1.79a67.693 67.693 0 0124.046-8.282z" fill="#fff"/><path d="M188 137.044c-17.381 0-33.723-6.781-46.015-19.095-12.29-12.313-19.061-28.684-19.061-46.1 0-11.546 3.053-22.89 8.828-32.809a65.503 65.503 0 0123.206-23.368l2.375 4.03c-18.343 10.849-29.738 30.83-29.738 52.145 0 33.366 27.098 60.512 60.403 60.512S248.4 105.213 248.4 71.847c0-30.462-22.716-56.276-52.84-60.044l.578-4.643c32.456 4.059 56.931 31.868 56.931 64.687 0 17.413-6.769 33.784-19.061 46.099-12.292 12.315-28.627 19.098-46.008 19.098z" fill="#fff"/></svg>