<svg xmlns="http://www.w3.org/2000/svg" viewBox="0 0 487.29 128.48"><title>4mebeles-logo</title><path d="M226.57,91c0,1.2-.66,1.31-1.31,1.31H212.18c-.66,0-1.31-.11-1.31-1.31V54.55c0-2.94-.33-8.82-7.08-8.82-3.82,0-7.85,2.39-9.6,3.7l-1,.77V85.51h6.11c1.2,0,1.31.65,1.31,1.31V91c0,.65-.11,1.31-1.31,1.31H186.24c-.66,0-1.31-.11-1.31-1.31V54.55c0-2.5,0-8.82-7.19-8.82-4.15,0-8,2.39-10.47,4.47V85.51h6.22c1.19,0,1.3.65,1.3,1.31V91c0,.65-.11,1.31-1.3,1.31H152.78c-.66,0-1.31-.11-1.31-1.31V86.82c0-1.2.65-1.31,1.31-1.31H159V53.57a28.52,28.52,0,0,0-.44-5.88l-.21-1h-6.22c-.65,0-1.3-.11-1.3-1.31V41.26c0-1.2.65-1.31,1.3-1.31h10.47c1.52,0,2,.65,3.16,4.14l.21.65c5.35-3.92,9.6-6.32,15.26-6.32a10.72,10.72,0,0,1,10,5.78l.44.76c2.83-2.39,8.83-6.54,15.58-6.54a11.33,11.33,0,0,1,8.51,3.38c3.37,3.6,3.37,8.18,3.37,13V85.51h6.11c.65,0,1.31.11,1.31,1.31Z" fill="#fff"/><path d="M270.28,87.58a1.5,1.5,0,0,1,.1.65c0,.44-.65,1.09-4,2.73A30.12,30.12,0,0,1,254,93.79c-10.25,0-15.48-4.9-18.1-8.28-4.9-6.43-5.67-13.73-5.67-19.4,0-7.74,1.64-15.15,6.76-21A19,19,0,0,1,252,38.42c6.54,0,11,2.62,13.52,5.34,5.67,6,6.21,16.68,6.21,21.69V66c0,1.52-.43,1.85-1.2,1.85H239.21v.55a23.87,23.87,0,0,0,2.73,11.11,14.21,14.21,0,0,0,12.31,7c4.47,0,8.4-1.74,12-3.82a7.25,7.25,0,0,1,1.31-.54h.22a.65.65,0,0,1,.54.54Zm-7.53-26.49A25.2,25.2,0,0,0,261,51.83c-2.18-5.23-6.1-6.65-9.7-6.65a10.77,10.77,0,0,0-10,6.43,23.7,23.7,0,0,0-2.07,9.48Z" fill="#fff"/><path d="M290.66,44l1-.76c2.73-2.07,6.65-4.8,12.86-4.8,17.44,0,17.66,19.51,17.66,25.51,0,5.12-.44,14.6-4.36,21.47-2.29,4-6.43,8.39-15.48,8.39a19.89,19.89,0,0,1-13.95-5.34l-.22.55c-.65,1.63-2.18,4.79-3.38,4.79a2.44,2.44,0,0,1-1.3-.65l-3.6-2.4c-.44-.33-.87-.54-.87-1v-.11c0-.44.32-.54.43-.76l.33-.44A16.38,16.38,0,0,0,282.38,79V20.88h-7.09c-1.2,0-1.31-.66-1.31-1.31V15.43c0-.66.11-1.31,1.31-1.31h14.06c.66,0,1.31.11,1.31,1.31Zm0,38.37c2.94,2.07,7.52,4.14,11.23,4.14,2.94,0,7.41-1.2,9.48-7.41,1.31-3.93,1.85-10.9,1.85-15.59,0-3.16-.22-9.81-2-13.08-1.85-3.59-4.69-4.68-8.28-4.68-2.84,0-5.67,1-10.25,4l-2.07,1.42Z" fill="#fff"/><path d="M369.79,87.58a1.38,1.38,0,0,1,.11.65c0,.44-.65,1.09-4,2.73a30.13,30.13,0,0,1-12.32,2.83c-10.24,0-15.48-4.9-18.09-8.28-4.91-6.43-5.67-13.73-5.67-19.4,0-7.74,1.64-15.15,6.76-21a19,19,0,0,1,14.93-6.65c6.54,0,11,2.62,13.52,5.34,5.66,6,6.21,16.68,6.21,21.69V66c0,1.52-.44,1.85-1.2,1.85H338.73v.55a24,24,0,0,0,2.72,11.11,14.23,14.23,0,0,0,12.32,7c4.47,0,8.39-1.74,12-3.82a7,7,0,0,1,1.31-.54h.21a.66.66,0,0,1,.55.54Zm-7.52-26.49a25.2,25.2,0,0,0-1.74-9.26c-2.18-5.23-6.11-6.65-9.7-6.65a10.76,10.76,0,0,0-10,6.43,23.53,23.53,0,0,0-2.07,9.48Z" fill="#fff"/><path d="M402.38,90.3c.22.66.66,1.2-1,1.86a20.33,20.33,0,0,1-8.17,1.63c-5.67,0-8.94-2.72-10.14-5.23-1.42-2.94-1.53-6.76-1.53-9.37V20.88H375c-1.19,0-1.3-.66-1.3-1.31V15.43c0-.66.11-1.31,1.3-1.31h13.52c.65,0,1.31.11,1.31,1.31V76.79c0,4.69.22,7.19,1.09,8.28a4.71,4.71,0,0,0,3.59,1.42,13.28,13.28,0,0,0,4.36-1,4.62,4.62,0,0,1,1.31-.44c.55,0,.66.44.76.66Z" fill="#fff"/><path d="M444.56,87.58a1.38,1.38,0,0,1,.11.65c0,.44-.65,1.09-4,2.73a30.13,30.13,0,0,1-12.32,2.83c-10.24,0-15.47-4.9-18.09-8.28-4.9-6.43-5.67-13.73-5.67-19.4,0-7.74,1.64-15.15,6.76-21a19,19,0,0,1,14.93-6.65c6.54,0,11,2.62,13.52,5.34,5.67,6,6.21,16.68,6.21,21.69V66c0,1.52-.44,1.85-1.2,1.85H413.5v.55a23.87,23.87,0,0,0,2.73,11.11,14.21,14.21,0,0,0,12.31,7c4.47,0,8.39-1.74,12-3.82a7.25,7.25,0,0,1,1.31-.54h.22a.65.65,0,0,1,.54.54ZM437,61.09a25.2,25.2,0,0,0-1.74-9.26c-2.18-5.23-6.1-6.65-9.7-6.65a10.77,10.77,0,0,0-10,6.43,23.53,23.53,0,0,0-2.07,9.48Z" fill="#fff"/><path d="M478.25,46.92l-.66-.21a23.24,23.24,0,0,0-6.76-1.2c-5.55,0-7.74,3.59-7.74,7.19a7.5,7.5,0,0,0,1.1,4.14c1.19,2,3.7,3.38,9.48,6.11,3.92,1.74,8.83,3.92,11.33,7.63a13.76,13.76,0,0,1,2.29,7.74c0,8.82-6.87,15.47-17.44,15.47a37.29,37.29,0,0,1-13.51-2.94c-1.53-.65-3-1.42-3-2.51v-10c0-1.2.65-1.31,1.3-1.31h4.47c.66,0,1.31.11,1.31,1.31v6.32l.87.32a32,32,0,0,0,8.94,1.75c6.54,0,8.83-4,8.83-7.85A6.71,6.71,0,0,0,476,73a30.93,30.93,0,0,0-4.69-2.72l-6.21-2.94c-6.65-3.27-10.25-7.09-10.25-13.74a15,15,0,0,1,4.58-10.9,16.54,16.54,0,0,1,11.66-4.25,33.13,33.13,0,0,1,13.08,3.27,1.93,1.93,0,0,1,1.2,1.75v9.48c0,1.2-.65,1.31-1.31,1.31h-4.47c-.65,0-1.3-.11-1.3-1.31Z" fill="#fff"/><path d="M30.39,87.72h35v-13H87.75v13h36.58A64.41,64.41,0,0,0,82.52,2.25Z" fill="#f0c44a"/><path d="M87.75,124.11a64.58,64.58,0,0,0,21.72-14H87.75Z" fill="#fff"/><path d="M65.38,110.09h-46a64.23,64.23,0,0,0,45.06,18.39l1,0Z" fill="#c8494c"/><path d="M57.7,0A64.41,64.41,0,0,0,4.38,87.41Z" fill="#76b499"/></svg>