<svg width="1000" height="269" viewBox="0 0 1000 269" fill="none" xmlns="http://www.w3.org/2000/svg">
<path d="M95.2263 168.75C101.892 164.933 107.592 159.021 112.046 150.438L139.158 161.723C128.273 186.815 105.364 201.988 72.0826 202.264C53.5597 202.403 35.7938 196.531 22.6696 184.564C9.5606 172.611 1 154.501 1 129.988C1 105.475 9.56063 87.3596 22.6698 75.4003C35.7942 63.427 53.5604 57.5498 72.0834 57.6892C90.476 57.8286 108.32 63.7027 121.552 75.6076C134.767 87.496 143.463 105.47 143.463 129.988C143.463 133.628 143.227 137.047 142.754 140.429H38.0525H36.9091L37.0615 141.563C38.8028 154.514 43.8423 162.862 50.3843 167.919C56.9075 172.962 64.804 174.641 72.108 174.497C80.526 174.354 88.3554 172.685 95.2263 168.75ZM37.6419 114.585L37.3569 115.811H38.6159H105.566H106.812L106.542 114.595C104.208 104.076 99.2956 96.7701 93.0761 92.0654C86.8678 87.3691 79.428 85.3178 72.111 85.1734C64.9078 85.0285 57.5256 87.0152 51.314 91.7505C45.0956 96.4909 40.117 103.935 37.6419 114.585Z" stroke="#4EF19F" stroke-width="2"/>
<path d="M285.584 59.4042L232.833 200.548H195.886L143.135 59.4042H182.441L213.395 156.908L214.348 159.911L215.301 156.908L246.254 59.4042H285.584Z" stroke="#4EF19F" stroke-width="2"/>
<path d="M333.677 167.919C340.201 172.963 348.099 174.641 355.404 174.497C363.821 174.354 371.649 172.684 378.519 168.75C385.185 164.933 390.885 159.021 395.339 150.438L422.451 161.723C411.589 186.815 388.658 201.988 355.376 202.263C336.853 202.403 319.087 196.531 305.963 184.561C292.854 172.605 284.293 154.489 284.293 129.965C284.293 105.44 292.854 87.3244 305.963 75.368C319.087 63.3978 336.853 57.5263 355.376 57.6657C373.769 57.8051 391.613 63.6792 404.845 75.5841C418.06 87.4724 426.756 105.446 426.756 129.965C426.756 133.626 426.52 137.047 426.047 140.429H321.345H320.202L320.354 141.563C322.096 154.514 327.135 162.861 333.677 167.919ZM320.935 114.584L320.648 115.811H321.909H388.859H390.105L389.835 114.595C387.501 104.088 382.594 96.7878 376.378 92.0831C370.173 87.3868 362.733 85.3297 355.405 85.1734L355.404 85.1734C348.201 85.0285 340.824 87.0153 334.616 91.7506C328.4 96.4909 323.422 103.935 320.935 114.584Z" stroke="#4EF19F" stroke-width="2"/>
<path d="M481.687 155.455V200.549H446.503V59.4042H481.687V84.7401L483.597 85.1557C488.103 75.2919 494.195 68.3049 501.999 63.7707C509.715 59.2871 519.185 57.1557 530.609 57.1029V87.7619C514.532 87.906 502.263 91.5729 494.035 101.834C485.691 112.24 481.687 129.212 481.687 155.455Z" stroke="#4EF19F" stroke-width="2"/>
<path d="M642.842 59.4277H680.443L619.735 221.519L619.729 221.537L619.723 221.554C613.609 239.91 605.906 251.445 596.753 258.405C587.614 265.354 576.908 267.833 564.591 267.833H557.868V237.201H564.591C571.243 237.201 575.636 237.012 578.964 234.935C582.322 232.84 584.418 228.949 586.981 222.251L586.986 222.236L586.991 222.222L594.151 201.618L594.269 201.277L594.143 200.939L541.15 59.4277H578.757L609.701 150.654L610.644 153.433L611.594 150.657L642.842 59.4277Z" stroke="#4EF19F" stroke-width="2"/>
<path d="M755.675 87.1701H754.675V88.1701V200.548H719.491V88.1701V87.1701H718.491H697.167V59.4042H718.491H719.491V58.4042V50.6756C719.503 32.604 723.35 20.3 732.499 12.4589C741.555 4.69774 756.028 1.10805 777.868 1.00241V29.3583C769.382 29.446 763.556 30.6809 759.858 33.97C755.978 37.4217 754.699 42.8945 754.699 50.6749V58.4042V59.4042H755.699H778.737V87.1701H755.675Z" stroke="#4EF19F" stroke-width="2"/>
<path d="M806.089 2.15121H842.423V37.6464H806.089V2.15121ZM806.653 59.4042H841.837V200.548H806.653V59.4042Z" stroke="#4EF19F" stroke-width="2"/>
<path d="M999 120.826V200.572H963.816V120.826C963.816 108.672 963.255 98.2678 960.615 90.8874C959.288 87.1762 957.411 84.1555 954.749 82.0659C952.074 79.9666 948.697 78.877 944.506 78.877C939.302 78.877 929.681 80.3015 921.39 90.1515C913.131 99.9639 906.322 117.989 906.322 150.874V200.548H871.138V59.4042H906.299V87.6062L908.186 88.0671C919.18 66.8966 936.319 57.1253 955.07 57.1253C964.937 57.1253 972.563 59.2397 978.467 62.8213C984.369 66.4018 988.615 71.4888 991.66 77.5423C997.772 89.6952 999 105.66 999 120.826Z" stroke="#4EF19F" stroke-width="2"/>
</svg>
