<svg width="1920" height="546" viewBox="0 0 1920 546" fill="none" xmlns="http://www.w3.org/2000/svg">
<path d="M46.9611 340.228C59.9736 350.288 75.7599 353.662 90.4336 353.373C107.407 353.085 123.127 349.72 136.892 341.838C150.454 334.071 162.055 321.957 171.084 304.222L227.988 327.908C205.872 379.861 158.785 411.262 90.4083 411.828C52.5718 412.113 16.2245 400.119 -10.6527 375.611C-37.5147 351.117 -55 314.048 -55 264.006C-55 213.963 -37.5147 176.882 -10.6525 152.376C16.225 127.856 52.5726 115.851 90.4091 116.136C127.97 116.421 164.468 128.417 191.562 152.793C218.639 177.152 236.405 213.946 236.405 264.006C236.405 271.764 235.879 279.034 234.827 286.243H21.2847H20.1413L20.2936 287.376C23.8018 313.468 33.9299 330.154 46.9611 340.228ZM21.4549 232.956L21.1699 234.182H22.429H158.404H159.651L159.381 232.965C154.686 211.813 144.831 197.199 132.416 187.807C120.011 178.424 105.123 174.308 90.4367 174.018C76.0091 173.728 61.2512 177.707 48.8437 187.165C36.4295 196.629 26.435 211.527 21.4549 232.956Z" stroke="#4EF19F" stroke-width="2"/>
<path d="M380.293 318.369L443.387 119.619H525.507L417.599 408.345H341.129L233.221 119.619H315.293L378.387 318.369L379.34 321.372L380.293 318.369Z" stroke="#4EF19F" stroke-width="2"/>
<path d="M622.329 340.228C635.342 350.288 651.128 353.662 665.802 353.373C682.775 353.085 698.495 349.72 712.26 341.837C725.823 334.071 737.423 321.957 746.452 304.222L803.357 327.908C781.287 379.86 734.153 411.262 665.776 411.828C627.94 412.113 591.593 400.119 564.716 375.605C537.854 351.105 520.368 314.024 520.368 263.958C520.368 213.892 537.854 176.811 564.716 152.311C591.593 127.797 627.94 115.803 665.777 116.088C703.338 116.373 739.836 128.369 766.93 152.745C794.007 177.104 811.773 213.898 811.773 263.958C811.773 271.762 811.247 279.034 810.195 286.243H596.653H595.509L595.662 287.376C599.17 313.468 609.298 330.153 622.329 340.228ZM596.823 232.955L596.537 234.182H597.797H733.772H735.019L734.749 232.965C730.055 211.837 720.211 197.234 707.802 187.843C695.404 178.46 680.516 174.332 665.806 174.018L665.805 174.018C651.377 173.728 636.631 177.707 624.23 187.165C611.822 196.629 601.827 211.527 596.823 232.955Z" stroke="#4EF19F" stroke-width="2"/>
<path d="M923.338 315.729V408.345H849.817V119.619H923.338V172.107L925.248 172.523C934.473 152.328 946.979 137.96 963.042 128.627C979.115 119.287 998.832 114.943 1022.55 114.943H1022.7V179.269C989.673 179.413 964.791 186.766 948.189 207.47C931.474 228.315 923.338 262.479 923.338 315.729Z" stroke="#4EF19F" stroke-width="2"/>
<path d="M1248.88 119.667H1327.47L1203.65 450.267L1203.64 450.285L1203.64 450.302C1191.18 487.696 1175.44 511.336 1156.63 525.641C1137.83 539.936 1115.84 545 1090.68 545H1076V480.724H1090.68C1104.27 480.724 1112.87 480.311 1119.33 476.278C1125.82 472.227 1129.98 464.648 1135.19 451.023L1135.2 451.009L1135.21 450.994L1149.75 409.148L1149.87 408.807L1149.74 408.469L1041.59 119.667H1120.19L1183.28 305.648L1184.22 308.426L1185.17 305.651L1248.88 119.667Z" stroke="#4EF19F" stroke-width="2"/>
<path d="M1478.78 178.073H1477.78V179.073V408.345H1404.26V179.073V178.073H1403.26H1358.91V119.619H1403.26H1404.26V118.619V102.921C1404.28 66.1024 1412.11 40.7369 1431.03 24.5213C1449.86 8.38686 1479.89 1.10711 1524.88 1.00117V60.6499C1507.11 60.7387 1495.31 63.2229 1487.96 69.7633C1480.43 76.4608 1477.82 87.1715 1477.82 102.921V118.619V119.619H1478.82H1526.65V178.073H1478.78Z" stroke="#4EF19F" stroke-width="2"/>
<path d="M1580.14 3.33813H1655.99V77.4909H1580.14V3.33813ZM1581.28 119.619H1654.8V408.345H1581.28V119.619Z" stroke="#4EF19F" stroke-width="2"/>
<path d="M1974 245.397V408.393H1900.48V245.397C1900.48 220.697 1899.33 199.738 1894.04 184.94C1891.38 177.519 1887.66 171.574 1882.46 167.487C1877.24 163.39 1870.61 161.23 1862.29 161.23C1851.92 161.23 1832.71 164.06 1816.13 183.762C1799.58 203.426 1785.77 239.75 1785.77 306.424V408.345H1712.25V119.619H1785.72V177.928L1787.61 178.389C1810.1 135.08 1845.25 114.99 1883.75 114.99C1903.94 114.99 1919.62 119.318 1931.8 126.709C1943.98 134.098 1952.73 144.589 1958.98 157.025C1971.51 181.943 1974 214.584 1974 245.397Z" stroke="#4EF19F" stroke-width="2"/>
</svg>
