<svg width="308" height="82" viewBox="0 0 308 82" fill="none" xmlns="http://www.w3.org/2000/svg">
<path d="M44.2308 43.1393H11.7185C12.7758 50.9114 17.798 53.0073 22.2035 52.92C27.3138 52.8326 31.6312 50.9114 34.3625 45.4972L43.2616 49.1649C39.9134 57.1116 32.6885 61.9146 22.2035 62.002C10.6612 62.0893 0 54.7538 0 39.6463C0 24.5387 10.6612 17.2032 22.2035 17.2906C33.6577 17.3779 44.4951 24.5387 44.4951 39.6463C44.4951 40.8688 44.407 42.0041 44.2308 43.1393ZM11.8947 35.0179H32.5123C31.1025 28.7304 26.6089 26.3726 22.2035 26.2852C17.8861 26.1979 13.3926 28.6431 11.8947 35.0179Z" fill="white"/>
<path d="M88.403 17.8147L71.9266 61.4782H60.1199L43.6436 17.8147H56.4194L66.0233 47.7678L75.6271 17.8147H88.403Z" fill="white"/>
<path d="M131.488 43.1393H98.9758C100.033 50.9114 105.055 53.0073 109.461 52.92C114.571 52.8326 118.888 50.9114 121.62 45.4972L130.519 49.1649C127.171 57.1116 119.946 61.9146 109.461 62.002C97.9185 62.0893 87.2573 54.7538 87.2573 39.6463C87.2573 24.5387 97.9185 17.2032 109.461 17.2906C120.915 17.3779 131.752 24.5387 131.752 39.6463C131.752 40.8688 131.664 42.0041 131.488 43.1393ZM99.1521 35.0179H119.77C118.36 28.7304 113.866 26.3726 109.461 26.2852C105.143 26.1979 100.65 28.6431 99.1521 35.0179Z" fill="white"/>
<path d="M163.736 17.1162V27.0715C153.604 27.0715 148.67 31.4378 148.67 47.4187V61.4783H137.215V17.8148H148.67V25.8489C151.489 19.736 156.335 17.1162 163.56 17.1162H163.736Z" fill="white"/>
<path d="M210.023 17.8147L191.167 67.6784C187.379 78.9436 181.563 82 173.898 82H171.519V72.0447H173.898C178.039 72.0447 178.92 71.7828 180.506 67.6784L182.709 61.3909L166.232 17.8147H178.48L188.083 45.8467L197.775 17.8147H210.023Z" fill="white"/>
<path d="M240.156 26.8967H232.755V61.4782H221.301V26.8967H214.428V17.8147H221.301V15.4569C221.301 4.36635 226.059 0 239.892 0V9.25666C234.341 9.25666 232.755 10.7412 232.755 15.4569V17.8147H240.156V26.8967Z" fill="white"/>
<path d="M247.968 0.349365H259.775V11.7892H247.968V0.349365ZM259.599 61.4782V17.8148H248.144V61.4782H259.599Z" fill="white"/>
<path d="M308 36.8521V61.4783H296.546V36.8521C296.546 29.4293 295.841 24.3643 290.907 24.3643C287.823 24.3643 279.453 26.0236 279.453 46.0214V61.4783H267.999V17.8148H279.453V26.7222C282.889 20.1727 288.264 17.1162 294.167 17.1162C306.502 17.1162 308 27.5954 308 36.8521Z" fill="white"/>
</svg>
