<svg width="308" height="82" viewBox="0 0 308 82" fill="none" xmlns="http://www.w3.org/2000/svg"><path d="M44.23 43.14H11.72c1.057 7.771 6.079 9.867 10.484 9.78 5.11-.087 9.428-2.009 12.16-7.423l8.899 3.668c-3.349 7.947-10.574 12.75-21.059 12.837C10.661 62.089 0 54.754 0 39.646 0 24.54 10.661 17.203 22.203 17.291c11.455.087 22.292 7.248 22.292 22.355 0 1.223-.088 2.358-.264 3.493zm-32.335-8.122h20.617c-1.41-6.288-5.903-8.645-10.309-8.733-4.317-.087-8.81 2.358-10.308 8.733zm76.508-17.203L71.927 61.478H60.12L43.644 17.815h12.775l9.604 29.953 9.604-29.953h12.776zm43.085 25.325H98.976c1.057 7.771 6.079 9.867 10.485 9.78 5.11-.087 9.427-2.009 12.159-7.423l8.899 3.668c-3.348 7.947-10.573 12.75-21.058 12.837-11.543.087-22.204-7.248-22.204-22.356 0-15.107 10.661-22.443 22.204-22.355 11.454.087 22.291 7.248 22.291 22.355 0 1.223-.088 2.358-.264 3.493zm-32.336-8.122h20.618c-1.41-6.288-5.904-8.645-10.309-8.733-4.318-.087-8.811 2.358-10.309 8.733zm64.584-17.902v9.956c-10.132 0-15.066 4.366-15.066 20.347v14.06h-11.455V17.814h11.455v8.034c2.819-6.113 7.665-8.733 14.89-8.733h.176zm46.287.699l-18.856 49.863C187.379 78.944 181.563 82 173.898 82h-2.379v-9.955h2.379c4.141 0 5.022-.262 6.608-4.367l2.203-6.287-16.477-43.576h12.248l9.603 28.032 9.692-28.032h12.248zm30.133 9.082h-7.401v34.581h-11.454V26.897h-6.873v-9.082h6.873v-2.358C221.301 4.367 226.059 0 239.892 0v9.257c-5.551 0-7.137 1.484-7.137 6.2v2.358h7.401v9.082zM247.968.35h11.807v11.44h-11.807V.35zm11.631 61.128V17.815h-11.455v43.663h11.455zM308 36.852v24.626h-11.454V36.852c0-7.423-.705-12.488-5.639-12.488-3.084 0-11.454 1.66-11.454 21.657v15.457h-11.454V17.815h11.454v8.907c3.436-6.55 8.811-9.606 14.714-9.606 12.335 0 13.833 10.48 13.833 19.736z" fill="#fff"/></svg>