<svg fill="#f3e2c3" id="Layer_1" data-name="Layer 1" xmlns="http://www.w3.org/2000/svg" viewBox="0 0 583.5 51.1"><path d="M242.2,314.1H221.7l-3.5,8.6H208l19.2-44.2h10.3l18.9,44.2H245.7Zm-3.2-8-7-17.2-7,17.2h14Z" transform="translate(-129.2 -272.1)"/><path d="M285.6,278.5v44.2h-10V278.5h10Z" transform="translate(-129.2 -272.1)"/><path d="M345.3,278.5v6.7l-24.7,29.2h25.1l-0.1,8.3H307.1V316l24.8-29.1H308v-8.3h37.3v-0.1Z" transform="translate(-129.2 -272.1)"/><path d="M396.1,322.7l-12.7-18-6.4,7.1v10.9H367V278.5h10v20.1l18.4-20.1H407L390.4,297l17.8,25.8H396.1v-0.1Z" transform="translate(-129.2 -272.1)"/><path d="M444,314.4c5.9,0,9.9-3.9,9.9-10.2V278.5h10v25.7c0,11.7-7.6,19-19.8,19s-20.1-7.3-20.1-19V278.5h10v25.7C433.9,310.6,438.1,314.4,444,314.4Z" transform="translate(-129.2 -272.1)"/><path d="M493.9,278.5V314h19v8.7H484V278.5h9.9Z" transform="translate(-129.2 -272.1)"/><path d="M543.4,278.5v44.2h-10V278.5h10Z" transform="translate(-129.2 -272.1)"/><path d="M583.1,286.6c-3.3,0-5.6,1.2-5.6,3.6,0,8.2,23.6,3.6,23.5,19.5,0,8.7-7.5,13.3-17.3,13.3a31.12,31.12,0,0,1-19.5-7l4-8.2c4.6,4,11,6.6,15.7,6.6,4.1,0,6.6-1.5,6.6-4.2,0-8.3-23.6-3.5-23.6-19.1,0-8,6.9-13.1,17.1-13.1a31.56,31.56,0,0,1,16.8,4.8l-3.9,8.3C592.2,288.3,586.7,286.6,583.1,286.6Z" transform="translate(-129.2 -272.1)"/><path d="M656.3,278.5v8.3H632.6v9.6h21.3v8.3H632.6v9.8H657v8.3H622.6V278.6h33.7v-0.1Z" transform="translate(-129.2 -272.1)"/><path d="M694.8,286.6c-3.3,0-5.6,1.2-5.6,3.6,0,8.2,23.6,3.6,23.5,19.5,0,8.7-7.5,13.3-17.3,13.3a31.12,31.12,0,0,1-19.5-7l4-8.2c4.6,4,11,6.6,15.7,6.6,4.1,0,6.6-1.5,6.6-4.2,0-8.3-23.6-3.5-23.6-19.1,0-8,6.9-13.1,17.1-13.1a31.56,31.56,0,0,1,16.8,4.8l-3.9,8.3C703.9,288.3,698.4,286.6,694.8,286.6Z" transform="translate(-129.2 -272.1)"/><path d="M129.2,272.1v50.6h50.6V272.1H129.2Zm47.1,47.1H160.6V303.5l-15.7,15.7H132.7l43.6-43.6v43.6h0Z" transform="translate(-129.2 -272.1)"/></svg>
