<svg width="509" height="503" viewBox="0 0 509 503" fill="none" xmlns="http://www.w3.org/2000/svg"><path d="M58.627 1.793c11.474 0 20.797 9.326 20.797 20.804v36.048c0 11.478-9.323 20.804-20.797 20.804H22.59c-11.474 0-20.797-9.326-20.797-20.804V22.597c0-11.478 9.323-20.804 20.797-20.804h36.037zm0-1.793H22.59C10.04 0 0 10.223 0 22.597v36.048C0 71.2 10.22 81.243 22.59 81.243h36.037c12.55 0 22.59-10.223 22.59-22.598V22.597C81.217 10.223 70.997 0 58.627 0z" fill="#CB9866"/><path d="M71.177 17.038v-.359l-.717-.717-.358-.18c-1.614-.538-2.87-1.255-4.303-1.793-6.276-2.87-10.758-5.022-25.46-.359l-.896.359.359.897c0 .179.358.717 1.076 1.793l.358.538.717-.538c10.578-3.407 17.033-3.228 24.921 1.076.359.18.897 1.256.897 1.973l-.717 57.928c0 .717-1.435-.18 2.51.18l2.868-2.153" fill="#CB9866"/><path d="M41.953 15.066l1.614 1.793 7.53-1.794 1.255-2.152-4.84.538-5.559 1.614z" fill="#CB9866"/><path d="M41.953 15.064l1.614 1.793 7.53-1.793 1.255-2.152-4.84.538-5.559 1.614z" fill="#CB9866"/><path d="M43.208 17.755l-2.868-3.228 6.992-1.973 6.813-.717-2.51 3.945-8.427 1.973zm.359-2.331l.358.358 6.634-1.434.18-.18-3.049.18-4.123 1.075zM13.626 18.83c11.653-3.765 13.446-.716 19.363 1.436.179 0 .358.179.358.358.538 16.5.718 41.967.718 41.967s-2.152-.18-2.152-.538l.717-39.815c0-.717-.358-1.434-.717-1.793-5.379-2.87-9.681-3.228-17.212-.717-.896-.539-1.075-.897-1.075-.897z" fill="#CB9866"/><path d="M13.626 18.83c11.653-3.766 13.446-.717 19.363 1.435.179 0 .358.18.358.359.538 16.5.718 41.966.718 41.966s-2.152-.18-2.152-.538l.717-39.814c0-.718-.358-1.435-.717-1.794-5.379-2.87-9.681-3.228-17.212-.717-.896-.538-1.075-.897-1.075-.897z" fill="#CB9866"/><path d="M34.782 63.488h-.897c-1.972-.18-3.048-.359-3.048-1.435l.718-39.814c0-.36-.18-.897-.36-1.076-5.198-2.87-9.501-2.87-16.494-.538l-.537.179-.359-.538c-.538-.717-.717-1.076-.717-1.076l-.538-.897.896-.359c9.861-3.049 13.088-1.614 17.033.18.896.358 1.793.896 2.868 1.255.538.18 1.076.538 1.076 1.256.538 16.32.717 41.607.717 41.966l-.358.897zm-2.152-1.973h.359c0-2.332 0-8.788-.18-16.5l-.179 16.5z" fill="#CB9866"/><path d="M14.522 19.19l1.255 1.255 4.841-1.256.896-1.255-3.227.359-3.765.896z" fill="#CB9866"/><path d="M14.523 19.19l1.255 1.255 4.84-1.255.897-1.256-3.227.359-3.765.897z" fill="#CB9866"/><path d="M15.419 21.522l-2.51-2.87 5.199-1.255 5.02-.538-1.793 3.049-5.916 1.614zm49.662 58.824L.896 54.699l.718-1.614 64.184 25.467-.717 1.794zm4.841-2.511L.896 50.215l.718-1.613L70.639 76.22l-.717 1.614zm148.31-70.488l-1.254-1.254c-2.866-2.688-6.628-4.66-10.568-5.555-.538-.18-1.254-.18-1.792-.359C203.723 0 202.648 0 201.752 0h-36.003c-.896 0-1.792 0-2.687.18-.538 0-1.254.178-1.791.358-4.299.716-8.24 2.867-11.285 5.734l-1.254 1.255C145.149 11.469 143 16.845 143 22.4v36.02c0 5.735 2.149 10.932 5.553 14.874a4.18 4.18 0 001.254 1.255c3.045 3.046 6.985 5.017 11.284 5.913.538.18 1.254.18 1.792.359.895.179 1.791.179 2.687.179h36.003c.896 0 1.971 0 2.866-.18.538 0 1.254-.178 1.792-.358 4.119-.896 7.702-2.688 10.568-5.376l1.254-1.254c3.761-3.943 5.911-9.498 5.911-15.232V22.58c.358-5.914-1.971-11.29-5.732-15.233zm-2.508-.179l-2.508 2.509h-6.806V2.33c3.403.896 6.627 2.508 9.314 4.838zm-49.975-5.376h36.003c.896 0 1.971 0 2.866.18v7.705h-7.881l-4.299-4.3h-17.554l-4.478 4.48h-7.344V1.97c.716-.179 1.612-.179 2.687-.179zm-4.478.538v7.705h-7.703l-2.149-2.33c2.508-2.687 5.911-4.48 9.852-5.375zM144.97 22.58c0-5.197 1.971-10.036 5.195-13.62l2.687 2.867h18.27l4.478-4.48h7.345v23.834H175.6l-4.478-4.48h-18.449l-4.478 4.48h-3.404V22.58h.179zm47.468 10.393l4.299-4.3h7.881v24.013h-7.881l-4.299-4.301h-17.554l-4.299 4.48h-7.523V28.493h7.344l4.478 4.48h17.554zm-47.468 0h4.12l4.478-4.48h7.703v24.372h-7.703l-4.478-4.48h-4.12V32.973zm0 25.627v-8.602h3.225l4.478 4.48h18.449l4.299-4.48h7.344v23.834h-7.344l-4.478-4.48h-18.27l-2.687 2.867c-3.224-3.584-5.016-8.422-5.016-13.62zm6.27 14.873l2.328-2.33h7.703v7.707c-3.941-.717-7.344-2.688-10.031-5.377zm50.512 5.914h-36.003c-.896 0-1.792 0-2.687-.179v-8.064h7.344l4.478 4.48h17.554l4.299-4.301h7.881v7.706c-1.074.358-1.97.358-2.866.358zm4.658-.537v-7.348h6.806l2.508 2.51c-2.687 2.329-5.911 4.12-9.314 4.838zm16.121-20.25c0 5.376-2.15 10.393-5.553 14.157l-3.045-3.047h-17.912l-4.299 4.301h-6.986V50.177h6.986l4.299 4.3h17.912l4.299-4.3h4.299V58.6zm0-10.215h-5.016l-4.299 4.3h-6.806V28.674h6.806l4.299 4.3h5.016v15.412zm0-17.204h-4.299l-4.299-4.3h-17.912l-4.299 4.3h-6.986V7.347h6.986l4.299 4.301h17.912l3.045-3.046c3.403 3.763 5.553 8.601 5.553 14.157v8.422zM507.276 17.6c0-.179 0-.358-.181-.538-.181-.539-.181-1.078-.362-1.437-.905-2.873-2.534-5.567-4.526-7.902l-.905-.898-.362-.36a22.447 22.447 0 00-8.326-5.208c-.181 0-.362-.18-.543-.18-.181 0-.543-.179-.724-.179-.181 0-.543-.18-.724-.18C488.812.18 486.821 0 485.011 0h-36.384c-.543 0-1.267 0-1.81.18-11.223.898-20.093 9.698-20.817 20.654V58.73c0 1.975.362 3.771.724 5.567 0 .18.181.36.181.539.181.36.181.718.362.898 0 .18 0 .36.181.36a22.216 22.216 0 005.25 8.26c.181.18.362.18.362.36.362.18.543.539.905.718 2.353 1.976 5.068 3.592 8.145 4.49.181 0 .362 0 .362.18.543.18 1.086.36 1.63.36a21.51 21.51 0 004.887.538h36.384c.724 0 1.267 0 1.991-.18h.724c10.318-1.257 18.464-9.518 19.731-19.576v-.36c0-.538.181-1.257.181-1.975V22.63c-.181-1.796-.362-3.413-.724-5.03zm-1.991-.538l-22.446 22.27V26.94L500.94 8.98c2.173 2.155 3.621 5.029 4.345 8.082zm-5.431-9.519L483.02 24.246V13.291h-2.353l10.68-10.597c3.258.898 6.154 2.694 8.507 4.85zm-14.843-5.927c1.448 0 2.896.18 4.163.36L477.951 13.11h-11.766l11.766-11.674h7.06v.18zm-9.594 0l-11.766 11.675H450.98l11.585-11.675h12.852zm-26.79 0h11.585l-11.585 11.675h-10.68v10.776L427.81 34.123V21.552l19.912-19.756c.362-.18.724-.18.905-.18zm-10.861 24.785v12.393L427.629 48.85V36.46l10.137-10.058zm7.06-24.425l-16.654 16.523c1.448-8.262 8.146-14.907 16.654-16.523zM427.629 58.55v-7.005l11.404-11.314h11.766l-22.627 22.45c-.362-1.258-.543-2.694-.543-4.131zm1.086 6.106l24.799-24.605h13.576l-33.306 33.047c-2.354-2.335-4.164-5.209-5.069-8.442zm6.336 9.699l34.393-34.124h12.49l-38.738 38.434c-2.896-.898-5.792-2.335-8.145-4.31zm55.21 4.31l15.205-15.086c-1.991 7.543-7.784 13.29-15.205 15.086zm15.748-20.115c0 .718 0 1.257-.181 1.976l-18.826 18.678c-.724 0-1.267.18-1.991.18h-10.499l31.497-31.251V58.55zm0-12.931l-34.031 33.765h-12.49l46.521-46.158V45.62zm-49.055 33.765h-8.327c-1.086 0-2.172-.18-3.258-.36l60.278-59.986c.181 1.077.362 2.155.362 3.412v8.082l-49.055 48.852zm-111.59-41.543c-1.973-.538-6.096 1.076-5.738 6.457-2.51-.897-5.02-1.435-7.53-1.794-4.123-.717-2.868-5.38-1.434-6.994.359-.538.717-1.256.717-2.152a3.597 3.597 0 00-3.586-3.587c-.358 0-.896 0-1.255.18.538-.539.897-1.256.897-1.974a2.832 2.832 0 00-2.869-2.87 2.832 2.832 0 00-2.868 2.87c0 .718.358 1.435.896 1.973-.358-.18-.717-.18-1.255-.18a3.597 3.597 0 00-3.586 3.588c0 .717.18 1.434.538 1.973 1.435 1.614 2.69 6.276-1.434 6.994-3.227.538-5.917 1.076-7.351 1.614.359-5.201-3.586-6.815-5.737-6.277 0-4.484-3.048-6.277-6.275-6.277l10.399 24.929c10.757-4.125 21.514-4.484 33.347 0l10.399-24.93c-3.228.18-6.275 1.974-6.275 6.457z" fill="#CB9866"/><path d="M342.495 1.793c11.474 0 20.797 9.326 20.797 20.804v36.048c0 11.478-9.323 20.804-20.797 20.804h-36.037c-11.474 0-20.797-9.326-20.797-20.804V22.597c0-11.478 9.323-20.804 20.797-20.804h36.037zm0-1.793h-36.037c-12.55 0-22.59 10.223-22.59 22.597v36.048c0 12.554 10.22 22.598 22.59 22.598h36.037c12.55 0 22.59-10.223 22.59-22.598V22.597C365.085 10.223 354.866 0 342.495 0zM52.352 294.858l1.076-2.69c.18-.538 0-.897-.538-1.256-.538-.179-.897 0-1.255.538l-1.076 2.69c-26.355-9.146-39.98 14.886-40.16 15.245-.18.358-.18.717 0 .896.18.359.538.359.896.359 8.785-1.076 15.06 1.793 18.288 8.071-.18.538.179.896.717 1.076.358 0 .538 0 .896-.18 3.227-.358 5.917-.717 8.606 0L26.176 351.53c-.18.538 0 .897.538 1.256h.359c.358 0 .717-.18.896-.538l13.626-32.103c2.33 1.076 4.482 3.049 6.992 6.457 0 .358.18.717.538.896.358.18.717 0 1.076-.179 11.833-3.049 17.57 6.815 17.75 7.174.178.358.537.538.896.358.358 0 .717-.358.717-.717 1.434-7.532 5.378-27.978-17.212-39.276zm-3.048 29.95c-4.482-5.918-8.606-7.353-13.088-7.353-1.434 0-2.868.179-4.303.359 1.435-4.125 6.634-15.424 18.646-20.983 1.076 3.048 4.482 14.706-1.255 27.977z" fill="#CB9866"/><path d="M58.627 283.021c11.474 0 20.797 9.326 20.797 20.804v36.048c0 11.478-9.323 20.804-20.797 20.804H22.59c-11.474 0-20.797-9.326-20.797-20.804v-36.048c0-11.478 9.323-20.804 20.797-20.804h36.037zm0-1.793H22.59C10.04 281.228 0 291.45 0 303.825v36.048c0 12.554 10.22 22.597 22.59 22.597h36.037c12.55 0 22.59-10.222 22.59-22.597v-36.048c0-12.375-10.22-22.597-22.59-22.597zm265.467 46.629c-3.048 0-5.02-1.973-5.02-5.201 0-2.332.896-4.305 2.331-5.739 1.255-1.256 2.689-1.973 4.482-1.973 2.868 0 5.02 2.152 5.02 5.201 0 2.331-.897 4.304-2.331 5.739-1.434 1.435-2.869 1.973-4.482 1.973zm1.972 15.244c5.02 0 9.144-1.435 12.729-3.587l-.896-1.435c-3.586 2.152-7.171 3.228-11.833 3.228-11.474 0-19.542-8.608-19.542-19.189 0-10.582 8.247-19.369 19.183-19.369 10.937 0 19.184 8.429 19.184 17.217 0 6.635-2.868 9.863-6.454 9.863-2.331 0-3.765-1.434-3.765-3.407 0-.359.179-1.255.179-2.152l2.152-12.196-4.662-.717-.538 2.87c-1.255-1.973-3.406-3.587-6.813-3.587-5.558 0-10.936 5.201-10.936 12.016 0 5.559 3.944 9.146 8.785 9.146 3.406 0 5.737-1.614 7.53-3.407 1.076 1.793 3.406 3.407 7.171 3.407 5.02 0 9.323-3.945 9.323-12.016 0-10.043-9.143-19.19-20.976-19.19-11.833 0-21.156 9.685-21.156 21.163-.179 11.837 8.964 21.342 21.335 21.342z" fill="#CB9866"/><path d="M343.815 283.021c11.475 0 20.798 9.326 20.798 20.804v36.048c0 11.478-9.323 20.804-20.798 20.804h-36.036c-11.475 0-20.798-9.326-20.798-20.804v-36.048c0-11.478 9.323-20.804 20.798-20.804h36.036zm0-1.793h-36.036c-12.55 0-22.591 10.222-22.591 22.597v36.048c0 12.554 10.22 22.597 22.591 22.597h36.036c12.55 0 22.591-10.222 22.591-22.597v-36.048c0-12.375-10.22-22.597-22.591-22.597zm112.475 54.52a9.438 9.438 0 01-2.69-.897l-1.075 3.408c.896.358 1.972.717 3.048.896 1.255.18 2.51.359 3.944.359 1.613 0 3.048-.179 4.661-.717 1.435-.538 2.69-1.256 3.765-2.152 1.076-.897 1.973-2.152 2.51-3.408.538-1.435.897-2.869.897-4.663 0-1.435-.179-2.869-.717-3.945-.538-1.076-1.076-2.152-1.972-3.049-.897-.897-1.793-1.435-2.869-1.973-1.076-.359-2.331-.717-3.586-.717l-1.613.358v-.179l1.792-1.435 7.889-11.836v-1.435h-17.57v3.587h9.681l3.228-.538-2.331 2.152-7.172 11.298v1.435h3.586c2.331 0 4.303.538 5.558 1.614 1.434 1.076 1.972 2.87 1.972 5.201 0 1.076-.179 1.973-.538 2.87-.358.896-.896 1.614-1.613 2.331-.717.718-1.435 1.076-2.51 1.435-.897.359-1.972.538-3.048.538-1.076-.179-2.331-.179-3.227-.538zm19.542-11.836h6.275v6.277h2.51v-6.277h6.275v-2.691h-6.275v-6.277h-2.51v6.277h-6.275v2.691z" fill="#CB9866"/><path d="M486.41 283.021c11.474 0 20.797 9.326 20.797 20.804v36.048c0 11.478-9.323 20.804-20.797 20.804h-36.037c-11.474 0-20.797-9.326-20.797-20.804v-36.048c0-11.478 9.323-20.804 20.797-20.804h36.037zm0-1.793h-36.037c-12.55 0-22.59 10.222-22.59 22.597v36.048c0 12.554 10.219 22.597 22.59 22.597h36.037c12.55 0 22.59-10.222 22.59-22.597v-36.048c0-12.375-10.219-22.597-22.59-22.597zM189.388 156.516l-17.749 26.543 10.578 1.973-7.172 22.239 19.901-29.054-11.653-2.332 6.095-19.369z" fill="#CB9866"/><path d="M201.4 143.067c11.475 0 20.798 9.326 20.798 20.804v36.048c0 11.478-9.323 20.804-20.798 20.804h-36.216c-11.474 0-20.797-9.326-20.797-20.804v-36.048c0-11.478 9.323-20.804 20.797-20.804H201.4zm0-1.794h-36.216c-12.55 0-22.59 10.223-22.59 22.598v36.048c0 12.554 10.22 22.597 22.59 22.597h36.037c12.55 0 22.59-10.222 22.59-22.597v-36.048c.18-12.375-10.219-22.598-22.411-22.598zm140.802 23.315h-14.343v-1.435a1.99 1.99 0 00-1.972-1.973 1.99 1.99 0 00-1.972 1.973v1.435h-14.343c-.897 0-1.614.717-1.614 1.614 0 .897.717 1.614 1.614 1.614h7.709l6.813 4.125v1.614h-4.124v2.152h-5.916v2.69h23.845v-2.69h-5.916v-2.152h-3.945v-1.614l6.634-3.946h7.709c.897 0 1.614-.717 1.614-1.614-.179-1.076-.896-1.793-1.793-1.793zm-22.052 3.228h3.765v2.331l-3.765-2.331zm7.709 2.331v-2.152h3.586l-3.586 2.152zm-21.873 13.272h-2.51v17.217h2.51v-17.217zm42.312 0h-2.51v17.217h2.51v-17.217zm-6.992 4.125h-8.427v-4.842h5.02v-2.691h-23.845v2.691h5.02v4.842h-8.606v-4.304h-2.51v17.217h2.51v-4.305h8.785c.538 3.587 3.407 6.277 6.813 6.277 3.407 0 6.275-2.69 6.813-6.277h8.606v4.305h2.51V183.24h-2.51v4.304h-.179z" fill="#CB9866"/><path d="M343.815 143.067c11.475 0 20.798 9.326 20.798 20.804v36.048c0 11.478-9.323 20.804-20.798 20.804h-36.036c-11.475 0-20.798-9.326-20.798-20.804v-36.048c0-11.478 9.323-20.804 20.798-20.804h36.036zm0-1.794h-36.036c-12.55 0-22.591 10.223-22.591 22.598v36.048c0 12.554 10.22 22.597 22.591 22.597h36.036c12.55 0 22.591-10.222 22.591-22.597v-36.048c0-12.375-10.22-22.598-22.591-22.598zm131.658 30.667c0 1.435 1.076 2.511 2.331 2.511s2.331-1.076 2.331-2.511c0-1.434-1.076-2.51-2.331-2.51s-2.331 1.076-2.331 2.51zm-18.825 0c0 1.435 1.076 2.511 2.331 2.511s2.33-1.076 2.33-2.511c0-1.434-1.075-2.51-2.33-2.51-1.255 0-2.331 1.076-2.331 2.51zm9.681-6.635c0 .717.538 1.255 1.076 1.255h2.331c.538 0 1.075-.538 1.075-1.255v-3.946c0-.717-.537-1.255-1.075-1.255h-2.51c-.538 0-1.076.538-1.076 1.255v3.946h.179z" fill="#CB9866"/><path d="M469.915 166.381l.896 28.337s0 3.766 4.841 3.586c4.841-.179 6.813-3.407 7.351-5.38 0 0-1.434-.359-2.869.359.538-2.69 2.869-6.277 5.2-7.891 0 0 2.151 2.869 2.51 9.505-.897-.897-1.076-1.256-2.51-1.614-3.227 12.374-13.447 9.684-17.212 16.141-1.076-8.25 0-44.119 0-44.119l1.793 1.076z" fill="#CB9866"/><path d="M466.867 166.381l-.896 28.337s0 3.766-4.841 3.586c-4.841-.179-6.813-3.407-7.351-5.38 0 0 1.435-.359 2.869.359-.538-2.69-2.869-6.277-5.199-7.891 0 0-2.152 2.869-2.511 9.505.897-.897 1.076-1.256 2.511-1.614 3.227 12.374 13.446 9.684 17.211 16.141 1.076-8.25 0-44.119 0-44.119l-1.793 1.076zm1.614-10.043c1.972 0 3.407 1.614 3.407 3.407 0 1.973-1.614 3.408-3.407 3.408-1.972 0-3.406-1.614-3.406-3.408 0-1.973 1.434-3.407 3.406-3.407zm0 8.967c3.048 0 5.558-2.511 5.558-5.56 0-3.049-2.51-5.559-5.558-5.559s-5.558 2.51-5.558 5.559c0 3.049 2.51 5.56 5.558 5.56z" fill="#CB9866"/><path d="M476.907 170.686h-16.853v2.331h16.853v-2.331z" fill="#CB9866"/><path d="M486.41 143.067c11.474 0 20.797 9.326 20.797 20.804v36.048c0 11.478-9.323 20.804-20.797 20.804h-36.037c-11.474 0-20.797-9.326-20.797-20.804v-36.048c0-11.478 9.323-20.804 20.797-20.804h36.037zm0-1.794h-36.037c-12.55 0-22.59 10.223-22.59 22.598v36.048c0 12.554 10.219 22.597 22.59 22.597h36.037c12.55 0 22.59-10.222 22.59-22.597v-36.048c0-12.375-10.219-22.598-22.59-22.598zM213.592 457.05v4.125l-9.681-3.587 1.972 3.407H184.01v-21.88l3.227 1.973-3.407-9.684h4.124v-1.614h-9.502v1.614h4.123l-3.585 9.684 3.406-1.973v21.88h-21.873l1.972-3.407-9.681 3.587v-4.125H151.2v9.505h1.614v-4.125l9.681 3.408-1.972-3.229h21.873v21.88l-3.406-1.972 3.585 9.684h-4.123v1.614h9.502v-1.614h-4.124l3.407-9.684-3.227 1.793v-21.701h21.873l-1.972 3.229 9.681-3.408v4.125h1.614v-9.505h-1.614z" fill="#CB9866"/><path d="M201.221 422.975c11.475 0 20.797 9.326 20.797 20.804v36.048c0 11.478-9.322 20.804-20.797 20.804h-36.037c-11.474 0-20.797-9.326-20.797-20.804v-36.048c0-11.478 9.323-20.804 20.797-20.804h36.037zm0-1.793h-36.037c-12.55 0-22.59 10.222-22.59 22.597v36.048c0 12.554 10.22 22.597 22.59 22.597h36.037c12.55 0 22.59-10.222 22.59-22.597v-36.048c0-12.375-10.219-22.597-22.59-22.597zm94.725 10.76v59.722h59.702v-59.722h-59.702zm57.909 29.054h-12.55v-27.26h12.55v27.26zm-30.658-13.092c0 1.255-.179 2.331-.717 2.869-.359.718-1.076.897-1.793.897-.896 0-1.434-.358-1.793-1.076-.358-.717-.538-1.614-.538-2.869 0-1.256.18-2.332.718-2.87.358-.717 1.075-.897 1.792-.897.897 0 1.435.359 1.973.897.179.718.358 1.794.358 3.049zm-5.916 0c0 1.255-.18 2.331-.717 2.869-.359.718-1.076.897-1.793.897-.897 0-1.435-.358-1.793-1.076-.359-.717-.538-1.614-.538-2.869 0-1.256.179-2.332.717-2.87.359-.717 1.076-.897 1.793-.897.896 0 1.434.359 1.972.897.179.718.359 1.794.359 3.049zm-9.144-.538c.359-.179.538-.179 1.076-.179.717 0 1.255.179 1.613.538.359.358.538.896.538 1.614 0 .358 0 .717-.179.896-.179.359-.179.538-.359.718-.179.179-.358.359-.717.538-.358.179-.538.179-.896.179-.359 0-.717 0-.897-.179-.358-.179-.537-.359-.717-.538-.179-.18-.358-.538-.538-.897-.179-.359-.179-.717-.179-1.076 0-.717.179-1.435.359-1.973.179-.538.358-1.076.717-1.614.358-.538.717-.717 1.076-1.076.358-.359.896-.538 1.434-.538l.179.717c-.358 0-.717.18-1.076.359-.358.179-.538.359-.896.718-.179.358-.538.538-.538 1.076s-.179.717-.359 1.076l.359-.359zm-4.124.897c-.358-.18-.717-.359-1.255-.359h-.717v-.359l1.614-2.331.538-.538-.717.179h-2.152v-.717h3.765v.358l-1.793 2.511-.358.359h.358c.359 0 .538 0 .717.179.18.18.538.18.718.359.179.179.358.359.358.717.179.18.179.538.179.897s0 .717-.179 1.076a2.467 2.467 0 01-.538.718c-.179.179-.538.358-.896.538-.359.179-.717.179-1.076.179h-.896c-.18 0-.538-.179-.717-.179l.179-.718c.179 0 .358.18.538.18h.717c.179 0 .538 0 .717-.18.179 0 .359-.179.538-.359.179-.179.179-.358.358-.538 0-.179.18-.358.18-.717.179-.538.179-.897-.18-1.255zm31.555-3.946c-.179-.179-.359-.179-.538-.179-.179 0-.358 0-.538.179-.179.179-.358.179-.358.179l-.18-.358c.18-.18.359-.18.538-.359.18 0 .359-.179.717-.179h.538c.18 0 .18.179.359.179s.179.179.179.359v.358c0 .18 0 .359-.179.718 0 .179-.179.538-.359.717-.179.18-.358.538-.358.718-.18.179-.359.358-.538.717l-.359.359h1.793v.538h-2.51v-.18l.359-.358c.179-.18.179-.359.358-.538.18-.18.359-.359.359-.538.179-.18.179-.359.358-.538.18-.18.18-.359.18-.538 0-.18.179-.359.179-.539.179-.538.179-.717 0-.717zm-8.247 1.973h.896l1.435 2.331.358.538.359-.717 1.434-2.331h.896v5.38h-.896v-4.304l-.359.896-1.255 2.152h-.358l-1.434-2.152-.359-.896v4.304h-.717v-5.201zm-2.331 16.499v27.081h-12.729v-27.081h12.729zm1.793 0h12.729v27.081h-12.729v-27.081zm-29.045 0h12.73v27.081h-12.73v-27.081zm43.567 27.081v-27.081h12.55v27.081h-12.55z" fill="#CB9866"/><path d="M307.599 448.98v.179c0 .179 0 .359.18.717 0 .18.179.359.358.538.179.18.359.359.538.359.179.179.359.179.717.179.18 0 .359 0 .538-.179a.386.386 0 00.359-.359c.179-.179.179-.358.358-.538 0-.179.18-.358.18-.538 0-.538-.18-.896-.359-1.076-.179-.179-.538-.358-1.076-.358-.358 0-.717 0-.896.179l-.538.538c-.359.179-.359.359-.359.359zm14.343-3.407a2.447 2.447 0 00-.538-.717c-.179-.18-.358-.18-.717-.18-.538 0-.896.18-1.255.718-.179.538-.358 1.255-.358 2.331 0 .538 0 .897.179 1.256 0 .358.179.717.359 1.076.179.358.358.538.537.717.18.179.359.179.718.179.537 0 .896-.179 1.255-.717.179-.538.358-1.255.358-2.332v-1.255c-.358-.359-.358-.717-.538-1.076zm-5.916 0c-.179-.359-.359-.538-.538-.717-.179-.18-.359-.18-.717-.18-.538 0-.897.18-1.255.718-.179.538-.359 1.255-.359 2.331 0 .538 0 .897.18 1.256 0 .358.179.717.358 1.076.179.358.359.538.538.717.179.179.359.179.717.179.538 0 .897-.179 1.255-.717.179-.538.359-1.255.359-2.332v-1.255l-.538-1.076z" fill="#CB9866"/><path d="M343.815 422.975c11.475 0 20.798 9.326 20.798 20.804v36.048c0 11.478-9.323 20.804-20.798 20.804h-36.036c-11.475 0-20.798-9.326-20.798-20.804v-36.048c0-11.478 9.323-20.804 20.798-20.804h36.036zm0-1.793h-36.036c-12.55 0-22.591 10.222-22.591 22.597v36.048c0 12.554 10.22 22.597 22.591 22.597h36.036c12.55 0 22.591-10.222 22.591-22.597v-36.048c0-12.375-10.22-22.597-22.591-22.597zM41.595 435.17c-3.586 3.587-7.71 8.07-5.379 16.5 1.434 4.842 1.076 5.918-.897 7.173-1.613.718-4.661 0-4.661-3.407-20.26 15.244-5.558 32.102 5.379 33.178 0 0-7.53-2.51-7.53-8.249 4.482 1.255 4.661-1.615 4.302-3.587-.358-1.973-2.51-6.098.718-9.147 3.227-3.049 8.785-7.712 9.143-11.837 4.483 5.022 3.765 8.788.897 11.478-1.793 1.794-4.841 6.098-.359 8.788 4.303 1.794 5.02-3.407 5.02-4.304 3.227 3.228 6.096 12.375-2.33 16.858 6.633-2.331 10.757-5.739 12.729-9.684 0 0 6.633-10.223-3.945-22.239-3.944-4.304-15.956-13.451-13.087-21.521z" fill="#CB9866"/><path d="M58.627 422.975c11.474 0 20.797 9.326 20.797 20.804v36.048c0 11.478-9.323 20.804-20.797 20.804H22.59c-11.474 0-20.797-9.326-20.797-20.804v-36.048c0-11.478 9.323-20.804 20.797-20.804h36.037zm0-1.793H22.59C10.04 421.182 0 431.404 0 443.779v36.048c0 12.554 10.22 22.597 22.59 22.597h36.037c12.55 0 22.59-10.222 22.59-22.597v-36.048c0-12.375-10.22-22.597-22.59-22.597zm399.276 25.466c.359-.179.717-.359 1.076-.359h1.613c0-.179-.179-.179-.179-.179-.179 0-.538-.179-.717-.179-.359 0-1.076.179-1.255 0-.538-.359-.717 0-.897.179 0 0-.179.179-.179.359.359 0 .538 0 .538.179zm12.371-2.511v.359c-.359.359-.179.359.179.359.538 0 1.076 0 1.434-.718 0-.179.18-.179.18-.358.538-.359.538-.897.538-1.256 0-.179 0-.179-.18-.358-.179 0-.358 0-.358.179-.359.179-.538.538-.897.538-.717.179-.896.538-.896 1.255zm-2.331.897c0-.179-.179-.359-.538-.359-.538-.179-.896-.358-1.434-.538-.179 0-.359-.179-.538-.358-.179.179-.359.358-.359.538-.179.358-.537.896-1.255.717h-.717c-.358.538-.896.359-1.434.359 0 0-.179 0-.179.179 0 0 0 .179.179.179l1.614.538c.537-.538 1.255-.179 1.792-.179h1.973c.717-.359.896-.359.896-1.076zm3.227 9.326c.359 0 .538-.179.897-.179.538-.18 1.255-.18 1.613 0 .717.179 1.435.717 1.793 1.255a.556.556 0 00.359.179c.179-.179.358-.358.358-.538 0-.179 0-.358-.179-.538-.359 0-.538-.179-.896-.179-1.435-.359-2.331-.538-2.331-2.332v-.179c0-.897-.717-1.435-1.434-1.076-.718.359-1.435 1.255-1.076 1.973.179.359.179.897.179 1.255.179.18.359.359.717.359zm2.69-10.761s0 .18-.18.359l-.538.538v.359c.18.179.538-.18.718.358 0 .359.537 0 .896.18.896.358 1.793.358 2.51.896.179.18.538.18.896.359.18 0 .538.18.538.359.18.538.538.538.897.717.179.18.358.18.538.359.179-.179.179-.359.358-.717.18-.359.179-.897.179-1.256 0-.179.001-.538-.179-.538-.717-.359-1.434-.897-2.151-.717-.359 0-.717.179-.717-.359 0 0-.18 0-.359-.179-.538-.359-1.076-.359-1.434-.18-.359 0-.359-.179-.359-.358-.179-.359-.179-.897-.538-1.076-.538-.359-.717-.718-.358-1.256.358-.538-.359-.179-.359-.358 0-.18-.179-.18-.358 0 0 .358-.18.538-.18.896 0 .897 0 1.076.18 1.614zm-5.02-15.782s.179.179.358.179h2.51c.717 0 1.434.18 1.972.718.538.358.897 1.076 1.435.897.179.358.358.358.717.538.538.179 1.075.717 1.075 1.434 0 1.435 0 1.435.897 2.152.717.718.896.718 1.613 1.076.538.18.538-.179 1.076-.179.717.179.717 0 .897.718.358.896.896 1.434 1.793 1.434.358 0 .537.18.717.538 0 .359.358.718.717.897.538.179.896.717.717 1.255 0 .538.179 1.256-.538 1.435v.359c0 .179 0 .359.179.179.359-.179.897-.538 1.435-.358.538 0 .538 0 1.075.538.897.896.897.896.897 1.793 0 .179 0 .538-.179.538-.538 0-.359.897-1.076.897h-.538c0 .358-.538.179-.538.896 0 .538-.179.718-.717.718h-.538c-.179 0-.717 0-.717.179-.179.359-.179.718.179 1.076.179.18.359.538.538.718.179.358.359.538.179.896l-.179.18c0 .358-.538.538-.358 1.076.179.358 0 .896.179 1.255 0 .179.179.179.179.179.538 0 .897.18.897.897 0 .359 0 .897-.718 1.076-.179 0-.358.359-.358.718 0 .179-.179.538-.179.717-.359.717-1.076.717-1.435.179-.179-.358-.358-.358-.538-.538-.358-.358-1.255-.179-1.255-.896l-.179-.897c-.538 0-.896 0-1.076-.359 0 0-.179-.179-.358 0 0 0-.18.18-.18.359 0 .359 0 .717.18 1.076.179.359 0 .897 0 1.255 0 .18.179.359.179.359.717-.179.538.717 1.076.717s.896.18 1.434.18c.359 0 .538 0 .359.358-.18.538.179.538.538.718.358.179.537.359.896.538.179.179.359.359.717.538.359.179.897.179 1.076.538.179.179 0 .717 0 1.076l.179.179c.897-.717 1.614-.358 2.689-.358h.359c.359 0 .538.179.538.538 0 .358 0 .358.538.358.358 0 1.075.18 1.075.359 0 .359.18.717-.358 1.076-.359.179-.897.359-.897.717-.179.359.359.718.18 1.256v.897c0 .717-.359 1.076-1.076.896a1.145 1.145 0 00-1.076 0h-.717c-.896-.358-1.793-.179-2.51-.538-.896-.179-1.255-.179-1.434-.179-.18 0-.538 0-.717-.179-.359-.18-.897-.359-.718-.897 0-.538-.179-.717-.717-.717-1.075 0-1.793-.359-2.689-1.077-.179-.179-1.434-.538-1.614-.538-.717 0-1.255-.179-1.434-.896-.179-.538-.717-.718-1.255-.718h-1.972c-.359 0-.717 0-.896-.179-.18-.179-.359-.179-.359-.538 0-.538 0-.897.538-2.69 0-1.435-.538-.897-.538-.538 0 .358 0 .538-.179.896-.18.18.179.539.179.897 0 0 0 .18.179.18l.18-.18c0-.358 0-.897.537-.897.538 0 1.076-.179 1.435-.538.179-.179.538-.179.538 0 .537.538.896-.358 1.255 0v-.179c-.359-.359-.538-.717-.897-1.255-.179-.359-.538-.538-.896-.359-.359.179-.18.538-.18.717 0 .18 0 .538-.358.538-.359 0-.717.18-.717-.358 0-.18-.18-.359-.717 1.076-.538 1.435-.718 1.435-.718 1.435v1.255c-.179.717 0 1.076.718 1.076.358 0 .717.359.896.717.179.359.538 1.076 1.255.897.179 0 .179.179.359.179.717.718.717.718 1.434.359.179 0 .538-.179.717-.179.717 0 .717 0 .896.897 0 .358.18.358.538.538.359.179 1.076.179.897.896-.18.359.179.538.358.718.538.179.538.538.717.896.18.18 0 .718 0 1.076h-1.255c-.179 0-.358-.179-.537-.179-.18 0-.538-.179-.718-.179-.358.358-.896.179-1.434.179h-.896c-.538.179-1.076 0-1.435-.538l-.537-.538c-.538-.717-.897-.717-1.435 0l-.538.538c-.537.538-.537 1.076.18 1.435.179.179.358.179.358.358.18.18 0 .539-.358.539-.717 0-.717 0-.717.717 0 .359.179.897-.18 1.255-.179 0-.179.359 0 .538.359.538.18 1.076.18 1.435 0 1.255.179 22.956.179 24.032v2.87c0 .179.179.538.179.717.179.359.359.538.538.897-.359 0-.717 0-.896.179-.359.179-.897.179-1.255.359-.897.538-1.435-.18-2.152-.359-.179 0-.179-.538-.179-.538.358-.359.358-.897.179-1.255 0-.718.179-1.256.359-1.614 0-.538-.359-1.256.179-1.615v-.179c0-1.614.179-3.587.179-5.201 0-1.614-.358-13.092-.179-14.706 0-.538 0-1.076-.359-1.435-.537-.538-.358-1.076-.358-1.435 0-.179.179-.358.179-.358.717.179.538-.359.538-.718v-4.304c0-.359 0-.717-.179-1.255-.18-.538-.18-1.076.179-1.614.179-.18 0-.718 0-.897-.359 0-.717-.538-1.255-.179-.359.179-.717.538-1.255.358-.359-.179-.538.18-.538.538l-.179.18h-.538c-.359.179-.359-.718-1.076-.359-.358.179-.896 0-1.255 0-.717 0-1.076-.359-1.076-1.255v-1.435c0-.18 0-.359.18-.359.717-.359.717-1.255 1.075-1.435.18-.179.718 0 1.076-.358 0 0 .359 0 .359-.18 0-1.076.717-.538 1.075-.717.538.538 1.255 0 1.614 0 .717.179 1.076-.538 1.434-.717.18 0 .359-.359.538-.359.359 0 .359-.179.359-.359v-1.614c0-.179 0-.359-.359-.359-.358 0-.717.18-.896.18-.18 0-.538.179-.717.179-.18 0-.538-.179-.538-.359 0-.179 0-.538.179-.717.359-.179.717-.359.896-.359.897-.179 1.076-.358 1.076-1.255v-.179c.179-.897-.179-1.435-.896-1.973-.538-.359-.897-.718-1.435-.359-.179 0-.537.179-.537-.179 0-.538-.18-.538-.718-.538h-2.51c-.896.179-1.075.896-.358 1.435l.717.717c.538.359.538.897.359 1.435-.18.358-.538.717-1.076.717h-.538c-.179 0-.359.359-.359.717 0 .359 0 .718.359 1.076.359.359.179.897.179 1.256-.179.359-.538.717-1.075.717h-.718c-.537 0-.896-.179-1.255-.538-.179-.179-.537-.358-.717-.538-.179-.179-.179-.179-.358 0-.538.538-1.076.359-1.972.18-1.435-.359-1.793-.359-3.586-.18-.717.18-1.435.538-1.972.359-.897-.179-1.614-.359-2.51-.897-.359-.179-.359-.538-.359-.717 0-.359.179-.718.359-1.076.179-.359.358-.538.358-.897 0-.179-.358-.359-.717-.359-.538-.179-.359-.538-.538-.717-.179-.538-.179-1.076-.179-1.435 0 0-.179 0-.179-.179v-1.614c.537 0 .896.179 1.255-.359.179-.179.358-.179.537-.179.359 0 2.152.358 2.51.538.718.358 1.435.179 1.973-.18.896-.717 1.613-1.434 3.048-1.434h.179c1.613-.538 1.972-.359 3.765.538.358.179.717.896 1.255.538 0 .179.179.358.179.538 0 .179-.179.179-.358.358h-.538c-.359 0-.538.18-.717.359.179 0 .358 0 .537.179l.18.18c.179.358.538.358.717.179.179-.179.358-.359.358-.538 0-.538.18-.538.718-.538h5.199c.359 0 .538-.179.896.179.18.18.359.18.359-.179 0-.179.179-.538-.359-.538-.537 0-1.075-.179-1.434-.359-.179 0-.359-.358-.359-.538 0-.358.001-.717.18-.896 0-.18.179-.359-.18-.359-.717.179-1.434-.179-2.151.179-.717.359-1.434.18-2.331.359h-1.434c-1.434.179-2.689-.359-4.124-1.255-.179-.18-.537 0-.717 0 .18.538-.538.358-.717.538-.179.358-.538.538-.896.179-.359-.179-.538 0-.538.179-.18.718-.717.538-1.255.538-.179 0-.359-.358-.538-.538 0-.179-.179-.538 0-.717.358-.538.179-1.076-.179-1.435-.18-.179-.18-.538.179-.717.358-.359.359-.538.359-1.256 0-.717.179-.896.896-.896.538 0 1.255 0 1.614.358.358.18.537.359.896.18.179-.18.538-.359.538-.718 0-.179.179-.358.179-.358.359 0 .359-.18.179-.538-.179-.359-.179-.718-.179-1.076 0-.18.359-.359.538-.539.179-.179.179-.179.179-.358-.179-.718.359-1.076.538-1.435.538-.717 1.255-1.076 1.972-1.076h.717l.18-.179c0-.18-.18-.359-.18-.359-.358 0-.896-.179-.896-.359 0-.538-.179-.538-.538-.896.359-.18.359-.359.359-.718s0-.538-.359-.538c-.538 0-.717-.359-.717-.717 0-.538.179-.718.538-.897.358 0 .896-.179 1.255-.179.896-.18 1.434.179 2.151.538.717.358 1.435.538 2.152 0 .538-.718 1.255-.538 1.613-.718.359 0 .538.18.717.359.359.538 1.076.359 1.435.897 0 .179.538.179.538 0 .358-.359.896-.538 1.255-.718.179 0 .179-.358.179-.538-.538-.538-1.076-1.434-1.972-1.434-.538 0-.897-.359-1.255-.718-.359-.358-.18-.717-.18-1.076 0-.179.001-.538.18-.717.179-.359.538-.718.896-.718.18-.179.538-.179.717-.358.359 0 .538-.18.718-.359h1.255v.538z" fill="#CB9866"/><path d="M486.41 422.975c11.474 0 20.797 9.326 20.797 20.804v36.048c0 11.478-9.323 20.804-20.797 20.804h-36.037c-11.474 0-20.797-9.326-20.797-20.804v-36.048c0-11.478 9.323-20.804 20.797-20.804h36.037zm0-1.793h-36.037c-12.55 0-22.59 10.222-22.59 22.597v36.048c0 12.554 10.219 22.597 22.59 22.597h36.037c12.55 0 22.59-10.222 22.59-22.597v-36.048c0-12.375-10.219-22.597-22.59-22.597zM58.627 141.273H22.59C10.04 141.273 0 151.496 0 163.871v36.048c0 12.554 10.22 22.597 22.59 22.597h36.037c12.55 0 22.59-10.222 22.59-22.597v-36.048c0-12.375-10.22-22.598-22.59-22.598zm20.797 58.646c0 11.478-9.323 20.804-20.797 20.804H22.59c-11.474 0-20.797-9.326-20.797-20.804v-36.048c0-11.478 9.323-20.804 20.797-20.804h36.037c11.474 0 20.797 9.326 20.797 20.804v36.048z" fill="#CB9866"/><path d="M6.813 190.772c-.18.18-.359.538-.359.718v4.663c0 .358 0 .717.18 1.076.358-.18.717-.18 1.075-.359 7.351-4.304 15.24-5.739 23.666-4.125 4.124.718 8.248 1.973 12.371 2.87 6.275 1.255 12.73 1.434 19.005-.359.358-.179.896-.538 1.075-.897 2.69-5.201 5.558-10.581 8.247-15.782 1.076-2.152 2.331-4.304 3.407-6.456v-.18c-.538 0-1.255-.179-1.793-.179-6.992 0-13.805.897-20.618 2.331-16.136 3.587-31.375 9.506-46.256 16.679zm24.742-2.51c-1.076 0-1.793-.897-1.793-1.794 0-1.076.896-1.793 1.793-1.793 1.075 0 1.792.896 1.792 1.793 0 1.076-.896 1.794-1.792 1.794zm5.557-1.794c-1.075 0-1.792-.717-1.792-1.793s.717-1.794 1.792-1.973c1.076 0 1.793.717 1.793 1.793s-.717 1.973-1.793 1.973zm5.917-1.793c-1.076 0-1.793-.718-1.793-1.794s.717-1.793 1.793-1.793 1.793.717 1.793 1.793c.18.897-.717 1.794-1.793 1.794zm-23.307-12.734c1.075-.18 1.434 0 1.613 1.076 0 .538.359.538.897.359 1.972-.718 3.944-1.256 5.916-1.973.717-.18 1.614-.359 1.793.717.359 1.076-.538 1.256-1.255 1.614-1.972.538-3.944 1.256-5.916 1.973-.538.179-.718.359-.538.897.538 1.255.896 2.69 1.255 3.945.179.718.358.718.896.359 6.275-2.69 12.73-5.022 19.363-6.636 3.586-.896 7.35-1.614 11.116-2.511-.717-.179-1.255-.358-1.793-.358-4.84-1.076-9.502-2.511-14.343-3.049-6.633-.897-13.088-.179-19.542 1.973-1.255.358-2.33.896-3.407 1.255v.359c1.435 0 2.69.179 3.945 0z" fill="#CB9866"/><path d="M69.922 193.821c-5.558 3.048-11.474 4.124-17.57 3.945-5.917-.179-11.474-1.255-17.212-2.869-8.426-2.332-16.494-1.973-24.383 1.793-.717.359-1.434.717-2.151 1.256-.717.358-1.434.896-2.152 1.434h.718c8.426-3.407 17.211-3.766 25.817-1.434 4.482 1.255 8.964 2.69 13.805 2.869 6.275.359 12.37-.359 18.108-3.408 1.972-1.076 3.765-2.331 5.916-3.766-.358-.179-.537-.179-.537-.179l-.359.359z" fill="#CB9866"/><path d="M40.698 201.534c-4.123 0-8.068-.538-12.012-1.614-5.2-1.435-10.22-2.152-15.419-.359-2.151.717-4.303 1.793-6.275 2.69 0 .179.18.179.18.359.179 0 .358 0 .537-.18 6.096-2.331 12.192-2.51 18.467-.717 4.303 1.255 8.785 2.332 13.446 1.973 2.152-.179 4.303-.718 6.455-1.076v-.359c-1.972-.359-3.765-.717-5.379-.717zm-4.841-1.615a911.852 911.852 0 00-9.86-2.152v.359l9.681 2.152s.18-.179.18-.359zm165.364 83.102c11.475 0 20.797 9.326 20.797 20.804v36.048c0 11.478-9.322 20.804-20.797 20.804h-36.037c-11.474 0-20.797-9.326-20.797-20.804v-36.048c0-11.478 9.323-20.804 20.797-20.804h36.037zm0-1.793h-36.037c-12.55 0-22.59 10.222-22.59 22.597v36.048c0 12.554 10.22 22.597 22.59 22.597h36.037c12.55 0 22.59-10.222 22.59-22.597v-36.048c0-12.375-10.219-22.597-22.59-22.597z" fill="#CB9866"/><path d="M151.738 340.413c3.944-2.511 7.889-2.691 12.012 0 2.69 1.793 5.917 1.793 8.606 0 3.586-2.511 8.068-2.511 11.654 0 2.868 1.972 6.096 1.972 8.964 0 3.407-2.332 7.889-2.511 11.295-.18 2.51 1.794 5.917 2.511 9.144.359.538.717 1.076 1.255 1.613 1.973-2.151 1.435-4.302 2.152-6.812 1.793-1.793-.179-3.586-.897-5.2-1.973-2.51-1.793-5.737-1.793-8.426 0-3.945 2.87-8.785 2.332-12.192 0-2.689-1.972-5.558-1.793-8.426 0-4.124 2.691-8.248 2.511-12.192-.179-2.51-1.614-5.199-1.614-7.709-.179-.18 0-.18.179-.359.179 0 0-.179.179-.358.179-.538-.538-1.076-1.255-1.614-1.972z" fill="#CB9866"/><path d="M151.738 347.048c1.614-1.076 3.406-1.794 5.379-1.794 2.33-.179 4.482.538 6.454 1.794 2.331 1.614 4.841 1.973 7.53.717.538-.179.896-.538 1.255-.717 3.407-2.332 8.068-2.511 11.474 0 2.869 1.973 6.276 2.152 9.323 0 3.407-2.332 7.889-2.332 11.475 0 2.151 1.435 4.661 1.973 7.171 1.076.538-.18 1.076-.538 1.793-.897.538.717.897 1.255 1.434 1.973-.179.179-.358.179-.358.359-3.407 2.152-7.889 2.152-11.116-.18-3.048-2.152-6.634-1.793-9.144 0-3.406 2.332-8.068 2.332-11.474 0-3.048-2.152-6.454-1.793-8.964 0-3.586 2.332-8.068 2.511-11.475 0-2.868-1.973-5.737-1.973-8.606-.358 0 0-.179 0-.179.179-.896-.718-1.434-1.256-1.972-2.152 0 .179 0 .179 0 0zm0-13.451c3.406-2.511 8.068-2.51 11.654-.179 1.972 1.435 4.123 1.973 6.454 1.255.896-.179 1.614-.717 2.331-1.076 3.765-2.511 8.068-2.511 11.833 0 2.868 1.973 6.096 1.973 8.964 0 3.407-2.331 7.889-2.51 11.474-.179 3.048 1.973 5.917 2.331 8.965.179.538.718 1.076 1.435 1.613 1.973-1.972 1.435-4.123 2.152-6.633 1.794-1.972-.18-3.765-.897-5.379-1.973-2.51-1.794-5.737-1.794-8.426 0-4.124 2.69-8.248 2.69-12.192 0-2.689-1.794-5.558-1.614-8.247 0-4.124 2.69-8.247 2.69-12.192 0-2.51-1.614-5.199-1.614-7.888-.18-.18.18-.359.18-.538.359-.717-.538-1.255-1.076-1.793-1.973 0 .18 0 .18 0 0zm6.634-12.553h-1.973c-.717 0-1.075-.538-1.075-1.255 0-.718.358-1.256 1.075-1.256h3.945c.717 0 1.076.538 1.076 1.256 0 .717-.538 1.255-1.076 1.255h-1.972zm52.351 0h-1.972c-.717 0-1.075-.538-1.075-1.255 0-.718.358-1.256 1.075-1.256h3.765c.717 0 1.076.538 1.076 1.256 0 .717-.538 1.255-1.255 1.255h-1.614zm-25.1-27.082v1.794c0 .717-.358 1.076-1.076 1.076-.537 0-1.075-.359-1.075-1.076v-3.766c0-.718.538-1.076 1.075-1.076.538 0 1.076.358 1.076 1.076v1.972zm-21.156 4.842c.359.18.718.359.897.538.896.718 1.613 1.615 2.331 2.332.537.538.537 1.255.179 1.614-.538.538-1.076.359-1.614-.179l-2.51-2.511c-.358-.359-.538-.897-.179-1.256.179 0 .538-.179.896-.538zm40.161 0c.358.18.717.359.896.718.179.358.179.897 0 1.076-.896 1.076-1.972 1.973-2.869 3.049-.358.358-.896.358-1.434-.18-.358-.358-.538-1.076-.179-1.434.896-.897 1.793-1.973 2.868-2.87 0-.179.359-.179.718-.359zm-20.08 24.391c6.992 0 13.446 1.435 18.108 3.946 2.689-6.457 1.613-15.962-5.738-22.06-6.992-5.918-17.211-5.918-24.383-.179-7.53 5.918-8.964 15.603-6.095 22.418 4.661-2.69 10.936-4.125 18.108-4.125z" fill="#CB9866"/></svg>