<?xml version="1.0" standalone="no"?>
<!DOCTYPE svg PUBLIC "-//W3C//DTD SVG 1.1//EN" "http://www.w3.org/Graphics/SVG/1.1/DTD/svg11.dtd" >
<svg xmlns="http://www.w3.org/2000/svg" xmlns:xlink="http://www.w3.org/1999/xlink" version="1.1">
<metadata>
Created by FontForge 20190801 at Fri Jan  1 01:00:00 1904
 By Jimmy Wärting
Copyright (C) 1990-1992 ParaGraph JV.
</metadata>
<defs>
<font id="PragmaticaBold" horiz-adv-x="0" >
  <font-face 
    font-family="Pragmatica"
    font-weight="400"
    font-stretch="normal"
    units-per-em="4096"
    panose-1="2 11 114 0 0 0 0 0 0 0"
    ascent="3276"
    descent="-820"
    x-height="2208"
    cap-height="3039"
    bbox="-942 -872 5845 3785"
    underline-thickness="56"
    underline-position="-241"
    unicode-range="U+0020-2122"
  />
<missing-glyph horiz-adv-x="3072" 
d="M512 0v2560h2048v-2560h-2048zM2494 66v2428h-1916v-2428h1916z" />
    <glyph glyph-name=".notdef" horiz-adv-x="3072" 
d="M512 0v2560h2048v-2560h-2048zM2494 66v2428h-1916v-2428h1916z" />
    <glyph glyph-name=".null" 
 />
    <glyph glyph-name="nonmarkingreturn" 
 />
    <glyph glyph-name="space" unicode=" " horiz-adv-x="1438" 
 />
    <glyph glyph-name="exclam" unicode="!" horiz-adv-x="1667" 
d="M459 3039h749v-794l-188 -1270h-373l-188 1270v794zM475 0v688h717v-688h-717z" />
    <glyph glyph-name="quotedbl" unicode="&#x22;" horiz-adv-x="2154" 
d="M991 3039l-229 -831h-287l-229 831h745zM1909 3039l-230 -831h-286l-230 831h746z" />
    <glyph glyph-name="numbersign" unicode="#" horiz-adv-x="4317" 
d="M2687 -242h-487l131 672h-660l-131 -672h-487l131 672h-672l94 483h672l131 664h-672l94 483h672l127 668h488l-131 -668h663l127 668h488l-132 -668h672l-94 -483h-672l-127 -664h672l-94 -483h-672zM2429 913l131 664h-672l-127 -664h668z" />
    <glyph glyph-name="dollar" unicode="$" horiz-adv-x="2798" 
d="M143 979l648 4q49 -510 471 -537v844q-317 73 -537 175.5t-351.5 288.5t-131.5 482q0 353 168.5 547.5t395.5 260t456 65.5v270h331v-270q410 -1 625.5 -163t280.5 -363t65 -383h-643q0 226 -107.5 310.5t-228.5 94.5v-750q380 -91 609.5 -225t330.5 -321t101 -445
q0 -520 -330 -721t-703 -213v-344h-331v344q-350 6 -589.5 114.5t-371 338.5t-158.5 596zM1585 1237v-791q101 0 187 57t138 154.5t52 219.5q0 304 -377 360zM1262 1917v688q-204 -8 -280.5 -117.5t-76.5 -230.5q0 -282 357 -340z" />
    <glyph glyph-name="percent" unicode="%" horiz-adv-x="4141" 
d="M877 0l1937 3039h446l-1937 -3039h-446zM229 2228q0 242 74.5 412.5t196 271.5t256 143t268.5 42q138 0 274 -42t256.5 -142t194.5 -270t74 -415q0 -174 -65 -372t-243.5 -347t-490.5 -149q-217 0 -398.5 94.5t-289 290.5t-107.5 483zM688 2228q0 -276 103.5 -400
t232.5 -124q126 0 233 124.5t107 399.5q0 278 -105.5 401.5t-234.5 123.5q-115 0 -225.5 -111.5t-110.5 -413.5zM2314 811q0 213 80.5 412.5t259.5 327.5t459 128q278 0 457 -128t260.5 -327.5t81.5 -412.5t-81.5 -412.5t-260.5 -327.5t-457 -128t-457 128t-260.5 327.5
t-81.5 412.5zM2773 811q0 -171 47 -289.5t125 -176.5t168 -58q129 0 234.5 122.5t105.5 401.5q0 276 -105.5 400t-234.5 124q-142 0 -241 -137t-99 -387z" />
    <glyph glyph-name="ampersand" unicode="&#x26;" horiz-adv-x="3043" 
d="M2236 1401h578q-72 -382 -332 -725l561 -676h-766l-221 274q-161 -180 -403 -264t-510 -84q-235 0 -419 75t-307.5 206t-184 295t-60.5 338q0 341 169.5 540t526.5 385q-86 100 -142 191t-84 189.5t-28 217.5q0 229 116 388t309 238t415 79q210 0 386 -79.5t282 -240
t106 -389.5q0 -495 -520 -745l422 -504q89 147 106 291zM1749 659l-549 689q-352 -154 -352 -467q0 -155 108 -286.5t334 -131.5q125 0 258 54t201 142zM1397 1982q173 79 256.5 170.5t83.5 235.5q0 140 -86.5 207t-196.5 67q-129 0 -203.5 -81t-74.5 -197q0 -99 50 -175
t171 -227z" />
    <glyph glyph-name="quotesingle" unicode="'" horiz-adv-x="1237" 
d="M991 3039l-229 -831h-287l-229 831h745z" />
    <glyph glyph-name="parenleft" unicode="(" horiz-adv-x="1716" 
d="M987 3039h500q-488 -1107 -488 -1921q0 -813 488 -1921h-500q-185 317 -301 550.5t-194 461.5t-113 447.5t-35 461.5q0 243 35.5 464t112.5 446t196.5 465.5t298.5 545.5z" />
    <glyph glyph-name="parenright" unicode=")" horiz-adv-x="1716" 
d="M725 -803h-496q116 280 204 521.5t149.5 467t96 460.5t34.5 472q0 242 -38 483.5t-102.5 475.5t-151 471.5t-192.5 490.5h496q200 -317 329.5 -597.5t198 -513t94 -425t25.5 -385.5t-25.5 -385.5t-95 -427t-196.5 -509.5t-330 -599z" />
    <glyph glyph-name="asterisk" unicode="*" horiz-adv-x="2089" 
d="M1044 2130l-307 -414l-258 201l295 401l-471 160l107 307l475 -159v499h323v-499l471 159l107 -307l-471 -160l299 -401l-262 -201z" />
    <glyph glyph-name="plus" unicode="+" horiz-adv-x="3039" 
d="M229 1692h1119v1118h344v-1118h1118v-344h-1118v-1119h-344v1119h-1119v344z" />
    <glyph glyph-name="comma" unicode="," horiz-adv-x="1634" 
d="M459 0v688h717v-688q0 -108 -19.5 -224t-88.5 -242.5t-219.5 -214.5t-389.5 -89v344q147 4 259.5 99.5t112.5 301.5v25h-372z" />
    <glyph glyph-name="hyphen" unicode="-" horiz-adv-x="1942" 
d="M344 889v545h1253v-545h-1253z" />
    <glyph glyph-name="period" unicode="." horiz-adv-x="1634" 
d="M459 0v688h717v-688h-717z" />
    <glyph glyph-name="slash" unicode="/" horiz-adv-x="2052" 
d="M0 -803l1593 3842h459l-1593 -3842h-459z" />
    <glyph glyph-name="zero" unicode="0" horiz-adv-x="2806" 
d="M1401 -57q-398 0 -674 192.5t-413.5 548.5t-137.5 836t137.5 836t413.5 548.5t674 192.5q493 0 767 -260t368 -614t94 -703q0 -350 -94 -703.5t-368 -613.5t-767 -260zM1401 442q241 0 361.5 173.5t152 401t31.5 503.5t-31.5 503t-152 400.5t-361.5 173.5
q-342 0 -443.5 -316.5t-101.5 -760.5t101.5 -761t443.5 -317z" />
    <glyph glyph-name="one" unicode="1" horiz-adv-x="2810" 
d="M528 2134v365h95q284 0 517 148.5t285 391.5h537v-3039h-717v2134h-717z" />
    <glyph glyph-name="two" unicode="2" horiz-adv-x="2806" 
d="M2572 545v-545h-2330v123q0 265 105 466t314.5 378.5t587.5 421.5q249 159 378.5 260t197 216.5t67.5 276.5q0 239 -145.5 349t-337.5 110q-224 0 -370 -130t-146 -374v-110h-664v94q0 230 100 461t370 395t739 164q306 0 564.5 -94.5t416 -303.5t157.5 -532
q0 -281 -124 -486.5t-292 -334t-415 -273.5q-328 -193 -460 -294.5t-200 -237.5h1487z" />
    <glyph glyph-name="three" unicode="3" horiz-adv-x="2810" 
d="M164 1044h676q0 -140 47 -274t172 -229t338 -95q163 0 281.5 60.5t178.5 166.5t60 236q0 414 -475 414h-303v500h229q492 0 492 385q0 140 -107 262.5t-381 122.5q-491 0 -491 -557h-639q0 399 240.5 727.5t922.5 328.5q351 0 597 -103t369 -290.5t123 -433.5
q0 -204 -80 -346.5t-204.5 -221t-255.5 -104.5v-12q274 -22 458.5 -215t184.5 -522q0 -388 -232 -588.5t-491 -254.5t-449 -54q-508 0 -789 176.5t-376.5 421t-95.5 499.5z" />
    <glyph glyph-name="four" unicode="4" horiz-adv-x="2810" 
d="M1552 684h-1409v545l1434 1810h664v-1827h425v-528h-425v-684h-689v684zM684 1212h897v1147z" />
    <glyph glyph-name="five" unicode="5" horiz-adv-x="2810" 
d="M213 881h676q17 -181 148 -314t360 -133q304 0 410 195t106 432q0 197 -75 324t-189.5 184t-239.5 57q-136 0 -272 -54t-195 -163h-672l193 1630h1941v-528h-1474l-86 -660q296 217 729 217q290 0 523.5 -121t367 -352.5t133.5 -545.5q0 -317 -139 -569t-415 -394.5
t-663 -142.5q-404 0 -663.5 138.5t-375.5 351t-128 448.5z" />
    <glyph glyph-name="six" unicode="6" horiz-adv-x="2814" 
d="M2576 2322h-618q-39 137 -182 204t-326 67q-549 0 -590 -774q264 270 672 270q221 0 414.5 -65t343 -196t234.5 -326.5t85 -448.5q0 -172 -47 -357t-171.5 -359t-352.5 -284t-572 -110q-533 0 -813 258.5t-364 598.5t-84 703q0 348 74.5 636t230 502.5t400.5 332.5
t577 118q371 0 604 -127t340 -298.5t145 -344.5zM860 1044q0 -262 159 -432t411 -170q243 0 395.5 158t152.5 432q0 262 -147 424t-410 162q-137 0 -264.5 -55.5t-212 -185t-84.5 -333.5z" />
    <glyph glyph-name="seven" unicode="7" horiz-adv-x="2810" 
d="M147 2482v557h2515v-504q-75 -63 -220.5 -217t-332 -415.5t-323.5 -571.5q-290 -656 -303 -1331h-746q30 579 316 1221q107 233 249 453.5t310 424t342 371.5v12h-1807z" />
    <glyph glyph-name="eight" unicode="8" horiz-adv-x="2810" 
d="M1405 -53q-316 0 -595.5 86t-458.5 293t-179 542q0 552 545 750q-213 75 -330 251t-117 400q0 220 115.5 407t371 301.5t648.5 114.5q290 0 547.5 -80t422.5 -265t165 -478q0 -248 -124.5 -415t-322.5 -236q545 -199 545 -750q0 -256 -105 -436t-282.5 -286t-395 -152.5
t-450.5 -46.5zM1405 446q219 0 394 108.5t175 371.5q0 189 -128 338t-441 149q-215 0 -343 -76.5t-177 -186.5t-49 -224q0 -263 175 -371.5t394 -108.5zM1405 1815q185 0 346.5 89t161.5 324q0 241 -181 313t-327 72q-150 0 -327 -72t-177 -313q0 -236 156.5 -324.5
t347.5 -88.5z" />
    <glyph glyph-name="nine" unicode="9" horiz-adv-x="2814" 
d="M266 713h619q81 -271 483 -271q207 0 386 159.5t200 615.5q-264 -275 -672 -275q-218 0 -411.5 66.5t-344.5 199t-236 328.5t-85 442q0 293 117.5 545t381 410.5t672.5 158.5q399 0 651.5 -152.5t377 -386t164.5 -477t40 -487.5q0 -483 -135 -853.5t-421 -581.5
t-718 -211q-521 0 -762.5 241.5t-306.5 528.5zM1954 1991q0 204 -132.5 403t-437.5 199q-158 0 -282.5 -70.5t-195 -205.5t-70.5 -318q0 -261 147 -423.5t406 -162.5q158 0 286.5 67t203.5 198t75 313z" />
    <glyph glyph-name="colon" unicode=":" horiz-adv-x="1634" 
d="M459 1520v688h717v-688h-717zM459 0v688h717v-688h-717z" />
    <glyph glyph-name="semicolon" unicode=";" horiz-adv-x="1634" 
d="M459 1520v688h717v-688h-717zM459 0v688h717v-688q0 -108 -19.5 -224t-88.5 -242.5t-219.5 -214.5t-389.5 -89v344q147 4 259.5 99.5t112.5 301.5v25h-372z" />
    <glyph glyph-name="less" unicode="&#x3c;" horiz-adv-x="2867" 
d="M176 1671l2204 1274l241 -418l-1798 -1040l1798 -1036l-241 -418l-2204 1270v368z" />
    <glyph glyph-name="equal" unicode="=" horiz-adv-x="3039" 
d="M229 2126h2581v-344h-2581v344zM229 1257h2581v-344h-2581v344z" />
    <glyph glyph-name="greater" unicode="&#x3e;" horiz-adv-x="2867" 
d="M2691 1671v-368l-2204 -1270l-241 418l1798 1036l-1798 1040l241 418z" />
    <glyph glyph-name="question" unicode="?" horiz-adv-x="2527" 
d="M844 2073h-672q0 418 175.5 644.5t419 300.5t511.5 74q383 0 624.5 -110t347 -290.5t105.5 -397.5q0 -204 -79.5 -355.5t-184 -243t-248.5 -184.5q-173 -107 -258.5 -217.5t-85.5 -318.5h-545q-4 45 -4 127q0 187 54 315.5t136 210t203 166.5q178 128 253 224.5t75 238.5
q0 213 -137 274.5t-264 61.5q-426 0 -426 -520zM868 0v688h717v-688h-717z" />
    <glyph glyph-name="at" unicode="@" horiz-adv-x="4309" 
d="M2974 -29l204 -368q-253 -164 -487.5 -227.5t-536.5 -63.5q-435 0 -796.5 142.5t-619.5 405t-395.5 621t-137.5 781.5q0 387 137 742t394 626t621 426t797 155q509 0 884 -169t610 -453t345.5 -626.5t110.5 -700.5q0 -297 -124 -548t-348 -398.5t-511 -147.5
q-148 0 -260 38.5t-186 170.5q-80 -125 -256 -181.5t-375 -56.5q-314 0 -524.5 137.5t-312 378.5t-101.5 545q0 268 102.5 512t308 394.5t494.5 150.5q353 0 537 -176l4 106h520v-1339q0 -155 33 -196.5t102 -41.5q213 0 336 188t123 464q0 486 -200 837t-545.5 531
t-766.5 180q-422 0 -769.5 -202t-546.5 -557t-199 -789q0 -474 202.5 -826.5t548.5 -537.5t764 -185q453 0 820 258zM2535 1192q0 618 -434 618q-253 0 -353.5 -186.5t-100.5 -431.5q0 -302 119.5 -456t330.5 -154q223 0 330.5 171t107.5 439z" />
    <glyph glyph-name="A" unicode="A" horiz-adv-x="2925" 
d="M1098 3039h725l1143 -3039h-758l-197 569h-1102l-192 -569h-758zM1065 1085h790l-393 1160z" />
    <glyph glyph-name="B" unicode="B" horiz-adv-x="3146" 
d="M324 3039h1527q381 0 589.5 -124.5t278.5 -296t70 -353.5q0 -272 -151 -422.5t-348 -208.5v-8q157 -27 304.5 -115.5t245 -254t97.5 -404.5q0 -273 -108 -447.5t-281 -261t-364.5 -115t-409.5 -28.5h-1450v3039zM1040 2482v-643h664q127 0 239.5 73.5t112.5 241.5
q0 152 -100 240t-285 88h-631zM1040 1282v-725h746q130 0 261.5 82.5t131.5 294.5q0 348 -487 348h-652z" />
    <glyph glyph-name="C" unicode="C" horiz-adv-x="3166" 
d="M2339 1073h713q-41 -437 -340 -804t-1041 -367q-289 0 -548.5 70.5t-472 243.5t-339.5 481.5t-127 764.5q0 496 158.5 869.5t487.5 581.5t817 208q521 0 824 -186t418.5 -437t129.5 -491h-705q-20 188 -156 356t-479 168q-361 0 -541 -278t-180 -762q0 -167 44.5 -386
t210.5 -414t491 -195q225 0 363.5 95t198.5 224.5t73 257.5z" />
    <glyph glyph-name="D" unicode="D" horiz-adv-x="3293" 
d="M324 3039h1310q460 0 759.5 -153t453 -388t208 -483.5t54.5 -490.5q0 -1524 -1540 -1524h-1245v3039zM1040 2449v-1859h459q836 0 836 921q0 576 -243 757t-552 181h-500z" />
    <glyph glyph-name="E" unicode="E" horiz-adv-x="2867" 
d="M1040 1831h1487v-557h-1487v-684h1729v-590h-2445v3039h2404v-590h-1688v-618z" />
    <glyph glyph-name="F" unicode="F" horiz-adv-x="2589" 
d="M1040 1753h1262v-590h-1262v-1163h-716v3039h2207v-590h-1491v-696z" />
    <glyph glyph-name="G" unicode="G" horiz-adv-x="3408" 
d="M1851 1651h1291v-1651h-533v328h-8q-268 -422 -922 -422q-202 0 -426 39t-474 193t-422.5 495t-172.5 895q0 362 97 655t296 505t500.5 324.5t708.5 112.5q526 0 820 -219t391.5 -455t119.5 -399h-750q-6 126 -70.5 235.5t-194 176.5t-320.5 67q-354 0 -537.5 -179.5
t-235 -404t-51.5 -440.5q0 -278 69 -474.5t185 -313t255.5 -168t289.5 -51.5q205 0 360 80t242 216t99 302h-607v553z" />
    <glyph glyph-name="H" unicode="H" horiz-adv-x="3187" 
d="M1040 1307v-1307h-716v3039h716v-1143h1106v1143h717v-3039h-717v1307h-1106z" />
    <glyph glyph-name="I" unicode="I" horiz-adv-x="1364" 
d="M324 3039h716v-3039h-716v3039z" />
    <glyph glyph-name="J" unicode="J" horiz-adv-x="2540" 
d="M115 1118h716v-119q0 -215 76.5 -353t296.5 -138q202 0 267 123t65 368v2040h717v-1941q0 -292 -62.5 -543.5t-294.5 -444t-688 -192.5q-424 0 -669 163.5t-334.5 393t-89.5 455.5v188z" />
    <glyph glyph-name="K" unicode="K" horiz-adv-x="3150" 
d="M1040 1802l1168 1237h893l-1221 -1257l1311 -1782h-893l-914 1311l-344 -348v-963h-716v3039h716v-1237z" />
    <glyph glyph-name="L" unicode="L" horiz-adv-x="2515" 
d="M2458 590v-590h-2134v3039h716v-2449h1418z" />
    <glyph glyph-name="M" unicode="M" horiz-adv-x="4112" 
d="M1815 0l-762 2171h-13v-2171h-716v3039h1007l725 -2089l725 2089h1008v-3039h-717v2171h-12l-762 -2171h-483z" />
    <glyph glyph-name="N" unicode="N" horiz-adv-x="3301" 
d="M1053 1901h-13v-1901h-716v3039h729l1196 -1888h12v1888h717v-3039h-729z" />
    <glyph glyph-name="O" unicode="O" horiz-adv-x="3441" 
d="M1720 -86q-402 0 -697.5 129.5t-480 354t-271.5 513t-87 609.5t87 609.5t271.5 513t478.5 353.5t699 129q406 0 701 -128.5t479 -352t270 -512t86 -612.5t-86 -612t-270 -512t-481 -353t-699 -129zM1720 504q486 0 624 334t138 682q0 617 -236 816t-526 199
q-287 0 -524.5 -199t-237.5 -816q0 -392 157.5 -704t604.5 -312z" />
    <glyph glyph-name="P" unicode="P" horiz-adv-x="2974" 
d="M324 3039h1417q481 0 799.5 -218.5t318.5 -764.5q0 -343 -125.5 -556.5t-311 -310t-355.5 -121t-343 -24.5h-684v-1044h-716v3039zM1040 2445v-811h562q255 0 383.5 93.5t128.5 324.5q0 217 -124 305t-388 88h-562z" />
    <glyph glyph-name="Q" unicode="Q" horiz-adv-x="3441" 
d="M2851 344l348 -344l-324 -324l-389 394q-287 -156 -766 -156q-404 0 -700 128t-480 352t-270 511t-86 615q0 325 86.5 613t270.5 511.5t479 352t700 128.5t700 -129.5t479 -353t270.5 -510.5t86.5 -612q0 -240 -77 -577.5t-328 -598.5zM1982 1229l365 -377
q135 246 135 668q0 616 -238 815.5t-524 199.5q-289 0 -525.5 -199t-236.5 -816q0 -612 238.5 -814t523.5 -202q223 0 365 82l-385 368z" />
    <glyph glyph-name="R" unicode="R" horiz-adv-x="3109" 
d="M324 0v3039h1556q350 0 575.5 -116t327 -310t101.5 -438q0 -220 -73.5 -376t-186.5 -248t-240 -134v-12q271 -73 350.5 -260.5t83.5 -476.5q6 -325 25.5 -443t93.5 -225h-729q-66 95 -89.5 221.5t-29.5 425.5q-2 139 -32 238.5t-138.5 168t-325.5 68.5h-553v-1122h-716z
M1040 2449v-774h656q198 0 330.5 87t132.5 294q0 220 -128 306.5t-360 86.5h-631z" />
    <glyph glyph-name="S" unicode="S" horiz-adv-x="2912" 
d="M152 987h725q0 -201 125 -358.5t481 -157.5q545 0 545 344q0 154 -103 242.5t-230.5 125.5t-441.5 107q-228 50 -388.5 102t-301 151.5t-223 266.5t-82.5 418q0 338 181 539t459.5 279.5t600.5 78.5q419 0 675 -138t364.5 -347t115.5 -436h-680q-27 364 -520 364
q-235 0 -359 -88t-124 -235q0 -128 91.5 -202t198 -103t312.5 -68q389 -75 640 -171.5t399.5 -281.5t148.5 -493q0 -233 -97 -458t-384.5 -389.5t-804.5 -164.5q-556 0 -850.5 193.5t-383.5 432t-89 447.5z" />
    <glyph glyph-name="T" unicode="T" horiz-adv-x="2666" 
d="M975 2449h-918v590h2552v-590h-917v-2449h-717v2449z" />
    <glyph glyph-name="U" unicode="U" horiz-adv-x="3203" 
d="M287 3039h717v-1773q0 -259 55.5 -422t186 -245.5t356.5 -82.5q223 0 353.5 81t187.5 245t57 424v1773h716v-1888q0 -173 -30.5 -355t-155 -387t-400.5 -346t-728 -141q-1315 0 -1315 1229v1888z" />
    <glyph glyph-name="V" unicode="V" horiz-adv-x="2740" 
d="M1397 868l590 2171h794l-1032 -3039h-758l-1032 3039h823z" />
    <glyph glyph-name="W" unicode="W" horiz-adv-x="4129" 
d="M2064 2245l-524 -2245h-774l-807 3039h758l491 -2220l529 2220h655l524 -2220l496 2220h758l-811 -3039h-774z" />
    <glyph glyph-name="X" unicode="X" horiz-adv-x="3060" 
d="M1528 1044l-627 -1044h-901l1069 1581l-975 1458h852l582 -999l586 999h852l-979 -1458l1073 -1581h-901z" />
    <glyph glyph-name="Y" unicode="Y" horiz-adv-x="2818" 
d="M1425 1724l643 1315h791l-1090 -1892v-1147h-716v1147l-1094 1892h819z" />
    <glyph glyph-name="Z" unicode="Z" horiz-adv-x="2769" 
d="M1651 2433h-1458v606h2359v-553l-1565 -1880h1667v-606h-2539v635z" />
    <glyph glyph-name="bracketleft" unicode="[" horiz-adv-x="1835" 
d="M459 3039h1147v-401h-574v-3039h574v-402h-1147v3842z" />
    <glyph glyph-name="backslash" unicode="\" horiz-adv-x="2863" 
d="M287 3154l409 209l1880 -3515l-405 -213z" />
    <glyph glyph-name="bracketright" unicode="]" horiz-adv-x="1835" 
d="M1376 -803h-1147v402h574v3039h-574v401h1147v-3842z" />
    <glyph glyph-name="asciicircum" unicode="^" horiz-adv-x="2159" 
d="M561 3039h1032l439 -618h-435l-520 409l-516 -409h-434z" />
    <glyph glyph-name="underscore" unicode="_" horiz-adv-x="2159" 
d="M0 -803v516h2159v-516h-2159z" />
    <glyph glyph-name="grave" unicode="`" horiz-adv-x="1237" 
d="M647 3039l299 -573h-532l-463 573h696z" />
    <glyph glyph-name="a" unicode="a" horiz-adv-x="2626" 
d="M938 1495h-631q7 203 102.5 375t326 283.5t612.5 111.5q447 0 669.5 -138t278 -307.5t55.5 -357.5l-8 -1007q0 -19 2 -53t2 -99q0 -225 127 -287v-16h-692l-58 217h-12q-143 -177 -362 -232t-379 -55q-470 0 -618 207t-148 420q0 259 132.5 404.5t332 205t493.5 95.5
q270 33 360 50.5t129 55t44 127.5v57q-13 295 -353 295q-229 0 -317 -106t-88 -246zM1700 913l4 140q-88 -46 -155.5 -64t-213.5 -43q-142 -24 -234.5 -53t-156 -95.5t-63.5 -183.5q0 -113 88 -195.5t252 -82.5q177 0 324 131t155 446z" />
    <glyph glyph-name="b" unicode="b" horiz-adv-x="2765" 
d="M877 266l8 -266h-619v3039h660v-1057q238 295 663 295q290 0 521.5 -134.5t363 -398t131.5 -634.5q0 -377 -130 -646t-358.5 -405.5t-519.5 -136.5q-430 0 -708 344h-12zM889 1102q0 -234 66.5 -393t182.5 -237.5t267 -78.5q250 0 385 199.5t135 509.5q0 113 -29.5 268.5
t-146 297.5t-344.5 142q-256 0 -386 -192t-130 -516z" />
    <glyph glyph-name="c" unicode="c" horiz-adv-x="2572" 
d="M1774 831h651q-50 -390 -253 -593.5t-425 -259.5t-416 -56q-285 0 -506.5 84t-368.5 239.5t-221.5 372.5t-74.5 480q0 281 98 548t369 455.5t745 188.5q367 0 591 -136.5t320.5 -331t116.5 -401.5h-635q-47 426 -417 426q-504 0 -504 -700q0 -450 150.5 -616t344.5 -166
q235 0 329.5 157.5t105.5 308.5z" />
    <glyph glyph-name="d" unicode="d" horiz-adv-x="2769" 
d="M2503 0h-619l4 266h-12q-292 -340 -713 -340q-323 0 -549.5 157t-340 427t-113.5 600q0 240 64 451.5t190.5 372t318.5 252t443 91.5q202 0 381 -79.5t286 -215.5v1057h660v-3039zM1876 1102q0 208 -56.5 368t-173 250t-286.5 90q-254 0 -385 -193t-131 -515
q0 -232 66 -391t183 -238.5t267 -79.5t267 79.5t183 238.5t66 391z" />
    <glyph glyph-name="e" unicode="e" horiz-adv-x="2687" 
d="M1815 639h667q-46 -178 -162 -336t-359.5 -267.5t-621.5 -109.5q-204 0 -462 68t-487.5 331.5t-229.5 780.5q0 264 82 478.5t240 369.5t387.5 239t519.5 84q371 0 627 -150t383.5 -425t127.5 -637v-98h-1687q0 -244 129 -433.5t399 -189.5q167 0 292.5 79t154.5 216z
M840 1311h1007q-3 243 -112.5 396t-354.5 153q-192 0 -310 -90.5t-169.5 -216t-60.5 -242.5z" />
    <glyph glyph-name="f" unicode="f" horiz-adv-x="1675" 
d="M1614 2208v-430h-496v-1778h-659v1778h-402v430h402v274q0 329 216 457.5t603 128.5q58 0 122.5 -6t122.5 -12.5t91 -10.5l4 -442q-99 24 -266 24q-234 0 -234 -249v-164h496z" />
    <glyph glyph-name="g" unicode="g" horiz-adv-x="2769" 
d="M324 -172h643q71 -250 430 -250q446 0 446 520v221h-12q-273 -266 -660 -266q-289 0 -515 122.5t-355 363t-129 583.5q0 244 62.5 454t189.5 367.5t316 243.5t440 86q460 0 684 -311h12v246h627v-2003q0 -1057 -1110 -1057q-278 0 -495 56.5t-370.5 207.5t-203.5 416z
M1360 500q508 0 508 651q0 212 -68 362t-184 223.5t-260 73.5q-193 0 -348.5 -143.5t-155.5 -507.5q0 -268 109.5 -463.5t398.5 -195.5z" />
    <glyph glyph-name="h" unicode="h" horiz-adv-x="2654" 
d="M926 3039v-1073q274 303 745 303q197 0 359 -72.5t266 -268.5t104 -544v-1384h-659v1278q0 198 -66.5 342.5t-306.5 144.5q-225 0 -333.5 -144.5t-108.5 -379.5v-1241h-660v3039h660z" />
    <glyph glyph-name="i" unicode="i" horiz-adv-x="1188" 
d="M266 2208h660v-2208h-660v2208zM254 2523v516h680v-516h-680z" />
    <glyph glyph-name="j" unicode="j" horiz-adv-x="1188" 
d="M262 2208h660l4 -2314q0 -405 -166 -567.5t-473 -162.5q-211 0 -414 33v443q65 -13 123 -13q172 0 219 96.5t47 231.5v2253zM254 2523v516h680v-516h-680z" />
    <glyph glyph-name="k" unicode="k" horiz-adv-x="2511" 
d="M926 1368l753 840h795l-872 -873l950 -1335h-787l-614 918l-225 -230v-688h-660v3039h660v-1671z" />
    <glyph glyph-name="l" unicode="l" horiz-adv-x="1192" 
d="M266 3039h660v-3039h-660v3039z" />
    <glyph glyph-name="m" unicode="m" horiz-adv-x="3965" 
d="M266 2208h615v-324q116 166 290.5 277.5t389.5 111.5q283 0 432.5 -130.5t214.5 -295.5q177 242 360.5 334t392.5 92q308 0 474.5 -147t221 -351t54.5 -432v-1343h-659v1298q0 203 -64.5 339.5t-263.5 136.5q-153 0 -279.5 -116t-126.5 -392v-1266h-659v1298
q0 221 -71.5 348.5t-264.5 127.5q-103 0 -194 -55.5t-147 -170.5t-56 -282v-1266h-660v2208z" />
    <glyph glyph-name="n" unicode="n" horiz-adv-x="2654" 
d="M897 2208v-266q283 327 766 327q293 0 515 -169.5t222 -715.5v-1384h-659v1278q0 198 -66.5 342.5t-306.5 144.5q-225 0 -333.5 -144.5t-108.5 -379.5v-1241h-660v2208h631z" />
    <glyph glyph-name="o" unicode="o" horiz-adv-x="2724" 
d="M1360 -82q-279 0 -549.5 99.5t-460.5 365.5t-190 723q0 350 115 586.5t296.5 365.5t385 180.5t403.5 51.5q204 0 408 -51.5t384.5 -180t296 -365.5t115.5 -587q0 -349 -115.5 -587.5t-297.5 -368.5t-384.5 -181t-406.5 -51zM1360 360q520 0 520 746q0 282 -99 511.5
t-421 229.5q-320 0 -418 -228.5t-98 -512.5q0 -746 516 -746z" />
    <glyph glyph-name="p" unicode="p" horiz-adv-x="2769" 
d="M266 2208h619l-4 -266h12q292 339 713 339q247 0 436 -91.5t314 -252.5t189 -377.5t64 -461.5q0 -239 -63 -450.5t-191 -373.5t-321 -253t-441 -91q-199 0 -377.5 78.5t-289.5 216.5v-1028h-660v3011zM893 1106q0 -321 131 -515t385 -194q170 0 286.5 90t173 250
t56.5 369q0 344 -142 526.5t-374 182.5q-150 0 -267 -79.5t-183 -238.5t-66 -391z" />
    <glyph glyph-name="q" unicode="q" horiz-adv-x="2765" 
d="M1888 1942l-8 266h619v-3011h-660v1028q-118 -144 -293 -219.5t-370 -75.5q-290 0 -522 135t-363 398.5t-131 634.5q0 377 130 646t358.5 405.5t518.5 136.5q430 0 709 -344h12zM1876 1106q0 344 -142 526.5t-374 182.5q-188 0 -304.5 -106.5t-166 -268t-49.5 -334.5
q0 -255 111.5 -482t408.5 -227q170 0 286.5 90t173 250t56.5 369z" />
    <glyph glyph-name="r" unicode="r" horiz-adv-x="1839" 
d="M1782 2245v-525q-107 21 -201 21q-186 0 -331.5 -77.5t-234.5 -265.5t-89 -497v-901h-660v2208h631v-361q129 215 327.5 306.5t479.5 91.5h78z" />
    <glyph glyph-name="s" unicode="s" horiz-adv-x="2404" 
d="M131 696h676q14 -352 442 -352q152 0 254.5 64t102.5 186q0 112 -62 171.5t-188.5 92.5t-376.5 72q-336 56 -553 186.5t-217 493.5q0 215 112 365t335.5 228t543.5 78q387 0 605 -111t297 -263t85 -310h-598q-14 283 -348 283q-146 0 -267.5 -47t-121.5 -178
q0 -118 69.5 -177.5t163 -80t316.5 -54.5q260 -39 429 -86.5t306 -188t137 -400.5q0 -177 -78 -342.5t-310.5 -282.5t-655.5 -117q-267 0 -473.5 59t-344.5 165t-207.5 246.5t-72.5 299.5z" />
    <glyph glyph-name="t" unicode="t" horiz-adv-x="1671" 
d="M57 1765v443h398v659h659v-659h471v-443h-471v-1060q0 -102 13 -161.5t70 -98.5t179 -39q108 0 209 36v-442q-270 -61 -541 -61q-314 0 -451.5 143.5t-137.5 499.5v1183h-398z" />
    <glyph glyph-name="u" unicode="u" horiz-adv-x="2654" 
d="M1757 0v266q-292 -327 -766 -327q-737 0 -737 884v1385h659v-1278q0 -212 69 -350t300 -138q216 0 331.5 142.5t115.5 382.5v1241h659v-2208h-631z" />
    <glyph glyph-name="v" unicode="v" horiz-adv-x="2257" 
d="M1126 659l455 1549h717l-807 -2208h-725l-807 2208h717z" />
    <glyph glyph-name="w" unicode="w" horiz-adv-x="3465" 
d="M1733 1425l-369 -1425h-688l-717 2208h725l373 -1438l360 1438h631l360 -1438l373 1438h725l-721 -2208h-688z" />
    <glyph glyph-name="x" unicode="x" horiz-adv-x="2413" 
d="M1208 1520l406 688h762l-783 -1065l820 -1143h-758l-447 721l-446 -721h-762l823 1143l-782 1065h762z" />
    <glyph glyph-name="y" unicode="y" horiz-adv-x="2421" 
d="M414 -803v443q84 -29 213 -29q142 0 207 76.5t112 230.5l33 107l-963 2183h795l512 -1438l397 1438h701l-766 -2327q-77 -237 -156.5 -385.5t-230 -244t-391.5 -95.5q-222 0 -463 41z" />
    <glyph glyph-name="z" unicode="z" horiz-adv-x="2224" 
d="M209 1753v455h1843v-475l-1147 -1278h1204v-455h-1994v463l1171 1290h-1077z" />
    <glyph glyph-name="braceleft" unicode="{" horiz-adv-x="2159" 
d="M573 1081v402q156 11 270.5 136t114.5 429q0 75 -8 229q-8 148 -8 222q0 282 116 439.5t289.5 213t385.5 55.5v-315q-303 -76 -303 -398q0 -54 10 -226t10 -281q0 -226 -104 -401.5t-392 -287.5v-32q292 -124 394 -289.5t102 -398.5q0 -115 -10 -268t-10 -244
q0 -318 303 -394v-315q-212 0 -385.5 55.5t-289.5 213.5t-116 440q0 73 8 221q8 156 8 229q0 291 -111 422.5t-274 142.5z" />
    <glyph glyph-name="bar" unicode="|" horiz-adv-x="2154" 
d="M819 -803v4313h516v-4313h-516z" />
    <glyph glyph-name="braceright" unicode="}" horiz-adv-x="2159" 
d="M1585 1483v-402q-163 -14 -274 -144t-111 -421q0 -178 8.5 -201t8.5 -249q0 -709 -791 -709v315q303 76 303 394q0 91 -10 244t-10 268q0 151 38.5 270t146.5 225t310 193v32q-288 112 -391.5 288t-103.5 401q0 109 10 281t10 226q0 322 -303 398v315q328 0 559.5 -151
t231.5 -557q0 -104 -8.5 -195t-8.5 -256q0 -186 74.5 -364.5t310.5 -200.5z" />
    <glyph glyph-name="asciitilde" unicode="~" horiz-adv-x="2150" 
d="M1495 3039h430q-21 -227 -154 -404t-366 -177q-79 0 -140.5 12.5t-134.5 38t-114 39.5q-99 41 -201 41q-124 0 -168 -119h-422q85 577 516 577q109 0 180.5 -18.5t208.5 -71.5q135 -49 213 -49q109 0 152 131z" />
    <glyph glyph-name="afii10062" unicode="&#xa1;" horiz-adv-x="2798" 
d="M1536 1552l524 1487h779l-988 -2416q-126 -307 -281.5 -456t-306.5 -186.5t-354 -37.5q-225 0 -458 57v590q141 -41 311 -41q308 0 381 291l-1127 2199h856zM623 3785h479q0 -170 121.5 -230.5t255.5 -60.5q205 0 290.5 85t85.5 206h484q-7 -151 -92 -286.5t-276 -223.5
t-492 -88q-297 0 -487 87t-275.5 223t-93.5 288z" />
    <glyph glyph-name="afii10110" unicode="&#xa2;" horiz-adv-x="2421" 
d="M414 -803v443q84 -29 213 -29q142 0 207 76.5t112 230.5l33 107l-963 2183h795l512 -1438l397 1438h701l-766 -2327q-77 -237 -156.5 -385.5t-230 -244t-391.5 -95.5q-222 0 -463 41zM430 3039h483q4 -171 124.5 -231t252.5 -60q204 0 290.5 85t86.5 206h483
q-7 -150 -94 -286t-278 -224t-488 -88q-302 0 -489 87.5t-270.5 221t-100.5 289.5z" />
    <glyph glyph-name="afii10057" unicode="&#xa3;" horiz-adv-x="2540" 
d="M115 1118h716v-119q0 -215 76.5 -353t296.5 -138q202 0 267 123t65 368v2040h717v-1941q0 -292 -62.5 -543.5t-294.5 -444t-688 -192.5q-424 0 -669 163.5t-334.5 393t-89.5 455.5v188z" />
    <glyph glyph-name="currency" unicode="&#xa4;" horiz-adv-x="3584" 
d="M287 229l483 484q-229 319 -229 721q0 401 229 720l-483 484l286 287l480 -484q310 246 737 246t737 -246l484 484l286 -287l-483 -484q229 -319 229 -720q0 -402 -229 -721l483 -484l-286 -286l-484 483q-310 -246 -737 -246t-737 246l-480 -483zM864 1434
q0 -269 133.5 -482t349 -330.5t443.5 -117.5q227 0 443.5 117.5t351.5 330.5t135 482q0 265 -135.5 479t-351 332t-443.5 118q-261 0 -504 -151q-422 -289 -422 -778z" />
    <glyph glyph-name="afii10050" unicode="&#xa5;" horiz-adv-x="2417" 
d="M1040 2449v-2449h-716v3039h1368v688h630l37 -1278h-1319z" />
    <glyph glyph-name="section" unicode="&#xa7;" horiz-adv-x="2679" 
d="M2191 2302h-532q-14 185 -94.5 256.5t-225.5 71.5q-127 0 -213 -62t-86 -192q0 -91 55 -148t143.5 -91t268.5 -85q214 -57 354 -105t277 -137.5t224 -244t87 -381.5q0 -157 -79 -364.5t-359 -344.5q121 -102 173 -207t52 -252q0 -187 -87.5 -361.5t-290.5 -289.5
t-523 -115q-131 0 -275.5 24.5t-293.5 109t-250.5 264t-101.5 467.5h544q0 -148 80.5 -262.5t296.5 -114.5q324 0 324 266q0 97 -48 152.5t-147.5 94t-324.5 105.5q-293 87 -478.5 175t-308.5 260t-123 454q0 155 56.5 289.5t158.5 231t232 139.5q-112 106 -160.5 215
t-48.5 264q0 146 72.5 307t265.5 279t530 118q333 0 524.5 -112t261.5 -285.5t70 -388.5zM1155 934l516 -152q117 30 189.5 112.5t72.5 207.5q0 241 -401 364l-512 156q-258 -89 -258 -315q0 -260 393 -373z" />
    <glyph glyph-name="afii10023" unicode="&#xa8;" horiz-adv-x="2863" 
d="M1040 1831h1487v-557h-1487v-684h1725v-590h-2441v3039h2404v-590h-1688v-618zM741 3326v459h574v-459h-574zM1774 3326v459h573v-459h-573z" />
    <glyph glyph-name="copyright" unicode="&#xa9;" horiz-adv-x="3498" 
d="M229 1520q0 336 126.5 617t344.5 483.5t491.5 310.5t557.5 108q376 0 728 -190.5t572 -538.5t220 -790q0 -336 -128 -617t-347 -483.5t-492.5 -311t-552.5 -108.5q-284 0 -556.5 108.5t-491 312t-345.5 486t-127 613.5zM594 1520q0 -226 82.5 -443t236 -390t367.5 -274.5
t469 -101.5q256 0 468.5 101.5t365.5 275t235 389.5t82 443t-82 443.5t-234.5 389t-366.5 274t-468 101.5t-469 -101t-368 -273.5t-235.5 -390t-82.5 -443.5zM2392 1290q-83 -545 -627 -545q-282 0 -443.5 132t-219.5 308.5t-58 338.5q0 319 159 567t546 248
q329 0 461.5 -152t144.5 -348h-340q0 95 -70.5 154t-195.5 59q-319 0 -319 -528q0 -239 95 -365.5t244 -126.5q120 0 190 77t77 181h356z" />
    <glyph glyph-name="afii10053" unicode="&#xaa;" horiz-adv-x="3330" 
d="M2286 1806v-557h-1328q17 -459 248.5 -602t505.5 -143q240 0 435.5 104.5t252.5 321.5h758q-81 -355 -267 -569.5t-404.5 -309t-404 -118t-370.5 -23.5q-255 0 -506 56.5t-485.5 225t-385.5 507t-151 862.5q0 518 174.5 840.5t432.5 475.5t500 196.5t470 43.5
q389 0 691 -129t477 -356.5t204 -517.5h-745q-32 139 -174.5 274t-501.5 135q-421 0 -580 -219t-174 -498h1328z" />
    <glyph glyph-name="guillemotleft" unicode="&#xab;" horiz-adv-x="2023" 
d="M246 1466l651 594v-598l-356 -299l356 -303v-598l-651 590v614zM1069 1466l651 586v-594l-356 -295l356 -307v-598l-651 594v614z" />
    <glyph glyph-name="logicalnot" unicode="&#xac;" horiz-adv-x="2916" 
d="M229 1692h2458v-754h-369v410h-2089v344z" />
    <glyph glyph-name="registered" unicode="&#xae;" horiz-adv-x="3498" 
d="M229 1520q0 442 220 790t572 538.5t728 190.5q284 0 557 -107.5t490.5 -309t345 -485t127.5 -617.5q0 -335 -126.5 -615.5t-344 -483t-491.5 -312t-558 -109.5q-278 0 -551 108.5t-493.5 312t-348 485t-127.5 614.5zM598 1520q0 -354 164 -631.5t430 -427.5t557 -150
q288 0 555.5 151t433.5 428t166 630q0 351 -166 628.5t-433.5 428.5t-555.5 151q-291 0 -557 -150t-430 -426.5t-164 -631.5zM1196 774v1520h672q499 0 499 -410q0 -286 -258 -377v-4q197 -55 197 -221q0 -36 -10 -117t-10 -125q0 -160 106 -266h-373q-34 45 -44 96t-13 179
q0 121 -19 186.5t-91 101t-222 35.5h-74v-598h-360zM1556 2028v-390h189q141 0 195.5 62t54.5 139q0 61 -41 120t-160 64q-37 0 -51 2.5t-31 2.5h-156z" />
    <glyph glyph-name="afii10056" unicode="&#xaf;" horiz-adv-x="1556" 
d="M418 3039h717v-3039h-717v3039zM123 3314v471h532v-471h-532zM901 3314v471h533v-471h-533z" />
    <glyph glyph-name="degree" unicode="&#xb0;" horiz-adv-x="1294" 
d="M160 2626q0 186 137 336.5t350 150.5q140 0 252.5 -71t174 -183t61.5 -233q0 -128 -61 -240t-173 -180t-254 -68q-214 0 -350.5 147t-136.5 341zM418 2626q0 -102 68 -166t161 -64q99 0 164.5 71t65.5 159q0 84 -67 156.5t-163 72.5q-88 0 -158.5 -65t-70.5 -164z" />
    <glyph glyph-name="plusminus" unicode="&#xb1;" horiz-adv-x="2753" 
d="M1561 717h-344v557h-930v344h930v688h344v-688h905v-344h-905v-557zM287 172v344h2179v-344h-2179z" />
    <glyph glyph-name="afii10055" unicode="&#xb2;" horiz-adv-x="1364" 
d="M324 3039h716v-3039h-716v3039z" />
    <glyph glyph-name="afii10103" unicode="&#xb3;" horiz-adv-x="1188" 
d="M266 2208h660v-2208h-660v2208zM254 2523v516h680v-516h-680z" />
    <glyph glyph-name="afii10098" unicode="&#xb4;" horiz-adv-x="2015" 
d="M938 1749v-1749h-672v2208h1176v573h483l33 -1032h-1020z" />
    <glyph glyph-name="mu" unicode="&#xb5;" horiz-adv-x="2658" 
d="M926 -803h-660v3011h660v-1159q0 -305 112.5 -456t296.5 -151q185 0 297.5 151t112.5 456v1159h659v-2208h-659v324q-23 -119 -89 -212.5t-151.5 -143.5t-169.5 -50q-130 0 -251.5 114t-157.5 292v-1127z" />
    <glyph glyph-name="paragraph" unicode="&#xb6;" horiz-adv-x="2384" 
d="M831 -803v2409q-208 6 -372.5 106t-254 262.5t-89.5 347.5q0 189 89.5 351.5t253.5 261t373 104.5h517v-3842h-517zM1692 -803v3842h516v-3842h-516z" />
    <glyph glyph-name="periodcentered" unicode="&#xb7;" horiz-adv-x="1634" 
d="M459 819v688h717v-688h-717z" />
    <glyph glyph-name="afii10071" unicode="&#xb8;" horiz-adv-x="2687" 
d="M1815 639h667q-46 -178 -162 -336t-359.5 -267.5t-621.5 -109.5q-204 0 -462 68t-487.5 331.5t-229.5 780.5q0 264 82 478.5t240 369.5t387.5 239t519.5 84q371 0 627 -150t383.5 -425t127.5 -637v-98h-1687q0 -244 129 -433.5t399 -189.5q167 0 292.5 79t154.5 216z
M840 1311h1007q-3 243 -112.5 396t-354.5 153q-192 0 -310 -90.5t-169.5 -216t-60.5 -242.5zM401 2523v516h684v-516h-684zM1602 2523v516h684v-516h-684z" />
    <glyph glyph-name="afii61352" unicode="&#xb9;" horiz-adv-x="5034" 
d="M3301 0v516h1524v-516h-1524zM1053 1901h-13v-1901h-716v3039h729l1196 -1888h12v1888h717v-3039h-725zM3265 1622q0 218 79.5 415t260.5 325t458 128q314 0 492.5 -149t242.5 -345.5t64 -373.5q0 -461 -246 -664.5t-553 -203.5q-181 0 -363.5 80.5t-308.5 275
t-126 512.5zM3781 1622q0 -188 68 -327.5t214 -139.5q143 0 213 140t70 327q0 244 -88 355.5t-195 111.5q-106 0 -194 -111.5t-88 -355.5z" />
    <glyph glyph-name="afii10101" unicode="&#xba;" horiz-adv-x="2609" 
d="M1704 1315v-402h-881q9 -222 117 -397.5t399 -175.5q414 0 492 360h631q-170 -778 -1123 -778q-386 0 -651.5 141.5t-396.5 401.5t-131 612q0 458 237 831t951 373q368 0 603 -106.5t349.5 -275.5t148.5 -375h-614q-20 162 -158.5 251t-328.5 89q-294 0 -404.5 -175.5
t-120.5 -373.5h881z" />
    <glyph glyph-name="guillemotright" unicode="&#xbb;" horiz-adv-x="2019" 
d="M950 1458v-610l-647 -590v590l352 299l-352 303v598zM1774 1466v-614l-652 -590v590l357 303l-357 303v602z" />
    <glyph glyph-name="afii10105" unicode="&#xbc;" horiz-adv-x="1188" 
d="M262 2208h660l4 -2314q0 -405 -166 -567.5t-473 -162.5q-211 0 -414 33v443q65 -13 123 -13q172 0 219 96.5t47 231.5v2253zM254 2523v516h680v-516h-680z" />
    <glyph glyph-name="afii10054" unicode="&#xbd;" horiz-adv-x="2912" 
d="M152 987h725q0 -201 125 -358.5t481 -157.5q545 0 545 344q0 154 -103 242.5t-230.5 125.5t-441.5 107q-228 50 -388.5 102t-301 151.5t-223 266.5t-82.5 418q0 338 181 539t459.5 279.5t600.5 78.5q419 0 675 -138t364.5 -347t115.5 -436h-680q-27 364 -520 364
q-235 0 -359 -88t-124 -235q0 -128 91.5 -202t198 -103t312.5 -68q389 -75 640 -171.5t399.5 -281.5t148.5 -493q0 -233 -97 -458t-384.5 -389.5t-804.5 -164.5q-556 0 -850.5 193.5t-383.5 432t-89 447.5z" />
    <glyph glyph-name="afii10102" unicode="&#xbe;" horiz-adv-x="2404" 
d="M131 696h676q14 -352 442 -352q152 0 254.5 64t102.5 186q0 112 -62 171.5t-188.5 92.5t-376.5 72q-336 56 -553 186.5t-217 493.5q0 215 112 365t335.5 228t543.5 78q387 0 605 -111t297 -263t85 -310h-598q-14 283 -348 283q-146 0 -267.5 -47t-121.5 -178
q0 -118 69.5 -177.5t163 -80t316.5 -54.5q260 -39 429 -86.5t306 -188t137 -400.5q0 -177 -78 -342.5t-310.5 -282.5t-655.5 -117q-267 0 -473.5 59t-344.5 165t-207.5 246.5t-72.5 299.5z" />
    <glyph glyph-name="afii10104" unicode="&#xbf;" horiz-adv-x="1581" 
d="M463 2208h659v-2208h-659v2208zM123 2523v516h532v-516h-532zM926 2523v516h532v-516h-532z" />
    <glyph glyph-name="afii10017" unicode="&#xc0;" horiz-adv-x="2925" 
d="M1098 3039h725l1143 -3039h-758l-197 569h-1102l-192 -569h-758zM1065 1085h790l-393 1160z" />
    <glyph glyph-name="afii10017" unicode="&#x410;" horiz-adv-x="2925" 
d="M1098 3039h725l1143 -3039h-758l-197 569h-1102l-192 -569h-758zM1065 1085h790l-393 1160z" />
    <glyph glyph-name="afii10018" unicode="&#xc1;" horiz-adv-x="3076" 
d="M1040 2449v-557h738q467 0 717.5 -159.5t329.5 -374t79 -440.5q0 -215 -89.5 -421t-341 -351.5t-695.5 -145.5h-1454v3039h2363v-590h-1647zM1040 1335v-778h582q249 0 393 80t144 297q0 401 -521 401h-598z" />
    <glyph glyph-name="afii10018" unicode="&#x411;" horiz-adv-x="3076" 
d="M1040 2449v-557h738q467 0 717.5 -159.5t329.5 -374t79 -440.5q0 -215 -89.5 -421t-341 -351.5t-695.5 -145.5h-1454v3039h2363v-590h-1647zM1040 1335v-778h582q249 0 393 80t144 297q0 401 -521 401h-598z" />
    <glyph glyph-name="afii10019" unicode="&#xc2;" horiz-adv-x="3146" 
d="M324 3039h1527q381 0 589.5 -124.5t278.5 -296t70 -353.5q0 -272 -151 -422.5t-348 -208.5v-8q157 -27 304.5 -115.5t245 -254t97.5 -404.5q0 -273 -108 -447.5t-281 -261t-364.5 -115t-409.5 -28.5h-1450v3039zM1040 2482v-643h664q127 0 239.5 73.5t112.5 241.5
q0 152 -100 240t-285 88h-631zM1040 1282v-725h746q130 0 261.5 82.5t131.5 294.5q0 348 -487 348h-652z" />
    <glyph glyph-name="afii10019" unicode="&#x412;" horiz-adv-x="3146" 
d="M324 3039h1527q381 0 589.5 -124.5t278.5 -296t70 -353.5q0 -272 -151 -422.5t-348 -208.5v-8q157 -27 304.5 -115.5t245 -254t97.5 -404.5q0 -273 -108 -447.5t-281 -261t-364.5 -115t-409.5 -28.5h-1450v3039zM1040 2482v-643h664q127 0 239.5 73.5t112.5 241.5
q0 152 -100 240t-285 88h-631zM1040 1282v-725h746q130 0 261.5 82.5t131.5 294.5q0 348 -487 348h-652z" />
    <glyph glyph-name="afii10020" unicode="&#xc3;" horiz-adv-x="2417" 
d="M1040 2449v-2449h-716v3039h2035v-590h-1319z" />
    <glyph glyph-name="afii10020" unicode="&#x413;" horiz-adv-x="2417" 
d="M1040 2449v-2449h-716v3039h2035v-590h-1319z" />
    <glyph glyph-name="afii10021" unicode="&#xc4;" horiz-adv-x="3449" 
d="M2961 590h430l-36 -1278h-631v688h-2056v-688h-631l-37 1278h299q167 237 265 503.5t139.5 568.5t46.5 673l8 704h2203v-2449zM2245 2449h-811l-4 -360q-6 -502 -83.5 -850t-269.5 -649h1168v1859z" />
    <glyph glyph-name="afii10021" unicode="&#x414;" horiz-adv-x="3449" 
d="M2961 590h430l-36 -1278h-631v688h-2056v-688h-631l-37 1278h299q167 237 265 503.5t139.5 568.5t46.5 673l8 704h2203v-2449zM2245 2449h-811l-4 -360q-6 -502 -83.5 -850t-269.5 -649h1168v1859z" />
    <glyph glyph-name="afii10022" unicode="&#xc5;" horiz-adv-x="2867" 
d="M1040 1831h1487v-557h-1487v-684h1729v-590h-2445v3039h2404v-590h-1688v-618z" />
    <glyph glyph-name="afii10022" unicode="&#x415;" horiz-adv-x="2867" 
d="M1040 1831h1487v-557h-1487v-684h1729v-590h-2445v3039h2404v-590h-1688v-618z" />
    <glyph glyph-name="afii10024" unicode="&#xc6;" horiz-adv-x="4280" 
d="M1782 0v1376h-13l-946 -1376h-864l1221 1626l-1184 1413h844l929 -1237h13v1237h717v-1237h12l930 1237h843l-1183 -1413l1220 -1626h-868l-942 1376h-12v-1376h-717z" />
    <glyph glyph-name="afii10024" unicode="&#x416;" horiz-adv-x="4280" 
d="M1782 0v1376h-13l-946 -1376h-864l1221 1626l-1184 1413h844l929 -1237h13v1237h717v-1237h12l930 1237h843l-1183 -1413l1220 -1626h-868l-942 1376h-12v-1376h-717z" />
    <glyph glyph-name="afii10025" unicode="&#xc7;" horiz-adv-x="3154" 
d="M152 1044h696q17 -569 717 -569q328 0 471 123t143 307q0 369 -520 369h-430v557h356q500 0 500 340q0 171 -122 257.5t-250.5 107t-217.5 20.5q-539 0 -557 -504h-700q18 373 172.5 608.5t443 344t719.5 108.5q756 0 1017 -259.5t261 -584.5q0 -303 -164.5 -458
t-405.5 -209v-9q664 -124 664 -770q0 -901 -1405 -901q-344 0 -639 75t-513.5 324.5t-235.5 722.5z" />
    <glyph glyph-name="afii10025" unicode="&#x417;" horiz-adv-x="3154" 
d="M152 1044h696q17 -569 717 -569q328 0 471 123t143 307q0 369 -520 369h-430v557h356q500 0 500 340q0 171 -122 257.5t-250.5 107t-217.5 20.5q-539 0 -557 -504h-700q18 373 172.5 608.5t443 344t719.5 108.5q756 0 1017 -259.5t261 -584.5q0 -303 -164.5 -458
t-405.5 -209v-9q664 -124 664 -770q0 -901 -1405 -901q-344 0 -639 75t-513.5 324.5t-235.5 722.5z" />
    <glyph glyph-name="afii10026" unicode="&#xc8;" horiz-adv-x="3293" 
d="M1040 1077l1213 1962h717v-3039h-717v1982l-1213 -1982h-716v3039h716v-1962z" />
    <glyph glyph-name="afii10026" unicode="&#x418;" horiz-adv-x="3293" 
d="M1040 1077l1213 1962h717v-3039h-717v1982l-1213 -1982h-716v3039h716v-1962z" />
    <glyph glyph-name="afii10027" unicode="&#xc9;" horiz-adv-x="3293" 
d="M1040 1077l1213 1962h717v-3039h-717v1982l-1213 -1982h-716v3039h716v-1962zM786 3785h484q0 -170 121.5 -230.5t255.5 -60.5q132 0 252.5 60t123.5 231h484q-24 -220 -206.5 -409t-653.5 -189q-280 0 -471 81.5t-286 216.5t-104 300z" />
    <glyph glyph-name="afii10027" unicode="&#x419;" horiz-adv-x="3293" 
d="M1040 1077l1213 1962h717v-3039h-717v1982l-1213 -1982h-716v3039h716v-1962zM786 3785h484q0 -170 121.5 -230.5t255.5 -60.5q132 0 252.5 60t123.5 231h484q-24 -220 -206.5 -409t-653.5 -189q-280 0 -471 81.5t-286 216.5t-104 300z" />
    <glyph glyph-name="afii10028" unicode="&#xca;" horiz-adv-x="2966" 
d="M1053 1761l1040 1278h844l-1221 -1388l1290 -1651h-880l-1073 1487h-13v-1487h-716v3039h716v-1278h13z" />
    <glyph glyph-name="afii10028" unicode="&#x41a;" horiz-adv-x="2966" 
d="M1053 1761l1040 1278h844l-1221 -1388l1290 -1651h-880l-1073 1487h-13v-1487h-716v3039h716v-1278h13z" />
    <glyph glyph-name="afii10029" unicode="&#xcb;" horiz-adv-x="3359" 
d="M57 0v590q90 -8 131 -8q241 0 366.5 128t166 339.5t45.5 539.5l20 1450h2249v-3039h-717v2449h-856l-20 -1060q-7 -351 -73 -646t-311 -529t-726 -234q-110 0 -275 20z" />
    <glyph glyph-name="afii10029" unicode="&#x41b;" horiz-adv-x="3359" 
d="M57 0v590q90 -8 131 -8q241 0 366.5 128t166 339.5t45.5 539.5l20 1450h2249v-3039h-717v2449h-856l-20 -1060q-7 -351 -73 -646t-311 -529t-726 -234q-110 0 -275 20z" />
    <glyph glyph-name="afii10030" unicode="&#xcc;" horiz-adv-x="4112" 
d="M1815 0l-762 2171h-13v-2171h-716v3039h1007l725 -2089l725 2089h1008v-3039h-717v2171h-12l-762 -2171h-483z" />
    <glyph glyph-name="afii10030" unicode="&#x41c;" horiz-adv-x="4112" 
d="M1815 0l-762 2171h-13v-2171h-716v3039h1007l725 -2089l725 2089h1008v-3039h-717v2171h-12l-762 -2171h-483z" />
    <glyph glyph-name="afii10031" unicode="&#xcd;" horiz-adv-x="3187" 
d="M1040 1307v-1307h-716v3039h716v-1143h1106v1143h717v-3039h-717v1307h-1106z" />
    <glyph glyph-name="afii10031" unicode="&#x41d;" horiz-adv-x="3187" 
d="M1040 1307v-1307h-716v3039h716v-1143h1106v1143h717v-3039h-717v1307h-1106z" />
    <glyph glyph-name="afii10032" unicode="&#xce;" horiz-adv-x="3441" 
d="M1720 -86q-402 0 -697.5 129.5t-480 354t-271.5 513t-87 609.5t87 609.5t271.5 513t478.5 353.5t699 129q406 0 701 -128.5t479 -352t270 -512t86 -612.5t-86 -612t-270 -512t-481 -353t-699 -129zM1720 504q486 0 624 334t138 682q0 617 -236 816t-526 199
q-287 0 -524.5 -199t-237.5 -816q0 -392 157.5 -704t604.5 -312z" />
    <glyph glyph-name="afii10032" unicode="&#x41e;" horiz-adv-x="3441" 
d="M1720 -86q-402 0 -697.5 129.5t-480 354t-271.5 513t-87 609.5t87 609.5t271.5 513t478.5 353.5t699 129q406 0 701 -128.5t479 -352t270 -512t86 -612.5t-86 -612t-270 -512t-481 -353t-699 -129zM1720 504q486 0 624 334t138 682q0 617 -236 816t-526 199
q-287 0 -524.5 -199t-237.5 -816q0 -392 157.5 -704t604.5 -312z" />
    <glyph glyph-name="afii10033" unicode="&#xcf;" horiz-adv-x="3228" 
d="M1040 2449v-2449h-716v3039h2580v-3039h-717v2449h-1147z" />
    <glyph glyph-name="afii10033" unicode="&#x41f;" horiz-adv-x="3228" 
d="M1040 2449v-2449h-716v3039h2580v-3039h-717v2449h-1147z" />
    <glyph glyph-name="afii10034" unicode="&#xd0;" horiz-adv-x="2974" 
d="M324 3039h1417q481 0 799.5 -218.5t318.5 -764.5q0 -343 -125.5 -556.5t-311 -310t-355.5 -121t-343 -24.5h-684v-1044h-716v3039zM1040 2445v-811h562q255 0 383.5 93.5t128.5 324.5q0 217 -124 305t-388 88h-562z" />
    <glyph glyph-name="afii10034" unicode="&#x420;" horiz-adv-x="2974" 
d="M324 3039h1417q481 0 799.5 -218.5t318.5 -764.5q0 -343 -125.5 -556.5t-311 -310t-355.5 -121t-343 -24.5h-684v-1044h-716v3039zM1040 2445v-811h562q255 0 383.5 93.5t128.5 324.5q0 217 -124 305t-388 88h-562z" />
    <glyph glyph-name="afii10035" unicode="&#xd1;" horiz-adv-x="3166" 
d="M2339 1073h713q-41 -437 -340 -804t-1041 -367q-289 0 -548.5 70.5t-472 243.5t-339.5 481.5t-127 764.5q0 496 158.5 869.5t487.5 581.5t817 208q521 0 824 -186t418.5 -437t129.5 -491h-705q-20 188 -156 356t-479 168q-361 0 -541 -278t-180 -762q0 -167 44.5 -386
t210.5 -414t491 -195q225 0 363.5 95t198.5 224.5t73 257.5z" />
    <glyph glyph-name="afii10035" unicode="&#x421;" horiz-adv-x="3166" 
d="M2339 1073h713q-41 -437 -340 -804t-1041 -367q-289 0 -548.5 70.5t-472 243.5t-339.5 481.5t-127 764.5q0 496 158.5 869.5t487.5 581.5t817 208q521 0 824 -186t418.5 -437t129.5 -491h-705q-20 188 -156 356t-479 168q-361 0 -541 -278t-180 -762q0 -167 44.5 -386
t210.5 -414t491 -195q225 0 363.5 95t198.5 224.5t73 257.5z" />
    <glyph glyph-name="afii10036" unicode="&#xd2;" horiz-adv-x="2666" 
d="M975 2449h-918v590h2552v-590h-917v-2449h-717v2449z" />
    <glyph glyph-name="afii10036" unicode="&#x422;" horiz-adv-x="2666" 
d="M975 2449h-918v590h2552v-590h-917v-2449h-717v2449z" />
    <glyph glyph-name="afii10037" unicode="&#xd3;" horiz-adv-x="2798" 
d="M1536 1552l524 1487h779l-988 -2416q-126 -307 -281.5 -456t-306.5 -186.5t-354 -37.5q-225 0 -458 57v590q141 -41 311 -41q308 0 381 291l-1127 2199h856z" />
    <glyph glyph-name="afii10037" unicode="&#x423;" horiz-adv-x="2798" 
d="M1536 1552l524 1487h779l-988 -2416q-126 -307 -281.5 -456t-306.5 -186.5t-354 -37.5q-225 0 -458 57v590q141 -41 311 -41q308 0 381 291l-1127 2199h856z" />
    <glyph glyph-name="afii10038" unicode="&#xd4;" horiz-adv-x="4067" 
d="M1675 -115v430h-114q-455 0 -777.5 154.5t-487.5 434.5t-165 644t165 644t487.5 434.5t777.5 154.5h114v430h717v-430h115q455 0 777.5 -154.5t487 -434.5t164.5 -644t-164.5 -644t-487 -434.5t-777.5 -154.5h-115v-430h-717zM1741 889v1319h-58q-299 0 -478 -86.5
t-253.5 -234.5t-74.5 -339q0 -352 216.5 -505.5t589.5 -153.5h58zM2327 889h57q374 0 590.5 153.5t216.5 505.5q0 191 -74.5 338.5t-254 234.5t-478.5 87h-57v-1319z" />
    <glyph glyph-name="afii10038" unicode="&#x424;" horiz-adv-x="4067" 
d="M1675 -115v430h-114q-455 0 -777.5 154.5t-487.5 434.5t-165 644t165 644t487.5 434.5t777.5 154.5h114v430h717v-430h115q455 0 777.5 -154.5t487 -434.5t164.5 -644t-164.5 -644t-487 -434.5t-777.5 -154.5h-115v-430h-717zM1741 889v1319h-58q-299 0 -478 -86.5
t-253.5 -234.5t-74.5 -339q0 -352 216.5 -505.5t589.5 -153.5h58zM2327 889h57q374 0 590.5 153.5t216.5 505.5q0 191 -74.5 338.5t-254 234.5t-478.5 87h-57v-1319z" />
    <glyph glyph-name="afii10039" unicode="&#xd5;" horiz-adv-x="3060" 
d="M1528 1044l-627 -1044h-901l1069 1581l-975 1458h852l582 -999l586 999h852l-979 -1458l1073 -1581h-901z" />
    <glyph glyph-name="afii10039" unicode="&#x425;" horiz-adv-x="3060" 
d="M1528 1044l-627 -1044h-901l1069 1581l-975 1458h852l582 -999l586 999h852l-979 -1458l1073 -1581h-901z" />
    <glyph glyph-name="afii10040" unicode="&#xd6;" horiz-adv-x="3424" 
d="M1040 590h1180v2449h717v-2449h430l-33 -1278h-631v688h-2379v3039h716v-2449z" />
    <glyph glyph-name="afii10040" unicode="&#x426;" horiz-adv-x="3424" 
d="M1040 590h1180v2449h717v-2449h430l-33 -1278h-631v688h-2379v3039h716v-2449z" />
    <glyph glyph-name="afii10041" unicode="&#xd7;" horiz-adv-x="2998" 
d="M209 3039h717v-733q0 -164 34 -272.5t151.5 -174t346.5 -65.5q213 0 500 33v1212h717v-3039h-717v1237q-371 -33 -684 -33q-333 0 -547 66.5t-325.5 187t-152 280t-40.5 371.5v930z" />
    <glyph glyph-name="afii10041" unicode="&#x427;" horiz-adv-x="2998" 
d="M209 3039h717v-733q0 -164 34 -272.5t151.5 -174t346.5 -65.5q213 0 500 33v1212h717v-3039h-717v1237q-371 -33 -684 -33q-333 0 -547 66.5t-325.5 187t-152 280t-40.5 371.5v930z" />
    <glyph glyph-name="afii10042" unicode="&#xd8;" horiz-adv-x="4698" 
d="M1040 590h951v2449h716v-2449h951v2449h717v-3039h-4051v3039h716v-2449z" />
    <glyph glyph-name="afii10042" unicode="&#x428;" horiz-adv-x="4698" 
d="M1040 590h951v2449h716v-2449h951v2449h717v-3039h-4051v3039h716v-2449z" />
    <glyph glyph-name="afii10043" unicode="&#xd9;" horiz-adv-x="4862" 
d="M1040 590h951v2449h716v-2449h951v2449h717v-2449h430l-33 -1249h-631v659h-3817v3039h716v-2449z" />
    <glyph glyph-name="afii10043" unicode="&#x429;" horiz-adv-x="4862" 
d="M1040 590h951v2449h716v-2449h951v2449h717v-2449h430l-33 -1249h-631v659h-3817v3039h716v-2449z" />
    <glyph glyph-name="afii10044" unicode="&#xda;" horiz-adv-x="3342" 
d="M1348 3039v-1102h757q431 0 673 -155.5t327.5 -378t85.5 -461.5q0 -942 -1090 -942h-1470v2449h-574v590h1291zM1348 1348v-758h610q471 0 471 377q0 381 -492 381h-589z" />
    <glyph glyph-name="afii10044" unicode="&#x42a;" horiz-adv-x="3342" 
d="M1348 3039v-1102h757q431 0 673 -155.5t327.5 -378t85.5 -461.5q0 -942 -1090 -942h-1470v2449h-574v590h1291zM1348 1348v-758h610q471 0 471 377q0 381 -492 381h-589z" />
    <glyph glyph-name="afii10045" unicode="&#xdb;" horiz-adv-x="4157" 
d="M1040 3039v-1102h758q331 0 548.5 -93t335 -243.5t162 -318.5t44.5 -340q0 -942 -1094 -942h-1470v3039h716zM1040 1348v-758h611q471 0 471 377q0 381 -492 381h-590zM3117 3039h717v-3039h-717v3039z" />
    <glyph glyph-name="afii10045" unicode="&#x42b;" horiz-adv-x="4157" 
d="M1040 3039v-1102h758q331 0 548.5 -93t335 -243.5t162 -318.5t44.5 -340q0 -942 -1094 -942h-1470v3039h716zM1040 1348v-758h611q471 0 471 377q0 381 -492 381h-590zM3117 3039h717v-3039h-717v3039z" />
    <glyph glyph-name="afii10046" unicode="&#xdc;" horiz-adv-x="3035" 
d="M1040 3039v-1102h758q431 0 673 -155.5t327.5 -378t85.5 -461.5q0 -942 -1090 -942h-1470v3039h716zM1040 1348v-758h611q471 0 471 377q0 381 -492 381h-590z" />
    <glyph glyph-name="afii10046" unicode="&#x42c;" horiz-adv-x="3035" 
d="M1040 3039v-1102h758q431 0 673 -155.5t327.5 -378t85.5 -461.5q0 -942 -1090 -942h-1470v3039h716zM1040 1348v-758h611q471 0 471 377q0 381 -492 381h-590z" />
    <glyph glyph-name="afii10047" unicode="&#xdd;" horiz-adv-x="3355" 
d="M938 2028h-729q17 292 175 540.5t464 398.5t745 150q469 0 784.5 -146.5t487.5 -382t238.5 -499t66.5 -528.5q0 -674 -245 -1041t-583 -488.5t-700 -121.5q-473 0 -795.5 164.5t-484 432t-190.5 587.5h729q13 -134 83 -267.5t232 -230t418 -96.5q439 0 598 233.5
t164 515.5h-1159v557h1155q0 110 -46 270t-214.5 303.5t-493.5 143.5q-395 0 -537 -165.5t-163 -329.5z" />
    <glyph glyph-name="afii10047" unicode="&#x42d;" horiz-adv-x="3355" 
d="M938 2028h-729q17 292 175 540.5t464 398.5t745 150q469 0 784.5 -146.5t487.5 -382t238.5 -499t66.5 -528.5q0 -674 -245 -1041t-583 -488.5t-700 -121.5q-473 0 -795.5 164.5t-484 432t-190.5 587.5h729q13 -134 83 -267.5t232 -230t418 -96.5q439 0 598 233.5
t164 515.5h-1159v557h1155q0 110 -46 270t-214.5 303.5t-493.5 143.5q-395 0 -537 -165.5t-163 -329.5z" />
    <glyph glyph-name="afii10048" unicode="&#xde;" horiz-adv-x="4686" 
d="M1040 1888h430q24 174 92 367.5t229.5 395.5t452.5 338t722 136q405 0 700 -128.5t480 -352.5t270.5 -511.5t85.5 -612.5t-85.5 -611.5t-270 -510.5t-482 -354t-703.5 -130q-508 0 -840 198t-490.5 511.5t-176.5 670.5l-414 4v-1298h-716v3039h716v-1151zM2966 504
q485 0 623 334t138 682q0 617 -236 816t-525 199q-287 0 -524.5 -199.5t-237.5 -815.5q0 -392 157.5 -704t604.5 -312z" />
    <glyph glyph-name="afii10048" unicode="&#x42e;" horiz-adv-x="4686" 
d="M1040 1888h430q24 174 92 367.5t229.5 395.5t452.5 338t722 136q405 0 700 -128.5t480 -352.5t270.5 -511.5t85.5 -612.5t-85.5 -611.5t-270 -510.5t-482 -354t-703.5 -130q-508 0 -840 198t-490.5 511.5t-176.5 670.5l-414 4v-1298h-716v3039h716v-1151zM2966 504
q485 0 623 334t138 682q0 617 -236 816t-525 199q-287 0 -524.5 -199.5t-237.5 -815.5q0 -392 157.5 -704t604.5 -312z" />
    <glyph glyph-name="afii10049" unicode="&#xdf;" horiz-adv-x="3084" 
d="M2044 1049h-381l-594 -1049h-852l717 1106q-329 46 -555.5 282.5t-226.5 671.5q0 323 119 525t293.5 298.5t340.5 126t316 29.5h1540v-3039h-717v1049zM2044 2449h-668q-187 0 -327 -86.5t-140 -310.5q0 -414 492 -414h643v811z" />
    <glyph glyph-name="afii10049" unicode="&#x42f;" horiz-adv-x="3084" 
d="M2044 1049h-381l-594 -1049h-852l717 1106q-329 46 -555.5 282.5t-226.5 671.5q0 323 119 525t293.5 298.5t340.5 126t316 29.5h1540v-3039h-717v1049zM2044 2449h-668q-187 0 -327 -86.5t-140 -310.5q0 -414 492 -414h643v811z" />
    <glyph glyph-name="afii10065" unicode="&#xe0;" horiz-adv-x="2626" 
d="M938 1495h-631q7 203 102.5 375t326 283.5t612.5 111.5q447 0 669.5 -138t278 -307.5t55.5 -357.5l-8 -1007q0 -19 2 -53t2 -99q0 -225 127 -287v-16h-692l-58 217h-12q-143 -177 -362 -232t-379 -55q-470 0 -618 207t-148 420q0 259 132.5 404.5t332 205t493.5 95.5
q270 33 360 50.5t129 55t44 127.5v57q-13 295 -353 295q-229 0 -317 -106t-88 -246zM1700 913l4 140q-88 -46 -155.5 -64t-213.5 -43q-142 -24 -234.5 -53t-156 -95.5t-63.5 -183.5q0 -113 88 -195.5t252 -82.5q177 0 324 131t155 446z" />
    <glyph glyph-name="afii10065" unicode="&#x430;" horiz-adv-x="2626" 
d="M938 1495h-631q7 203 102.5 375t326 283.5t612.5 111.5q447 0 669.5 -138t278 -307.5t55.5 -357.5l-8 -1007q0 -19 2 -53t2 -99q0 -225 127 -287v-16h-692l-58 217h-12q-143 -177 -362 -232t-379 -55q-470 0 -618 207t-148 420q0 259 132.5 404.5t332 205t493.5 95.5
q270 33 360 50.5t129 55t44 127.5v57q-13 295 -353 295q-229 0 -317 -106t-88 -246zM1700 913l4 140q-88 -46 -155.5 -64t-213.5 -43q-142 -24 -234.5 -53t-156 -95.5t-63.5 -183.5q0 -113 88 -195.5t252 -82.5q177 0 324 131t155 446z" />
    <glyph glyph-name="afii10066" unicode="&#xe1;" horiz-adv-x="2781" 
d="M1946 3244h536q-11 -238 -128.5 -370t-292.5 -185.5t-427 -83.5q-344 -44 -544.5 -111t-345.5 -270.5t-166 -605.5h12q66 199 214.5 327.5t341.5 187t402 58.5q337 0 580 -141t368 -389t125 -559q0 -342 -133.5 -607.5t-396 -415t-629.5 -149.5q-213 0 -420.5 56
t-396 219t-308.5 484.5t-120 817.5q0 437 82.5 731.5t245 472t402.5 264.5t581 117q169 15 240 25t113.5 37.5t64.5 89.5zM918 1061q0 -366 143.5 -527t368.5 -161q220 0 363.5 161.5t143.5 526.5q0 270 -81.5 423.5t-195 209t-230.5 55.5q-96 0 -208.5 -42.5t-208 -196.5
t-95.5 -449z" />
    <glyph glyph-name="afii10066" unicode="&#x431;" horiz-adv-x="2781" 
d="M1946 3244h536q-11 -238 -128.5 -370t-292.5 -185.5t-427 -83.5q-344 -44 -544.5 -111t-345.5 -270.5t-166 -605.5h12q66 199 214.5 327.5t341.5 187t402 58.5q337 0 580 -141t368 -389t125 -559q0 -342 -133.5 -607.5t-396 -415t-629.5 -149.5q-213 0 -420.5 56
t-396 219t-308.5 484.5t-120 817.5q0 437 82.5 731.5t245 472t402.5 264.5t581 117q169 15 240 25t113.5 37.5t64.5 89.5zM918 1061q0 -366 143.5 -527t368.5 -161q220 0 363.5 161.5t143.5 526.5q0 270 -81.5 423.5t-195 209t-230.5 55.5q-96 0 -208.5 -42.5t-208 -196.5
t-95.5 -449z" />
    <glyph glyph-name="afii10067" unicode="&#xe2;" horiz-adv-x="2535" 
d="M266 2208h1315q709 0 709 -537q0 -224 -128.5 -355.5t-301.5 -160.5v-12q194 -38 309 -113t167 -189.5t52 -275.5q0 -212 -96 -337.5t-275.5 -176.5t-439.5 -51h-1311v2208zM926 1790v-459h344q199 0 277.5 53.5t78.5 167.5q0 116 -71.5 177t-272.5 61h-356zM926 930
v-512h413q369 0 369 250q0 262 -381 262h-401z" />
    <glyph glyph-name="afii10067" unicode="&#x432;" horiz-adv-x="2535" 
d="M266 2208h1315q709 0 709 -537q0 -224 -128.5 -355.5t-301.5 -160.5v-12q194 -38 309 -113t167 -189.5t52 -275.5q0 -212 -96 -337.5t-275.5 -176.5t-439.5 -51h-1311v2208zM926 1790v-459h344q199 0 277.5 53.5t78.5 167.5q0 116 -71.5 177t-272.5 61h-356zM926 930
v-512h413q369 0 369 250q0 262 -381 262h-401z" />
    <glyph glyph-name="afii10068" unicode="&#xe3;" horiz-adv-x="2015" 
d="M938 1749v-1749h-672v2208h1692v-459h-1020z" />
    <glyph glyph-name="afii10068" unicode="&#x433;" horiz-adv-x="2015" 
d="M938 1749v-1749h-672v2208h1692v-459h-1020z" />
    <glyph glyph-name="afii10069" unicode="&#xe4;" horiz-adv-x="2929" 
d="M0 442h291q186 286 265 616t79 740v410h1888v-1766h365l-37 -1015h-561v573h-1692v-573h-561zM1864 1765h-623l-4 -233q-11 -663 -262 -1090h889v1323z" />
    <glyph glyph-name="afii10069" unicode="&#x434;" horiz-adv-x="2929" 
d="M0 442h291q186 286 265 616t79 740v410h1888v-1766h365l-37 -1015h-561v573h-1692v-573h-561zM1864 1765h-623l-4 -233q-11 -663 -262 -1090h889v1323z" />
    <glyph glyph-name="afii10070" unicode="&#xe5;" horiz-adv-x="2687" 
d="M1815 639h667q-46 -178 -162 -336t-359.5 -267.5t-621.5 -109.5q-204 0 -462 68t-487.5 331.5t-229.5 780.5q0 264 82 478.5t240 369.5t387.5 239t519.5 84q371 0 627 -150t383.5 -425t127.5 -637v-98h-1687q0 -244 129 -433.5t399 -189.5q167 0 292.5 79t154.5 216z
M840 1311h1007q-3 243 -112.5 396t-354.5 153q-192 0 -310 -90.5t-169.5 -216t-60.5 -242.5z" />
    <glyph glyph-name="afii10070" unicode="&#x435;" horiz-adv-x="2687" 
d="M1815 639h667q-46 -178 -162 -336t-359.5 -267.5t-621.5 -109.5q-204 0 -462 68t-487.5 331.5t-229.5 780.5q0 264 82 478.5t240 369.5t387.5 239t519.5 84q371 0 627 -150t383.5 -425t127.5 -637v-98h-1687q0 -244 129 -433.5t399 -189.5q167 0 292.5 79t154.5 216z
M840 1311h1007q-3 243 -112.5 396t-354.5 153q-192 0 -310 -90.5t-169.5 -216t-60.5 -242.5z" />
    <glyph glyph-name="afii10072" unicode="&#xe6;" horiz-adv-x="3371" 
d="M1368 0v967h-12l-631 -967h-766l893 1159l-836 1049h725l615 -901h12v901h631v-901h12l615 901h725l-836 -1049l897 -1159h-766l-635 967h-12v-967h-631z" />
    <glyph glyph-name="afii10072" unicode="&#x436;" horiz-adv-x="3371" 
d="M1368 0v967h-12l-631 -967h-766l893 1159l-836 1049h725l615 -901h12v901h631v-901h12l615 901h725l-836 -1049l897 -1159h-766l-635 967h-12v-967h-631z" />
    <glyph glyph-name="afii10073" unicode="&#xe7;" horiz-adv-x="2466" 
d="M94 737h627q8 -154 108 -275.5t351 -121.5q186 0 324 73.5t138 233.5q0 287 -401 287h-254v401h270q324 0 324 242q0 178 -146 230.5t-268 52.5q-229 0 -311 -115.5t-82 -245.5h-610q8 486 329 632t728 146q1032 0 1032 -626q0 -226 -127.5 -336t-282.5 -148v-12
q101 -15 209 -68t187 -170.5t79 -306.5q0 -384 -301.5 -536t-808.5 -152q-1072 0 -1114 815z" />
    <glyph glyph-name="afii10073" unicode="&#x437;" horiz-adv-x="2466" 
d="M94 737h627q8 -154 108 -275.5t351 -121.5q186 0 324 73.5t138 233.5q0 287 -401 287h-254v401h270q324 0 324 242q0 178 -146 230.5t-268 52.5q-229 0 -311 -115.5t-82 -245.5h-610q8 486 329 632t728 146q1032 0 1032 -626q0 -226 -127.5 -336t-282.5 -148v-12
q101 -15 209 -68t187 -170.5t79 -306.5q0 -384 -301.5 -536t-808.5 -152q-1072 0 -1114 815z" />
    <glyph glyph-name="afii10074" unicode="&#xe8;" horiz-adv-x="2793" 
d="M926 774l901 1434h700v-2208h-659v1434l-901 -1434h-701v2208h660v-1434z" />
    <glyph glyph-name="afii10074" unicode="&#x438;" horiz-adv-x="2793" 
d="M926 774l901 1434h700v-2208h-659v1434l-901 -1434h-701v2208h660v-1434z" />
    <glyph glyph-name="afii10075" unicode="&#xe9;" horiz-adv-x="2793" 
d="M926 774l901 1434h700v-2208h-659v1434l-901 -1434h-701v2208h660v-1434zM537 3039h483q0 -133 97.5 -212t279.5 -79t279.5 79t97.5 212h483q-24 -219 -207.5 -408.5t-652.5 -189.5q-314 0 -503 94.5t-265.5 228.5t-91.5 275z" />
    <glyph glyph-name="afii10075" unicode="&#x439;" horiz-adv-x="2793" 
d="M926 774l901 1434h700v-2208h-659v1434l-901 -1434h-701v2208h660v-1434zM537 3039h483q0 -133 97.5 -212t279.5 -79t279.5 79t97.5 212h483q-24 -219 -207.5 -408.5t-652.5 -189.5q-314 0 -503 94.5t-265.5 228.5t-91.5 275z" />
    <glyph glyph-name="afii10076" unicode="&#xea;" horiz-adv-x="2384" 
d="M938 1319l709 889h733l-910 -1037l955 -1171h-774l-713 963h-12v-963h-660v2208h660v-889h12z" />
    <glyph glyph-name="afii10076" unicode="&#x43a;" horiz-adv-x="2384" 
d="M938 1319l709 889h733l-910 -1037l955 -1171h-774l-713 963h-12v-963h-660v2208h660v-889h12z" />
    <glyph glyph-name="afii10077" unicode="&#xeb;" horiz-adv-x="2728" 
d="M57 -8v454q41 -8 111 -8q167 0 251 103t109.5 269t32.5 452l21 946h1880v-2208h-660v1765h-590l-8 -495q-8 -390 -62.5 -665t-233.5 -462.5t-527 -187.5q-148 0 -324 37z" />
    <glyph glyph-name="afii10077" unicode="&#x43b;" horiz-adv-x="2728" 
d="M57 -8v454q41 -8 111 -8q167 0 251 103t109.5 269t32.5 452l21 946h1880v-2208h-660v1765h-590l-8 -495q-8 -390 -62.5 -665t-233.5 -462.5t-527 -187.5q-148 0 -324 37z" />
    <glyph glyph-name="afii10078" unicode="&#xec;" horiz-adv-x="3400" 
d="M1483 0l-602 1520h-13l13 -115v-1405h-615v2208h832l598 -1553h8l598 1553h831v-2208h-614v1405l12 115h-12l-602 -1520h-434z" />
    <glyph glyph-name="afii10078" unicode="&#x43c;" horiz-adv-x="3400" 
d="M1483 0l-602 1520h-13l13 -115v-1405h-615v2208h832l598 -1553h8l598 1553h831v-2208h-614v1405l12 115h-12l-602 -1520h-434z" />
    <glyph glyph-name="afii10079" unicode="&#xed;" horiz-adv-x="2646" 
d="M926 934v-934h-660v2208h660v-832h794v832h660v-2208h-660v934h-794z" />
    <glyph glyph-name="afii10079" unicode="&#x43d;" horiz-adv-x="2646" 
d="M926 934v-934h-660v2208h660v-832h794v832h660v-2208h-660v934h-794z" />
    <glyph glyph-name="afii10080" unicode="&#xee;" horiz-adv-x="2724" 
d="M1360 -82q-279 0 -549.5 99.5t-460.5 365.5t-190 723q0 350 115 586.5t296.5 365.5t385 180.5t403.5 51.5q204 0 408 -51.5t384.5 -180t296 -365.5t115.5 -587q0 -349 -115.5 -587.5t-297.5 -368.5t-384.5 -181t-406.5 -51zM1360 360q520 0 520 746q0 282 -99 511.5
t-421 229.5q-320 0 -418 -228.5t-98 -512.5q0 -746 516 -746z" />
    <glyph glyph-name="afii10080" unicode="&#x43e;" horiz-adv-x="2724" 
d="M1360 -82q-279 0 -549.5 99.5t-460.5 365.5t-190 723q0 350 115 586.5t296.5 365.5t385 180.5t403.5 51.5q204 0 408 -51.5t384.5 -180t296 -365.5t115.5 -587q0 -349 -115.5 -587.5t-297.5 -368.5t-384.5 -181t-406.5 -51zM1360 360q520 0 520 746q0 282 -99 511.5
t-421 229.5q-320 0 -418 -228.5t-98 -512.5q0 -746 516 -746z" />
    <glyph glyph-name="afii10081" unicode="&#xef;" horiz-adv-x="2699" 
d="M926 1765v-1765h-660v2208h2167v-2208h-659v1765h-848z" />
    <glyph glyph-name="afii10081" unicode="&#x43f;" horiz-adv-x="2699" 
d="M926 1765v-1765h-660v2208h2167v-2208h-659v1765h-848z" />
    <glyph glyph-name="afii10082" unicode="&#xf0;" horiz-adv-x="2769" 
d="M266 2208h619l-4 -266h12q292 339 713 339q247 0 436 -91.5t314 -252.5t189 -377.5t64 -461.5q0 -239 -63 -450.5t-191 -373.5t-321 -253t-441 -91q-199 0 -377.5 78.5t-289.5 216.5v-1028h-660v3011zM893 1106q0 -321 131 -515t385 -194q170 0 286.5 90t173 250
t56.5 369q0 344 -142 526.5t-374 182.5q-150 0 -267 -79.5t-183 -238.5t-66 -391z" />
    <glyph glyph-name="afii10082" unicode="&#x440;" horiz-adv-x="2769" 
d="M266 2208h619l-4 -266h12q292 339 713 339q247 0 436 -91.5t314 -252.5t189 -377.5t64 -461.5q0 -239 -63 -450.5t-191 -373.5t-321 -253t-441 -91q-199 0 -377.5 78.5t-289.5 216.5v-1028h-660v3011zM893 1106q0 -321 131 -515t385 -194q170 0 286.5 90t173 250
t56.5 369q0 344 -142 526.5t-374 182.5q-150 0 -267 -79.5t-183 -238.5t-66 -391z" />
    <glyph glyph-name="afii10083" unicode="&#xf1;" horiz-adv-x="2572" 
d="M1774 831h651q-50 -390 -253 -593.5t-425 -259.5t-416 -56q-285 0 -506.5 84t-368.5 239.5t-221.5 372.5t-74.5 480q0 281 98 548t369 455.5t745 188.5q367 0 591 -136.5t320.5 -331t116.5 -401.5h-635q-47 426 -417 426q-504 0 -504 -700q0 -450 150.5 -616t344.5 -166
q235 0 329.5 157.5t105.5 308.5z" />
    <glyph glyph-name="afii10083" unicode="&#x441;" horiz-adv-x="2572" 
d="M1774 831h651q-50 -390 -253 -593.5t-425 -259.5t-416 -56q-285 0 -506.5 84t-368.5 239.5t-221.5 372.5t-74.5 480q0 281 98 548t369 455.5t745 188.5q367 0 591 -136.5t320.5 -331t116.5 -401.5h-635q-47 426 -417 426q-504 0 -504 -700q0 -450 150.5 -616t344.5 -166
q235 0 329.5 157.5t105.5 308.5z" />
    <glyph glyph-name="afii10084" unicode="&#xf2;" horiz-adv-x="2232" 
d="M786 1765h-729v443h2118v-443h-729v-1765h-660v1765z" />
    <glyph glyph-name="afii10084" unicode="&#x442;" horiz-adv-x="2232" 
d="M786 1765h-729v443h2118v-443h-729v-1765h-660v1765z" />
    <glyph glyph-name="afii10085" unicode="&#xf3;" horiz-adv-x="2421" 
d="M414 -803v443q84 -29 213 -29q142 0 207 76.5t112 230.5l33 107l-963 2183h795l512 -1438l397 1438h701l-766 -2327q-77 -237 -156.5 -385.5t-230 -244t-391.5 -95.5q-222 0 -463 41z" />
    <glyph glyph-name="afii10085" unicode="&#x443;" horiz-adv-x="2421" 
d="M414 -803v443q84 -29 213 -29q142 0 207 76.5t112 230.5l33 107l-963 2183h795l512 -1438l397 1438h701l-766 -2327q-77 -237 -156.5 -385.5t-230 -244t-391.5 -95.5q-222 0 -463 41z" />
    <glyph glyph-name="afii10086" unicode="&#xf4;" horiz-adv-x="3690" 
d="M1516 -803v742q-555 12 -955.5 266t-400.5 913q0 644 403 891.5t953 247.5v782h659v-782q518 0 937 -236t419 -907q0 -204 -54 -399t-197 -368.5t-416.5 -287t-688.5 -120.5v-742h-659zM1565 381v1434h-115q-264 0 -447.5 -171t-183.5 -505q0 -451 237 -604.5t509 -153.5
zM2126 1815v-1434q310 0 527.5 176t217.5 578q0 680 -745 680z" />
    <glyph glyph-name="afii10086" unicode="&#x444;" horiz-adv-x="3690" 
d="M1516 -803v742q-555 12 -955.5 266t-400.5 913q0 644 403 891.5t953 247.5v782h659v-782q518 0 937 -236t419 -907q0 -204 -54 -399t-197 -368.5t-416.5 -287t-688.5 -120.5v-742h-659zM1565 381v1434h-115q-264 0 -447.5 -171t-183.5 -505q0 -451 237 -604.5t509 -153.5
zM2126 1815v-1434q310 0 527.5 176t217.5 578q0 680 -745 680z" />
    <glyph glyph-name="afii10087" unicode="&#xf5;" horiz-adv-x="2413" 
d="M1208 1520l406 688h762l-783 -1065l820 -1143h-758l-447 721l-446 -721h-762l823 1143l-782 1065h762z" />
    <glyph glyph-name="afii10087" unicode="&#x445;" horiz-adv-x="2413" 
d="M1208 1520l406 688h762l-783 -1065l820 -1143h-758l-447 721l-446 -721h-762l823 1143l-782 1065h762z" />
    <glyph glyph-name="afii10088" unicode="&#xf6;" horiz-adv-x="2810" 
d="M926 442h823v1766h659v-1766h361l-37 -1015h-561v573h-1905v2208h660v-1766z" />
    <glyph glyph-name="afii10088" unicode="&#x446;" horiz-adv-x="2810" 
d="M926 442h823v1766h659v-1766h361l-37 -1015h-561v573h-1905v2208h660v-1766z" />
    <glyph glyph-name="afii10089" unicode="&#xf7;" horiz-adv-x="2454" 
d="M172 2208h659v-643q0 -155 58 -235.5t291 -80.5q204 0 348 21v938h659v-2208h-659v827q-389 -20 -488 -20q-395 0 -586.5 110t-236.5 257.5t-45 357.5v676z" />
    <glyph glyph-name="afii10089" unicode="&#x447;" horiz-adv-x="2454" 
d="M172 2208h659v-643q0 -155 58 -235.5t291 -80.5q204 0 348 21v938h659v-2208h-659v827q-389 -20 -488 -20q-395 0 -586.5 110t-236.5 257.5t-45 357.5v676z" />
    <glyph glyph-name="afii10090" unicode="&#xf8;" horiz-adv-x="3944" 
d="M926 442h716v1766h660v-1766h717v1766h659v-2208h-3412v2208h660v-1766z" />
    <glyph glyph-name="afii10090" unicode="&#x448;" horiz-adv-x="3944" 
d="M926 442h716v1766h660v-1766h717v1766h659v-2208h-3412v2208h660v-1766z" />
    <glyph glyph-name="afii10091" unicode="&#xf9;" horiz-adv-x="4080" 
d="M926 442h716v1766h660v-1766h717v1766h659v-1766h361l-37 -1015h-561v573h-3175v2208h660v-1766z" />
    <glyph glyph-name="afii10091" unicode="&#x449;" horiz-adv-x="4080" 
d="M926 442h716v1766h660v-1766h717v1766h659v-1766h361l-37 -1015h-561v573h-3175v2208h660v-1766z" />
    <glyph glyph-name="afii10092" unicode="&#xfa;" horiz-adv-x="2769" 
d="M57 2208h1233v-807h418q375 0 660.5 -135t285.5 -590q0 -676 -799 -676h-1224v1765h-574v443zM1290 983v-565h299q164 0 274.5 55.5t110.5 226.5q0 283 -401 283h-283z" />
    <glyph glyph-name="afii10092" unicode="&#x44a;" horiz-adv-x="2769" 
d="M57 2208h1233v-807h418q375 0 660.5 -135t285.5 -590q0 -676 -799 -676h-1224v1765h-574v443zM1290 983v-565h299q164 0 274.5 55.5t110.5 226.5q0 283 -401 283h-283z" />
    <glyph glyph-name="afii10093" unicode="&#xfb;" horiz-adv-x="3494" 
d="M266 2208h660v-807h417q376 0 661.5 -135t285.5 -590q0 -676 -799 -676h-1225v2208zM926 983v-565h299q164 0 274.5 55.5t110.5 226.5q0 283 -402 283h-282zM2531 2208h697v-2208h-697v2208z" />
    <glyph glyph-name="afii10093" unicode="&#x44b;" horiz-adv-x="3494" 
d="M266 2208h660v-807h417q376 0 661.5 -135t285.5 -590q0 -676 -799 -676h-1225v2208zM926 983v-565h299q164 0 274.5 55.5t110.5 226.5q0 283 -402 283h-282zM2531 2208h697v-2208h-697v2208z" />
    <glyph glyph-name="afii10094" unicode="&#xfc;" horiz-adv-x="2404" 
d="M266 2208h660v-807h417q376 0 661.5 -135t285.5 -590q0 -676 -799 -676h-1225v2208zM926 983v-565h299q164 0 274.5 55.5t110.5 226.5q0 283 -402 283h-282z" />
    <glyph glyph-name="afii10094" unicode="&#x44c;" horiz-adv-x="2404" 
d="M266 2208h660v-807h417q376 0 661.5 -135t285.5 -590q0 -676 -799 -676h-1225v2208zM926 983v-565h299q164 0 274.5 55.5t110.5 226.5q0 283 -402 283h-282z" />
    <glyph glyph-name="afii10095" unicode="&#xfd;" horiz-adv-x="2626" 
d="M1036 913v402h766q-5 197 -104.5 373t-386.5 176q-231 0 -377.5 -121t-159.5 -326h-602q14 318 246.5 591t859.5 273q499 0 763 -201t344.5 -465t80.5 -538q0 -350 -131 -610t-395.5 -402.5t-653.5 -142.5q-472 0 -725.5 176.5t-329 375.5t-84.5 357h619
q13 -208 148 -349.5t372 -141.5q289 0 400.5 179.5t115.5 393.5h-766z" />
    <glyph glyph-name="afii10095" unicode="&#x44d;" horiz-adv-x="2626" 
d="M1036 913v402h766q-5 197 -104.5 373t-386.5 176q-231 0 -377.5 -121t-159.5 -326h-602q14 318 246.5 591t859.5 273q499 0 763 -201t344.5 -465t80.5 -538q0 -350 -131 -610t-395.5 -402.5t-653.5 -142.5q-472 0 -725.5 176.5t-329 375.5t-84.5 357h619
q13 -208 148 -349.5t372 -141.5q289 0 400.5 179.5t115.5 393.5h-766z" />
    <glyph glyph-name="afii10096" unicode="&#xfe;" horiz-adv-x="3752" 
d="M926 1376h315q24 257 169 465t399 326.5t587 118.5q282 0 504.5 -78.5t376 -228.5t234.5 -371.5t81 -501.5q0 -459 -190 -724.5t-461 -364.5t-553 -99q-424 0 -676 164t-356 389.5t-131 462.5h-299v-934h-660v2208h660v-832zM2388 360q520 0 520 746q0 741 -520 741
q-516 0 -516 -741q0 -746 516 -746z" />
    <glyph glyph-name="afii10096" unicode="&#x44e;" horiz-adv-x="3752" 
d="M926 1376h315q24 257 169 465t399 326.5t587 118.5q282 0 504.5 -78.5t376 -228.5t234.5 -371.5t81 -501.5q0 -459 -190 -724.5t-461 -364.5t-553 -99q-424 0 -676 164t-356 389.5t-131 462.5h-299v-934h-660v2208h660v-832zM2388 360q520 0 520 746q0 741 -520 741
q-516 0 -516 -741q0 -746 516 -746z" />
    <glyph glyph-name="afii10097" unicode="&#xff;" horiz-adv-x="2527" 
d="M1376 766l-438 -766h-745l557 795q-232 35 -411 193.5t-179 490.5q0 173 62 336t243 278t506 115h1290v-2208h-659v766h-226zM1602 1790h-349q-413 0 -413 -307q0 -169 106 -234t295 -65h361v606z" />
    <glyph glyph-name="afii10097" unicode="&#x44f;" horiz-adv-x="2527" 
d="M1376 766l-438 -766h-745l557 795q-232 35 -411 193.5t-179 490.5q0 173 62 336t243 278t506 115h1290v-2208h-659v766h-226zM1602 1790h-349q-413 0 -413 -307q0 -169 106 -234t295 -65h361v606z" />
    <glyph glyph-name="afii10059" unicode="&#x152;" horiz-adv-x="4858" 
d="M1040 1348v-1348h-716v3039h716v-1102h1106v1102h717v-1102h754q259 0 504.5 -81t415 -303.5t169.5 -610.5q0 -942 -1093 -942h-1467v1348h-1106zM2863 1348v-758h606q475 0 475 377q0 381 -495 381h-586z" />
    <glyph glyph-name="afii10107" unicode="&#x153;" horiz-adv-x="3858" 
d="M926 954v-954h-660v2208h660v-811h794v811h660v-807h413q226 0 427 -40.5t362.5 -201t161.5 -483.5q0 -676 -799 -676h-1225v954h-794zM2380 983v-565h295q171 0 280 55.5t109 226.5q0 283 -406 283h-278z" />
    <glyph glyph-name="afii10058" unicode="&#x160;" horiz-adv-x="5202" 
d="M57 0v590q90 -8 131 -8q241 0 366.5 128t166 339.5t45.5 539.5l20 1450h2249v-1102h758q431 0 672.5 -155t327 -378t85.5 -462q0 -499 -287 -720.5t-802 -221.5h-1471v2449h-856l-20 -1060q-7 -351 -73 -646t-311 -529t-726 -234q-110 0 -275 20zM3035 1348v-758h610
q471 0 471 377q0 381 -491 381h-590z" />
    <glyph glyph-name="afii10106" unicode="&#x161;" horiz-adv-x="3936" 
d="M57 -8v454q41 -8 111 -8q167 0 251 103t109.5 269t32.5 452l21 946h1880v-807h413q375 0 661 -135t286 -590q0 -676 -799 -676h-1221v1765h-590l-8 -495q-8 -390 -62.5 -665t-233.5 -462.5t-527 -187.5q-148 0 -324 37zM2462 983v-565h295q200 0 292.5 67t92.5 215
q0 283 -402 283h-278z" />
    <glyph glyph-name="afii10193" unicode="&#x178;" horiz-adv-x="2703" 
d="M1778 442v1766h659v-2208h-770v-803h-631v803h-770v2208h660v-1766h852z" />
    <glyph glyph-name="emdash" unicode="&#x2013;" horiz-adv-x="2916" 
d="M229 1692h2458v-344h-2458v344z" />
    <glyph glyph-name="endash" unicode="&#x2014;" horiz-adv-x="3899" 
d="M229 975v373h3441v-373h-3441z" />
    <glyph glyph-name="quoteleft" unicode="&#x2018;" horiz-adv-x="1634" 
d="M1176 2355v-688h-717v688q0 731 717 770v-344q-149 -4 -261 -99.5t-112 -305.5v-21h373z" />
    <glyph glyph-name="quoteright" unicode="&#x2019;" horiz-adv-x="1634" 
d="M459 2351v688h717v-688q0 -171 -42 -330t-201.5 -291.5t-473.5 -148.5v344q147 4 259.5 100t112.5 302v24h-372z" />
    <glyph glyph-name="quotesinglbase" unicode="&#x201a;" horiz-adv-x="1634" 
d="M459 0v688h717v-688q0 -108 -19.5 -224t-88.5 -242.5t-219.5 -214.5t-389.5 -89v344q147 4 259.5 99.5t112.5 301.5v25h-372z" />
    <glyph glyph-name="quotedblleft" unicode="&#x201c;" horiz-adv-x="2408" 
d="M2064 2355v-688h-716v688q0 731 716 770v-344q-148 -4 -260 -99.5t-112 -305.5v-21h372zM1061 2355v-688h-717v688q0 731 717 770v-344q-149 -4 -261 -99.5t-112 -305.5v-21h373z" />
    <glyph glyph-name="quotedblright" unicode="&#x201d;" horiz-adv-x="2408" 
d="M344 2351v688h717v-688q0 -171 -42 -330t-201.5 -291.5t-473.5 -148.5v344q89 2 175 41.5t142 129t56 231.5v24h-373zM1348 2351v688h716v-688q0 -288 -133.5 -516.5t-582.5 -253.5v344q88 2 174 41.5t142 129t56 231.5v24h-372z" />
    <glyph glyph-name="quotedblbase" unicode="&#x201e;" horiz-adv-x="2408" 
d="M344 0v688h717v-688q0 -108 -19.5 -224t-88.5 -242.5t-219.5 -214.5t-389.5 -89v344q89 2 174.5 41t142 129t56.5 231v25h-373zM1348 0v688h716v-688q0 -108 -18.5 -222.5t-88 -242.5t-220 -216t-389.5 -89v344q147 4 259.5 99t112.5 302v25h-372z" />
    <glyph glyph-name="dagger" unicode="&#x2020;" horiz-adv-x="2458" 
d="M885 3039h688v-831h774v-574h-774v-2437h-688v2437h-774v574h774v831z" />
    <glyph glyph-name="bullet" unicode="&#x2022;" horiz-adv-x="3039" 
d="M1090 1520q0 190 130.5 310t299.5 120q106 0 206 -53.5t162 -151t62 -225.5q0 -189 -131 -309.5t-299 -120.5q-129 0 -226 62t-150.5 162t-53.5 206z" />
    <glyph glyph-name="ellipsis" unicode="&#x2026;" horiz-adv-x="4903" 
d="M459 0v688h717v-688h-717zM2093 0v688h717v-688h-717zM3727 0v688h717v-688h-717z" />
    <glyph glyph-name="perthousand" unicode="&#x2030;" horiz-adv-x="6074" 
d="M877 0l1937 3039h446l-1937 -3039h-446zM229 2228q0 242 74.5 412.5t196 271.5t256 143t268.5 42q138 0 274 -42t256.5 -142t194.5 -270t74 -415q0 -174 -65 -372t-243.5 -347t-490.5 -149q-217 0 -398.5 94.5t-289 290.5t-107.5 483zM688 2228q0 -276 103.5 -400
t232.5 -124q126 0 233 124.5t107 399.5q0 278 -105.5 401.5t-234.5 123.5q-115 0 -225.5 -111.5t-110.5 -413.5zM2314 811q0 213 80.5 412.5t259.5 327.5t459 128q278 0 457 -128t260.5 -327.5t81.5 -412.5t-81.5 -412.5t-260.5 -327.5t-457 -128t-457 128t-260.5 327.5
t-81.5 412.5zM2773 811q0 -171 47 -289.5t125 -176.5t168 -58q129 0 234.5 122.5t105.5 401.5q0 276 -105.5 400t-234.5 124q-142 0 -241 -137t-99 -387zM4248 811q0 213 81 412t260 327.5t457 128.5t457 -128t260.5 -327.5t81.5 -412.5t-81.5 -412.5t-260.5 -327.5
t-457 -128t-457 128.5t-260 327.5t-81 412zM4706 811q0 -171 47 -289.5t125 -176.5t168 -58q129 0 234.5 122.5t105.5 401.5q0 276 -105.5 400t-234.5 124q-142 0 -241 -137t-99 -387z" />
    <glyph glyph-name="guilsinglleft" unicode="&#x2039;" horiz-adv-x="1200" 
d="M246 1466l651 594v-598l-356 -299l356 -303v-598l-651 590v614z" />
    <glyph glyph-name="guilsinglright" unicode="&#x203a;" horiz-adv-x="1200" 
d="M954 1466v-614l-651 -590v590l356 303l-356 303v602z" />
    <glyph glyph-name="trademark" unicode="&#x2122;" horiz-adv-x="4071" 
d="M561 2683h-475v356h1434v-356h-476v-1163h-483v1163zM2687 1520l-348 1032h-33l33 -197v-835h-484v1519h656l303 -930l20 -159h29l16 159l308 930h655v-1519h-483v835l32 197h-32l-348 -1032h-324z" />
    <glyph glyph-name="edieresis" horiz-adv-x="2687" 
d="M1815 639h667q-46 -178 -162 -336t-359.5 -267.5t-621.5 -109.5q-204 0 -462 68t-487.5 331.5t-229.5 780.5q0 264 82 478.5t240 369.5t387.5 239t519.5 84q371 0 627 -150t383.5 -425t127.5 -637v-98h-1687q0 -244 129 -433.5t399 -189.5q167 0 292.5 79t154.5 216z
M840 1311h1007q-3 243 -112.5 396t-354.5 153q-192 0 -310 -90.5t-169.5 -216t-60.5 -242.5zM401 2523v516h684v-516h-684zM1602 2523v516h684v-516h-684z" />
    <glyph glyph-name="minus" horiz-adv-x="2916" 
d="M229 1692h2458v-344h-2458v344z" />
    <glyph glyph-name="oe" horiz-adv-x="4383" 
d="M3506 639h668q-30 -162 -121.5 -295.5t-233.5 -225.5t-329.5 -142t-409.5 -50q-630 0 -868 373q-256 -381 -852 -381q-200 0 -401 51t-384.5 182t-299 367.5t-115.5 587.5q0 413 164.5 679.5t434 385.5t597.5 119q177 0 346.5 -45.5t306 -141t207.5 -239.5
q112 178 317.5 302t550.5 124q393 0 649.5 -174.5t373 -449t116.5 -581.5q0 -77 -4 -118h-1688q0 -221 116.5 -422t412.5 -201q170 0 293.5 79.5t152.5 215.5zM1360 360q520 0 520 746q0 282 -99 511.5t-421 229.5q-320 0 -418 -228.5t-98 -512.5q0 -746 516 -746z
M2531 1311h1008q-4 226 -107.5 387.5t-359.5 161.5q-262 0 -391 -166.5t-150 -382.5z" />
    <glyph glyph-name="OE" horiz-adv-x="5026" 
d="M2597 3039h2290v-590h-1688v-618h1487v-557h-1487v-684h1728v-590h-2330v291q-282 -377 -877 -377q-525 0 -872 224.5t-505.5 591t-158.5 790.5q0 369 106 668t306.5 509.5t486 321t641.5 110.5q234 0 482.5 -77.5t390.5 -290.5v278zM1720 504q486 0 624 334t138 682
q0 617 -236 816t-526 199q-287 0 -524.5 -199t-237.5 -816q0 -392 157.5 -704t604.5 -312z" />
    <glyph glyph-name="ae" horiz-adv-x="4141" 
d="M3269 639h667q-67 -298 -334 -505.5t-747 -207.5q-295 0 -497.5 74.5t-346.5 278.5q-224 -353 -848 -353q-958 0 -958 660q0 233 116.5 371t323.5 206.5t518 106.5q270 33 359.5 50.5t129 53.5t44.5 121v57q-13 295 -381 295q-235 0 -334.5 -104.5t-99.5 -247.5h-602
q52 770 1069 770q258 0 434 -72.5t282 -246.5q107 162 314.5 246.5t435.5 84.5q194 0 449.5 -68.5t486.5 -339.5t231 -804v-98h-1687q0 -221 116.5 -422t411.5 -201q170 0 294 79.5t153 215.5zM1704 819v234q-88 -46 -155.5 -64t-213.5 -43q-142 -24 -234.5 -53t-156 -95.5
t-63.5 -183.5q0 -92 71.5 -187t280.5 -95q211 0 341 134.5t130 352.5zM2294 1311h1007q-4 226 -107.5 387.5t-359.5 161.5q-262 0 -391.5 -167.5t-148.5 -381.5z" />
    <glyph glyph-name="AE" horiz-adv-x="4657" 
d="M2949 1831h1368v-557h-1368v-684h1610v-590h-2327v627h-1077l-332 -627h-864l1700 3039h2859v-590h-1569v-618zM2232 1217v1232h-114l-652 -1232h766z" />
    <glyph glyph-name="oslash" horiz-adv-x="2720" 
d="M274 0l197 238q-196 202 -253.5 439t-57.5 429q0 386 133.5 630.5t329.5 362t385.5 154.5t351.5 37q424 0 696 -172l213 254l193 -164l-205 -242q176 -165 239.5 -403.5t63.5 -456.5q0 -246 -65.5 -458t-207 -376.5t-373 -259t-554.5 -94.5q-427 0 -680 168l-213 -250z
M1835 1466l-815 -974q137 -132 340 -132q127 0 241.5 54.5t196.5 219.5t82 472q0 208 -45 360zM889 729l823 979q-134 139 -352 139q-127 0 -241 -55t-196.5 -221t-82.5 -465q0 -219 49 -377z" />
    <glyph glyph-name="ccedilla" horiz-adv-x="2572" 
d="M1774 831h651q-56 -439 -342.5 -674t-685.5 -235l-8 -49q130 -6 210 -79.5t80 -182.5q0 -299 -446 -299q-156 0 -266 12l28 180q98 -24 181 -24q225 0 225 131q0 110 -246 110h-16l32 205q-273 12 -505 149.5t-369 397.5t-137 625q0 281 98 548t369 455.5t745 188.5
q367 0 591 -136.5t320.5 -331t116.5 -401.5h-635q-47 426 -417 426q-504 0 -504 -700q0 -450 150.5 -616t344.5 -166q235 0 329.5 157.5t105.5 308.5z" />
    <glyph glyph-name="Ccedilla" horiz-adv-x="3166" 
d="M2339 1073h713q-45 -451 -265 -709.5t-489 -354t-520 -103.5l-13 -115q139 -12 223.5 -92.5t84.5 -198.5q0 -327 -496 -327q-158 0 -274 12l32 229q74 -28 201 -28q95 0 172.5 39t77.5 133q0 98 -230 98q-17 0 -33 -2t-28 -2h-41l37 258q-220 11 -440 80t-417.5 236.5
t-323.5 475t-126 760.5q0 496 158.5 869.5t487.5 581.5t817 208q521 0 824 -186t418.5 -437t129.5 -491h-705q-20 188 -156 356t-479 168q-361 0 -541 -278t-180 -762q0 -167 44.5 -386t210.5 -414t491 -195q225 0 363.5 95t198.5 224.5t73 257.5z" />
    <glyph glyph-name="acute" horiz-adv-x="1237" 
d="M594 3039h692l-459 -573h-532z" />
    <glyph glyph-name="caron" 
d="M434 2466h-868l-484 573h517l401 -401l401 401h517z" />
    <glyph glyph-name="circumflex" 
d="M-434 3039h868l484 -573h-517l-401 401l-401 -401h-517z" />
    <glyph glyph-name="dieresis" 
d="M-942 2523v516h680v-516h-680zM254 2523v516h684v-516h-684z" />
    <glyph glyph-name="tilde" 
d="M602 3039h402q-23 -121 -79 -247.5t-167.5 -218t-282.5 -91.5q-90 0 -161 18t-151 52.5t-192 81.5q-165 69 -266 69q-174 0 -192 -176h-402q36 219 172 382t357 163q132 0 222 -33t253 -110q167 -78 299 -78q92 0 138 57t50 131z" />
    <glyph glyph-name="macron" 
d="M-831 2605v373h1662v-373h-1662z" />
    <glyph glyph-name="breve" 
d="M-860 3039h483q0 -133 97.5 -212t279.5 -79t279.5 79t97.5 212h483q-17 -156 -100.5 -289.5t-270.5 -221t-489 -87.5t-489 87.5t-270.5 221t-100.5 289.5z" />
    <glyph glyph-name="ring" 
d="M-426 2814q0 188 126 307t296 119q187 0 306.5 -130t119.5 -296q0 -183 -130 -302.5t-296 -119.5q-170 0 -296 119t-126 303zM-197 2814q0 -73 51.5 -133t141.5 -60q85 0 141 60t56 133q0 66 -52 131.5t-145 65.5q-88 0 -140.5 -60t-52.5 -137z" />
    <glyph glyph-name="hungarumlaut" 
 />
    <glyph glyph-name="cedilla" 
d="M-414 -803l62 217q120 -32 209 -32q188 0 188 106q0 111 -229 111q-20 0 -34 -2.5t-24 -2.5h-49l58 201q45 4 122 4q276 0 396.5 -94.5t120.5 -232.5q0 -299 -500 -299q-142 0 -320 24z" />
    <glyph glyph-name="Edieresis" horiz-adv-x="2863" 
d="M1040 1831h1487v-557h-1487v-684h1725v-590h-2441v3039h2404v-590h-1688v-618zM741 3326v459h574v-459h-574zM1774 3326v459h573v-459h-573z" />
    <glyph glyph-name="zeroslash" 
 />
    <glyph glyph-name="star" horiz-adv-x="3510" 
d="M1425 1692l328 1036l324 -1036h1089l-876 -652l331 -1040l-868 651l-872 -651l340 1040l-877 652h1081zM1593 1462h-557l455 -336l-168 -508l430 320l430 -324l-164 512l451 336h-561l-156 500z" />
    <glyph glyph-name="divide" horiz-adv-x="2753" 
d="M1118 2191q0 115 78 186.5t180 71.5q107 0 180.5 -79t73.5 -179q0 -107 -80 -180.5t-174 -73.5q-90 0 -174 67t-84 187zM1118 696q0 111 77.5 184.5t180.5 73.5q106 0 180 -81.5t74 -176.5q0 -99 -71 -176.5t-183 -77.5q-116 0 -187 76.5t-71 177.5zM287 1278v344h2179
v-344h-2179z" />
    <glyph glyph-name="notequal" horiz-adv-x="2753" 
d="M287 1577v311h1208l385 668l197 -115l-320 -553h709v-311h-873l-168 -287h1041v-311h-1204l-390 -668l-196 115l319 553h-708v311h876l164 287h-1040z" />
    <glyph glyph-name="greaterequal" horiz-adv-x="2769" 
d="M2380 1434l-1905 -922l-102 250l1421 672l-1421 671l102 250zM2396 872l-1904 -921l-111 246l1905 921z" />
    <glyph glyph-name="lessequal" horiz-adv-x="2761" 
d="M377 1434l1904 921l107 -250l-1421 -671l1421 -672l-107 -250zM373 868l98 250l1909 -921l-103 -250z" />
    <glyph glyph-name="emptyset" horiz-adv-x="3105" 
d="M229 -164l398 471q-336 350 -336 852q0 235 89.5 462t257 408.5t402.5 286.5t512 105q401 0 672 -201l397 471l254 -209l-393 -475q332 -352 332 -848q0 -236 -89.5 -464t-255.5 -407t-402 -284.5t-515 -105.5q-390 0 -667 192l-385 -463zM848 573l1155 1381
q-181 123 -451 123q-266 0 -476.5 -129t-325.5 -342.5t-115 -446.5q0 -333 213 -586zM2257 1741l-1151 -1385q168 -114 446 -114q269 0 479.5 127.5t324.5 338.5t114 451q0 339 -213 582z" />
    <glyph glyph-name="dotmath" horiz-adv-x="1176" 
d="M229 1126v689h717v-689h-717z" />
    <glyph glyph-name="radical" 
 />
    <glyph glyph-name="cent" horiz-adv-x="2576" 
d="M1778 831h651q-26 -212 -130 -410.5t-303 -334.5t-489 -156v-503h-344v503q-208 15 -388 97.5t-319 233.5t-217.5 370t-78.5 495q0 438 166 694.5t392.5 355t444.5 110.5v467h344v-472q241 -13 438 -129t315.5 -307t139.5 -424h-635q-16 168 -110 297t-307 129
q-182 0 -294 -97.5t-161 -256t-49 -346.5q0 -345 129 -563.5t395 -218.5q127 0 255.5 89t154.5 377z" />
    <glyph glyph-name="approxequal" horiz-adv-x="2851" 
d="M336 1425l-148 66q143 290 289 460.5t359 170.5q157 0 405 -119q222 -109 520 -242q220 -94 279 -94q188 0 405 287q11 15 19 25t24.5 32t30.5 41l143 -61q-294 -652 -622 -652q-131 0 -308 61.5t-536 233.5q-304 144 -451 144q-84 0 -152 -44.5t-117 -109t-140 -199.5z
M336 578l-148 65q14 23 62 119q254 504 581 504q146 0 406 -119q692 -328 803 -328q212 0 418 303q19 30 61 82l143 -61q-270 -651 -622 -651q-234 0 -733 241q-401 197 -562 197q-130 0 -199 -72.5t-210 -279.5z" />
    <glyph glyph-name="adieresis" horiz-adv-x="2626" 
d="M938 1495h-631q7 203 102.5 375t326 283.5t612.5 111.5q447 0 669.5 -138t278 -307.5t55.5 -357.5l-8 -1007q0 -19 2 -53t2 -99q0 -225 127 -287v-16h-692l-58 217h-12q-143 -177 -362 -232t-379 -55q-470 0 -618 207t-148 420q0 259 132.5 404.5t332 205t493.5 95.5
q270 33 360 50.5t129 55t44 127.5v57q-13 295 -353 295q-229 0 -317 -106t-88 -246zM1700 913l4 140q-88 -46 -155.5 -64t-213.5 -43q-142 -24 -234.5 -53t-156 -95.5t-63.5 -183.5q0 -113 88 -195.5t252 -82.5q177 0 324 131t155 446zM373 2523v516h680v-516h-680z
M1569 2523v516h684v-516h-684z" />
    <glyph glyph-name="odieresis" horiz-adv-x="2724" 
d="M1360 -82q-279 0 -549.5 99.5t-460.5 365.5t-190 723q0 350 115 586.5t296.5 365.5t385 180.5t403.5 51.5q204 0 408 -51.5t384.5 -180t296 -365.5t115.5 -587q0 -349 -115.5 -587.5t-297.5 -368.5t-384.5 -181t-406.5 -51zM1360 360q520 0 520 746q0 282 -99 511.5
t-421 229.5q-320 0 -418 -228.5t-98 -512.5q0 -746 516 -746zM422 2523v516h680v-516h-680zM1618 2523v516h684v-516h-684z" />
    <glyph glyph-name="udieresis" horiz-adv-x="2654" 
d="M1757 0v266q-292 -327 -766 -327q-737 0 -737 884v1385h659v-1278q0 -212 69 -350t300 -138q216 0 331.5 142.5t115.5 382.5v1241h659v-2208h-631zM389 2523v516h680v-516h-680zM1585 2523v516h684v-516h-684z" />
    <glyph glyph-name="dotlessi" horiz-adv-x="1192" 
d="M266 2208h660v-2208h-660v2208z" />
    <glyph glyph-name="Oslash" horiz-adv-x="3441" 
d="M242 0l319 381q-136 159 -219.5 347.5t-120.5 386t-37 405.5q0 319 87 607.5t271 513.5t480 354.5t698 129.5q640 0 934 -262l352 430l222 -184l-365 -430q393 -430 393 -1159q0 -264 -65.5 -534.5t-235 -516.5t-475.5 -400.5t-760 -154.5q-622 0 -950 270l-307 -368z
M2384 2105l-1180 -1400q177 -201 516 -201q486 0 624 336t138 680q0 362 -98 585zM1049 963l1171 1392q-169 180 -500 180q-413 0 -587.5 -286.5t-174.5 -728.5q0 -353 91 -557z" />
    <glyph glyph-name="Adieresis" horiz-adv-x="2925" 
d="M1098 3039h725l1143 -3039h-758l-197 569h-1102l-192 -569h-758zM1065 1085h790l-393 1160zM659 3326v459h574v-459h-574zM1692 3326v459h573v-459h-573z" />
    <glyph glyph-name="Odieresis" horiz-adv-x="3441" 
d="M1720 -86q-402 0 -697.5 129.5t-480 354t-271.5 513t-87 609.5t87 609.5t271.5 513t478.5 353.5t699 129q406 0 701 -128.5t479 -352t270 -512t86 -612.5t-86 -612t-270 -512t-481 -353t-699 -129zM1720 504q486 0 624 334t138 682q0 617 -236 816t-526 199
q-287 0 -524.5 -199t-237.5 -816q0 -392 157.5 -704t604.5 -312zM918 3326v459h573v-459h-573zM1950 3326v459h573v-459h-573z" />
    <glyph glyph-name="Udieresis" horiz-adv-x="3203" 
d="M287 3039h717v-1773q0 -259 55.5 -422t186 -245.5t356.5 -82.5q223 0 353.5 81t187.5 245t57 424v1773h716v-1888q0 -173 -30.5 -355t-155 -387t-400.5 -346t-728 -141q-1315 0 -1315 1229v1888zM799 3326v459h573v-459h-573zM1831 3326v459h573v-459h-573z" />
    <glyph glyph-name="Acute" 
 />
    <glyph glyph-name="Grave" horiz-adv-x="2507" 
d="M926 1364l299 299l495 545h774l-839 -893l893 -1315h-791l-586 926l-245 -234v-692h-660v2208h660v-844z" />
    <glyph glyph-name="Caron" horiz-adv-x="3981" 
d="M1663 -803v991q-209 -258 -586 -258q-268 0 -477 140.5t-324.5 404t-115.5 610.5q0 386 122 653.5t335.5 401t484.5 133.5q358 0 561 -258v1024h659l-4 -1024q204 258 566 258q200 0 371.5 -74.5t298.5 -222.5t197.5 -373.5t70.5 -517.5q0 -347 -115.5 -610.5t-325 -404
t-477.5 -140.5q-387 0 -582 258v-991h-659zM844 1110q0 -385 138 -557t312 -172q163 0 296.5 161t133.5 576q0 350 -127 511t-303 161q-177 0 -313.5 -144.5t-136.5 -535.5zM3138 1110q0 391 -136.5 535.5t-314.5 144.5q-176 0 -303 -161t-127 -511q0 -414 134 -575.5
t296 -161.5q175 0 313 172t138 557z" />
    <glyph glyph-name="Circumflex" 
 />
    <glyph glyph-name="Dieresis" 
d="M-803 3326v459h574v-459h-574zM229 3326v459h574v-459h-574z" />
    <glyph glyph-name="Tilde" 
 />
    <glyph glyph-name="Macron" 
 />
    <glyph glyph-name="Brieve" 
 />
    <glyph glyph-name="Ring" 
 />
    <glyph glyph-name="Hungarumlaut" 
 />
    <glyph glyph-name="dotaccent" 
 />
    <glyph glyph-name="exclamdown" horiz-adv-x="1667" 
d="M1208 -803h-749v766l188 1270h373l188 -1270v-766zM1192 2208v-688h-717v688h717z" />
    <glyph glyph-name="questiondown" horiz-adv-x="2527" 
d="M1679 135h676q-1 -290 -86 -488.5t-235.5 -312.5t-347 -160t-437.5 -46q-228 0 -420 43.5t-342 139t-232.5 245t-82.5 358.5q0 207 78.5 357.5t186 243t268.5 198.5q158 98 238.5 204t80.5 316h545q4 -45 4 -123q0 -192 -53 -320t-132.5 -206.5t-211.5 -173.5
q-157 -108 -240.5 -209.5t-83.5 -249.5q0 -206 138 -265t263 -59q426 0 426 508zM1655 2208v-688h-717v688h717z" />
    <glyph glyph-name="sterling" horiz-adv-x="2687" 
d="M2265 733l307 -471q-208 -177 -349.5 -254.5t-326.5 -77.5q-231 0 -581 144q-206 82 -361 82q-228 0 -413 -168l-324 491q183 141 280 277t97 301q0 80 -37 205h-442v344h278q-160 285 -160 536q0 198 74 371t221.5 305t363 205.5t488.5 73.5q648 0 930 -385
q193 -261 193 -725h-656q4 28 4 86q0 218 -113.5 373t-353.5 155q-206 0 -334 -134t-128 -370q0 -111 29 -184t98 -201q18 -33 34.5 -63t22.5 -43h586v-344h-496q8 -66 8 -107q0 -293 -209 -479l9 -17q109 46 270 46q114 0 328 -82q204 -82 303 -82q209 0 360 192z" />
    <glyph glyph-name="germandbls" horiz-adv-x="2654" 
d="M266 0v2167q0 301 112.5 491t279.5 282t328.5 120t311.5 28q262 0 475.5 -79.5t340.5 -247.5t127 -418q0 -386 -357 -541v-8q262 -57 450.5 -255.5t188.5 -608.5q0 -224 -66.5 -400.5t-196.5 -302.5t-313.5 -191t-410.5 -65q-171 0 -365 29v442q98 -28 189 -28
q224 0 351.5 138.5t127.5 393.5q0 272 -145.5 392t-444.5 120h-78v443h70q389 0 389 393q0 112 -67 232t-260 120q-159 0 -240.5 -75.5t-109 -208t-27.5 -339.5v-2023h-660z" />
    <glyph glyph-name="minute" horiz-adv-x="1040" 
d="M913 3039l-536 -831h-230l250 831h516z" />
    <glyph glyph-name="second" horiz-adv-x="1802" 
d="M913 3039l-536 -831h-230l250 831h516zM1675 3039l-532 -831h-230l246 831h516z" />
    <glyph glyph-name="multiply" horiz-adv-x="3039" 
d="M487 729l791 791l-791 790l242 242l791 -791l790 791l242 -242l-791 -790l791 -791l-242 -242l-790 791l-791 -791z" />
    <glyph glyph-name="afii10051" horiz-adv-x="3961" 
d="M1126 0v2449h-917v590h2552v-590h-918v-647q335 33 684 33q240 0 480 -61t435 -279.5t195 -638.5q0 -338 -140.5 -549t-368 -302t-494.5 -91q-193 0 -389 66v536q103 -29 200 -29q169 0 299.5 77t130.5 288q0 246 -147 319.5t-401 73.5q-226 0 -484 -33v-1212h-717z" />
    <glyph glyph-name="afii10060" horiz-adv-x="3916" 
d="M3592 0h-717v733q0 255 -98.5 383.5t-433.5 128.5q-267 0 -500 -33v-1212h-717v2449h-917v590h2552v-590h-918v-647q354 33 684 33q335 0 549.5 -67.5t324.5 -187t150.5 -279.5t40.5 -371v-930z" />
    <glyph glyph-name="afii10145" horiz-adv-x="3228" 
d="M2187 590v2449h717v-3039h-975v-688h-631v688h-974v3039h716v-2449h1147z" />
    <glyph glyph-name="afii10099" horiz-adv-x="2765" 
d="M1004 3039v-258h1032v-258h-1032v-557q303 303 745 303q272 0 432 -118.5t228.5 -310t85 -403.5t16.5 -528q0 -397 -32.5 -684.5t-141 -522.5t-330 -370t-582.5 -135v443h70q210 0 273 258t63 716v283q0 255 -14.5 408.5t-55 257.5t-117 153t-198.5 49
q-225 0 -333.5 -144.5t-108.5 -379.5v-1241h-660v2523h-344v258h344v258h660z" />
    <glyph glyph-name="afii10108" horiz-adv-x="2732" 
d="M1004 3039v-258h1032v-258h-1032v-557q274 303 745 303q197 0 359 -72.5t266 -268.5t104 -544v-1384h-659v1278q0 198 -66.5 342.5t-306.5 144.5q-225 0 -333.5 -144.5t-108.5 -379.5v-1241h-660v2523h-344v258h344v258h660z" />
  </font>
</defs>
</svg>
